<?xml version="1.0" encoding="UTF-8"?>
<svg id="Layer_2" data-name="Layer 2" xmlns="http://www.w3.org/2000/svg" viewBox="0 0 22.32 11.31">
  <defs>
    <style>
      .cls-1 {
        fill: #ffcaa6;
      }

      .cls-1, .cls-2, .cls-3, .cls-4 {
        stroke-width: 0px;
      }

      .cls-5, .cls-3 {
        isolation: isolate;
      }

      .cls-2 {
        fill: #ff7171;
      }

      .cls-3 {
        fill: #fff;
        opacity: .5;
      }

      .cls-4 {
        fill: #2d2d2d;
      }
    </style>
  </defs>
  <path class="cls-1" d="M2.57,8.74C1.32,3.79,6.03.33,13.47.52c3.81.09,7.28,5.09,6.75,7.75-.65,3.27-5.61,2.21-9.24,2.19s-7.62,1.36-8.4-1.72c0,0,0,0-.01,0Z"/>
  <rect class="cls-3" x=".87" width="20.58" height="11.31" rx="1.81" ry="1.81"/>
  <g class="cls-5">
    <g class="cls-5">
      <g class="cls-5">
        <path class="cls-4" d="M7.58,5.05c.09.89.18,1.78.27,2.67-.1,0-.2.02-.29.03-.03-.06-.06-.12-.1-.17-.07.08-.14.14-.23.2-.09.05-.19.08-.32.1-.13.02-.25,0-.36-.02-.11-.03-.22-.08-.31-.15-.09-.07-.17-.16-.23-.26-.06-.1-.1-.22-.12-.34-.02-.13-.02-.25.01-.37.03-.12.08-.23.15-.32.07-.09.16-.17.26-.24.11-.06.23-.1.36-.12.13-.02.25-.01.36.02.1.03.2.07.28.14-.04-.37-.08-.74-.12-1.11.13-.02.27-.03.4-.04ZM6.89,7.55c.08-.01.15-.03.21-.06.06-.03.12-.08.16-.13.04-.06.08-.12.1-.2.02-.08.02-.17.01-.27-.01-.11-.04-.2-.07-.27-.04-.07-.09-.13-.14-.17-.06-.04-.12-.07-.19-.08-.07-.01-.15-.01-.23,0-.08.01-.15.03-.21.07-.07.04-.12.09-.16.15-.04.06-.07.13-.09.21-.02.08-.02.16,0,.24.01.08.04.16.08.23.04.07.09.13.14.17.06.05.12.08.19.11.07.02.14.03.22.02Z"/>
        <path class="cls-4" d="M9.12,7.65c-.13,0-.25,0-.36-.05-.11-.04-.22-.1-.31-.17-.09-.08-.17-.17-.22-.28-.06-.11-.09-.22-.11-.35-.01-.13,0-.25.04-.36.04-.12.1-.22.18-.31.08-.09.18-.16.29-.22.11-.06.24-.09.37-.1.13,0,.26,0,.38.05.12.04.23.1.32.18.09.08.16.17.22.29.05.11.08.23.09.36,0,.13-.02.25-.06.36-.05.12-.11.22-.19.3-.08.09-.18.16-.29.21-.11.05-.23.08-.35.09ZM9.02,6.13c-.08,0-.15.03-.22.06-.07.04-.12.08-.17.14-.05.06-.08.12-.11.2-.02.08-.03.16-.03.24,0,.08.03.16.06.23.03.07.08.13.13.18.05.05.12.09.19.12.07.03.14.04.22.03.08,0,.15-.02.21-.06.07-.04.12-.08.17-.14.05-.06.08-.12.11-.2.03-.08.04-.15.03-.24,0-.08-.02-.16-.05-.23-.03-.07-.08-.13-.13-.19-.05-.05-.12-.09-.19-.12-.07-.03-.15-.04-.22-.04Z"/>
        <path class="cls-4" d="M11.58,7.39c-.07.05-.14.1-.23.14-.09.04-.18.05-.29.05-.07,0-.14,0-.23-.03-.08-.02-.16-.05-.24-.11-.07-.05-.14-.13-.19-.22-.05-.09-.08-.21-.08-.37,0-.36-.02-.71-.03-1.07.12,0,.25,0,.37,0,0,.36.01.71.02,1.07,0,.08.01.14.04.19.03.05.06.09.1.12.04.03.09.05.14.07.05.02.1.02.16.02.04,0,.09,0,.14-.02.05-.01.1-.04.15-.07.05-.03.09-.07.12-.12.03-.05.05-.11.05-.19,0-.36,0-.71.01-1.07.13,0,.26,0,.39,0-.01.59-.03,1.17-.04,1.76-.1,0-.2,0-.3,0-.02-.05-.05-.11-.08-.16Z"/>
        <path class="cls-4" d="M13.23,7.52c-.13,0-.24-.04-.35-.09-.11-.05-.2-.12-.27-.2-.08-.08-.14-.18-.18-.28-.04-.11-.06-.22-.06-.34,0-.12.03-.23.08-.33.05-.1.12-.19.2-.26.09-.07.19-.13.3-.17.11-.04.24-.05.37-.04.13,0,.25.04.35.08.1.04.18.1.25.18.03-.06.06-.11.09-.17.1,0,.2.02.31.03,0,0,0,.02,0,.03,0,.01,0,.03,0,.06,0,.03,0,.08-.01.14,0,.06-.01.14-.02.24,0,.1-.02.23-.03.38-.01.15-.03.34-.05.56,0,.07-.02.14-.03.21-.01.07-.03.13-.05.2-.02.06-.05.12-.09.18-.04.06-.09.11-.14.16-.11.09-.23.15-.36.18-.13.03-.26.03-.4.03-.12,0-.23-.03-.34-.06-.11-.03-.2-.08-.28-.13,0-.13.01-.26.02-.39.05.07.12.13.23.18.1.05.23.08.36.09.09,0,.18,0,.26-.02.08-.02.15-.05.21-.09.06-.04.11-.1.15-.18.04-.07.07-.16.07-.27,0-.02,0-.05,0-.07-.03.02-.07.05-.12.07-.05.02-.1.04-.15.05-.05.01-.11.03-.17.03-.06,0-.11,0-.16,0ZM13.35,6.14c-.08,0-.15,0-.22.03-.07.02-.13.06-.19.1-.05.05-.1.1-.13.16-.03.06-.05.13-.05.2,0,.07,0,.14.03.21.03.07.06.12.11.17.05.05.11.09.17.12.07.03.14.05.21.05.08,0,.15,0,.22-.02.07-.02.13-.05.18-.09.05-.04.09-.09.13-.16.03-.06.06-.14.06-.23,0-.09,0-.18-.02-.25-.02-.07-.06-.13-.11-.17-.05-.05-.11-.08-.17-.1-.07-.02-.14-.04-.22-.04Z"/>
        <path class="cls-4" d="M15.02,7.77c-.12-.01-.25-.03-.37-.04.09-.89.19-1.78.28-2.66.13.01.27.03.4.05-.04.36-.09.72-.13,1.07.08-.06.16-.11.24-.13.08-.02.18-.02.28-.01.13.02.25.06.35.12.1.06.18.14.24.23.06.09.1.2.12.32.02.12.02.24,0,.36-.05.29-.09.58-.14.87-.12-.02-.25-.04-.37-.06.04-.29.08-.58.13-.87.01-.08.01-.16,0-.24-.02-.08-.04-.14-.08-.2-.04-.06-.08-.11-.13-.15-.05-.04-.11-.06-.18-.07-.06,0-.11,0-.17,0-.06.01-.11.04-.17.08-.05.04-.1.1-.14.17-.04.07-.06.16-.08.27-.03.29-.07.59-.1.88Z"/>
      </g>
    </g>
  </g>
  <rect class="cls-2" width="22.32" height="2.82" rx=".72" ry=".72"/>
</svg>