<?xml version="1.0" encoding="UTF-8"?>
<svg id="Layer_2" data-name="Layer 2" xmlns="http://www.w3.org/2000/svg" viewBox="0 0 14 30.33">
  <defs>
    <style>
      .cls-1 {
        fill: #8da6ff;
      }

      .cls-1, .cls-2, .cls-3, .cls-4 {
        stroke-width: 0px;
      }

      .cls-2 {
        fill: #43439e;
      }

      .cls-5 {
        isolation: isolate;
      }

      .cls-3 {
        fill: #fff;
      }

      .cls-4 {
        fill: #678bef;
      }
    </style>
  </defs>
  <g id="Layer_1-2" data-name="Layer 1-2">
    <g>
      <rect class="cls-1" y="7" width="14" height="23.33"/>
      <polygon class="cls-4" points="14 7 0 7 2.33 2.33 11.67 2.33 14 7"/>
      <rect class="cls-1" x="2.33" width="9.33" height="2.33"/>
      <rect class="cls-3" y="12.83" width="14" height="8.17"/>
      <g class="cls-5">
        <path class="cls-2" d="M1.91,19.3h-.71v-3.49h.56l.15.3c.09-.1.19-.19.31-.27.12-.08.27-.11.44-.11.07,0,.14,0,.23.03.08.02.17.05.26.09s.18.1.26.17.15.16.21.27c.08-.15.21-.28.38-.39s.35-.16.53-.16c.13,0,.26.02.4.06.14.04.27.11.39.22.12.11.22.25.3.44s.12.43.12.74v2.11h-.66v-2.12c0-.3-.06-.51-.19-.63-.12-.12-.29-.18-.49-.18-.16,0-.29.07-.41.2-.12.13-.17.34-.17.62v2.11h-.66v-2.12c0-.3-.06-.51-.19-.63-.12-.12-.29-.18-.49-.18-.15,0-.27.06-.38.17-.11.11-.17.29-.19.52v2.24Z"/>
        <path class="cls-2" d="M6.96,15.06c-.13,0-.23-.04-.32-.13s-.13-.2-.13-.32.04-.23.13-.32c.09-.09.19-.13.32-.13s.23.04.32.13c.09.09.13.19.13.32s-.04.23-.13.32-.19.13-.32.13ZM7.32,19.3h-.71v-3.49h.71v3.49Z"/>
        <path class="cls-2" d="M8.85,13.99v5.31h-.71v-5.31h.71Z"/>
        <path class="cls-2" d="M10.4,19.3h-.71v-5.31h.71v3.26l1.37-1.43h.87l-1.34,1.41,1.44,2.08h-.8l-1.1-1.6-.44.47v1.14Z"/>
      </g>
    </g>
  </g>
</svg>