<?xml version="1.0" encoding="UTF-8"?>
<svg id="Layer_2" data-name="Layer 2" xmlns="http://www.w3.org/2000/svg" viewBox="0 0 24.42 14.23">
  <defs>
    <style>
      .cls-1 {
        fill: #ea3d3d;
      }

      .cls-1, .cls-2, .cls-3, .cls-4, .cls-5 {
        stroke-width: 0px;
      }

      .cls-6 {
        isolation: isolate;
      }

      .cls-2 {
        fill: #dadde5;
      }

      .cls-3 {
        fill: #fff;
      }

      .cls-4 {
        fill: #ff5a5a;
      }

      .cls-5 {
        fill: #675c8e;
      }
    </style>
  </defs>
  <g id="Layer_1-2" data-name="Layer 1-2">
    <g>
      <rect class="cls-2" width="24.42" height="14.23" rx="3.59" ry="3.59"/>
      <rect class="cls-3" x=".7" y=".88" width="22.84" height="12.49" rx="2.92" ry="2.92"/>
      <circle class="cls-4" cx="6.7" cy="7.36" r="4.84"/>
      <circle class="cls-1" cx="13.01" cy="6.52" r="4.84"/>
      <circle class="cls-4" cx="18.47" cy="7.78" r="4.84"/>
      <rect class="cls-5" x="4.33" y="6.37" width="14.99" height="3.51"/>
      <g class="cls-6">
        <path class="cls-3" d="M6.6,8.87h-.19v-1.78h.24v.74s.1-.09.16-.11c.06-.03.13-.04.21-.04s.16.02.23.05c.07.03.13.08.18.13.05.06.09.12.12.2s.04.15.04.24-.01.16-.04.24c-.03.07-.07.14-.12.2-.05.05-.11.1-.18.13-.07.03-.14.05-.23.05-.08,0-.15-.01-.21-.04-.06-.03-.12-.06-.16-.11l-.05.12ZM7,7.89s-.09,0-.13.02c-.04.01-.08.04-.11.07-.03.03-.06.07-.07.12-.02.05-.03.11-.03.19,0,.07,0,.13.03.18.02.05.04.09.07.13s.07.06.11.07c.04.02.09.02.13.02s.09-.01.13-.03c.04-.02.08-.05.11-.09.03-.04.06-.08.07-.13.02-.05.03-.1.03-.16s0-.11-.03-.16c-.02-.05-.04-.09-.07-.13s-.07-.06-.11-.08-.09-.03-.13-.03Z"/>
        <path class="cls-3" d="M8.38,8.9c-.08,0-.16-.02-.24-.05-.07-.03-.14-.08-.19-.13-.06-.06-.1-.12-.13-.2-.03-.08-.05-.16-.05-.24s.02-.16.04-.24c.03-.08.07-.14.12-.2s.11-.1.18-.13c.07-.03.14-.05.22-.05s.15.01.22.04c.07.03.13.07.18.13.05.06.09.13.12.22.03.09.04.2.04.32h-.87s.03.08.05.12c.02.04.05.07.09.1.03.03.07.05.11.06s.08.02.13.02c.06,0,.12-.01.17-.03.05-.02.1-.05.14-.09l.15.15c-.06.06-.13.1-.21.14-.08.03-.17.05-.27.05ZM8.34,7.89s-.07,0-.11.02-.06.04-.09.06c-.03.03-.05.06-.07.09-.02.04-.04.08-.04.12h.62s-.01-.08-.03-.11c-.01-.04-.04-.07-.06-.09-.03-.03-.06-.05-.09-.06-.04-.01-.08-.02-.12-.02Z"/>
        <path class="cls-3" d="M9.68,8.9c-.08,0-.16-.02-.24-.05-.07-.03-.14-.08-.19-.13-.06-.06-.1-.12-.13-.2-.03-.08-.05-.16-.05-.24s.02-.16.04-.24c.03-.08.07-.14.12-.2s.11-.1.18-.13c.07-.03.14-.05.22-.05s.15.01.22.04c.07.03.13.07.18.13.05.06.09.13.12.22.03.09.04.2.04.32h-.87s.03.08.05.12c.02.04.05.07.09.1.03.03.07.05.11.06s.08.02.13.02c.06,0,.12-.01.17-.03.05-.02.1-.05.14-.09l.15.15c-.06.06-.13.1-.21.14-.08.03-.17.05-.27.05ZM9.63,7.89s-.07,0-.11.02-.06.04-.09.06c-.03.03-.05.06-.07.09-.02.04-.04.08-.04.12h.62s-.01-.08-.03-.11c-.01-.04-.04-.07-.06-.09-.03-.03-.06-.05-.09-.06-.04-.01-.08-.02-.12-.02Z"/>
        <path class="cls-3" d="M10.58,8.87v-.96h-.2v-.16l.2-.05v-.14c0-.08.01-.15.03-.22.02-.06.05-.11.09-.15.04-.04.08-.07.13-.09.05-.02.1-.03.15-.03.07,0,.13.01.2.04v.17c-.06-.02-.11-.03-.15-.03-.07,0-.12.02-.15.06s-.06.11-.06.2v.18h.36v.21h-.36v.96h-.24Z"/>
        <path class="cls-3" d="M11.98,9.35v-1.65h.19l.05.12s.1-.08.16-.11c.06-.03.13-.04.21-.04.08,0,.16.02.23.05.07.03.13.08.18.13.05.06.09.12.12.2.03.08.04.15.04.24s-.01.16-.04.24c-.03.07-.07.14-.12.2-.05.05-.11.1-.18.13-.07.03-.15.05-.23.05s-.15-.01-.21-.04c-.06-.03-.11-.07-.16-.12v.61h-.23ZM12.56,7.89s-.09,0-.13.02c-.04.02-.08.04-.11.07-.03.03-.06.08-.07.12-.02.05-.03.11-.03.18,0,.07,0,.14.03.19.02.05.04.09.07.12.03.03.07.06.11.07s.09.02.13.02.09-.01.13-.03c.04-.02.08-.05.11-.09.03-.04.06-.08.07-.13.02-.05.03-.1.03-.16s0-.11-.03-.16c-.02-.05-.04-.09-.07-.13-.03-.04-.07-.06-.11-.08-.04-.02-.09-.03-.13-.03Z"/>
        <path class="cls-3" d="M14.46,7.7v1.17h-.2l-.04-.13c-.04.05-.09.09-.16.12-.06.03-.13.04-.19.04-.08,0-.16-.02-.23-.05-.07-.03-.13-.08-.19-.13-.05-.06-.1-.12-.13-.2-.03-.08-.05-.16-.05-.24s.02-.16.05-.24.07-.14.13-.2.11-.1.19-.13c.07-.03.15-.05.23-.05.07,0,.13.01.19.04.06.03.11.07.16.12l.04-.13h.2ZM13.88,8.69s.09-.01.13-.03c.04-.02.08-.05.11-.09.03-.04.06-.08.07-.13s.03-.1.03-.16,0-.11-.03-.16-.04-.09-.07-.13c-.03-.04-.07-.07-.11-.09-.04-.02-.09-.03-.13-.03s-.09,0-.13.03c-.04.02-.08.05-.11.09-.03.04-.06.08-.07.13s-.03.1-.03.16,0,.11.03.16.04.09.07.13c.03.04.07.07.11.09.04.02.09.03.13.03Z"/>
        <path class="cls-3" d="M15.14,8.91c-.07,0-.12,0-.17-.03-.05-.02-.1-.07-.13-.12-.03-.06-.05-.14-.05-.25v-.59h-.17v-.16l.17-.05v-.31h.24v.31h.32v.21h-.32v.63s0,.07.01.09c0,.02.02.04.04.05s.05.02.08.02c.04,0,.08,0,.12,0l.05.17c-.07.02-.13.04-.2.04Z"/>
        <path class="cls-3" d="M15.98,8.91c-.07,0-.12,0-.18-.03-.05-.02-.09-.07-.13-.12-.03-.06-.05-.14-.05-.25v-.59h-.17v-.16l.17-.05v-.31h.24v.31h.32v.21h-.32v.63s0,.07.01.09c0,.02.02.04.04.05s.05.02.08.02.08,0,.12,0l.05.17c-.07.02-.13.04-.2.04Z"/>
        <path class="cls-3" d="M16.76,8.74l-.5-1.04h.26l.36.76.35-.76h.26l-.75,1.63h-.26l.27-.6Z"/>
      </g>
    </g>
  </g>
</svg>