<?xml version="1.0" encoding="UTF-8"?>
<svg id="Layer_1" data-name="Layer 1" xmlns="http://www.w3.org/2000/svg" viewBox="0 0 432 293">
  <defs>
    <style>
      .cls-1 {
        fill: #ef6565;
      }

      .cls-1, .cls-2, .cls-3, .cls-4, .cls-5, .cls-6, .cls-7, .cls-8, .cls-9, .cls-10, .cls-11, .cls-12, .cls-13, .cls-14, .cls-15, .cls-16, .cls-17, .cls-18, .cls-19, .cls-20 {
        stroke-width: 0px;
      }

      .cls-2 {
        fill: #e0e0e0;
      }

      .cls-3 {
        fill: #75d175;
      }

      .cls-4 {
        fill: #565656;
      }

      .cls-21 {
        isolation: isolate;
      }

      .cls-5 {
        fill: #ffc7e8;
      }

      .cls-6 {
        fill: #3d3d3d;
      }

      .cls-7 {
        fill: #e5e5e5;
      }

      .cls-8 {
        fill: #68a57c;
      }

      .cls-9 {
        fill: #ffdc8d;
      }

      .cls-10 {
        fill: #6b4343;
      }

      .cls-11 {
        fill: #fffbfa;
      }

      .cls-12 {
        fill: #4b4d6b;
      }

      .cls-13 {
        fill: #ffb278;
      }

      .cls-14 {
        fill: #ff3939;
      }

      .cls-15 {
        fill: #ea4949;
      }

      .cls-16 {
        fill: #ffd9b0;
      }

      .cls-17 {
        fill: #ce3e3e;
      }

      .cls-22 {
        fill: #fec;
        stroke: #ff3717;
        stroke-miterlimit: 10;
        stroke-width: 2.5px;
      }

      .cls-18 {
        fill: #fff;
      }

      .cls-19 {
        fill: #ffa1af;
      }

      .cls-20 {
        fill: #d8d8d8;
      }
    </style>
  </defs>
  <g id="Layer_1-2" data-name="Layer 1-2">
    <rect class="cls-12" width="432" height="293"/>
    <path class="cls-1" d="M248.09,244c10.67-1.11,32.2,1.03,46.37,3.09l16.9,1.61c3.32.32,6.61.83,9.86,1.54,9.47,2.07,29.38,6.72,36.64,10.76h0c.96.35,2.47-140.57,12.33-194.29-35.6-1.96-60.92,1.03-86.66.53-58.61-1.14-100.46,9.41-114.25-.53-25.71-18.53-110.3,5.96-110.3,5.96,0,3.98,3.94,53.67,3.94,53.67,0,0,1.97,41.74,1.97,67.58,0,15.9,3.94,43.73,3.94,63.61,17.87-1.98,50.33-7.79,63.83-8.38,22.18-.97,34.01-2.48,47.07-1.65,12.79.82,30.94,1.17,38.46,2.68,14.26-1.79,17.71-4.91,29.88-6.18h.02Z"/>
    <path class="cls-20" d="M81.16,248.12s40.67-8.47,72.58-8.47c7.92,0,31.42.98,37.68,1.25,23.7,1.03,20.19,2.68,39.16-2.06,8.24-2.06,12.61-1.82,15.46-2.06,6.79-.57,13.39,0,20.61,0,13.98,0,39.28,1.74,40.19,2.06.4.14,28.47,3.7,41.22,9.27,0,0-2.06-19.58,1.03-28.85-39.77-1.49-84.18-2.52-123.95-4.01-29.19-1.09-58.39-2.19-87.6-2.65-7.83-.13-15.66.24-23.47.91-5.68.49-15.86.9-24.66,6.89-1.06.72-9.17,4.44-9.27,2.98-.17-2.32,1.03,24.73,1.03,24.73h-.01Z"/>
    <path class="cls-19" d="M350.05,35.11c.34-.02.54.36.34.63-1.37,1.85-2.61,3.79-3.69,5.82-1.22,2.27-2.25,4.63-3.28,6.99-2.19,5.04-4.39,10.07-6.58,15.11-.18.41-.38.85-.76,1.09-.49.31-1.13.2-1.69.07-10.81-2.31-21.78-3.88-32.8-4.71-1.45-2.32-2.04-3.26-3.49-5.58,3.98-10.37,7.9-20.92,14.22-30.07,1.71-2.48,10.9,17.15,11.61,17.31,1.31.28,4.66-1.52,5.94-1.98,1.98-.72,5.98-2.23,8.02-2.76,3.99-1.03,8.07-1.67,12.18-1.93h-.02Z"/>
    <path class="cls-7" d="M215.32,237.66c.48,0,.95.02.95.02h.78s11.87-5.94,25.72-5.94c17.03,0,20.58-1.06,37.6,0,31.66,1.98,45.51,0,71.24,11.87,1.98-41.56,0-83.11,1.98-128.62.5-11.57,1.98-25.72,6.79-41.33-19.15-.83-38.3-1.66-57.44-2.49-3.63-.16-34.16-1.11-68.84-1.43-63.9-.59-80.99-2.52-112.03-6.19-5.94-.7-21.16-3.43-21.77-1.98-.12.3-29.7,15.76-29.68,15.83,1.98,5.94,4.32,63.41,7.92,166.22,18.85-4.24,35.02-6.56,47.49-7.92,11.99-1.3,19.83-1.78,25.39-1.89h0c5.06,0,10.23-.09,10.23-.09,12.89.43,19.33.64,23.72,1.07,2.55.25,28.77,2.84,29.95,2.87h0Z"/>
    <path class="cls-11" d="M76.56,68.48c3.94-2.43,11.29-7.35,17.95-9.94,22.63-8.81,43.97-7.66,65.16-5.89,21.12,1.76,32.84,3.69,53.74,7.22,18.24-3.9,36.62-7.44,55.23-8.61,29.16-1.83,58.69,2.24,86.26,11.91-3.35,23.21-5.64,46.8-6.54,70.23-.24,6.1-.39,12.2-.54,18.3-.68,27.32-1.37,54.64-2.05,81.96-13.49-7.79-30.68-8.74-46.26-9.15-12.58-.33-25.17-.33-37.75-.32-15.94,0-32.54.17-46.82,7.25-24.97-3.65-51.4-5.37-76.62-4.32-6.02.25-12.04.64-18.01,1.38-11.9,1.48-23.58,4.36-35.23,7.23-.96-10.12.16-22.34-.61-32.69-3.57-48.15-3.96-102.9-7.92-134.56h0Z"/>
    <path class="cls-2" d="M211.68,60.08c-.57,19.29-.77,39.54-.57,45.01.24,6.4,0,83.11,3.96,126.64"/>
  </g>
  <g id="Layer_2" data-name="Layer 2">
    <g>
      <path class="cls-16" d="M290.21,166.53c-9.89-12.61-7.63-30.47,4.58-40.46,8.28-6.77,32.22-5.69,40.38,5.21,9.61,12.82,7.83,30.72-4.58,40.46-12.42,9.74-30.5,7.4-40.38-5.21h0Z"/>
      <path class="cls-15" d="M294.65,163.05c-8.19-9.45-7.59-23.62,2.69-31.54,10.24-7.93,26.02-5.97,33.88,4.18,7.9,10.16,5.18,24.07-4.74,31.29-9.95,7.22-23.61,5.52-31.83-3.94h0Z"/>
      <circle class="cls-22" cx="312.25" cy="149.71" r="19.03"/>
      <circle class="cls-14" cx="324.75" cy="148.44" r="3.71"/>
      <circle class="cls-14" cx="301.44" cy="152.63" r="3.71"/>
      <circle class="cls-14" cx="310.48" cy="150.75" r="3.66"/>
      <path class="cls-8" d="M308.17,163.18c-.06.33-.08.68-.03,1.05-2.07-.03-4.44-1.59-5.51-4.42.34-.72.77-1.38,1.28-1.97.36,2.97,2.31,4.92,4.26,5.33h0Z"/>
      <path class="cls-8" d="M320.07,140.49c-.11-.75,0-1.45.23-2.03-1.39-.62-2.62-2.06-3.04-4.06-.84.92-1.48,2.06-1.83,3.34,1.25,1.72,3.02,2.65,4.63,2.75h0Z"/>
      <path class="cls-8" d="M318.63,152.63c.74-.54,1.52-.95,2.31-1.25-.34,2.95.89,5.36,2.51,6.59-.39.55-.7,1.19-.91,1.91-2.08-1.31-3.78-3.93-3.91-7.26h0Z"/>
      <circle class="cls-14" cx="312.78" cy="137.9" r="3.71"/>
      <circle class="cls-14" cx="316.7" cy="161.1" r="3.71"/>
      <path class="cls-8" d="M306.36,145.59c-.72.32-1.36.73-1.92,1.2-1.51-1.67-4.22-2.8-7.34-2.21.14-.81.38-1.63.73-2.45,3.65-.28,6.76,1.27,8.52,3.46h.01Z"/>
      <path class="cls-8" d="M312.57,149.69c-.68-1.09-1.07-2.33-1.16-3.59,1.91-1.5,4.24-1.89,6.13-1.24-.12.31-.16.64-.12.94-1.96.27-3.87,1.65-4.85,3.89Z"/>
      <circle class="cls-4" cx="310.79" cy="164.8" r="1.39"/>
      <circle class="cls-4" cx="304.44" cy="138.49" r="1.39"/>
      <circle class="cls-4" cx="326.83" cy="152.11" r="1.39"/>
      <circle class="cls-4" cx="296.81" cy="148.56" r="1.39"/>
      <circle class="cls-4" cx="322.79" cy="140.15" r="1.39"/>
      <circle class="cls-4" cx="315.28" cy="152.57" r="1.39"/>
    </g>
    <g>
      <path class="cls-13" d="M276.06,206.61c3.41,10.87,27.84,6.27,31.68,5.54,9.83-1.85,30.1-7.89,29.56-17.45-.29-5.09-6.36-9.1-10.49-11.84-15.08-9.98-35.69-9.49-46.31,8.15-1.92,3.2-6.13,10.18-4.44,15.59h0Z"/>
      <path class="cls-3" d="M273.73,200.75h0c-1.05.74-.75,2.38.5,2.7l1.19.3c.61.16,1.06.67,1.13,1.3l.06.56c.1.87.92,1.48,1.78,1.32l3.74-.71c.2-.04.4-.03.6,0l3.01.65c2.28.49,4.63.61,6.95.36l3.13-.34c.13,0,.26-.05.38-.09l3.2-1.25c.34-.13.73-.14,1.07,0l3.46,1.28c.38.14.79.12,1.15-.04l5.52-2.54c.13-.06.24-.13.35-.22l2.41-2.05c.23-.2.51-.32.81-.35l5.48-.6s.1,0,.15-.02l4.44-.95c.61-.13,1.07-.62,1.17-1.23l.17-1.03c.11-.67.65-1.18,1.33-1.26l2.46-.27h.1l4.37-.19c.77-.03,1.38-.64,1.44-1.4l.23-3.18c.03-.46.27-.87.64-1.13l2.56-1.78c.7-.49.86-1.47.34-2.15l-.64-.85c-.29-.38-.73-.6-1.21-.6l-11.89.03c-.09,0-.19,0-.28.03l-39.6,7.61c-.07,0-.14.03-.2.05l-8.76,2.98c-.43.15-.77.48-.93.91l-1.28,3.47c-.11.29-.3.53-.55.71l.02-.03h0Z"/>
      <path class="cls-10" d="M275.79,196.8c-.07.52-.25,1.89.45,3.25,2.94,5.66,18.39,4.27,27.97,2.7,11.39-1.86,24.44-6.73,28.01-12.75,1.31-2.2-1.38-4.69-1.84-5.26-9.96-12.37-52.78-.61-54.59,12.06h0Z"/>
      <path class="cls-9" d="M264.74,196.67c16.09-.12,25.55,3.87,35.17,8.89,7.57-8.79,33.99-17.43,44.93-20.11,0,0-4.05-10.95-45.13-6.3-13.55,5.27-23.03,9.73-34.96,17.52h0Z"/>
      <path class="cls-17" d="M297.44,190.82c-.02.36-.05,1.32.51,2.21,2.37,3.71,12.82,1.82,19.26.17,7.66-1.97,16.26-6.12,18.32-10.48.75-1.59-1.24-3.15-1.59-3.51-7.58-7.91-36.06,2.78-36.5,11.61h0Z"/>
      <path class="cls-17" d="M274.95,192.24c-.05.36-.17,1.31.31,2.24,2.02,3.91,12.61,2.96,19.17,1.89,7.81-1.28,16.74-4.63,19.18-8.79.89-1.52-.95-3.24-1.27-3.64-6.84-8.56-36.17-.46-37.4,8.29h0Z"/>
      <path class="cls-13" d="M271.34,188.65c-3.07-6.61,8.33-24.39,27.64-27.1,18.07-2.53,34.54,6.54,34.5,14.17-.05,12.17-41.39,21.46-58.52,15.59-1.28-.44-2.91-1.13-3.62-2.66h0Z"/>
      <ellipse class="cls-18" cx="312.58" cy="164.03" rx=".55" ry="1.09" transform="translate(2.18 332.15) rotate(-56.13)"/>
      <ellipse class="cls-18" cx="299.73" cy="164.38" rx=".55" ry="1.09" transform="translate(-3.8 321.64) rotate(-56.13)"/>
      <ellipse class="cls-18" cx="306.41" cy="166.27" rx="1.09" ry=".55" transform="translate(-39.89 206.36) rotate(-35.09)"/>
      <ellipse class="cls-18" cx="289.11" cy="172.01" rx="1.09" ry=".55" transform="translate(4.34 351.12) rotate(-62.92)"/>
      <ellipse class="cls-18" cx="319.67" cy="167.53" rx="1.09" ry=".55" transform="translate(-38.21 214.22) rotate(-35.09)"/>
      <ellipse class="cls-18" cx="297.89" cy="169.45" rx="1.09" ry=".55" transform="translate(-9.45 17.8) rotate(-3.37)"/>
      <ellipse class="cls-18" cx="283.66" cy="170.36" rx="1.09" ry=".55" transform="translate(-46.38 194.03) rotate(-35.09)"/>
      <ellipse class="cls-18" cx="292.95" cy="165.72" rx=".55" ry="1.09" transform="translate(-7.91 316.6) rotate(-56.13)"/>
    </g>
    <path class="cls-5" d="M186.65,65.47c0,10.15-.73,21.08-.73,21.08-14.39-1.73-54.55-1.69-72.13-.73,0,0-.77-19.72-.73-20.26,14.57-1.7,73.59-.09,73.59-.09Z"/>
    <g>
      <path class="cls-6" d="M132.58,78.28c1.1-.05,2.2-.09,3.3-.12.02.52.03,1.04.05,1.56-1.67.06-3.34.12-5,.2-.12-2.67-.24-5.33-.36-8,.58-.03,1.17-.05,1.75-.08.09,2.15.18,4.3.27,6.44h-.01Z"/>
      <path class="cls-6" d="M136.33,71.69c1.7-.05,3.4-.1,5.1-.13,0,.52.02,1.04.03,1.56-1.11.02-2.23.05-3.34.08,0,.48.03.96.04,1.44.98-.03,1.95-.05,2.93-.07,0,.52.02,1.04.03,1.56-.97.02-1.94.04-2.92.07.02.63.03,1.26.05,1.89,1.1-.03,2.2-.06,3.3-.08,0,.52.02,1.04.03,1.56-1.67.03-3.34.07-5.01.13-.08-2.67-.17-5.34-.25-8h0Z"/>
      <path class="cls-6" d="M149.13,71.48h1.9c-1.16,2.66-2.29,5.33-3.41,8.01-.63,0-1.26,0-1.89.01-1.15-2.66-2.32-5.31-3.51-7.96.63-.01,1.27-.02,1.9-.03.86,1.98,1.71,3.97,2.54,5.96.81-2,1.63-4,2.46-6h.01Z"/>
      <path class="cls-6" d="M151.83,71.49c1.7,0,3.4.03,5.1.06,0,.52-.02,1.04-.03,1.56-1.11-.02-2.23-.03-3.34-.05v1.45c.98,0,1.95.02,2.93.04,0,.52-.02,1.04-.03,1.56-.97-.02-1.94-.03-2.92-.04,0,.63,0,1.26-.02,1.89,1.1.01,2.2.03,3.3.05,0,.52-.02,1.04-.03,1.56-1.67-.03-3.34-.05-5.01-.06,0-2.67.03-5.34.04-8.01h.02-.01Z"/>
      <path class="cls-6" d="M159.62,78.06c1.1.03,2.2.06,3.3.09-.02.52-.03,1.04-.05,1.56-1.67-.05-3.34-.1-5-.13.05-2.67.11-5.34.16-8.01.58.01,1.17.02,1.75.04-.05,2.15-.11,4.3-.16,6.45Z"/>
      <path class="cls-6" d="M168.8,75.82c.31.2.54.46.7.76.15.3.22.64.2,1.03-.02.36-.12.69-.31,1-.19.3-.45.57-.77.79-.3.2-.63.36-1,.46s-.76.15-1.17.14c-.41-.02-.79-.09-1.16-.22-.37-.13-.69-.31-.96-.54-.42-.34-.7-.74-.84-1.2.54-.23,1.08-.45,1.62-.68,0,.08.02.17.07.29s.13.23.24.34c.11.11.25.21.43.29s.4.13.66.14c.21,0,.4,0,.56-.06.17-.05.3-.11.42-.18.11-.07.2-.16.26-.26s.09-.2.1-.31c0-.12-.03-.23-.1-.34-.08-.11-.19-.2-.36-.26-.3-.12-.62-.22-.95-.31s-.66-.19-.97-.31c-.32-.12-.61-.28-.87-.47-.27-.19-.48-.45-.62-.78-.13-.29-.2-.6-.19-.92,0-.36.11-.71.29-1.04s.43-.61.74-.83c.29-.21.62-.36.97-.47.36-.1.73-.15,1.12-.13.39.02.76.09,1.11.22.35.13.67.31.94.54.27.22.47.46.62.74-.45.27-.9.55-1.35.82-.15-.23-.34-.41-.58-.55-.23-.14-.5-.22-.8-.23-.41-.02-.74.06-.97.23-.23.17-.35.4-.37.7,0,.14.05.26.17.37s.28.21.48.3c.2.09.42.17.67.25.25.07.5.15.74.22.25.07.48.15.69.23.22.08.39.16.53.25v-.02h.01Z"/>
    </g>
    <g class="cls-21">
      <g class="cls-21">
        <g class="cls-21">
          <path class="cls-6" d="M230.61,129.3c0,.21-.04.41-.13.58-.08.18-.21.34-.37.47-.32.27-.74.41-1.24.41-.39,0-.75-.08-1.07-.24-.32-.16-.55-.38-.7-.65l.62-.32c.09.17.24.3.44.39s.44.14.7.14c.68,0,1.02-.26,1.02-.78,0-.1-.02-.18-.05-.25s-.09-.14-.16-.2c-.17-.14-.47-.27-.9-.38-.26-.07-.48-.14-.67-.22-.18-.08-.33-.17-.46-.28-.29-.24-.44-.55-.44-.95,0-.2.04-.38.12-.55s.19-.32.33-.45c.15-.12.32-.22.51-.28.19-.06.41-.09.64-.09.34,0,.66.07.94.2.29.13.5.32.65.55l-.57.35c-.13-.16-.29-.28-.47-.35-.18-.07-.36-.1-.56-.1-.14,0-.27.02-.39.07s-.21.1-.29.17c-.07.06-.11.13-.14.21-.03.08-.05.17-.05.26,0,.06,0,.12.03.19.02.06.06.13.13.2.07.07.17.13.31.2.14.06.32.12.55.19.28.07.52.15.71.23s.35.18.48.29c.31.25.46.59.46,1Z"/>
          <path class="cls-6" d="M232.95,130.78c-.24,0-.47-.05-.68-.14-.21-.09-.4-.22-.56-.38-.16-.16-.28-.35-.37-.56s-.14-.44-.14-.69c0-.24.04-.47.13-.69s.2-.4.35-.56c.15-.16.32-.28.52-.37.2-.09.41-.14.63-.14.23,0,.44.04.63.12.19.08.36.2.5.37s.25.38.33.64c.08.26.12.57.12.93h-2.5c.03.12.08.23.15.33.07.11.15.2.25.27.09.08.2.14.32.18.12.04.24.06.38.06.18,0,.34-.03.5-.1.15-.07.28-.15.39-.26l.42.42c-.16.16-.36.29-.6.39-.24.1-.49.15-.77.15ZM232.83,127.88c-.11,0-.21.02-.3.06s-.18.1-.27.17c-.08.08-.15.16-.21.27s-.1.21-.13.34h1.77c0-.11-.03-.22-.08-.32-.04-.1-.1-.19-.17-.27-.07-.08-.16-.14-.26-.18s-.22-.07-.35-.07Z"/>
          <path class="cls-6" d="M235.8,125.59v5.12s-.69,0-.69,0v-5.12s.69,0,.69,0Z"/>
          <path class="cls-6" d="M238.15,130.79c-.24,0-.47-.05-.68-.14s-.4-.22-.56-.38c-.16-.16-.28-.35-.37-.56-.09-.21-.14-.44-.14-.69,0-.24.04-.47.13-.69.09-.21.2-.4.35-.56.15-.16.32-.28.52-.37.2-.09.41-.14.63-.14s.44.04.63.12.36.2.5.37.25.38.33.64.12.57.12.93h-2.5c.03.12.08.23.15.34.07.11.15.2.25.27.09.08.2.14.32.18.12.04.24.06.38.06.18,0,.34-.03.5-.1.15-.06.28-.15.39-.26l.42.42c-.16.16-.36.29-.6.39s-.49.15-.77.15ZM238.03,127.89c-.11,0-.21.02-.3.06-.1.04-.18.1-.27.17-.08.08-.15.16-.21.27s-.1.21-.13.34h1.77c0-.11-.03-.22-.08-.32-.04-.1-.1-.19-.17-.27-.07-.08-.16-.14-.26-.18-.1-.05-.22-.07-.35-.07Z"/>
          <path class="cls-6" d="M241.81,130.8c-.23,0-.45-.05-.66-.14-.2-.09-.38-.22-.53-.38-.15-.16-.27-.35-.36-.56s-.13-.44-.13-.69c0-.24.04-.47.13-.69.09-.21.21-.4.36-.56.15-.16.33-.28.53-.37.2-.09.42-.14.66-.14.27,0,.52.06.75.18.23.12.42.29.57.5l-.48.37c-.09-.13-.21-.24-.35-.32-.14-.08-.3-.12-.46-.12-.14,0-.27.03-.4.09-.13.06-.24.14-.33.24-.09.1-.17.22-.22.36-.05.14-.08.29-.08.45,0,.16.03.31.08.45.05.14.13.26.22.37.09.1.2.19.33.25.13.06.26.09.4.09.18,0,.35-.05.5-.15.15-.1.27-.23.37-.39l.46.41c-.15.22-.34.4-.58.54-.24.13-.5.2-.78.2Z"/>
          <path class="cls-6" d="M245.09,130.83c-.19.01-.36-.01-.5-.08-.15-.07-.27-.19-.36-.36-.09-.17-.14-.41-.14-.72v-1.7s-.49,0-.49,0v-.46s.49-.14.49-.14v-.9s.68,0,.68,0v.9s.91,0,.91,0v.6s-.91,0-.91,0v1.81c0,.11,0,.2.03.27s.07.11.13.15c.06.03.14.05.24.05s.22,0,.36-.03l.13.5c-.19.06-.38.1-.57.12Z"/>
          <path class="cls-6" d="M251.25,127.38v3.36s-.58,0-.58,0l-.11-.39c-.12.15-.27.27-.45.35-.18.08-.37.12-.55.12-.23,0-.45-.05-.66-.14-.2-.09-.38-.22-.53-.38-.15-.16-.27-.35-.36-.56-.09-.21-.13-.44-.13-.69,0-.24.04-.47.13-.69s.21-.4.36-.56c.15-.16.33-.28.53-.38s.42-.14.66-.13c.19,0,.37.04.54.11.17.07.33.19.46.34l.11-.37h.57ZM249.56,130.21c.14,0,.26-.03.39-.09.12-.06.23-.14.32-.25.09-.11.16-.23.21-.37.05-.14.08-.29.08-.45,0-.16-.03-.31-.08-.45-.05-.14-.12-.26-.21-.37s-.19-.19-.32-.25c-.12-.06-.25-.09-.39-.09-.13,0-.26.03-.38.09-.12.06-.23.14-.32.25-.09.11-.16.23-.21.37s-.08.29-.08.45c0,.16.03.31.08.45.05.14.12.26.21.37.09.11.19.19.32.25.12.06.25.09.38.09Z"/>
          <path class="cls-6" d="M252.61,130.73h-.68s0-3.36,0-3.36h.54s.14.29.14.29c.11-.11.25-.2.41-.27.16-.07.33-.1.52-.1.12,0,.26.02.41.06.15.04.3.11.43.21.13.1.25.25.34.43.09.18.14.42.13.71v2.03s-.65,0-.65,0v-2.04c0-.14-.02-.27-.06-.37-.04-.1-.1-.18-.17-.24-.07-.06-.15-.11-.25-.13-.09-.03-.19-.04-.28-.04-.08,0-.16.01-.26.04-.1.03-.19.07-.27.14s-.16.14-.21.24c-.06.1-.09.21-.09.35v2.05Z"/>
          <path class="cls-6" d="M256.78,130.36l-1.42-2.98h.76s1.03,2.18,1.03,2.18l1.02-2.18h.75s-2.17,4.69-2.17,4.69h-.75s.78-1.72.78-1.72Z"/>
          <path class="cls-6" d="M261.99,125.63v5.12s-.69,0-.69,0v-5.12s.69,0,.69,0Z"/>
          <path class="cls-6" d="M264.34,130.84c-.24,0-.47-.05-.68-.14-.21-.09-.4-.22-.56-.38-.16-.16-.28-.35-.37-.56s-.14-.44-.14-.69c0-.24.04-.47.13-.69s.2-.4.35-.56c.15-.16.32-.28.52-.37.2-.09.41-.14.63-.14.23,0,.44.04.63.12.19.08.36.2.5.37s.25.38.33.64c.08.26.12.57.12.93h-2.5c.03.12.08.23.15.33.07.11.15.2.25.27.09.08.2.14.32.18.12.04.24.06.38.06.18,0,.34-.03.5-.1.15-.07.28-.15.39-.26l.42.42c-.16.16-.36.29-.6.39-.24.1-.49.15-.77.15ZM264.22,127.94c-.11,0-.21.02-.3.06s-.18.1-.27.17c-.08.08-.15.16-.21.27-.06.1-.1.21-.13.34h1.77c0-.11-.03-.22-.08-.32-.04-.1-.1-.19-.17-.27-.07-.08-.16-.14-.26-.18s-.22-.07-.35-.07Z"/>
          <path class="cls-6" d="M268.45,130.76h-.9s-1.38-3.36-1.38-3.36h.74s1.1,2.67,1.1,2.67l1.11-2.67h.74s-1.4,3.36-1.4,3.36Z"/>
          <path class="cls-6" d="M271.92,130.85c-.24,0-.47-.05-.68-.14-.21-.09-.4-.22-.56-.38-.16-.16-.28-.35-.37-.56s-.14-.45-.14-.69c0-.24.04-.47.13-.69s.2-.4.35-.56.32-.28.52-.37.41-.14.63-.14c.23,0,.44.04.63.12.19.08.36.2.5.37.14.17.25.38.33.64s.12.57.12.93h-2.5c.03.12.08.23.15.34.07.11.15.2.25.27.09.08.2.14.32.18s.24.06.38.06c.18,0,.34-.03.5-.1.15-.07.28-.15.39-.26l.42.42c-.16.16-.36.29-.6.39-.24.1-.49.15-.77.15ZM271.8,127.95c-.11,0-.21.02-.3.06s-.18.1-.27.17c-.08.08-.15.16-.21.27s-.1.21-.13.34h1.77c0-.11-.03-.22-.08-.32-.04-.1-.1-.19-.17-.27-.07-.08-.16-.14-.26-.18-.1-.04-.22-.07-.35-.07Z"/>
          <path class="cls-6" d="M274.77,125.66v5.12s-.69,0-.69,0v-5.12s.69,0,.69,0Z"/>
        </g>
      </g>
      <g class="cls-21">
        <g class="cls-21">
          <path class="cls-6" d="M227.82,135.75v3.36s-.58,0-.58,0l-.1-.39c-.12.15-.27.27-.45.35-.18.08-.37.12-.55.12-.23,0-.45-.05-.66-.14-.2-.09-.38-.22-.53-.38-.15-.16-.27-.35-.36-.56-.09-.21-.13-.44-.13-.69,0-.24.05-.47.13-.69.09-.21.21-.4.36-.56.15-.16.33-.28.53-.37s.42-.14.66-.13c.19,0,.37.04.54.11.17.07.33.19.46.34l.11-.37h.58ZM226.13,138.58c.14,0,.26-.03.39-.09.12-.06.23-.14.32-.25.09-.11.16-.23.21-.37.05-.14.08-.29.08-.45,0-.16-.03-.31-.08-.45-.05-.14-.12-.26-.21-.37s-.19-.19-.31-.25c-.12-.06-.25-.09-.39-.09-.14,0-.26.03-.39.09-.12.06-.23.14-.32.25-.09.11-.16.23-.21.37-.05.14-.08.29-.08.45,0,.16.02.31.08.45.05.14.12.26.21.37.09.1.19.19.31.25.12.06.25.09.39.09Z"/>
          <path class="cls-6" d="M229.17,139.11h-.68s0-3.36,0-3.36h.54s.14.29.14.29c.11-.11.25-.2.41-.27.16-.07.33-.1.52-.1.12,0,.26.02.41.06.15.04.3.11.43.21.13.1.25.25.34.43.09.18.14.42.14.71v2.03s-.65,0-.65,0v-2.04c0-.14-.02-.27-.06-.37s-.1-.18-.17-.24-.15-.1-.25-.13-.19-.04-.28-.04c-.07,0-.16.01-.26.04-.1.03-.19.07-.27.14-.08.06-.16.14-.21.24-.06.1-.09.21-.09.35v2.05Z"/>
          <path class="cls-6" d="M235.47,134v5.12s-.55,0-.55,0l-.14-.35c-.14.14-.29.24-.46.32s-.37.11-.6.11-.45-.05-.65-.14c-.2-.09-.37-.22-.51-.38s-.26-.35-.34-.56c-.08-.21-.12-.44-.12-.69,0-.24.04-.47.12-.69.08-.21.2-.4.34-.56.14-.16.32-.28.51-.37.2-.09.41-.14.65-.14.23,0,.44.04.61.12s.32.19.45.33v-2.12s.68,0,.68,0ZM233.78,138.6c.14,0,.27-.02.39-.07.12-.05.23-.12.32-.21.09-.09.16-.21.21-.36.05-.14.08-.32.08-.51,0-.21-.03-.39-.08-.53-.05-.14-.12-.26-.21-.36-.09-.09-.2-.16-.32-.2-.12-.04-.25-.06-.39-.06s-.26.03-.39.09c-.12.06-.23.14-.32.24-.09.1-.16.22-.21.36-.05.14-.08.29-.08.45,0,.16.03.31.08.45.05.14.12.26.21.37.09.1.19.19.32.25s.25.09.39.09Z"/>
          <path class="cls-6" d="M239.71,138.43s.08-.08.11-.13c.03-.05.05-.1.05-.16,0-.08-.03-.14-.08-.19s-.12-.09-.2-.13c-.08-.04-.16-.06-.24-.08s-.15-.04-.21-.05c-.15-.04-.3-.08-.43-.14-.14-.05-.25-.12-.35-.2-.1-.08-.18-.17-.24-.27-.06-.11-.09-.23-.09-.38,0-.14.03-.26.1-.38s.15-.22.26-.32c.11-.09.24-.16.38-.22s.3-.08.46-.08c.15,0,.28.02.41.07.13.04.25.1.35.17.11.07.19.16.27.27.07.1.12.22.14.34l-.61.15c-.03-.11-.09-.21-.18-.28-.09-.08-.22-.11-.39-.11-.06,0-.11,0-.17.02-.06.02-.12.04-.17.07-.05.03-.1.07-.13.12-.04.05-.05.1-.05.16,0,.07.02.12.06.17s.09.08.14.12c.06.03.12.06.18.07.07.02.13.04.18.05.25.06.45.13.62.2.16.07.29.15.39.23s.17.18.21.28c.04.1.06.21.06.34,0,.15-.03.29-.1.42-.07.13-.16.24-.28.34s-.26.17-.43.22c-.17.05-.34.08-.54.08-.29,0-.55-.07-.77-.21-.23-.14-.38-.33-.46-.57l.58-.26c.07.16.17.28.29.33.12.06.25.09.4.09.19,0,.34-.05.47-.15Z"/>
          <path class="cls-6" d="M242.41,139.24c-.19.01-.36-.01-.5-.08-.15-.07-.27-.19-.36-.36-.09-.17-.14-.41-.14-.72v-1.7s-.49,0-.49,0v-.46s.49-.14.49-.14v-.9s.68,0,.68,0v.9s.91,0,.91,0v.6s-.91,0-.91,0v1.81c0,.11,0,.2.04.27s.07.11.13.15c.06.03.14.05.24.05s.22,0,.36-.03l.13.5c-.19.06-.38.1-.57.12Z"/>
          <path class="cls-6" d="M246.74,135.78v3.36s-.58,0-.58,0l-.11-.39c-.12.15-.27.27-.45.35-.18.08-.37.12-.55.12-.23,0-.45-.05-.66-.14-.2-.09-.38-.22-.53-.38-.15-.16-.27-.35-.36-.56-.09-.22-.13-.45-.13-.69,0-.24.04-.47.13-.69.09-.21.21-.4.36-.56.15-.16.33-.28.53-.37s.42-.14.66-.14c.19,0,.37.04.54.11.17.07.33.19.46.34l.11-.37h.57ZM245.05,138.62c.14,0,.26-.03.39-.09.12-.06.23-.14.32-.25.09-.11.16-.23.21-.37.05-.14.08-.29.08-.45,0-.16-.03-.31-.08-.45-.05-.14-.12-.26-.21-.37-.09-.11-.19-.19-.32-.25-.12-.06-.25-.09-.39-.09-.13,0-.26.03-.38.09-.12.06-.23.14-.32.25s-.16.23-.21.37-.08.29-.08.45c0,.16.03.31.08.45.05.14.12.26.21.37.09.1.19.19.32.25.12.06.25.09.38.09Z"/>
        </g>
      </g>
      <g class="cls-21">
        <g class="cls-21">
          <path class="cls-6" d="M249.3,136.33s-.06-.02-.1-.03c-.04,0-.08-.01-.12-.01-.14,0-.26.02-.38.07-.12.04-.22.1-.3.18-.08.07-.15.16-.2.26-.05.1-.07.21-.07.32v1.99s-.69,0-.69,0v-3.36s.54,0,.54,0l.14.37c.09-.14.22-.24.37-.33.15-.08.34-.12.57-.12.15,0,.32.02.51.06l-.18.64s-.07-.03-.1-.04Z"/>
        </g>
      </g>
      <g class="cls-21">
        <g class="cls-21">
          <path class="cls-6" d="M251.52,139.21c-.19.01-.36-.01-.5-.08s-.27-.19-.36-.36c-.09-.17-.14-.41-.14-.72v-1.7s-.49,0-.49,0v-.46s.49-.14.49-.14v-.9s.68,0,.68,0v.9s.91,0,.91,0v.6s-.91,0-.91,0v1.81c0,.11,0,.2.04.27s.07.11.13.15c.06.03.14.05.24.05s.22,0,.36-.03l.13.5c-.19.07-.38.1-.57.12Z"/>
          <path class="cls-6" d="M254.49,140.5v-4.75s.54,0,.54,0l.14.35c.14-.14.29-.24.47-.32s.37-.11.59-.11c.23,0,.45.04.65.14.2.09.37.22.52.38.15.16.26.35.34.56s.12.44.12.69c0,.24-.04.47-.12.69-.08.21-.2.4-.34.56-.15.16-.32.28-.52.37-.2.09-.42.14-.65.14-.23,0-.43-.04-.6-.12-.17-.08-.33-.19-.46-.33v1.75s-.68,0-.68,0ZM256.17,136.29c-.14,0-.26.02-.39.07-.12.04-.23.11-.32.21s-.16.21-.21.36c-.05.14-.08.31-.08.51,0,.21.02.39.08.54.05.15.12.27.21.36.09.09.2.16.32.2.12.04.25.06.39.06.14,0,.27-.03.39-.09.12-.06.23-.14.32-.25.09-.11.16-.23.21-.37.05-.14.08-.29.08-.45,0-.16-.03-.31-.08-.45-.05-.14-.12-.26-.21-.36-.09-.1-.19-.18-.32-.24-.12-.06-.25-.09-.39-.09Z"/>
          <path class="cls-6" d="M259.17,134v5.12s-.69,0-.69,0v-5.12s.69,0,.69,0Z"/>
        </g>
      </g>
      <g class="cls-21">
        <g class="cls-21">
          <path class="cls-6" d="M263.33,135.85v3.36s-.58,0-.58,0l-.1-.39c-.12.15-.27.27-.45.35-.18.08-.37.12-.55.12-.23,0-.45-.05-.66-.14-.2-.09-.38-.22-.53-.38-.15-.16-.27-.35-.36-.56-.09-.21-.13-.44-.13-.69,0-.24.05-.47.13-.69s.21-.4.36-.56c.15-.16.33-.28.53-.37s.42-.14.66-.13c.19,0,.37.04.54.11.17.07.33.19.46.34l.11-.37h.58ZM261.64,138.69c.14,0,.26-.03.39-.09.12-.06.23-.14.32-.25.09-.11.16-.23.21-.37.05-.14.08-.29.08-.45,0-.16-.03-.31-.08-.45-.05-.14-.12-.26-.21-.37-.09-.11-.19-.19-.31-.25-.12-.06-.25-.09-.39-.09-.14,0-.26.03-.39.09-.12.06-.23.14-.32.25s-.16.23-.21.37-.08.29-.08.45c0,.16.02.31.08.45.05.14.12.26.21.37.09.1.19.19.31.25.12.06.25.09.39.09Z"/>
        </g>
      </g>
      <g class="cls-21">
        <g class="cls-21">
          <path class="cls-6" d="M265.42,138.86l-1.41-2.98h.76s1.03,2.19,1.03,2.19l1.02-2.18h.75s-2.18,4.69-2.18,4.69h-.75s.78-1.72.78-1.72Z"/>
          <path class="cls-6" d="M268.45,135.16c-.12,0-.22-.04-.31-.13-.08-.09-.12-.19-.12-.31s.04-.22.13-.31c.08-.08.19-.12.31-.12.12,0,.22.04.31.13.08.08.13.19.13.31,0,.12-.04.23-.13.31-.08.09-.19.13-.31.13ZM268.79,139.25h-.69s.01-3.36.01-3.36h.68s0,3.36,0,3.36Z"/>
          <path class="cls-6" d="M270.21,139.25h-.68s.01-3.36.01-3.36h.54s.14.3.14.3c.11-.11.25-.2.41-.27.16-.07.33-.1.52-.1.12,0,.26.02.41.06.15.04.3.11.43.21.13.1.24.25.33.43.09.18.13.42.13.71v2.03s-.65,0-.65,0v-2.04c0-.14-.01-.27-.06-.37s-.1-.18-.17-.24c-.07-.06-.15-.11-.25-.13-.09-.03-.19-.04-.28-.04-.08,0-.16.01-.26.04s-.19.07-.27.14-.16.14-.21.24c-.06.1-.09.21-.09.35v2.05Z"/>
          <path class="cls-6" d="M274.82,139.1c-.23,0-.45-.04-.64-.13s-.37-.21-.51-.36-.26-.33-.34-.53c-.08-.2-.12-.41-.12-.63,0-.22.04-.43.13-.63.08-.2.2-.37.34-.51.15-.15.32-.26.51-.34.2-.08.41-.12.65-.12.23,0,.44.04.61.11.17.07.32.17.45.3l.14-.33h.53v.18c0,.06,0,.15,0,.26,0,.11,0,.27,0,.46s0,.44,0,.74c0,.29,0,.65,0,1.07,0,.14,0,.28-.02.41,0,.13-.03.26-.06.39-.03.12-.08.24-.13.36-.06.11-.14.22-.24.33-.19.2-.4.33-.64.39-.24.07-.49.1-.75.1-.22,0-.44-.03-.63-.08-.2-.06-.38-.13-.54-.22v-.75c.1.14.24.25.44.33.2.08.42.13.68.13.17,0,.33-.02.47-.07.15-.04.27-.11.38-.2.11-.09.19-.21.26-.36.06-.15.1-.32.1-.52v-.13c-.06.05-.12.1-.21.15-.08.05-.17.09-.27.12-.1.04-.2.06-.3.08-.1.02-.2.03-.29.03ZM274.89,136.45c-.14,0-.26.03-.39.08-.12.05-.23.12-.32.21-.09.09-.16.2-.22.32-.05.12-.08.25-.08.39,0,.14.02.27.08.4.05.12.12.23.21.32.09.09.2.16.32.22.12.05.25.08.39.08.14,0,.26-.02.39-.06.12-.04.23-.1.32-.19.09-.08.16-.19.21-.31.05-.13.08-.28.08-.45,0-.18-.02-.34-.08-.47-.05-.13-.12-.23-.21-.31s-.19-.14-.32-.17c-.12-.04-.25-.05-.39-.05Z"/>
          <path class="cls-6" d="M277.96,139.35c-.12,0-.23-.04-.31-.13-.09-.08-.13-.19-.13-.31,0-.12.04-.23.13-.31.09-.08.19-.13.31-.13.12,0,.22.04.31.13.08.09.13.19.12.31,0,.12-.04.22-.13.31-.08.08-.19.13-.31.12ZM277.65,138.13l-.08-3.82h.79s-.1,3.82-.1,3.82h-.62Z"/>
        </g>
      </g>
      <g class="cls-21">
        <g class="cls-21">
          <path class="cls-6" d="M229.26,143.2h-1.35s0-.66,0-.66h3.43s0,.66,0,.66h-1.35s0,4.31,0,4.31h-.74s0-4.31,0-4.31Z"/>
          <path class="cls-6" d="M232.6,147.52h-.68s0-5.12,0-5.12h.68s0,2.07,0,2.07c.13-.14.26-.24.4-.3.14-.06.3-.09.48-.09.23,0,.44.05.63.14.18.09.34.22.47.38.13.16.23.35.29.56.07.21.1.44.1.69v1.68s-.68,0-.68,0v-1.68c0-.16-.02-.31-.06-.45-.04-.14-.1-.26-.18-.37s-.17-.18-.27-.24-.21-.09-.33-.09c-.1,0-.2.02-.29.06-.1.04-.19.1-.27.19s-.15.21-.2.35c-.05.14-.08.32-.08.53v1.69Z"/>
          <path class="cls-6" d="M237.31,147.61c-.24,0-.47-.05-.68-.14-.21-.09-.4-.22-.56-.38-.16-.16-.28-.35-.37-.56s-.14-.44-.14-.69c0-.24.04-.47.13-.69s.2-.4.35-.56c.15-.16.32-.28.52-.37.2-.09.41-.14.63-.14.23,0,.44.04.63.12.19.08.36.2.5.37s.25.38.33.64c.08.26.12.57.12.93h-2.5c.03.12.08.23.15.33.07.11.15.2.25.27.09.08.2.14.32.18.12.04.24.06.38.06.18,0,.34-.03.5-.1.15-.07.28-.15.39-.26l.42.42c-.16.16-.36.29-.6.39-.24.1-.49.15-.77.15ZM237.19,144.71c-.11,0-.21.02-.3.06s-.18.1-.27.17c-.08.08-.15.16-.21.27-.06.1-.1.21-.13.34h1.77c0-.11-.03-.22-.08-.32-.04-.1-.1-.19-.17-.27-.07-.08-.16-.14-.26-.18s-.22-.07-.35-.07Z"/>
          <path class="cls-6" d="M242.79,147.37c-.23,0-.45-.04-.65-.13-.2-.09-.37-.21-.51-.36-.14-.15-.26-.33-.34-.53-.08-.2-.12-.41-.12-.63s.04-.43.12-.63.2-.37.34-.51c.14-.15.32-.26.51-.35.2-.08.41-.13.64-.12.23,0,.44.04.61.11.17.07.32.17.46.3l.14-.33h.53v.44c0,.11,0,.27,0,.46,0,.2,0,.44,0,.74,0,.29,0,.65,0,1.07,0,.14,0,.28-.01.41-.01.13-.03.26-.06.39-.03.12-.08.24-.13.36-.06.11-.14.22-.24.33-.19.2-.4.33-.64.4-.24.07-.49.1-.75.1-.22,0-.44-.03-.63-.08-.2-.06-.38-.13-.54-.22v-.75c.1.14.24.25.44.33.2.08.42.13.68.13.17,0,.33-.02.47-.07.15-.04.27-.11.38-.2.11-.09.19-.21.26-.36.06-.15.1-.32.1-.52v-.13c-.06.05-.12.1-.21.15-.08.05-.17.09-.27.12s-.2.06-.3.08c-.1.02-.2.03-.29.03ZM242.86,144.72c-.14,0-.26.03-.39.08-.12.05-.23.12-.32.21-.09.09-.16.2-.22.32-.05.12-.08.25-.08.39,0,.14.03.27.08.4.05.12.12.23.21.32.09.09.2.16.32.22.12.05.25.08.39.08s.26-.02.39-.06c.12-.04.23-.11.32-.19.09-.08.16-.19.21-.31.05-.13.08-.28.08-.45,0-.18-.03-.34-.08-.47-.05-.13-.12-.23-.21-.31s-.19-.14-.32-.17c-.12-.04-.25-.05-.39-.05Z"/>
          <path class="cls-6" d="M248.6,144.19v3.36s-.58,0-.58,0l-.11-.39c-.12.15-.27.27-.45.35-.18.08-.37.12-.55.12-.23,0-.45-.05-.66-.14-.2-.09-.38-.22-.53-.38-.15-.16-.27-.35-.36-.56-.09-.21-.13-.44-.13-.69,0-.24.04-.47.13-.69.09-.21.21-.4.36-.56.15-.16.33-.28.53-.37.2-.09.42-.14.66-.14.19,0,.37.04.54.11s.33.19.46.34l.11-.37h.57ZM246.91,147.02c.14,0,.26-.03.39-.09.12-.06.23-.14.32-.25s.16-.23.21-.37c.05-.14.08-.29.08-.45,0-.16-.03-.31-.08-.45-.05-.14-.12-.26-.21-.37-.09-.11-.19-.19-.32-.25-.12-.06-.25-.09-.39-.09s-.26.03-.38.09c-.12.06-.23.14-.32.25s-.16.23-.21.37c-.05.14-.08.29-.08.45,0,.16.03.31.08.45.05.14.12.26.21.37.09.1.19.19.32.25.12.06.25.09.38.09Z"/>
          <path class="cls-6" d="M249.96,147.55h-.68s0-3.36,0-3.36h.54s.14.29.14.29c.08-.1.18-.18.3-.26.12-.07.26-.11.43-.11.07,0,.14,0,.22.02.08.02.17.04.25.08s.17.09.25.16c.08.07.15.16.2.26.08-.14.2-.27.36-.38.16-.1.33-.16.51-.16.12,0,.25.02.39.06s.26.11.38.21c.12.1.21.25.29.43.07.18.11.42.11.71v2.03s-.64,0-.64,0v-2.04c0-.29-.06-.49-.17-.61-.12-.11-.28-.17-.47-.17-.15,0-.28.06-.39.19s-.17.33-.17.6v2.03s-.64,0-.64,0v-2.04c0-.29-.06-.49-.17-.61-.12-.11-.28-.17-.47-.17-.14,0-.26.05-.37.16-.11.11-.17.28-.19.5v2.15Z"/>
          <path class="cls-6" d="M256.05,147.64c-.24,0-.47-.05-.68-.14-.21-.09-.4-.22-.56-.38-.16-.16-.28-.35-.37-.56-.09-.22-.14-.45-.14-.69,0-.24.04-.47.13-.69.09-.21.2-.4.35-.56s.32-.28.52-.37.41-.14.63-.14c.23,0,.44.04.63.12s.36.2.5.37c.14.17.25.38.33.64s.12.57.12.93h-2.5c.03.12.08.23.15.34.07.11.15.2.25.27.09.08.2.14.32.18s.24.06.38.06c.18,0,.34-.03.5-.1.15-.07.28-.15.39-.26l.42.42c-.16.16-.36.29-.6.39s-.49.15-.77.15ZM255.93,144.74c-.11,0-.21.02-.3.06s-.18.1-.27.17c-.08.08-.15.16-.21.27s-.1.21-.13.34h1.77c0-.11-.03-.22-.08-.32-.04-.1-.1-.19-.17-.27-.07-.08-.16-.14-.26-.18-.1-.04-.22-.07-.35-.07Z"/>
          <path class="cls-6" d="M261.53,147.4c-.23,0-.45-.04-.65-.13-.2-.09-.37-.21-.51-.36s-.26-.33-.34-.53c-.08-.2-.12-.41-.12-.63s.04-.43.12-.63c.08-.2.2-.37.34-.52.14-.15.32-.26.51-.35.2-.08.41-.12.64-.12.23,0,.44.04.61.11.17.07.32.17.46.3l.14-.33h.53v.44c0,.11,0,.27,0,.46,0,.2,0,.44,0,.74,0,.29,0,.65,0,1.07,0,.14,0,.28-.01.41-.01.13-.03.26-.06.39-.03.12-.08.24-.13.36-.06.11-.14.23-.24.33-.19.2-.4.33-.64.4-.24.07-.49.1-.75.1-.22,0-.44-.03-.63-.08-.2-.06-.38-.13-.54-.22v-.75c.1.14.24.25.44.33.2.08.42.13.68.13.17,0,.33-.02.47-.07.15-.04.27-.11.38-.2.11-.09.19-.21.26-.36s.1-.32.1-.52v-.13c-.06.05-.12.1-.21.15s-.17.09-.27.12c-.1.04-.2.06-.3.08-.1.02-.2.03-.29.03ZM261.6,144.75c-.14,0-.26.03-.39.08-.12.05-.23.12-.32.21s-.16.2-.22.32c-.05.12-.08.25-.08.39,0,.14.03.27.08.4.05.12.12.23.21.32.09.09.2.16.32.22.12.05.25.08.39.08.14,0,.26-.02.39-.06s.23-.1.32-.19c.09-.08.16-.19.21-.32s.08-.28.08-.45c0-.18-.03-.34-.08-.47-.05-.13-.12-.23-.21-.31s-.19-.14-.32-.17-.25-.05-.39-.05Z"/>
          <path class="cls-6" d="M265.74,147.66c-.24,0-.47-.05-.68-.14-.21-.09-.4-.22-.56-.38-.16-.16-.28-.35-.37-.56s-.14-.44-.14-.69c0-.24.04-.47.13-.69s.2-.4.35-.56c.15-.16.32-.28.52-.38s.41-.14.63-.13c.23,0,.44.04.63.12.19.08.36.2.5.37.14.17.25.38.33.64s.12.57.12.93h-2.5c.03.12.08.23.15.34.07.11.15.2.25.27.09.08.2.14.32.18s.24.06.38.06c.18,0,.34-.03.5-.1.15-.07.28-.15.39-.26l.42.42c-.16.16-.36.29-.6.39-.24.1-.49.15-.77.15ZM265.62,144.76c-.11,0-.21.02-.3.06s-.18.1-.27.17-.15.16-.21.27-.1.21-.13.34h1.77c0-.11-.03-.22-.08-.32-.04-.1-.1-.19-.17-.27-.07-.08-.16-.14-.26-.18-.1-.04-.22-.07-.35-.07Z"/>
          <path class="cls-6" d="M269.12,147.69c-.19.01-.36-.01-.5-.08s-.27-.19-.36-.36c-.09-.17-.14-.41-.14-.72v-1.7s-.49,0-.49,0v-.46s.49-.14.49-.14v-.9s.68,0,.68,0v.9s.91,0,.91,0v.6s-.91,0-.91,0v1.81c0,.11,0,.2.04.27s.07.11.13.15c.06.03.14.05.24.05s.22,0,.36-.03l.13.5c-.19.07-.38.1-.57.12Z"/>
          <path class="cls-6" d="M271.82,146.89s.08-.08.11-.13c.03-.05.05-.1.05-.16,0-.08-.03-.14-.08-.19s-.12-.09-.2-.13c-.08-.04-.16-.06-.24-.08s-.15-.04-.21-.05c-.15-.04-.3-.08-.43-.14-.14-.05-.25-.12-.35-.2-.1-.08-.18-.17-.24-.27-.06-.11-.09-.23-.09-.38,0-.14.03-.26.1-.38s.15-.22.26-.32c.11-.09.24-.16.38-.22s.3-.08.46-.08c.15,0,.28.02.41.07.13.04.25.1.35.17.11.07.19.16.27.27.07.1.12.22.14.34l-.61.15c-.03-.11-.09-.21-.18-.28-.09-.08-.22-.11-.39-.11-.06,0-.11,0-.17.02-.06.01-.12.04-.17.07-.05.03-.1.07-.13.12-.04.05-.05.1-.05.16,0,.07.02.12.06.17s.09.08.14.12c.06.03.12.05.18.07.07.02.13.04.18.05.25.06.45.13.62.2.16.07.29.15.39.23s.17.18.21.28c.04.1.06.21.06.34,0,.15-.03.29-.1.42-.07.13-.16.24-.28.34s-.26.17-.43.22c-.17.05-.34.08-.54.08-.29,0-.55-.07-.77-.22-.23-.14-.38-.33-.46-.57l.58-.26c.07.16.17.28.29.33.12.06.25.09.4.09.19,0,.34-.05.47-.15Z"/>
        </g>
      </g>
      <g class="cls-21">
        <g class="cls-21">
          <path class="cls-6" d="M226.19,155.92h-.68s0-5.12,0-5.12h.68s0,2.07,0,2.07c.13-.14.26-.24.4-.3.14-.06.3-.09.48-.09.23,0,.44.04.63.14.18.09.34.22.47.38.13.16.23.35.29.56.07.21.1.44.1.69v1.68s-.68,0-.68,0v-1.68c0-.16-.02-.31-.06-.45-.04-.14-.1-.26-.18-.36s-.17-.18-.27-.24-.21-.09-.33-.09c-.1,0-.2.02-.29.06-.1.04-.19.1-.27.19-.08.09-.15.2-.2.35-.05.14-.08.32-.08.53v1.69Z"/>
          <path class="cls-6" d="M232.5,152.58v3.36s-.58,0-.58,0l-.11-.39c-.12.15-.27.27-.45.35-.18.08-.37.12-.55.12-.23,0-.45-.05-.66-.14-.2-.09-.38-.22-.53-.38-.15-.16-.27-.35-.36-.56-.09-.22-.13-.45-.13-.69,0-.24.04-.47.13-.69.09-.21.21-.4.36-.56.15-.16.33-.28.53-.37s.42-.14.66-.14c.19,0,.37.04.54.11.17.07.33.19.46.34l.11-.37h.57ZM230.81,155.41c.14,0,.26-.03.39-.09.12-.06.23-.14.32-.25.09-.11.16-.23.21-.37.05-.14.08-.29.08-.45,0-.16-.03-.31-.08-.45-.05-.14-.12-.26-.21-.37-.09-.11-.19-.19-.32-.25-.12-.06-.25-.09-.39-.09-.13,0-.26.03-.38.09-.12.06-.23.14-.32.25s-.16.23-.21.37-.08.29-.08.45c0,.16.03.31.08.45.05.14.12.26.21.37.09.1.19.19.32.25.12.06.25.09.38.09Z"/>
          <path class="cls-6" d="M235.12,153.16s-.06-.02-.1-.03c-.04,0-.08-.01-.12-.01-.14,0-.26.02-.38.07-.12.04-.22.1-.3.18-.08.07-.15.16-.2.26-.05.1-.07.21-.07.32v1.99s-.69,0-.69,0v-3.36s.54,0,.54,0l.14.37c.09-.14.22-.24.37-.33.15-.08.34-.12.57-.12.15,0,.32.02.51.06l-.18.64s-.07-.03-.1-.04Z"/>
          <path class="cls-6" d="M239.06,150.83v5.12s-.55,0-.55,0l-.14-.35c-.14.14-.29.24-.46.32s-.37.11-.6.11-.45-.05-.65-.14c-.2-.09-.37-.22-.51-.38s-.26-.35-.34-.56c-.08-.21-.12-.44-.12-.69,0-.24.04-.47.12-.69s.2-.4.34-.56c.14-.16.32-.28.51-.37.2-.09.41-.14.65-.14s.44.04.61.12.32.19.45.33v-2.12s.68,0,.68,0ZM237.36,155.42c.14,0,.27-.02.39-.07.12-.05.23-.12.32-.21s.16-.21.21-.36c.05-.14.08-.32.08-.51,0-.21-.03-.39-.08-.53-.05-.14-.12-.26-.21-.36s-.2-.16-.32-.2c-.12-.04-.25-.06-.39-.06s-.26.03-.39.09c-.12.06-.23.14-.32.24-.09.1-.16.22-.21.36s-.08.29-.08.45c0,.16.03.31.08.45.05.14.12.26.21.37.09.1.19.19.32.25.12.06.25.09.39.09Z"/>
          <path class="cls-6" d="M241.49,156.03c-.24,0-.47-.05-.68-.14-.21-.09-.4-.22-.56-.38-.16-.16-.28-.35-.37-.56-.09-.22-.14-.45-.14-.69,0-.24.04-.47.13-.69.09-.21.2-.4.35-.56.15-.16.32-.28.52-.37.2-.09.41-.14.63-.14.23,0,.44.04.63.12s.36.2.5.37.25.38.33.64.12.57.12.93h-2.5c.03.12.08.23.15.34.07.11.15.2.25.27.09.08.2.14.32.18s.24.06.38.06c.18,0,.34-.03.5-.1.15-.06.28-.15.39-.26l.42.42c-.16.16-.36.29-.6.39s-.49.15-.77.15ZM241.37,153.13c-.11,0-.21.02-.3.06-.1.04-.18.1-.27.17-.08.08-.15.16-.21.27s-.1.21-.13.34h1.77c0-.11-.03-.22-.08-.32-.04-.1-.1-.19-.17-.27-.07-.08-.16-.14-.26-.18-.1-.04-.22-.07-.35-.07Z"/>
          <path class="cls-6" d="M245.54,153.18s-.06-.02-.1-.03-.08-.01-.12-.01c-.14,0-.26.02-.38.07-.12.04-.22.1-.3.18-.08.07-.15.16-.2.26-.05.1-.07.21-.07.32v1.99s-.69,0-.69,0v-3.36s.54,0,.54,0l.14.37c.09-.14.22-.24.37-.33.15-.08.34-.12.57-.12.15,0,.32.02.51.06l-.18.64s-.07-.03-.1-.04Z"/>
          <path class="cls-6" d="M249.35,156.07c-.19.01-.36-.01-.5-.08-.15-.07-.27-.19-.36-.36-.09-.17-.14-.41-.14-.72v-1.7s-.49,0-.49,0v-.46s.49-.14.49-.14v-.9s.68,0,.68,0v.9s.91,0,.91,0v.6s-.91,0-.91,0v1.81c0,.11,0,.2.03.27s.07.11.13.15c.06.03.14.05.24.05.1,0,.22,0,.36-.03l.13.5c-.19.07-.38.1-.57.12Z"/>
          <path class="cls-6" d="M251.17,155.97h-.68s0-5.12,0-5.12h.68s0,2.07,0,2.07c.13-.14.26-.24.4-.3.14-.06.3-.09.48-.09.23,0,.44.05.63.14s.34.22.47.38c.13.16.23.35.3.56s.1.44.1.69v1.68s-.68,0-.68,0v-1.68c0-.16-.02-.31-.06-.45s-.1-.26-.18-.37-.17-.18-.27-.24-.21-.09-.33-.09c-.1,0-.2.02-.29.06-.1.04-.19.1-.27.19s-.15.21-.2.35c-.05.14-.08.32-.08.53v1.69Z"/>
          <path class="cls-6" d="M255.88,156.06c-.24,0-.47-.05-.68-.14-.21-.09-.4-.22-.56-.38-.16-.16-.28-.35-.37-.56-.09-.21-.14-.44-.14-.69,0-.24.04-.47.13-.69.09-.21.21-.4.35-.56.15-.16.32-.28.52-.37.2-.09.41-.14.63-.14.23,0,.44.04.63.12.19.08.36.2.5.37.14.17.25.38.33.64.08.26.12.57.12.93h-2.5c.03.12.08.23.15.34.07.11.15.2.25.27s.2.14.32.18c.12.04.24.06.38.06.18,0,.34-.03.49-.1.15-.07.28-.15.39-.26l.42.42c-.16.16-.36.29-.6.39-.24.1-.49.15-.77.15ZM255.76,153.16c-.11,0-.21.02-.3.06-.1.04-.18.1-.27.17-.08.08-.15.16-.21.27-.06.1-.1.21-.13.34h1.77c0-.11-.03-.22-.08-.32-.04-.1-.1-.19-.17-.27s-.16-.14-.26-.18c-.1-.05-.22-.07-.35-.07Z"/>
          <path class="cls-6" d="M260.51,155.98h-.68s0-3.36,0-3.36h.54s.14.29.14.29c.08-.1.18-.18.3-.25.12-.07.26-.11.43-.11.07,0,.14,0,.22.02.08.02.17.04.25.08.09.04.17.09.25.16.08.07.15.16.2.26.08-.14.2-.27.36-.37.16-.11.33-.16.51-.16.12,0,.25.02.39.06.14.04.26.11.38.21.12.1.21.25.29.43.07.18.11.42.11.71v2.03s-.64,0-.64,0v-2.04c0-.29-.06-.49-.17-.61-.12-.12-.28-.17-.47-.17-.15,0-.28.06-.39.19s-.17.33-.17.6v2.03s-.64,0-.64,0v-2.04c0-.29-.06-.49-.17-.61-.12-.11-.28-.17-.47-.17-.14,0-.26.05-.37.16-.11.11-.17.28-.19.5v2.15Z"/>
          <path class="cls-6" d="M266.48,156.08c-.23,0-.45-.05-.66-.14-.2-.09-.38-.22-.53-.38-.15-.16-.27-.35-.36-.56s-.13-.44-.13-.69c0-.24.04-.47.13-.69.09-.21.21-.4.36-.56.15-.16.33-.28.53-.37.2-.09.42-.14.66-.14s.45.05.65.14c.21.09.38.22.54.38.15.16.27.35.36.56.09.21.13.44.13.69,0,.24-.04.47-.13.69s-.21.4-.36.56-.33.28-.54.37c-.21.09-.42.14-.65.14ZM266.48,153.16c-.14,0-.26.03-.39.09s-.23.14-.32.25c-.09.1-.16.22-.22.36-.05.14-.08.29-.08.45,0,.16.03.31.08.45.05.14.12.26.21.37.09.11.2.19.32.25.12.06.25.09.39.09s.26-.03.39-.09c.12-.06.23-.14.32-.25.09-.11.16-.23.21-.37.05-.14.08-.29.08-.45,0-.16-.03-.31-.08-.45-.05-.14-.12-.26-.21-.37-.09-.1-.19-.19-.32-.25-.12-.06-.25-.09-.39-.09Z"/>
          <path class="cls-6" d="M270.64,153.22s-.06-.02-.1-.03c-.04,0-.08-.01-.12-.01-.14,0-.26.02-.38.07s-.22.1-.3.18c-.08.07-.15.16-.2.26-.05.1-.07.21-.07.32v1.99s-.69,0-.69,0v-3.36s.55,0,.55,0l.14.37c.09-.13.22-.24.37-.33.15-.08.34-.12.57-.12.15,0,.32.02.51.06l-.18.64s-.07-.03-.1-.04Z"/>
          <path class="cls-6" d="M272.95,156.09c-.24,0-.47-.05-.68-.14-.21-.09-.4-.22-.56-.38-.16-.16-.28-.35-.37-.56-.09-.21-.14-.45-.14-.69,0-.24.04-.47.13-.69.09-.21.21-.4.35-.56s.32-.28.52-.37.41-.14.63-.14c.23,0,.44.04.63.12.19.08.36.2.5.37.14.17.25.38.33.64s.12.57.12.93h-2.5c.03.12.08.23.15.34.07.11.15.2.25.27.1.08.2.14.32.18s.24.06.38.06c.18,0,.34-.03.49-.1.15-.07.28-.15.39-.26l.42.42c-.16.16-.36.29-.6.39-.24.1-.49.15-.77.15ZM272.83,153.18c-.11,0-.21.02-.3.06s-.18.1-.27.17c-.08.08-.15.16-.21.27s-.1.21-.13.34h1.77c0-.11-.03-.22-.08-.32-.04-.1-.1-.19-.17-.27-.07-.08-.16-.14-.26-.18-.1-.04-.22-.07-.35-.07Z"/>
        </g>
      </g>
      <g class="cls-21">
        <g class="cls-21">
          <path class="cls-6" d="M232.41,163.95l-1.42-2.98h.76s1.03,2.18,1.03,2.18l1.02-2.18h.75s-2.17,4.69-2.17,4.69h-.75s.78-1.72.78-1.72Z"/>
          <path class="cls-6" d="M236.54,164.42c-.23,0-.45-.05-.66-.14s-.38-.22-.53-.38-.27-.35-.36-.56c-.09-.21-.13-.44-.13-.69,0-.24.05-.47.13-.69.09-.21.21-.4.36-.56.15-.16.33-.28.53-.37.2-.09.42-.14.66-.14.23,0,.45.05.65.14.21.09.38.22.54.38s.27.35.36.56c.09.21.13.44.13.69,0,.24-.05.47-.13.69-.09.21-.21.4-.36.56-.15.16-.33.28-.54.37-.21.09-.42.14-.65.14ZM236.54,161.51c-.14,0-.27.03-.39.09s-.23.14-.32.25c-.09.1-.16.22-.21.37-.05.14-.08.29-.08.45,0,.16.03.31.08.45.05.14.12.26.21.37.09.11.2.19.32.25.12.06.25.09.39.09s.26-.03.39-.09c.12-.06.23-.14.32-.25.09-.1.16-.23.21-.37s.08-.29.08-.45c0-.16-.03-.31-.08-.45-.05-.14-.12-.26-.21-.37-.09-.1-.19-.19-.32-.25-.12-.06-.25-.09-.39-.09Z"/>
          <path class="cls-6" d="M241.04,164.05c-.12.11-.25.2-.41.27-.16.07-.33.11-.52.11-.12,0-.26-.02-.41-.05s-.3-.1-.43-.21c-.13-.1-.24-.24-.34-.42-.09-.18-.14-.42-.13-.71v-2.04s.65,0,.65,0v2.04c0,.15.02.27.06.37.04.1.1.18.18.24.07.06.15.11.25.13.09.03.19.04.29.04.08,0,.16-.01.26-.04.1-.03.19-.07.27-.14.08-.06.16-.14.21-.24.06-.1.09-.22.09-.36v-2.05s.68,0,.68,0v3.36s-.55,0-.55,0l-.14-.3Z"/>
          <path class="cls-6" d="M244.34,165.74v-4.75s.54,0,.54,0l.14.35c.14-.13.29-.24.47-.31.18-.08.37-.11.59-.11.23,0,.45.05.65.14s.37.22.52.38c.15.16.26.35.34.56s.12.44.12.69c0,.24-.04.47-.12.69-.08.21-.2.4-.34.56-.15.16-.32.28-.52.37-.2.09-.42.14-.65.14-.23,0-.43-.04-.6-.12-.17-.08-.33-.19-.46-.33v1.75s-.68,0-.68,0ZM246.03,161.54c-.14,0-.26.02-.39.07s-.23.11-.32.21-.16.21-.21.36c-.05.14-.08.31-.08.51,0,.21.02.39.08.54s.12.27.21.36c.09.09.2.16.32.2.12.04.25.06.39.06s.27-.03.39-.09c.12-.06.23-.14.32-.25.09-.1.16-.23.21-.37.05-.14.08-.29.08-.45,0-.16-.03-.31-.08-.45-.05-.14-.12-.26-.21-.37-.09-.1-.19-.18-.32-.24-.12-.06-.25-.09-.39-.09Z"/>
          <path class="cls-6" d="M250.23,161.59s-.06-.02-.1-.03-.08-.01-.12-.01c-.14,0-.26.02-.38.07-.12.04-.22.1-.3.18-.08.07-.15.16-.2.26-.05.1-.07.21-.07.32v1.99s-.69,0-.69,0v-3.36s.54,0,.54,0l.14.37c.09-.14.22-.24.37-.33.15-.08.34-.12.57-.12.15,0,.32.02.51.06l-.18.64s-.07-.03-.1-.04Z"/>
          <path class="cls-6" d="M252.42,164.45c-.23,0-.45-.05-.66-.14-.2-.09-.38-.22-.53-.38-.15-.16-.27-.35-.36-.56s-.13-.44-.13-.69c0-.24.04-.47.13-.69.09-.21.21-.4.36-.56s.33-.28.53-.37c.2-.09.42-.14.66-.13.23,0,.45.04.65.14.21.09.38.22.54.38.15.16.27.35.36.56.09.22.13.45.13.69,0,.24-.04.47-.13.69s-.21.4-.36.56c-.15.16-.33.28-.54.37-.21.09-.42.14-.65.14ZM252.42,161.54c-.14,0-.26.03-.39.09-.12.06-.23.14-.32.25-.09.1-.16.22-.22.37s-.08.29-.08.45c0,.16.03.31.08.45.05.14.12.26.21.37.09.11.2.19.32.25.12.06.25.09.39.09.14,0,.26-.03.39-.09.12-.06.23-.14.32-.25.09-.11.16-.23.21-.37.05-.14.08-.29.08-.45,0-.16-.03-.31-.08-.45-.05-.14-.12-.26-.21-.37-.09-.1-.19-.19-.32-.25-.12-.06-.25-.09-.39-.09Z"/>
          <path class="cls-6" d="M256.18,164.21c-.23,0-.45-.04-.65-.13s-.37-.21-.51-.36c-.14-.15-.26-.33-.34-.53-.08-.2-.12-.41-.12-.63s.04-.43.12-.63c.08-.2.2-.37.34-.52.14-.15.32-.26.51-.35s.41-.12.64-.12c.23,0,.44.04.61.11.17.07.32.17.46.3l.14-.33h.53v.44c0,.11,0,.27,0,.46,0,.2,0,.44,0,.74,0,.29,0,.65,0,1.07,0,.14,0,.28-.01.41-.01.13-.03.26-.06.39-.03.12-.08.24-.13.36-.06.11-.14.23-.24.33-.19.2-.4.33-.64.39s-.49.1-.75.1c-.22,0-.44-.03-.63-.08-.2-.06-.38-.13-.54-.22v-.75c.1.14.24.25.44.33.2.08.42.13.68.13.17,0,.33-.02.47-.07.15-.04.27-.11.38-.2.11-.09.19-.21.26-.36s.1-.32.1-.52v-.13c-.06.05-.12.1-.21.15s-.17.09-.27.12c-.1.04-.2.06-.3.08-.1.02-.2.03-.29.03ZM256.24,161.56c-.14,0-.26.03-.39.08s-.23.12-.32.21-.16.2-.22.32c-.05.12-.08.25-.08.39,0,.14.03.27.08.4.05.12.12.23.21.32.09.09.2.16.32.22.12.05.25.08.39.08.14,0,.26-.02.39-.06s.23-.11.32-.19c.09-.08.16-.19.21-.32s.08-.28.08-.45c0-.18-.03-.34-.08-.47-.05-.13-.12-.23-.21-.31-.09-.08-.19-.14-.32-.17s-.25-.05-.39-.05Z"/>
          <path class="cls-6" d="M260.72,161.61s-.06-.02-.1-.03c-.04,0-.08-.01-.12-.01-.14,0-.26.02-.38.07s-.22.1-.3.18c-.08.07-.15.16-.2.26-.05.1-.07.21-.07.32v1.99s-.69,0-.69,0v-3.36s.55,0,.55,0l.14.37c.09-.14.22-.24.37-.33.15-.08.34-.12.57-.12.15,0,.32.02.51.06l-.18.64s-.07-.03-.1-.04Z"/>
          <path class="cls-6" d="M263.03,164.47c-.24,0-.47-.05-.68-.14-.21-.09-.4-.22-.56-.38-.16-.16-.28-.35-.37-.56-.09-.22-.14-.45-.14-.69,0-.24.04-.47.13-.69.09-.21.21-.4.35-.56s.32-.28.52-.37.41-.14.63-.14c.23,0,.44.04.63.12.19.08.36.2.5.37.14.17.25.38.33.64s.12.57.12.93h-2.5c.03.12.08.23.15.34.07.11.15.2.25.27.1.08.2.14.32.18s.24.06.38.06c.18,0,.34-.03.49-.1.15-.07.28-.15.39-.26l.42.42c-.16.16-.36.29-.6.39-.24.1-.49.15-.77.15ZM262.91,161.57c-.11,0-.21.02-.3.06s-.18.1-.27.17c-.08.08-.15.16-.21.27s-.1.21-.13.34h1.77c0-.11-.03-.22-.08-.32-.04-.1-.1-.19-.17-.27-.07-.08-.16-.14-.26-.18-.1-.04-.22-.07-.35-.07Z"/>
          <path class="cls-6" d="M266.72,163.69s.08-.08.11-.13c.03-.05.05-.1.05-.16,0-.08-.03-.14-.08-.19-.05-.05-.12-.09-.2-.13s-.16-.06-.24-.08c-.08-.02-.15-.04-.21-.05-.15-.04-.3-.08-.43-.14-.13-.05-.25-.12-.35-.2-.1-.08-.18-.17-.24-.27-.06-.11-.09-.23-.09-.38,0-.14.03-.26.1-.38.06-.12.15-.22.26-.31.11-.09.24-.16.38-.22.15-.05.3-.08.47-.08.14,0,.28.02.41.07.13.04.25.1.35.17.11.07.19.16.27.27.07.1.12.22.14.34l-.61.15c-.03-.11-.09-.21-.18-.28-.09-.07-.22-.11-.39-.11-.06,0-.11,0-.18.02-.06.02-.12.04-.17.07-.05.03-.09.07-.13.12-.04.05-.05.1-.05.16,0,.07.02.12.06.17.04.05.09.09.14.12.06.03.12.05.18.07.07.02.13.04.18.05.25.06.45.13.62.2.16.07.29.15.39.23.1.08.17.18.21.28.04.1.06.21.06.34,0,.15-.03.29-.1.42-.07.13-.16.24-.28.34-.12.1-.26.17-.43.22-.17.05-.34.08-.54.08-.29,0-.55-.07-.77-.21-.23-.14-.38-.33-.46-.57l.58-.26c.07.16.17.28.29.33s.25.09.4.09c.19,0,.34-.05.47-.15Z"/>
          <path class="cls-6" d="M269.74,163.7s.08-.08.11-.13c.03-.05.05-.1.05-.16,0-.08-.03-.14-.08-.19s-.12-.1-.2-.13c-.08-.04-.16-.06-.24-.08s-.15-.04-.21-.05c-.15-.04-.3-.08-.43-.14-.14-.05-.25-.12-.35-.2-.1-.08-.18-.17-.24-.27-.06-.11-.09-.23-.09-.38,0-.14.03-.26.1-.38s.15-.22.26-.32c.11-.09.24-.16.38-.22s.3-.08.46-.08c.15,0,.28.02.41.06s.25.1.35.17c.11.07.19.16.27.27.07.1.12.22.14.34l-.61.15c-.03-.11-.09-.21-.18-.28-.09-.07-.22-.11-.39-.11-.06,0-.11,0-.17.02-.06.02-.12.04-.17.07-.05.03-.1.07-.13.12-.04.05-.05.1-.05.16,0,.07.02.12.06.17s.09.08.14.12c.06.03.12.05.18.07.07.02.13.04.18.05.25.06.45.13.62.2.16.07.29.15.39.23.1.08.17.18.21.28.04.1.06.21.06.34,0,.15-.03.29-.1.42-.07.13-.16.24-.28.34-.12.1-.26.17-.43.22-.17.05-.34.08-.54.08-.29,0-.55-.07-.77-.22-.23-.14-.38-.33-.46-.57l.58-.26c.07.17.17.28.29.33.12.06.25.09.4.09.19,0,.34-.05.47-.15Z"/>
          <path class="cls-6" d="M271.09,164.04c0-.12.04-.23.13-.31.08-.09.19-.13.31-.13s.22.04.31.13c.08.09.13.19.13.31s-.04.22-.13.31c-.08.08-.19.13-.31.13s-.22-.04-.31-.13c-.08-.08-.13-.19-.13-.31Z"/>
        </g>
      </g>
    </g>
  </g>
</svg>