<?xml version="1.0" encoding="UTF-8"?>
<svg id="Layer_2" data-name="Layer 2" xmlns="http://www.w3.org/2000/svg" viewBox="0 0 101.79 28.26">
  <defs>
    <style>
      .cls-1 {
        fill: #3d3d3d;
      }

      .cls-1, .cls-2 {
        stroke-width: 0px;
      }

      .cls-2 {
        fill: #a9f490;
      }
    </style>
  </defs>
  <g id="Layer_3" data-name="Layer 3">
    <path class="cls-2" d="M101.79,3.8s-.97,21.9-1.62,24.46c-19.41-2.56-72.18-4.14-99.99-1.33C.17,26.93-.05,3.77.01,3.17,21.02-1.25,71.04-1.06,101.79,3.8Z"/>
    <g>
      <path class="cls-1" d="M36.24,8.3c.45-.02.87.06,1.27.21.4.16.75.38,1.05.67.3.29.54.63.72,1.02.18.39.28.82.29,1.27.01.45-.06.88-.22,1.29-.16.4-.38.76-.66,1.07-.28.31-.61.55-.99.74-.38.18-.79.28-1.23.3-.81.03-1.62.06-2.43.09.06,1.48.12,2.95.18,4.43-.79.03-1.57.07-2.36.1-.17-3.66-.35-7.32-.52-10.98,1.63-.08,3.25-.14,4.88-.2ZM36.08,12.73c.3-.01.56-.13.78-.36.22-.23.32-.5.31-.82-.01-.31-.13-.57-.37-.79-.23-.21-.5-.32-.81-.31-.71.03-1.42.05-2.13.08.03.76.06,1.52.09,2.28.71-.03,1.41-.06,2.12-.08Z"/>
      <path class="cls-1" d="M43,16.97c1.51-.03,3.02-.05,4.54-.06,0,.71.01,1.43.02,2.14-2.29.02-4.58.05-6.87.11-.09-3.66-.18-7.32-.27-10.99.81-.02,1.61-.04,2.42-.05.06,2.95.11,5.9.17,8.85Z"/>
      <path class="cls-1" d="M55.32,8.08c1.53,3.68,3.01,7.37,4.46,11.07-.85-.02-1.7-.04-2.54-.05-.32-.79-.64-1.58-.96-2.37-1.56-.02-3.13-.04-4.69-.04-.33.78-.66,1.57-.98,2.35-.85,0-1.71,0-2.56,0,1.51-3.67,3.06-7.34,4.65-10.99.88,0,1.75.01,2.63.02ZM55.42,14.58c-.47-1.16-.95-2.32-1.43-3.47-.5,1.15-1,2.3-1.49,3.45.97,0,1.94.01,2.92.03Z"/>
      <path class="cls-1" d="M66.68,8.38c.97.04,1.94.08,2.91.13-1.43,1.88-2.85,3.77-4.24,5.67-.06,1.71-.13,3.43-.19,5.14-.79-.03-1.57-.06-2.36-.08.05-1.71.11-3.43.16-5.14-1.26-1.99-2.54-3.97-3.85-5.95.97.02,1.94.04,2.91.07.75,1.15,1.49,2.3,2.22,3.45.8-1.1,1.61-2.2,2.43-3.29Z"/>
    </g>
  </g>
</svg>