<?xml version="1.0" encoding="UTF-8"?>
<svg id="Layer_2" data-name="Layer 2" xmlns="http://www.w3.org/2000/svg" viewBox="0 0 111.77 24.28">
  <defs>
    <style>
      .cls-1 {
        fill: #3d3d3d;
      }

      .cls-1, .cls-2 {
        stroke-width: 0px;
      }

      .cls-2 {
        fill: #a9f490;
      }
    </style>
  </defs>
  <g id="Layer_2-2" data-name="Layer 2">
    <path class="cls-2" d="M111.77,2.28s-.3,19.63-1,22c-22-1-80-2-110.48-.22C.29,24.07-.06,2.59,0,2.03,22.77-.72,77.77-.72,111.77,2.28Z"/>
    <g>
      <path class="cls-1" d="M22.33,7.96c.74-.03,1.47-.06,2.21-.08.12,3.39.25,6.79.37,10.18-.69.03-1.39.05-2.08.08-1.71-2.15-3.44-4.3-5.18-6.44.1,2.22.2,4.43.3,6.65-.73.03-1.46.07-2.18.1-.16-3.39-.32-6.79-.48-10.18.69-.03,1.38-.06,2.06-.09,1.76,2.16,3.51,4.32,5.25,6.48-.09-2.23-.17-4.46-.26-6.69Z"/>
      <path class="cls-1" d="M25.91,7.83c2.15-.07,4.29-.14,6.44-.2.02.66.04,1.32.05,1.98-1.41.04-2.82.08-4.22.13.02.61.04,1.23.06,1.84,1.24-.04,2.47-.08,3.71-.11.02.66.04,1.32.06,1.98-1.23.03-2.47.07-3.7.11.03.8.05,1.6.08,2.4,1.4-.05,2.79-.09,4.19-.13.02.66.04,1.32.05,1.98-2.12.06-4.24.12-6.37.2-.12-3.4-.24-6.79-.36-10.19Z"/>
      <path class="cls-1" d="M40.03,12.16c1.26,1.81,2.52,3.62,3.77,5.43-.87.01-1.74.03-2.62.04-.81-1.16-1.63-2.32-2.44-3.48-.77,1.19-1.53,2.38-2.29,3.57-.88.02-1.75.04-2.63.06,1.18-1.86,2.37-3.72,3.56-5.58-1.09-1.54-2.19-3.08-3.29-4.62.88-.02,1.76-.04,2.65-.06.64.9,1.28,1.8,1.92,2.7.6-.93,1.2-1.85,1.81-2.78.89-.02,1.78-.03,2.66-.04-1.04,1.58-2.07,3.17-3.1,4.75Z"/>
      <path class="cls-1" d="M44.21,7.39c2.49-.03,4.99-.06,7.48-.07,0,.66,0,1.32.01,1.98-.88,0-1.75.01-2.63.02.02,2.74.04,5.47.07,8.21-.73,0-1.46.01-2.19.02-.03-2.74-.06-5.47-.09-8.21-.88,0-1.75.02-2.63.03,0-.66-.02-1.32-.03-1.98Z"/>
      <path class="cls-1" d="M58.15,15.51c1.4,0,2.8,0,4.19.02,0,.66,0,1.32-.01,1.98-2.12-.02-4.25-.02-6.37-.02,0-3.4,0-6.79,0-10.19.74,0,1.47,0,2.21,0,0,2.74-.01,5.47-.02,8.21Z"/>
      <path class="cls-1" d="M63.25,7.33c2.15.02,4.3.04,6.44.08-.01.66-.02,1.32-.03,1.98-1.41-.02-2.82-.04-4.22-.06,0,.61-.01,1.23-.02,1.84,1.24.01,2.47.03,3.71.05,0,.66-.02,1.32-.03,1.98-1.23-.02-2.47-.03-3.7-.05,0,.8-.02,1.6-.03,2.4,1.4.01,2.8.03,4.19.06-.01.66-.02,1.32-.03,1.98-2.12-.03-4.25-.06-6.37-.08.03-3.4.06-6.79.08-10.19Z"/>
      <path class="cls-1" d="M79.41,7.62c.8.02,1.6.04,2.4.07-1.55,3.35-3.08,6.71-4.6,10.07-.8-.02-1.6-.04-2.4-.06-1.35-3.43-2.73-6.85-4.11-10.27.8.01,1.6.03,2.4.04,1,2.56,2,5.12,2.98,7.68,1.1-2.51,2.21-5.03,3.33-7.54Z"/>
      <path class="cls-1" d="M82.82,7.71c2.15.07,4.29.14,6.44.22-.03.66-.05,1.32-.08,1.98-1.41-.05-2.81-.1-4.22-.15-.02.61-.04,1.23-.06,1.84,1.24.04,2.47.08,3.71.13-.02.66-.05,1.32-.07,1.98-1.23-.05-2.47-.09-3.7-.13-.03.8-.05,1.6-.08,2.4,1.4.05,2.79.1,4.19.15-.03.66-.05,1.32-.08,1.98-2.12-.08-4.24-.15-6.37-.22.1-3.4.21-6.79.31-10.19Z"/>
      <path class="cls-1" d="M92.5,16.28c1.4.06,2.79.12,4.19.19-.03.66-.06,1.32-.09,1.98-2.12-.1-4.24-.19-6.37-.28.13-3.39.27-6.79.4-10.18.74.03,1.47.06,2.21.09-.12,2.73-.23,5.47-.35,8.2Z"/>
    </g>
  </g>
</svg>