<?xml version="1.0" encoding="UTF-8"?>
<svg id="Layer_2" data-name="Layer 2" xmlns="http://www.w3.org/2000/svg" viewBox="0 0 101.82 28.03">
  <defs>
    <style>
      .cls-1 {
        fill: #3d3d3d;
      }

      .cls-1, .cls-2 {
        stroke-width: 0px;
      }

      .cls-2 {
        fill: #ff85b7;
      }
    </style>
  </defs>
  <g id="Layer_3" data-name="Layer 3">
    <path class="cls-2" d="M101.82,3.04l-2.05,25c-21.8-3.02-77.86-3.08-99.66-1.1C.12,26.94-.05,2.54.02,1.93,34.27-1.03,72.78-.52,101.82,3.04Z"/>
    <g>
      <path class="cls-1" d="M27.84,17.1c1.51-.06,3.02-.12,4.53-.17.02.73.05,1.46.07,2.19-2.29.08-4.58.17-6.87.27-.17-3.76-.34-7.51-.51-11.27.8-.04,1.6-.07,2.4-.1.12,3.03.25,6.05.37,9.08Z"/>
      <path class="cls-1" d="M32.98,7.83c2.34-.07,4.67-.13,7.01-.18.01.73.03,1.46.04,2.2-1.53.03-3.06.07-4.59.11.02.68.04,1.36.06,2.04,1.34-.04,2.68-.07,4.02-.1.01.73.03,1.46.04,2.2-1.34.03-2.67.06-4.01.1.02.89.05,1.77.07,2.66,1.51-.04,3.02-.08,4.53-.11.01.73.03,1.46.04,2.2-2.29.04-4.58.1-6.87.17-.12-3.76-.24-7.52-.35-11.28Z"/>
      <path class="cls-1" d="M50.56,7.54c.87,0,1.74,0,2.61,0-1.59,3.75-3.15,7.52-4.68,11.28-.86,0-1.73,0-2.59.02-1.58-3.75-3.18-7.49-4.82-11.22.87-.02,1.74-.03,2.61-.04,1.18,2.8,2.34,5.6,3.49,8.4,1.11-2.82,2.23-5.63,3.38-8.45Z"/>
      <path class="cls-1" d="M54.26,7.55c2.34.01,4.67.04,7.01.08-.01.73-.03,1.46-.04,2.2-1.53-.03-3.06-.05-4.59-.06,0,.68-.01,1.36-.02,2.04,1.34.01,2.68.03,4.02.05-.01.73-.02,1.46-.04,2.2-1.34-.02-2.67-.04-4.01-.05,0,.89-.02,1.77-.03,2.66,1.51.01,3.02.04,4.53.06-.01.73-.03,1.46-.04,2.2-2.29-.04-4.58-.07-6.87-.08.02-3.76.04-7.52.06-11.28Z"/>
      <path class="cls-1" d="M64.95,16.8c1.51.04,3.02.08,4.53.13-.02.73-.05,1.46-.07,2.19-2.29-.07-4.58-.14-6.87-.18.08-3.76.15-7.52.23-11.28.8.02,1.6.03,2.4.05-.07,3.03-.15,6.06-.22,9.08Z"/>
      <path class="cls-1" d="M77.56,13.63c.43.29.74.64.95,1.07.21.42.3.91.27,1.45-.03.51-.17.98-.43,1.41-.26.43-.61.8-1.06,1.12-.41.29-.87.5-1.37.65-.51.14-1.04.21-1.6.19-.56-.02-1.09-.12-1.59-.3-.5-.18-.94-.43-1.32-.77-.57-.48-.96-1.04-1.15-1.7.74-.32,1.48-.64,2.22-.96,0,.11.03.24.09.4.07.16.18.32.32.47.15.15.35.29.59.41.24.12.55.18.91.2.29.01.55-.01.77-.08.23-.07.42-.15.57-.25.15-.1.27-.23.36-.37.08-.14.13-.28.14-.43,0-.17-.04-.33-.14-.48-.1-.15-.27-.28-.49-.37-.41-.17-.85-.31-1.31-.43-.46-.12-.9-.26-1.34-.44-.43-.17-.83-.39-1.2-.66-.37-.27-.65-.63-.85-1.1-.18-.41-.27-.84-.25-1.3.02-.51.15-1,.41-1.47.25-.47.59-.86,1.01-1.17.4-.29.85-.51,1.34-.66.49-.15,1.01-.21,1.54-.19.54.02,1.05.12,1.53.3.48.18.91.43,1.29.76.37.3.65.65.85,1.04-.62.38-1.24.77-1.85,1.16-.21-.32-.47-.58-.79-.78-.32-.2-.69-.31-1.1-.33-.57-.02-1.01.09-1.33.33-.32.24-.49.57-.5.98,0,.19.07.36.24.52.17.16.39.3.66.42.27.13.58.24.92.35.34.1.68.21,1.02.31.34.1.65.21.95.32.3.11.54.23.72.35Z"/>
    </g>
  </g>
</svg>