<?xml version="1.0" encoding="UTF-8"?>
<svg id="Layer_2" data-name="Layer 2" xmlns="http://www.w3.org/2000/svg" viewBox="0 0 32.72 19.07">
  <defs>
    <style>
      .cls-1, .cls-2, .cls-3, .cls-4, .cls-5, .cls-6, .cls-7, .cls-8, .cls-9, .cls-10, .cls-11, .cls-12 {
        stroke-width: 0px;
      }

      .cls-1, .cls-2, .cls-7, .cls-8 {
        opacity: .5;
      }

      .cls-1, .cls-11 {
        fill: #f26b6b;
      }

      .cls-2, .cls-4 {
        fill: #9b3434;
      }

      .cls-3 {
        fill: #c14242;
      }

      .cls-5 {
        fill: #3d6345;
      }

      .cls-6 {
        fill: #dadde5;
      }

      .cls-7, .cls-12 {
        fill: #f7c4c4;
      }

      .cls-8, .cls-9 {
        fill: #e29191;
      }

      .cls-13 {
        font-family: Kollektif, Kollektif;
        font-size: 2.27px;
      }

      .cls-13, .cls-10 {
        fill: #fff;
      }
    </style>
  </defs>
  <g id="Layer_1-2" data-name="Layer 1">
    <g>
      <rect class="cls-6" y="0" width="32.72" height="19.07" rx="3.59" ry="3.59"/>
      <rect class="cls-10" x=".94" y="1.18" width="30.6" height="16.74" rx="2.92" ry="2.92"/>
      <g>
        <circle class="cls-3" cx="10.96" cy="5" r="3.3"/>
        <circle class="cls-8" cx="11.98" cy="3.21" r=".48"/>
        <circle class="cls-1" cx="12.26" cy="6.31" r=".6"/>
        <circle class="cls-8" cx="12.58" cy="4.91" r=".25"/>
        <circle class="cls-7" cx="9.91" cy="3.23" r=".77"/>
        <circle class="cls-2" cx="10.29" cy="6.02" r=".25"/>
        <circle class="cls-2" cx="8.98" cy="5.41" r=".51"/>
        <circle class="cls-2" cx="13.14" cy="3.98" r=".31"/>
        <circle class="cls-1" cx="13.29" cy="4.76" r=".29"/>
      </g>
      <g>
        <circle class="cls-3" cx="4.84" cy="12.06" r="3.3"/>
        <circle class="cls-8" cx="2.89" cy="12.73" r=".48"/>
        <circle class="cls-1" cx="6.94" cy="10.9" r=".6"/>
        <circle class="cls-8" cx="3.56" cy="11.06" r=".25"/>
        <circle class="cls-12" cx="4.46" cy="14.08" r=".77"/>
        <circle class="cls-2" cx="6.02" cy="11.73" r=".25"/>
        <circle class="cls-2" cx="6.59" cy="13.05" r=".51"/>
        <circle class="cls-2" cx="2.52" cy="11.39" r=".31"/>
        <circle class="cls-1" cx="2.92" cy="10.71" r=".29"/>
      </g>
      <g>
        <circle class="cls-3" cx="5.89" cy="5.89" r="3.3"/>
        <circle class="cls-8" cx="5.03" cy="4.01" r=".48"/>
        <circle class="cls-1" cx="7.25" cy="7.86" r=".6"/>
        <circle class="cls-8" cx="6.76" cy="4.51" r=".25"/>
        <circle class="cls-7" cx="3.83" cy="5.71" r=".77"/>
        <circle class="cls-2" cx="6.33" cy="7.02" r=".25"/>
        <circle class="cls-2" cx="5.07" cy="7.73" r=".51"/>
        <circle class="cls-2" cx="6.33" cy="3.51" r=".31"/>
        <circle class="cls-1" cx="7.05" cy="3.85" r=".29"/>
      </g>
      <g>
        <circle class="cls-3" cx="17.25" cy="14.07" r="3.3"/>
        <circle class="cls-8" cx="19.15" cy="13.27" r=".48"/>
        <circle class="cls-1" cx="17.49" cy="15.9" r=".6"/>
        <circle class="cls-8" cx="18.6" cy="14.98" r=".25"/>
        <circle class="cls-7" cx="17.49" cy="12.02" r=".77"/>
        <circle class="cls-4" cx="16.1" cy="14.48" r=".25"/>
        <circle class="cls-2" cx="15.43" cy="13.2" r=".51"/>
        <circle class="cls-2" cx="19.61" cy="14.58" r=".31"/>
        <circle class="cls-1" cx="19.25" cy="15.29" r=".29"/>
      </g>
      <g>
        <circle class="cls-3" cx="9.75" cy="13.89" r="3.3"/>
        <circle class="cls-8" cx="7.79" cy="13.24" r=".48"/>
        <circle class="cls-11" cx="12.13" cy="14.24" r=".6"/>
        <circle class="cls-8" cx="9.34" cy="12.32" r=".25"/>
        <circle class="cls-12" cx="8.23" cy="15.27" r=".77"/>
        <circle class="cls-4" cx="10.89" cy="14.34" r=".25"/>
        <circle class="cls-4" cx="10.55" cy="15.74" r=".51"/>
        <circle class="cls-2" cx="8.31" cy="11.95" r=".31"/>
        <circle class="cls-1" cx="9.04" cy="11.65" r=".29"/>
      </g>
      <g>
        <circle class="cls-3" cx="13.75" cy="9.64" r="3.3"/>
        <circle class="cls-8" cx="14.2" cy="7.63" r=".48"/>
        <circle class="cls-1" cx="13.64" cy="12.04" r=".6"/>
        <circle class="cls-8" cx="15.28" cy="9.08" r=".25"/>
        <circle class="cls-7" cx="12.23" cy="8.26" r=".77"/>
        <circle class="cls-2" cx="13.42" cy="10.82" r=".25"/>
        <circle class="cls-2" cx="11.99" cy="10.62" r=".51"/>
        <circle class="cls-2" cx="15.54" cy="8.02" r=".31"/>
        <circle class="cls-1" cx="15.91" cy="8.72" r=".29"/>
      </g>
      <g>
        <circle class="cls-3" cx="22.11" cy="10.02" r="3.3"/>
        <circle class="cls-9" cx="23.58" cy="11.46" r=".48"/>
        <circle class="cls-1" cx="20.51" cy="10.96" r=".6"/>
        <circle class="cls-9" cx="21.79" cy="11.62" r=".25"/>
        <circle class="cls-7" cx="24.08" cy="9.44" r=".77"/>
        <circle class="cls-2" cx="21.28" cy="9.12" r=".25"/>
        <circle class="cls-2" cx="22.19" cy="8.01" r=".51"/>
        <circle class="cls-4" cx="22.56" cy="12.39" r=".31"/>
        <circle class="cls-11" cx="21.77" cy="12.34" r=".29"/>
      </g>
      <g>
        <circle class="cls-3" cx="17.73" cy="5.27" r="3.3"/>
        <circle class="cls-8" cx="17.47" cy="3.22" r=".4"/>
        <circle class="cls-1" cx="18.33" cy="7.59" r=".6"/>
        <circle class="cls-8" cx="18.84" cy="4.22" r=".23"/>
        <circle class="cls-7" cx="15.86" cy="4.41" r=".77"/>
        <circle class="cls-2" cx="17.75" cy="6.49" r=".25"/>
        <circle class="cls-2" cx="16.33" cy="6.73" r=".51"/>
        <circle class="cls-2" cx="18.63" cy="3.19" r=".26"/>
        <circle class="cls-1" cx="19.51" cy="3.75" r=".29"/>
      </g>
      <g>
        <circle class="cls-3" cx="21.89" cy="4.78" r="3.3"/>
        <circle class="cls-8" cx="23.92" cy="4.41" r=".48"/>
        <circle class="cls-1" cx="19.64" cy="5.62" r=".6"/>
        <circle class="cls-8" cx="23.01" cy="5.96" r=".25"/>
        <circle class="cls-7" cx="22.57" cy="2.84" r=".77"/>
        <circle class="cls-2" cx="20.68" cy="4.93" r=".25"/>
        <circle class="cls-2" cx="20.3" cy="3.54" r=".51"/>
        <circle class="cls-2" cx="24.08" cy="5.79" r=".31"/>
        <circle class="cls-1" cx="23.58" cy="6.41" r=".29"/>
      </g>
      <g>
        <circle class="cls-3" cx="22.85" cy="13.27" r="3.3"/>
        <circle class="cls-8" cx="21.42" cy="14.74" r=".48"/>
        <circle class="cls-1" cx="21.91" cy="11.67" r=".6"/>
        <circle class="cls-8" cx="21.25" cy="12.95" r=".25"/>
        <circle class="cls-7" cx="23.43" cy="15.24" r=".77"/>
        <circle class="cls-2" cx="23.75" cy="12.44" r=".25"/>
        <circle class="cls-4" cx="24.86" cy="13.35" r=".51"/>
        <circle class="cls-2" cx="20.48" cy="13.71" r=".31"/>
        <circle class="cls-1" cx="20.53" cy="12.92" r=".29"/>
      </g>
      <g>
        <circle class="cls-3" cx="27.84" cy="7.24" r="3.3"/>
        <circle class="cls-8" cx="29.89" cy="7.07" r=".48"/>
        <circle class="cls-1" cx="25.51" cy="7.84" r=".6"/>
        <circle class="cls-8" cx="28.83" cy="8.52" r=".25"/>
        <circle class="cls-7" cx="28.7" cy="5.37" r=".77"/>
        <circle class="cls-2" cx="26.62" cy="7.27" r=".25"/>
        <circle class="cls-2" cx="26.38" cy="5.84" r=".51"/>
        <circle class="cls-2" cx="29.92" cy="8.46" r=".31"/>
        <circle class="cls-1" cx="29.36" cy="9.02" r=".29"/>
      </g>
      <g>
        <circle class="cls-3" cx="27.38" cy="13.52" r="3.3"/>
        <circle class="cls-8" cx="28.6" cy="15.18" r=".48"/>
        <circle class="cls-1" cx="25.65" cy="11.86" r=".6"/>
        <circle class="cls-8" cx="26.81" cy="15.04" r=".25"/>
        <circle class="cls-7" cx="29.43" cy="13.28" r=".77"/>
        <circle class="cls-2" cx="26.72" cy="12.49" r=".25"/>
        <circle class="cls-2" cx="27.8" cy="11.55" r=".51"/>
        <circle class="cls-2" cx="27.43" cy="15.93" r=".31"/>
        <circle class="cls-1" cx="26.66" cy="15.75" r=".29"/>
      </g>
      <rect class="cls-5" x="2.82" y="12.99" width="13.89" height="3.25" rx="1.36" ry="1.36"/>
      <text class="cls-13" transform="translate(4.62 15.31)"><tspan x="0" y="0">pepperoni</tspan></text>
    </g>
  </g>
</svg>