<?xml version="1.0" encoding="UTF-8"?>
<svg id="Layer_2" data-name="Layer 2" xmlns="http://www.w3.org/2000/svg" version="1.1" viewBox="0 0 14 30.3">
  <defs>
    <style>
      .cls-1 {
        fill: #8da6ff;
      }

      .cls-1, .cls-2, .cls-3, .cls-4 {
        stroke-width: 0px;
      }

      .cls-2 {
        fill: #43439e;
      }

      .cls-5 {
        isolation: isolate;
      }

      .cls-3 {
        fill: #fff;
      }

      .cls-4 {
        fill: #678bef;
      }
    </style>
  </defs>
  <rect class="cls-1" y="7" width="14" height="23.3"/>
  <polygon class="cls-4" points="14 7 0 7 2.3 2.3 11.7 2.3 14 7"/>
  <rect class="cls-1" x="2.3" width="9.3" height="2.3"/>
  <rect class="cls-3" y="12.8" width="14" height="8.2"/>
  <g class="cls-5">
    <path class="cls-2" d="M1.9,19.3h-.7v-3.5h.6v.3c.2-.1.3-.2.5-.3s.3-.1.4-.1.1,0,.2,0c0,0,.2,0,.3,0,0,0,.2,0,.3.2,0,0,.2.2.2.3,0-.2.2-.3.4-.4s.3-.2.5-.2.3,0,.4,0,.3.1.4.2c.1.1.2.3.3.4,0,.2.1.4.1.7v2.1h-.7v-2.1c0-.3,0-.5-.2-.6-.1-.1-.3-.2-.5-.2s-.3,0-.4.2c-.1.1-.2.3-.2.6v2.1h-.7v-2.1c0-.3,0-.5-.2-.6-.1-.1-.3-.2-.5-.2s-.3,0-.4.2c-.1.1-.2.3-.2.5v2.2Z"/>
    <path class="cls-2" d="M7,15c-.1,0-.2,0-.3-.1,0,0-.1-.2-.1-.3s0-.2.1-.3c0,0,.2-.1.3-.1s.2,0,.3.1c0,0,.1.2.1.3s0,.2-.1.3c0,0-.2.1-.3.1ZM7.3,19.3h-.7v-3.5h.7v3.5Z"/>
    <path class="cls-2" d="M8.9,14v5.3h-.7v-5.3h.7Z"/>
    <path class="cls-2" d="M10.4,19.3h-.7v-5.3h.7v3.3l1.4-1.4h.9l-1.3,1.4,1.4,2.1h-.8l-1.1-1.6-.4.5v1.1Z"/>
  </g>
</svg>