<?xml version="1.0" encoding="UTF-8"?>
<svg xmlns="http://www.w3.org/2000/svg" viewBox="0 0 89.35 37.73">
  <defs>
    <style>
      .cls-1 {
        opacity: .69;
      }

      .cls-2 {
        fill: #f4d1b3;
      }

      .cls-2, .cls-3, .cls-4, .cls-5, .cls-6, .cls-7, .cls-8, .cls-9, .cls-10, .cls-11, .cls-12 {
        stroke-width: 0px;
      }

      .cls-13 {
        opacity: .2;
      }

      .cls-13, .cls-14 {
        mix-blend-mode: multiply;
      }

      .cls-15 {
        isolation: isolate;
      }

      .cls-3 {
        fill: #cea27a;
      }

      .cls-4 {
        fill: #f7d5bc;
      }

      .cls-5 {
        fill: #c7e7ef;
      }

      .cls-6 {
        fill: #569ed8;
      }

      .cls-7 {
        fill: #af7c52;
      }

      .cls-8 {
        fill: #468956;
      }

      .cls-9 {
        fill: #61a35a;
      }

      .cls-10 {
        fill: #ef5959;
      }

      .cls-11 {
        fill: #ff6464;
      }

      .cls-12 {
        fill: #ff7d55;
      }

      .cls-14 {
        fill: none;
        opacity: .5;
        stroke: #e85938;
        stroke-miterlimit: 10;
        stroke-width: .75px;
      }
    </style>
  </defs>
  <g class="cls-15">
    <g id="Layer_2" data-name="Layer 2">
      <g id="Layer_1-2" data-name="Layer 1">
        <g>
          <path class="cls-10" d="M13.4,20.7c2.62,2.01,2.85,5.6.06,10.08-2.3,3.69-7.06,4.84-9.95,2.4-2.72-2.3-2.77-6.68-.13-10.13,2.65-3.45,7.01-4.65,10.02-2.35Z"/>
          <g class="cls-13">
            <path class="cls-11" d="M4.16,23.41c-.51-1.11,2.81-3.73,5.58-3.22,2.85.07,5.16,3.26,4.35,3.67-.58.45-3.37-.78-5.37-.29-2.03.02-4.44,1.16-4.56-.16Z"/>
          </g>
          <polygon class="cls-8" points="2.88 27.08 6.63 27.72 4.49 23.89 9.2 18.91 5.98 20.9 4.84 18.43 2.95 23 .19 25.51 1.15 26.07 0 31.59 2.88 27.08"/>
        </g>
        <g>
          <path class="cls-10" d="M33.06,30.55c-1.03,3.14-4.35,4.54-9.49,3.38-4.24-.96-6.9-5.07-5.55-8.6,1.27-3.32,5.39-4.82,9.52-3.46,4.13,1.36,6.7,5.09,5.52,8.68Z"/>
          <g class="cls-13">
            <path class="cls-11" d="M29.31,23.5c6.51,1.6,2.98,7.85,1.49,6.17-.59-.51-2.85-1.72-5.5-1.1-2.99.58-.31-5.74,4-5.07Z"/>
          </g>
          <polygon class="cls-8" points="23.57 22.72 24.2 26.48 27.1 23.19 33.36 25.99 30.42 23.6 32.38 21.72 27.44 21.44 24.16 19.67 23.95 20.76 18.36 21.49 23.57 22.72"/>
        </g>
        <g class="cls-1">
          <path class="cls-9" d="M78.35,5.01c-.36-.77-.45-2.07.31-2.7s2.04-.27,2.7.23c.64.48.45,1.52.45,1.52l.84-.51c.45-.27.94-.47,1.46-.52.07,0,.14-.01.21-.02,2.26-.09,2.38,2.58,2.04,3.11-.15.24-.18.52-1.12,1.17-1.13.78-1.76.55-1.79.87-.05.52.78.63,1.2,1.46.42.83.19,1.95-.31,2.7-.96,1.44-3.11,1.77-4.21,1-1.4-.98-.96-3.7-.89-4.16.2-1.22.67-1.85.31-2.7-.31-.73-.83-.67-1.2-1.46Z"/>
          <path class="cls-12" d="M61.58,11.35c2.83.33,14.71,1.45,18-.56,1.9-1.16,2.03-4.54,0-5.35-1.68-.67-3.75-.79-5.95-.57-4.2.43-8.87,2.15-12.26,3.85-2.38,1.19-1.32,2.45.22,2.63Z"/>
          <g>
            <path class="cls-12" d="M71.73,5.8l.58,2.63-.58-2.63Z"/>
            <path class="cls-14" d="M71.73,5.8l.58,2.63-.58-2.63Z"/>
          </g>
          <g>
            <path class="cls-12" d="M73.77,5.3l.58,2.63-.58-2.63Z"/>
            <path class="cls-14" d="M73.77,5.3l.58,2.63-.58-2.63Z"/>
          </g>
          <g>
            <path class="cls-12" d="M69.49,6.37l.58,2.63-.58-2.63Z"/>
            <path class="cls-14" d="M69.49,6.37l.58,2.63-.58-2.63Z"/>
          </g>
        </g>
        <g>
          <path class="cls-9" d="M75.8,3.18c-.45-.73-.69-2.01,0-2.71s2-.5,2.71-.08c.69.4.62,1.46.62,1.46l.77-.61c.41-.32.88-.57,1.39-.69.07-.02.14-.03.21-.04,2.23-.35,2.66,2.29,2.38,2.86-.12.25-.12.54-.97,1.29-1.04.9-1.68.75-1.68,1.07.01.52.85.54,1.36,1.32.51.78.41,1.92,0,2.71-.79,1.54-2.89,2.12-4.07,1.48-1.51-.82-1.38-3.57-1.36-4.03.06-1.24.46-1.91,0-2.71-.39-.69-.9-.57-1.36-1.32Z"/>
          <path class="cls-12" d="M59.86,11.39c2.85,0,14.77-.24,17.82-2.61,1.76-1.37,1.49-4.74-.61-5.31-1.75-.47-3.82-.36-5.98.12-4.12.91-8.56,3.15-11.74,5.22-2.23,1.45-1.03,2.58.52,2.58Z"/>
          <g>
            <path class="cls-12" d="M69.32,4.72l.88,2.54-.88-2.54Z"/>
            <path class="cls-14" d="M69.32,4.72l.88,2.54-.88-2.54Z"/>
          </g>
          <g>
            <path class="cls-12" d="M71.28,3.99l.88,2.54-.88-2.54Z"/>
            <path class="cls-14" d="M71.28,3.99l.88,2.54-.88-2.54Z"/>
          </g>
          <g>
            <path class="cls-12" d="M67.15,5.54l.88,2.54-.88-2.54Z"/>
            <path class="cls-14" d="M67.15,5.54l.88,2.54-.88-2.54Z"/>
          </g>
        </g>
        <g>
          <rect class="cls-5" x="34.17" y="2.7" width="20.58" height="9.03" rx="1.81" ry="1.81"/>
          <rect class="cls-6" x="33.3" y="2.7" width="22.32" height="2.82" rx=".72" ry=".72"/>
        </g>
        <g>
          <path class="cls-2" d="M71.8,29.81l1.99,5.14c.59.66,1.69.62,3.24-.02,1.33-.78,1.88-1.56,2.04-2.35l-4.46-4.87c-.27,1.3-1.26,1.97-2.82,2.1Z"/>
          <path class="cls-3" d="M77.7,24.83c.88,1.71,1.36,2.65-3.3,5.61-3.76,2.38-5.6,1.13-6.48-.58s.6-4.22,3.3-5.61,5.6-1.13,6.48.58Z"/>
        </g>
        <g>
          <path class="cls-3" d="M82.73,26.74c1.85.83,2.87,1.28.99,6.8-1.52,4.45-3.87,4.63-5.72,3.81s-2.29-3.87-.99-6.8,3.87-4.63,5.72-3.81Z"/>
          <path class="cls-2" d="M81.17,34.74l5.04,2.92c1.04-.22,1.92-.96,2.66-2.16.57-1.26.68-2.38.13-3.29l-6.89-1.06c-1.13,1.19-1.47,2.39-.94,3.6Z"/>
        </g>
        <g>
          <path class="cls-7" d="M87.19,25.91c-1.08,1.72-1.67,2.67-6.87.03-4.19-2.13-4.05-4.48-2.97-6.2s4.15-1.73,6.87-.03,4.05,4.48,2.97,6.2Z"/>
          <path class="cls-4" d="M79.48,23.24l-3.59,4.58c.08,1.06.68,2.03,1.77,2.93,1.17.74,2.26,1.01,3.24.59l2.01-6.67c-1.02-1.28-2.16-1.79-3.43-1.43Z"/>
        </g>
      </g>
    </g>
  </g>
</svg>