<?xml version="1.0" encoding="UTF-8"?>
<svg xmlns="http://www.w3.org/2000/svg" viewBox="0 0 84.4 30.54">
  <defs>
    <style>
      .cls-1 {
        fill: #00681d;
      }

      .cls-1, .cls-2, .cls-3, .cls-4, .cls-5, .cls-6, .cls-7, .cls-8 {
        stroke-width: 0px;
      }

      .cls-9, .cls-8 {
        mix-blend-mode: multiply;
        opacity: .2;
      }

      .cls-10 {
        isolation: isolate;
      }

      .cls-2, .cls-8 {
        fill: #bf3c3c;
      }

      .cls-3 {
        fill: #115b28;
      }

      .cls-4 {
        fill: #f44242;
      }

      .cls-5 {
        fill: #0b874f;
      }

      .cls-6 {
        fill: #fff;
      }

      .cls-7 {
        fill: #ff6464;
      }
    </style>
  </defs>
  <g class="cls-10">
    <g id="Layer_2" data-name="Layer 2">
      <g id="Layer_1-2" data-name="Layer 1">
        <g>
          <path class="cls-2" d="M.88,6.51l.27,18.08c.04,2.59,1.98,4.77,4.57,5.14,4.92.69,9.9.72,14.96.01,2.63-.37,4.59-2.59,4.59-5.21V6.48c0-3.15-2.79-5.56-5.97-5.21-4.08.46-8.23.42-12.44-.06C3.64.85.83,3.33.88,6.51Z"/>
          <path class="cls-8" d="M25.26,9.11c-8.19,1.52-16.32,1.55-24.38,0v-4.7h24.38v4.7Z"/>
          <path class="cls-3" d="M26.14,5.03c0,.99-.75,1.71-1.71,1.95-3.87.95-7.7.95-11.51.95s-7.34,0-11.12-.93c-1.01-.25-1.8-1.01-1.8-2.05v-2.3h26.14v2.39Z"/>
          <ellipse class="cls-5" cx="13.07" cy="2.74" rx="13.07" ry="2.74"/>
          <path class="cls-6" d="M21.15,24.32c-5.29.76-10.57.76-15.86,0v-14.04c5.22.7,10.51.68,15.86,0v14.04Z"/>
          <path class="cls-4" d="M18.52,17.87c.25,2.06-1.25,3.74-4.48,4.46-2.66.59-5.28-1.03-5.45-3.4-.17-2.23,1.77-4.18,4.48-4.52s5.17,1.09,5.46,3.45Z"/>
          <g class="cls-9">
            <path class="cls-7" d="M13.01,15.41c3.51-2.36,6.24,3.42,4.26,2.86-.59-.21-1.66-1.01-3.33-.74-1.64.63-2.45-.76-.92-2.12Z"/>
          </g>
          <polygon class="cls-1" points="11.03 15.97 12.4 17.93 13.17 15.28 17.47 15.2 15.16 14.63 15.77 13.03 12.89 14.2 10.55 14.07 10.72 14.75 7.75 16.66 11.03 15.97"/>
        </g>
        <g>
          <path class="cls-2" d="M29.82,6.8l.27,18.08c.04,2.59,1.98,4.77,4.57,5.14,4.92.69,9.9.72,14.96.01,2.63-.37,4.59-2.59,4.59-5.21V6.76c0-3.15-2.79-5.56-5.97-5.21-4.08.46-8.23.42-12.44-.06-3.21-.36-6.01,2.12-5.97,5.3Z"/>
          <path class="cls-8" d="M54.2,9.39c-8.19,1.52-16.32,1.55-24.38,0v-4.7h24.38v4.7Z"/>
          <path class="cls-3" d="M55.08,5.32c0,.99-.75,1.71-1.71,1.95-3.87.95-7.7.95-11.51.95s-7.34,0-11.12-.93c-1.01-.25-1.8-1.01-1.8-2.05v-2.3h26.14v2.39Z"/>
          <ellipse class="cls-5" cx="42.01" cy="3.03" rx="13.07" ry="2.74"/>
          <path class="cls-6" d="M50.09,24.61c-5.29.76-10.57.76-15.86,0v-14.04c5.22.7,10.51.68,15.86,0v14.04Z"/>
          <path class="cls-4" d="M47.46,18.15c.25,2.06-1.25,3.74-4.48,4.46-2.66.59-5.28-1.03-5.45-3.4-.17-2.23,1.77-4.18,4.48-4.52s5.17,1.09,5.46,3.45Z"/>
          <g class="cls-9">
            <path class="cls-7" d="M41.95,15.7c3.51-2.36,6.24,3.42,4.26,2.86-.59-.21-1.66-1.01-3.33-.74-1.64.63-2.45-.76-.92-2.12Z"/>
          </g>
          <polygon class="cls-1" points="39.97 16.25 41.34 18.21 42.11 15.57 46.41 15.48 44.1 14.91 44.71 13.32 41.83 14.48 39.49 14.36 39.66 15.03 36.69 16.94 39.97 16.25"/>
        </g>
        <g>
          <path class="cls-2" d="M59.13,6.52l.27,18.08c.04,2.59,1.98,4.77,4.57,5.14,4.92.69,9.9.72,14.96.01,2.63-.37,4.59-2.59,4.59-5.21V6.49c0-3.15-2.79-5.56-5.97-5.21-4.08.46-8.23.42-12.44-.06-3.21-.36-6.01,2.12-5.97,5.3Z"/>
          <path class="cls-8" d="M83.51,9.12c-8.19,1.52-16.32,1.55-24.38,0v-4.7h24.38v4.7Z"/>
          <path class="cls-3" d="M84.4,5.04c0,.99-.75,1.71-1.71,1.95-3.87.95-7.7.95-11.51.95s-7.34,0-11.12-.93c-1.01-.25-1.8-1.01-1.8-2.05v-2.3h26.14v2.39Z"/>
          <ellipse class="cls-5" cx="71.32" cy="2.75" rx="13.07" ry="2.74"/>
          <path class="cls-6" d="M79.4,24.33c-5.29.76-10.57.76-15.86,0v-14.04c5.22.7,10.51.68,15.86,0v14.04Z"/>
          <path class="cls-4" d="M76.77,17.88c.25,2.06-1.25,3.74-4.48,4.46-2.66.59-5.28-1.03-5.45-3.4-.17-2.23,1.77-4.18,4.48-4.52s5.17,1.09,5.46,3.45Z"/>
          <g class="cls-9">
            <path class="cls-7" d="M71.26,15.42c3.51-2.36,6.24,3.42,4.26,2.86-.59-.21-1.66-1.01-3.33-.74-1.64.63-2.45-.76-.92-2.12Z"/>
          </g>
          <polygon class="cls-1" points="69.29 15.98 70.65 17.94 71.42 15.29 75.72 15.21 73.42 14.64 74.02 13.04 71.14 14.21 68.8 14.08 68.98 14.76 66 16.67 69.29 15.98"/>
        </g>
      </g>
    </g>
  </g>
</svg>