<?xml version="1.0" encoding="UTF-8"?>
<svg id="Layer_2" data-name="Layer 2" xmlns="http://www.w3.org/2000/svg" viewBox="0 0 25.91 21.61">
  <defs>
    <style>
      .cls-1 {
        fill: #a1ff99;
      }

      .cls-1, .cls-2, .cls-3, .cls-4, .cls-5, .cls-6, .cls-7, .cls-8 {
        stroke-width: 0px;
      }

      .cls-2 {
        fill: #73aa6f;
      }

      .cls-3 {
        fill: #7de075;
      }

      .cls-4 {
        fill: #5f9b4e;
      }

      .cls-5 {
        fill: #60ba5b;
      }

      .cls-6 {
        fill: #80ed66;
      }

      .cls-7 {
        fill: #548e50;
      }

      .cls-8 {
        fill: #5fc159;
      }
    </style>
  </defs>
  <g id="Layer_1-2" data-name="Layer 1">
    <g>
      <path class="cls-2" d="M12.61.02c-1.01.22-1.43,1.35-1.99.79-1.92-1.92-2.93,2.07-3.25,2.45-.49.59,2.95-.87,2.78,1.01-.14,1.59-1.55,1.95-1.39,3.24.13,1.09,1.29,2.21,2.38,2.12.96-.08.47-1.85,2.05-3.51.84-.88,2.98-1.57,2.78-2.65-.33-1.79-.11-1.58-.13-2.07-.02-.51-.89-.6-1.85-.98-.29-.11-.83-.53-1.39-.41Z"/>
      <path class="cls-7" d="M20.63,1.81c-1.01.22-1.17,2.01-1.72,1.46-1.92-1.92-3.26.28-3.58.66-.49.59,2.35.7,2.19,2.58-.14,1.59-1.55,1.95-1.39,3.24.13,1.09,1.29,2.21,2.38,2.12.96-.08.47-1.85,2.05-3.51.84-.88,2.98-1.57,2.78-2.65-.33-1.79-1.63-.77-1.66-1.26-.02-.51.63-1.4-.33-1.79-.29-.11-.17-.98-.73-.86Z"/>
      <path class="cls-1" d="M22.08,15.05c-1.87,4.35-7.11,6.28-11.72,4.3-4.61-1.98-6.83-7.1-4.97-11.46,1.21-2.81,4.01-4.08,6.96-4.47.81-.11,1.45-.64,2.28-.53s1.5.69,2.32,1.04c.58.25,1.67,1.07,2.17,1.41.42.29,1.94-.09,2.3.26,2.62,2.48,2.09,6.1.66,9.44Z"/>
      <path class="cls-5" d="M21.82,17.67c-.62-.14-1.14-1.02-.95-1.62.23-.72,1.43-.79,1.39-1.26-.03-.49-1.26-.53-1.61-1.23-.28-.56.31-.94.96-2.32.37-.79,1.11-2.35.45-2.89-.52-.42-1.61,0-1.76-.27-.17-.31,1.27-.73,1.47-1.75.15-.8-.6-1.3-.36-1.53.46-.45,4.07.58,4.47,2.17.41,1.64-2.92,2.58-2.5,4.54.22,1.02,1.18,1.08,1.46,2.2.49,1.95-1.83,4.23-3.01,3.97Z"/>
      <path class="cls-8" d="M11.69,18.83c-1.25-2.59,1.57-2.88,4.04-4.3,2.19-1.26,6.03-8.94,7.75-6.56.59.82,1.34,5.31-.66,7.95-2.02,2.66-3.3,3.33-4.97,3.91-2.51.87-5.06,1.29-6.16-.99Z"/>
      <path class="cls-6" d="M9.83,2.67c1.94.65,1.46,6.25,1.59,7.81.15,1.85.47,5.68-2.05,7.35-1.13.75-.67,1.32-1.99.79-2.62-1.05-5.4-5.11-4.97-7.62C3.07,7.19,7.64,1.94,9.83,2.67Z"/>
      <path class="cls-5" d="M8.77,19.23c-2.29-.79-4.66-6.1-1.85-8.48.86-.73,1.39-4.87,2.91-4.24,1.03.43,2.02,2.72,1.79,3.51-.24.83,1.1.84.99,1.52-.14.86,1.02.85,1.26,2.19.28,1.57-.86,4.57-1.92,5.76-.59.67-2.09.11-3.18-.26Z"/>
      <path class="cls-3" d="M14.33,21.61c-1.32-.1-3.03-.94-3.05-1.85-.03-1.58,6.02.03,7.48-3.38.53-1.24.43-2.57,1.19-2.78.82-.23,1.44,1.17,2.32.99,1.34-.27,1.2-3.82,2.25-3.97.67-.1.75,2.37.66,3.58-.15,2.01-2.49.74-3.84,3.84-.47,1.07-.36,1.76-1.19,2.78-.83,1.01-2.49-.95-2.98-.73-.75.34-1.88,1.59-2.85,1.52Z"/>
      <path class="cls-4" d="M8.1,1.86c.51.38.62,1.4.2,1.87-.51.56-1.62.13-1.79.58-.17.46.94,1,.96,1.78.02.62-.67.73-1.82,1.72-.67.57-1.97,1.69-1.59,2.45.3.59,1.47.66,1.49.97.03.35-1.46.14-2.05.99-.47.67.02,1.43-.3,1.55-.6.23-3.47-2.2-3.19-3.81.3-1.66,3.72-1.16,4.14-3.12.22-1.02-.64-1.47-.43-2.6.35-1.98,3.4-3.11,4.37-2.39Z"/>
      <path class="cls-7" d="M12.37,5.18c.29-.19,2-.26,1.95.22-.22,1.95-.41.05-.11.98.14.43,1.08-.87,1.84,1.19.2.55.07,1.32-.22,1.95-.24.53-.02.54-.11.98-.08.37-.62.78-.11.98,1.23.48,2.52-1.05,3.04-.65.4.31-.05,1.5-.22,1.95-.31.81-1.88.56-2.28,2.71-.22,1.17-2.58,2.16-3.14,1.63-1.6-1.51-2.44-4.1-2.49-4.23-1.21-3.09.21-1.92.43-3.9.15-1.31-.25-2.15.33-2.93.24-.33.53-.51,1.08-.87Z"/>
    </g>
  </g>
</svg>