<?xml version="1.0" encoding="UTF-8"?>
<svg id="Layer_2" data-name="Layer 2" xmlns="http://www.w3.org/2000/svg" version="1.1" viewBox="0 0 24.4 14.2">
  <defs>
    <style>
      .cls-1 {
        fill: #ea3d3d;
      }

      .cls-1, .cls-2, .cls-3, .cls-4, .cls-5 {
        stroke-width: 0px;
      }

      .cls-6 {
        isolation: isolate;
      }

      .cls-2 {
        fill: #dadde5;
      }

      .cls-3 {
        fill: #fff;
      }

      .cls-4 {
        fill: #ff5a5a;
      }

      .cls-5 {
        fill: #675c8e;
      }
    </style>
  </defs>
  <g id="Layer_1-2" data-name="Layer 1-2">
    <g>
      <rect class="cls-2" width="24.4" height="14.2" rx="3.6" ry="3.6"/>
      <rect class="cls-3" x=".7" y=".9" width="22.8" height="12.5" rx="2.9" ry="2.9"/>
      <circle class="cls-4" cx="6.7" cy="7.4" r="4.8"/>
      <circle class="cls-1" cx="13" cy="6.5" r="4.8"/>
      <circle class="cls-4" cx="18.5" cy="7.8" r="4.8"/>
      <rect class="cls-5" x="4.3" y="6.4" width="15" height="3.5"/>
      <g class="cls-6">
        <path class="cls-3" d="M6.6,8.9h-.2v-1.8h.2v.7s0,0,.2-.1.1,0,.2,0,.2,0,.2,0c0,0,.1,0,.2.1,0,0,0,.1.1.2,0,0,0,.2,0,.2s0,.2,0,.2c0,0,0,.1-.1.2,0,0-.1,0-.2.1,0,0-.1,0-.2,0s-.1,0-.2,0-.1,0-.2-.1h0ZM7,7.9s0,0-.1,0,0,0-.1,0c0,0,0,0,0,.1s0,.1,0,.2,0,.1,0,.2,0,0,0,.1c0,0,0,0,.1,0,0,0,0,0,.1,0s0,0,.1,0c0,0,0,0,.1,0s0,0,0-.1,0,0,0-.2,0-.1,0-.2,0,0,0-.1,0,0-.1,0c0,0,0,0-.1,0Z"/>
        <path class="cls-3" d="M8.4,8.9c0,0-.2,0-.2,0s-.1,0-.2-.1,0-.1-.1-.2c0,0,0-.2,0-.2s0-.2,0-.2c0,0,0-.1.1-.2,0,0,.1,0,.2-.1,0,0,.1,0,.2,0s.2,0,.2,0c0,0,.1,0,.2.1s0,.1.1.2c0,0,0,.2,0,.3h-.9s0,0,0,.1c0,0,0,0,0,0s0,0,.1,0c0,0,0,0,.1,0s.1,0,.2,0c0,0,0,0,.1,0h.1c0,.2-.1.2-.2.3,0,0-.2,0-.3,0ZM8.3,7.9s0,0-.1,0,0,0,0,0c0,0,0,0,0,0s0,0,0,.1h.6s0,0,0-.1c0,0,0,0,0,0,0,0,0,0,0,0,0,0,0,0-.1,0Z"/>
        <path class="cls-3" d="M9.7,8.9c0,0-.2,0-.2,0s-.1,0-.2-.1,0-.1-.1-.2c0,0,0-.2,0-.2s0-.2,0-.2c0,0,0-.1.1-.2,0,0,.1,0,.2-.1,0,0,.1,0,.2,0s.2,0,.2,0c0,0,.1,0,.2.1s0,.1.1.2c0,0,0,.2,0,.3h-.9s0,0,0,.1c0,0,0,0,0,0s0,0,.1,0c0,0,0,0,.1,0s.1,0,.2,0c0,0,0,0,.1,0h.1c0,.2-.1.2-.2.3,0,0-.2,0-.3,0ZM9.6,7.9s0,0-.1,0,0,0,0,0c0,0,0,0,0,0s0,0,0,.1h.6s0,0,0-.1c0,0,0,0,0,0,0,0,0,0,0,0,0,0,0,0-.1,0Z"/>
        <path class="cls-3" d="M10.5,8.9v-.9h-.2v-.2h.2v-.2c0,0,0-.2,0-.2,0,0,0-.1,0-.1,0,0,0,0,.1,0,0,0,0,0,.1,0s.1,0,.2,0v.2c0,0-.1,0-.1,0,0,0-.1,0-.2,0,0,0,0,.1,0,.2v.2h.4v.2h-.4v.9h-.2Z"/>
        <path class="cls-3" d="M11.9,9.4v-1.6h.2c0,0,.1,0,.2,0s.1,0,.2,0,.2,0,.2,0,.1,0,.2.1c0,0,0,.1.1.2,0,0,0,.2,0,.2s0,.2,0,.2c0,0,0,.1-.1.2s-.1,0-.2.1-.1,0-.2,0-.1,0-.2,0c0,0-.1,0-.2-.1v.6h-.2ZM12.5,7.9s0,0-.1,0c0,0,0,0-.1,0,0,0,0,0,0,.1s0,.1,0,.2,0,.1,0,.2c0,0,0,0,0,.1s0,0,.1,0c0,0,0,0,.1,0s0,0,.1,0c0,0,0,0,.1,0,0,0,0,0,0-.1,0,0,0,0,0-.2s0-.1,0-.2c0,0,0,0,0-.1,0,0,0,0-.1,0,0,0,0,0-.1,0Z"/>
        <path class="cls-3" d="M14.4,7.8v1.1h-.2c0,0,0,0-.2,0s-.1,0-.2,0-.2,0-.2,0-.1,0-.2-.1,0-.1-.1-.2c0,0,0-.2,0-.2s0-.2,0-.2c0,0,0-.1.1-.2,0,0,.1,0,.2-.1s.1,0,.2,0,.1,0,.2,0c0,0,.1,0,.2.1h0c0-.1.2-.1.2-.1ZM13.8,8.7s0,0,.1,0c0,0,0,0,.1,0,0,0,0,0,0-.1s0,0,0-.2,0-.1,0-.2,0,0,0-.1c0,0,0,0-.1,0s0,0-.1,0,0,0-.1,0c0,0,0,0-.1,0s0,0,0,.1,0,0,0,.2,0,.1,0,.2,0,0,0,.1,0,0,.1,0c0,0,0,0,.1,0Z"/>
        <path class="cls-3" d="M15,8.9c0,0-.1,0-.2,0,0,0,0,0-.1-.1s0-.1,0-.2v-.6h-.2v-.2h.2v-.4h.2v.3h.3v.2h-.3v.6s0,0,0,0,0,0,0,0c0,0,0,0,0,0s0,0,.1,0v.2s0,0-.1,0Z"/>
        <path class="cls-3" d="M15.8,8.9c0,0-.1,0-.2,0,0,0,0,0-.1-.1,0,0,0-.1,0-.2v-.6h-.2v-.2h.2v-.4h.2v.3h.3v.2h-.3v.6s0,0,0,0,0,0,0,0c0,0,0,0,0,0s0,0,.1,0v.2s0,0-.1,0Z"/>
        <path class="cls-3" d="M16.6,8.8l-.5-1h.3l.4.7.3-.7h.3l-.7,1.6h-.3l.3-.6Z"/>
      </g>
    </g>
  </g>
</svg>