<?xml version="1.0" encoding="UTF-8"?>
<svg id="Layer_2" data-name="Layer 2" xmlns="http://www.w3.org/2000/svg" viewBox="0 0 258.17 105.84">
  <defs>
    <style>
      .cls-1 {
        fill: #f9b180;
      }

      .cls-1, .cls-2, .cls-3, .cls-4 {
        stroke-width: 0px;
      }

      .cls-2 {
        fill: #ffcaa6;
      }

      .cls-3 {
        fill: #fff;
      }

      .cls-4 {
        fill: #5c6cbc;
      }
    </style>
  </defs>
  <g id="Layer_1-2" data-name="Layer 1">
    <g>
      <g>
        <path class="cls-3" d="M72.5,0h75c18.5,0,49.32,8.67,60.48,23.43l15.52,33.57.31,1.68c1.09,5.99-1.02,10.19-4.31,15.32l-12,16c-25,16-36.58,15.94-55.78,15.82l-107.32-.65c-17.64-.11-31.95-3.96-38.9-20.17L.5,76c-1-7-1-28,5-37l10-19C17.5,13,57.5,0,72.5,0Z"/>
        <path class="cls-3" d="M225.5,54c-.92-.66,19.2-6.79,28.25-12.62,1.47-.54,2.9.9,2.35,2.37l-1.29,3.45c-.19.51-.15,1.08.12,1.55l3.01,5.27c.34.6.32,1.35-.07,1.93l-2.69,4.04c-.41.62-.41,1.42,0,2.04l2.69,4.04c.39.58.41,1.32.07,1.93l-2.92,5.1c-.32.56-.32,1.26,0,1.82l2.52,4.41c.52.91.17,2.08-.77,2.55l-3.12,1.56c-.69.34-1.09,1.08-1,1.84l.44,3.94c.17,1.53-1.5,2.58-2.8,1.75-8.09-8.53-17.37-17.54-27.78-18.96-.67-.42-.26.67-.07-.09l4.84-19.95c.14-.6-.85,2.71-1.77,2.05Z"/>
        <path class="cls-1" d="M112.88,81.55c0,5.48-3.46,10.28-8.44,11.66-10.11,2.79-23.14,5.19-38.34,5.14-14.63-.05-27.21-2.37-37.07-5.08-5.09-1.4-8.57-6.38-8.43-11.98v-.07c.17-6.53,5.18-11.72,11.31-11.72h69.65c6.25,0,11.31,5.39,11.31,12.05h0Z"/>
        <path class="cls-1" d="M196.26,83.55c0,5.48-3.46,10.28-8.44,11.66-10.11,2.79-23.14,5.19-38.34,5.14-14.63-.05-27.21-2.37-37.07-5.08-5.09-1.4-8.57-6.38-8.43-11.98v-.07c.17-6.53,5.18-11.72,11.31-11.72h69.65c6.25,0,11.31,5.39,11.31,12.05h0Z"/>
        <path class="cls-2" d="M20.89,72.45c-2.58-11.64,27.83-36.28,56.46-31.53,19.59,3.25,38.3,20.26,35.68,30.61-3.23,12.75-38.21,12.95-45.62,12.99-3.61.02-43.78.25-46.51-12.08Z"/>
        <path class="cls-2" d="M104.4,72.45c-2.58-11.64,27.83-36.28,56.46-31.53,19.59,3.25,38.3,20.26,35.68,30.61-3.23,12.75-38.21,12.95-45.62,12.99-3.61.02-43.78.25-46.51-12.08Z"/>
        <path class="cls-1" d="M113.5,50.55c0,5.48-3.46,10.28-8.44,11.66-10.11,2.79-23.14,5.19-38.34,5.14-14.63-.05-27.21-2.37-37.07-5.08-5.09-1.4-8.57-6.38-8.43-11.98v-.07c.17-6.53,5.18-11.72,11.31-11.72h69.65c6.25,0,11.31,5.39,11.31,12.05h0Z"/>
        <path class="cls-1" d="M196.87,52.55c0,5.48-3.46,10.28-8.44,11.66-10.11,2.79-23.14,5.19-38.34,5.14-14.63-.05-27.21-2.37-37.07-5.08-5.09-1.4-8.57-6.38-8.43-11.98v-.07c.17-6.53,5.18-11.72,11.31-11.72h69.65c6.25,0,11.31,5.39,11.31,12.05h0Z"/>
        <path class="cls-2" d="M21.51,40.45c-2.58-11.64,27.83-36.28,56.46-31.53,19.59,3.25,38.3,20.26,35.68,30.61-3.23,12.75-38.21,12.95-45.62,12.99-3.61.02-43.78.25-46.51-12.08Z"/>
        <path class="cls-2" d="M105.01,40.45c-2.58-11.64,27.83-36.28,56.46-31.53,19.59,3.25,38.3,20.26,35.68,30.61-3.23,12.75-38.21,12.95-45.62,12.99-3.61.02-43.78.25-46.51-12.08Z"/>
        <path class="cls-3" d="M87.76,15.81c.73.8,1.05,1.85.71,2.34s-1.21.23-1.94-.57c-.73-.8-1.05-1.85-.71-2.34s1.21-.23,1.94.57Z"/>
        <path class="cls-3" d="M66.72,13.95c.73.8,1.05,1.85.71,2.34s-1.21.23-1.94-.57c-.73-.8-1.05-1.85-.71-2.34s1.21-.23,1.94.57Z"/>
        <path class="cls-3" d="M76.1,12.07c.9-.63,1.8-.69,2.02-.13s-.33,1.5-1.22,2.13c-.9.63-1.8.69-2.02.13s.33-1.5,1.22-2.13Z"/>
        <path class="cls-3" d="M53.5,21.45c.56-1.02,1.33-1.58,1.71-1.26s.24,1.42-.32,2.44-1.33,1.58-1.71,1.26-.24-1.42.32-2.44Z"/>
        <path class="cls-3" d="M94.41,18.37c.9-.63,1.8-.69,2.02-.13.22.55-.33,1.5-1.22,2.13-.9.63-1.8.69-2.02.13s.33-1.5,1.22-2.13Z"/>
        <ellipse class="cls-3" cx="63.49" cy="24.67" rx="1.1" ry="1.72" transform="translate(37.06 87.45) rotate(-88.41)"/>
        <path class="cls-3" d="M44.73,16.75c.86-.6,1.72-.65,1.93-.13s-.31,1.44-1.17,2.03c-.86.6-1.72.65-1.93.13s.31-1.44,1.17-2.03Z"/>
        <path class="cls-3" d="M57.3,15.44c.7.77,1,1.77.68,2.24s-1.15.22-1.85-.54c-.7-.77-1-1.77-.68-2.24s1.15-.22,1.85.54Z"/>
        <path class="cls-3" d="M169.51,15.28c.73.8,1.05,1.85.71,2.34s-1.21.23-1.94-.57c-.73-.8-1.05-1.85-.71-2.34s1.21-.23,1.94.57Z"/>
        <path class="cls-3" d="M149.48,21.41c.73.8,1.05,1.85.71,2.34s-1.21.23-1.94-.57c-.73-.8-1.05-1.85-.71-2.34s1.21-.23,1.94.57Z"/>
        <path class="cls-3" d="M164.85,21.53c.9-.63,1.8-.69,2.02-.13s-.33,1.5-1.22,2.13c-.9.63-1.8.69-2.02.13s.33-1.5,1.22-2.13Z"/>
        <path class="cls-3" d="M135.25,22.91c.56-1.02,1.33-1.58,1.71-1.26s.24,1.42-.32,2.44-1.33,1.58-1.71,1.26-.24-1.42.32-2.44Z"/>
        <path class="cls-3" d="M179.16,23.84c.9-.63,1.8-.69,2.02-.13.22.55-.33,1.5-1.22,2.13-.9.63-1.8.69-2.02.13s.33-1.5,1.22-2.13Z"/>
        <ellipse class="cls-3" cx="148.24" cy="13.13" rx="1.1" ry="1.72" transform="translate(131 160.95) rotate(-88.41)"/>
        <path class="cls-3" d="M122.49,22.21c.86-.6,1.72-.65,1.93-.13s-.31,1.44-1.17,2.03c-.86.6-1.72.65-1.93.13s.31-1.44,1.17-2.03Z"/>
        <path class="cls-3" d="M139.06,14.9c.7.77,1,1.77.68,2.24s-1.15.22-1.85-.54c-.7-.77-1-1.77-.68-2.24s1.15-.22,1.85.54Z"/>
        <path class="cls-3" d="M158.48,15.22c.9-.63,1.8-.69,2.02-.13.22.55-.33,1.5-1.22,2.13-.9.63-1.8.69-2.02.13s.33-1.5,1.22-2.13Z"/>
        <path class="cls-3" d="M77.56,20.01c.9-.63,1.8-.69,2.02-.13s-.33,1.5-1.22,2.13c-.9.63-1.8.69-2.02.13s.33-1.5,1.22-2.13Z"/>
      </g>
      <polygon class="cls-4" points="219.5 48 227.5 51 222.11 73.19 218.96 74 219.5 48"/>
    </g>
  </g>
</svg>