<?xml version="1.0" encoding="UTF-8"?>
<svg id="Layer_2" data-name="Layer 2" xmlns="http://www.w3.org/2000/svg" version="1.1" viewBox="0 0 22.3 11.3">
  <defs>
    <style>
      .cls-1 {
        fill: #ffcaa6;
      }

      .cls-1, .cls-2, .cls-3, .cls-4 {
        stroke-width: 0px;
      }

      .cls-5, .cls-3 {
        isolation: isolate;
      }

      .cls-2 {
        fill: #ff7171;
      }

      .cls-3 {
        fill: #fff;
        opacity: .5;
      }

      .cls-4 {
        fill: #2d2d2d;
      }
    </style>
  </defs>
  <path class="cls-1" d="M2.6,8.7C1.3,3.8,6,.3,13.5.5c3.8,0,7.3,5.1,6.8,7.8-.6,3.3-5.6,2.2-9.2,2.2s-7.6,1.4-8.4-1.7h0Z"/>
  <rect class="cls-3" x=".9" width="20.6" height="11.3" rx="1.8" ry="1.8"/>
  <g class="cls-5">
    <g class="cls-5">
      <path class="cls-4" d="M7.9,5.2v2.7h-.3v-.2c-.1,0-.2.1-.3.2s-.2,0-.3,0-.2,0-.3,0c-.1,0-.2-.1-.3-.2,0,0-.1-.2-.2-.3,0-.1,0-.2,0-.4s0-.2,0-.4c0-.1.1-.2.2-.3,0,0,.2-.1.3-.2.1,0,.2,0,.3,0s.2,0,.3,0,.2,0,.2.2v-1.1h.4ZM7,7.6c0,0,.1,0,.2,0,0,0,.1,0,.2-.1,0,0,0-.1.1-.2,0,0,0-.2,0-.3s0-.2,0-.3c0,0,0-.1-.1-.2,0,0-.1,0-.2-.1,0,0-.1,0-.2,0s-.1,0-.2,0c0,0-.1,0-.2.1s0,.1-.1.2,0,.2,0,.2,0,.2,0,.2,0,.1.1.2.1,0,.2.1c0,0,.1,0,.2,0Z"/>
      <path class="cls-4" d="M9.1,7.9c-.1,0-.2,0-.3,0-.1,0-.2-.1-.3-.2s-.1-.2-.2-.3,0-.2,0-.4,0-.2,0-.4.1-.2.2-.3.2-.1.3-.2c.1,0,.2,0,.3,0s.2,0,.3,0c.1,0,.2.1.3.2s.1.2.2.3,0,.2,0,.4,0,.2,0,.4-.1.2-.2.3-.2.1-.3.2c-.1,0-.2,0-.3,0ZM9.1,6.4c0,0-.1,0-.2,0,0,0-.1,0-.2.1,0,0,0,.1-.1.2,0,0,0,.2,0,.2s0,.2,0,.2c0,0,0,.1.1.2,0,0,.1,0,.2.1,0,0,.1,0,.2,0s.1,0,.2,0,.1,0,.2-.1c0,0,0-.1.1-.2,0,0,0-.2,0-.2s0-.2,0-.2c0,0,0-.1-.1-.2,0,0-.1,0-.2-.1s-.1,0-.2,0Z"/>
      <path class="cls-4" d="M11.5,7.7c0,0-.1.1-.2.1s-.2,0-.3,0-.1,0-.2,0c0,0-.2,0-.2-.1,0,0-.1-.1-.2-.2,0,0,0-.2,0-.4v-1.1h.3v1.1c0,0,0,.1,0,.2,0,0,0,0,0,.1,0,0,0,0,.1,0s0,0,.2,0,0,0,.1,0c0,0,0,0,.1,0,0,0,0,0,.1-.1s0-.1,0-.2v-1.1h.4v1.8h-.3v-.2Z"/>
      <path class="cls-4" d="M13.1,7.8c-.1,0-.2,0-.3,0s-.2-.1-.3-.2-.1-.2-.2-.3c0-.1,0-.2,0-.3s0-.2,0-.3.1-.2.2-.3c0,0,.2-.1.3-.2.1,0,.2,0,.3,0s.2,0,.3,0,.2,0,.2.2v-.2h.4v.5c0,.1,0,.2,0,.4,0,.2,0,.3,0,.6s0,.1,0,.2,0,.1,0,.2c0,0,0,.1,0,.2,0,0,0,.1-.1.2,0,.1-.2.2-.3.2s-.3,0-.4,0-.2,0-.3,0-.2,0-.3-.1v-.4c0,0,.1.1.2.2.1,0,.2,0,.4,0s.2,0,.2,0,.1,0,.2-.1c0,0,.1-.1.1-.2s0-.2,0-.3h0s0,0-.1,0c0,0,0,0-.1,0,0,0-.1,0-.2,0s-.1,0-.2,0ZM13.1,6.4c0,0-.1,0-.2,0,0,0-.1,0-.2.1s0,.1-.1.2c0,0,0,.1,0,.2s0,.1,0,.2c0,0,0,.1.1.2s.1,0,.2.1c0,0,.1,0,.2,0s.1,0,.2,0,.1,0,.2,0c0,0,0-.1.1-.2s0-.1,0-.2,0-.2,0-.2c0,0,0-.1-.1-.2s-.1,0-.2,0-.1,0-.2,0Z"/>
      <path class="cls-4" d="M14.8,7.9h-.4v-2.7h.4v1.1c0,0,.1-.1.2-.2,0,0,.2,0,.3,0s.2,0,.3,0c0,0,.2.1.2.2s.1.2.2.3c0,.1,0,.2,0,.4v.9h-.4v-.9c0,0,0-.2,0-.2s0-.1,0-.2,0,0-.1-.1c0,0-.1,0-.2,0s-.1,0-.2,0c0,0,0,0-.1.1,0,0,0,.1-.1.2,0,0,0,.2,0,.3v.9Z"/>
    </g>
  </g>
  <rect class="cls-2" width="22.3" height="2.8" rx=".7" ry=".7"/>
</svg>