<?xml version="1.0" encoding="UTF-8"?>
<svg id="Layer_2" data-name="Layer 2" xmlns="http://www.w3.org/2000/svg" viewBox="0 0 111.28 23.16">
  <defs>
    <style>
      .cls-1 {
        fill: #3d3d3d;
      }

      .cls-1, .cls-2 {
        stroke-width: 0px;
      }

      .cls-2 {
        fill: #fff;
      }
    </style>
  </defs>
  <g id="Layer_2-2" data-name="Layer 2">
    <path class="cls-2" d="M111.28.92c-.38,15.24-.38,22.24-.38,22.24-26-1-83.42-1.03-110,0C.9,23.16-.06,1.41,0,.8c22.03-1.86,111.28.13,111.28.13Z"/>
    <g>
      <path class="cls-1" d="M12.95,11.86c.39.24.7.57.95.97.24.4.37.84.39,1.34.01.39-.05.77-.19,1.12-.14.35-.33.66-.59.92-.25.27-.54.48-.88.64-.34.16-.71.25-1.1.27-1.44.06-2.89.12-4.33.19-.14-3.17-.29-6.35-.43-9.52,1.41-.06,2.82-.12,4.23-.18.36-.02.7.04,1.03.17.32.13.61.3.86.52.25.22.45.49.59.8.15.31.23.64.24,1,.01.38-.05.73-.18,1.02-.14.3-.33.55-.59.76ZM11.46,15.25c.27-.01.49-.13.67-.37.18-.23.26-.5.25-.81-.01-.31-.12-.57-.31-.78-.2-.21-.43-.3-.7-.29-.77.03-1.53.06-2.3.1.03.75.06,1.5.1,2.24.76-.03,1.53-.07,2.29-.1ZM8.99,11.25c.72-.03,1.44-.06,2.16-.09.24-.01.45-.1.61-.28.16-.18.24-.39.23-.63-.01-.24-.1-.44-.28-.59-.18-.15-.39-.23-.63-.22-.72.03-1.44.06-2.17.09.02.57.05,1.15.07,1.72Z"/>
      <path class="cls-1" d="M21.07,7.22c1.44,3.13,2.87,6.27,4.28,9.41-.74.02-1.47.04-2.21.06-.31-.67-.62-1.34-.92-2.02-1.35.04-2.7.09-4.06.13-.26.69-.52,1.38-.78,2.07-.74.03-1.48.05-2.22.08,1.21-3.23,2.43-6.45,3.66-9.67.75-.03,1.49-.05,2.24-.07ZM21.4,12.85c-.45-.99-.9-1.97-1.35-2.96-.39,1.01-.77,2.03-1.16,3.04.84-.03,1.67-.06,2.51-.08Z"/>
      <path class="cls-1" d="M30.06,14.65c.43,0,.85-.12,1.26-.32.41-.21.82-.55,1.23-1.02.45.41.9.81,1.35,1.22-.52.69-1.11,1.22-1.78,1.58-.67.36-1.36.55-2.08.57-.65.02-1.25-.1-1.83-.35-.57-.25-1.07-.59-1.5-1.03-.43-.44-.77-.95-1.03-1.54-.26-.59-.39-1.22-.41-1.89-.02-.67.09-1.31.32-1.91.23-.6.55-1.13.97-1.59.41-.46.91-.83,1.48-1.1.57-.28,1.18-.42,1.84-.44.61-.01,1.19.09,1.74.3.55.21,1.1.57,1.63,1.08-.39.49-.78.98-1.16,1.46-.39-.34-.75-.57-1.09-.68-.34-.11-.7-.17-1.07-.16-.37,0-.72.09-1.04.25-.33.16-.61.37-.85.64-.24.27-.42.58-.55.94-.13.36-.19.74-.18,1.14.01.4.09.78.24,1.12.15.35.35.65.6.91.25.26.54.46.87.6.33.14.68.21,1.05.2Z"/>
      <path class="cls-1" d="M39.04,11.16c1.57,1.7,3.13,3.41,4.68,5.12-.84,0-1.68.02-2.52.03-1.14-1.28-2.29-2.56-3.44-3.84-.27.28-.54.56-.81.85.02,1.02.03,2.03.05,3.05-.68.01-1.36.02-2.04.04-.06-3.18-.12-6.36-.18-9.53.69-.01,1.38-.02,2.06-.04.02,1.29.04,2.57.06,3.86,1.26-1.31,2.53-2.61,3.81-3.92.88-.01,1.76-.02,2.63-.03-1.44,1.47-2.88,2.94-4.31,4.41Z"/>
      <path class="cls-1" d="M47.18,6.72c2.33-.02,4.65-.02,6.98-.02,0,.62,0,1.24,0,1.86-.82,0-1.64,0-2.45,0,0,2.56.01,5.12.02,7.68-.68,0-1.36,0-2.05,0-.01-2.56-.02-5.12-.03-7.68-.82,0-1.64,0-2.45.01,0-.62,0-1.24-.01-1.86Z"/>
      <path class="cls-1" d="M59.65,6.57c.65,0,1.27.14,1.84.4.58.26,1.08.62,1.5,1.07.43.45.76.97,1,1.57.24.59.36,1.23.35,1.9,0,.66-.14,1.29-.39,1.89-.25.6-.59,1.12-1.03,1.56-.43.44-.93.8-1.51,1.06-.58.26-1.19.39-1.83.39-.65,0-1.25-.14-1.83-.4-.57-.27-1.07-.62-1.49-1.07-.42-.45-.76-.97-1-1.57-.25-.6-.37-1.23-.37-1.9,0-.67.12-1.3.37-1.89.25-.59.59-1.11,1.01-1.56.43-.45.93-.8,1.51-1.06.58-.26,1.2-.39,1.85-.38ZM59.61,14.39c.37,0,.71-.07,1.04-.22.32-.15.61-.36.85-.62.24-.26.44-.57.58-.92.14-.35.21-.72.22-1.13,0-.4-.06-.78-.2-1.14-.14-.36-.33-.66-.57-.93-.24-.27-.52-.48-.85-.63-.32-.15-.67-.23-1.04-.23-.37,0-.72.07-1.04.22-.33.15-.61.36-.85.62-.24.26-.44.57-.58.93-.14.35-.21.73-.21,1.14,0,.4.07.78.21,1.13.14.35.33.66.57.92.24.27.52.48.84.63.32.15.67.23,1.03.23Z"/>
      <path class="cls-1" d="M77.66,6.95c.65.01,1.3.03,1.94.04-.08,3.18-.15,6.35-.23,9.53-.68-.02-1.36-.03-2.04-.05.05-2.1.09-4.19.14-6.29-.79,1.05-1.57,2.09-2.35,3.14-.54-.01-1.09-.02-1.63-.03-.75-1.04-1.5-2.09-2.26-3.13-.03,2.07-.07,4.13-.1,6.2-.68-.01-1.36-.02-2.04-.03.05-3.18.09-6.36.14-9.53.65,0,1.31.02,1.96.03,1.06,1.48,2.12,2.97,3.18,4.45,1.1-1.44,2.2-2.89,3.31-4.33Z"/>
      <path class="cls-1" d="M80.88,7.03c2,.05,4.01.11,6.01.17-.02.62-.04,1.24-.06,1.85-1.31-.04-2.63-.08-3.94-.11-.02.57-.03,1.15-.05,1.72,1.15.03,2.31.07,3.46.1-.02.62-.04,1.24-.06,1.85-1.15-.04-2.3-.07-3.46-.1-.02.75-.04,1.5-.06,2.25,1.31.04,2.61.07,3.92.11-.02.62-.04,1.24-.06,1.85-1.99-.06-3.97-.12-5.96-.17.08-3.18.16-6.35.24-9.53Z"/>
      <path class="cls-1" d="M94.76,7.47c.69.03,1.37.05,2.06.08-.13,3.18-.26,6.35-.39,9.53-.65-.03-1.3-.05-1.95-.08-1.44-2.13-2.9-4.26-4.36-6.39-.07,2.07-.14,4.15-.21,6.22-.68-.02-1.36-.05-2.04-.07.1-3.18.2-6.35.31-9.53.64.02,1.29.04,1.93.06,1.48,2.14,2.95,4.28,4.41,6.43.08-2.09.16-4.17.24-6.26Z"/>
      <path class="cls-1" d="M103.53,7.85c.69.03,1.37.07,2.06.1-.1,2.03-.2,4.06-.3,6.08-.02.47-.14.93-.36,1.35-.22.43-.51.8-.86,1.12-.36.31-.77.56-1.23.73-.46.18-.95.25-1.47.23-.51-.02-.99-.14-1.44-.36-.45-.22-.84-.5-1.16-.84-.32-.35-.57-.74-.75-1.19-.18-.45-.26-.91-.24-1.38.08-2.03.17-4.06.25-6.09.69.03,1.37.06,2.06.09-.08,1.89-.17,3.79-.25,5.68-.01.27.02.52.1.77.08.24.19.46.33.65.14.19.32.34.52.46.2.12.42.18.66.19.24.01.47-.03.68-.13.21-.1.4-.23.56-.41.17-.18.3-.38.4-.61.1-.23.16-.48.17-.75.09-1.89.18-3.79.27-5.68Z"/>
    </g>
  </g>
</svg>