<?xml version="1.0" encoding="UTF-8"?>
<svg id="Layer_2" data-name="Layer 2" xmlns="http://www.w3.org/2000/svg" viewBox="0 0 114.72 28.55">
  <defs>
    <style>
      .cls-1 {
        fill: #aea6e8;
      }

      .cls-1, .cls-2, .cls-3 {
        stroke-width: 0px;
      }

      .cls-2 {
        fill: #3d3d3d;
      }

      .cls-3 {
        fill: #d3d6f4;
      }
    </style>
  </defs>
  <g id="Layer_2-2" data-name="Layer 2">
    <path class="cls-3" d="M110.96.79s-.12,21.68.09,23.76c-23.05-.02-72.17.74-101.39,3.56,0,0-2.37-22.63-2.34-23.24C30.11,2.4,81.58.68,110.96.79Z"/>
    <path class="cls-1" d="M17.96,0c1.9,2.55,5.33,4.05,5.33,4.05-4.15,2.41-13.98,9.28-18.47,12.99,0,0-4.73-3.74-4.82-3.89C3.56,9.85,17.96,0,17.96,0Z"/>
    <path class="cls-1" d="M98.95,28.55c-1.72-3.42-3.89-5.28-3.89-5.28,3.36-.99,13.57-6.36,17.16-8.61,0,0,2.41,5.3,2.5,5.48-2.82,2.17-15.77,8.41-15.77,8.41Z"/>
    <g>
      <path class="cls-2" d="M43.91,17.03c1.1-.04,2.2-.08,3.3-.12.02.52.03,1.04.05,1.56-1.67.05-3.34.12-5,.19-.12-2.67-.24-5.33-.36-8,.58-.03,1.17-.05,1.75-.08.09,2.15.17,4.3.26,6.44Z"/>
      <path class="cls-2" d="M50.52,12.62c.43,0,.82.07,1.17.23.36.16.66.38.92.65.26.27.46.58.6.94.14.36.22.72.22,1.1,0,.23-.02.47-.08.72-1.34.02-2.68.05-4.02.08.16.25.38.46.66.63.28.17.59.25.91.24.32,0,.61-.04.85-.1.24-.06.48-.13.69-.22.18.32.36.63.54.95-.28.2-.59.36-.95.47-.36.11-.74.17-1.14.18-.44,0-.86-.06-1.25-.2-.39-.14-.73-.34-1.02-.6-.29-.26-.53-.56-.71-.92-.18-.36-.27-.74-.29-1.14-.01-.4.05-.78.19-1.14.14-.36.34-.68.61-.96.26-.27.57-.5.93-.66.35-.17.74-.26,1.15-.26ZM51.86,15.08c-.1-.32-.27-.58-.51-.78-.24-.2-.51-.29-.81-.29-.31,0-.58.11-.82.32-.24.21-.4.48-.49.8.87-.02,1.75-.04,2.62-.06Z"/>
      <path class="cls-2" d="M59.03,12.69c.57,0,1.14,0,1.71,0-.78,1.86-1.54,3.73-2.29,5.6-.67,0-1.34,0-2.01,0-.77-1.86-1.54-3.72-2.33-5.58.57,0,1.13-.01,1.7-.02.55,1.38,1.1,2.76,1.63,4.14.52-1.38,1.05-2.77,1.59-4.15Z"/>
      <path class="cls-2" d="M64.17,12.57c.43,0,.82.1,1.17.27.35.18.65.4.89.68.25.28.43.6.56.96.13.36.19.73.18,1.11,0,.23-.04.47-.11.72-1.34-.03-2.68-.05-4.02-.07.15.26.36.48.64.66.28.18.58.27.9.28.32,0,.61-.02.86-.06.25-.05.48-.11.7-.19.17.32.33.65.5.97-.28.19-.6.33-.96.43-.36.1-.74.14-1.15.14-.44,0-.86-.09-1.24-.25-.38-.16-.72-.37-1-.64-.28-.27-.51-.58-.67-.94-.16-.36-.25-.75-.24-1.15,0-.4.08-.78.24-1.13.16-.36.37-.67.64-.93.27-.26.59-.47.95-.63.36-.15.75-.23,1.16-.22ZM65.42,15.07c-.08-.33-.24-.59-.48-.8-.23-.21-.5-.31-.79-.32-.31,0-.58.09-.83.29-.25.2-.42.46-.52.78.87,0,1.75.02,2.62.04Z"/>
      <path class="cls-2" d="M68.3,10.15c.53.01,1.06.03,1.59.04-.08,2.75-.16,5.5-.25,8.25-.52-.02-1.04-.03-1.56-.04.07-2.75.14-5.5.21-8.25Z"/>
      <path class="cls-2" d="M74.21,10.6c.91.04,1.82.08,2.72.12-.13,2.67-.26,5.33-.39,8-.57-.03-1.14-.05-1.72-.08.09-2.15.19-4.29.29-6.44-.32-.01-.64-.03-.96-.04.02-.52.04-1.04.06-1.56Z"/>
    </g>
  </g>
</svg>