<?xml version="1.0" encoding="UTF-8"?>
<svg id="Layer_2" data-name="Layer 2" xmlns="http://www.w3.org/2000/svg" viewBox="0 0 115.04 47.39">
  <defs>
    <style>
      .cls-1 {
        fill: #ef7d7d;
      }

      .cls-1, .cls-2, .cls-3 {
        stroke-width: 0px;
      }

      .cls-2 {
        fill: #3d3d3d;
      }

      .cls-3 {
        fill: #fcc;
      }
    </style>
  </defs>
  <g id="Layer_2-2" data-name="Layer 2">
    <path class="cls-3" d="M115.04,8.34s-1.21,35.62-1.08,39.04c-26.07-1.64-79.79-4.41-112.98-1.83C.98,45.56.4,6.75,0,6.59c25.91-2.47,81.82-.49,115.04,1.75Z"/>
    <path class="cls-1" d="M44.79,0c-.46,3.82-3.15,7.47-3.15,7.47,5.75.03,20.09,1.33,26.97,2.52,0,0,2.7-6.78,2.71-6.99-5.67-1.33-26.53-3.01-26.53-3.01Z"/>
    <g>
      <path class="cls-2" d="M30.66,30.1c1.75-.01,3.5-.02,5.24-.01,0,.82,0,1.64,0,2.47-2.65,0-5.3,0-7.95.04-.04-4.23-.09-8.45-.12-12.68.93-.01,1.86-.02,2.78-.02.02,3.4.03,6.81.05,10.21Z"/>
      <path class="cls-2" d="M41.39,23.48c.68,0,1.3.15,1.85.42.55.28,1.03.64,1.42,1.08.39.44.69.95.9,1.52.21.57.3,1.15.29,1.75,0,.36-.06.74-.17,1.14-2.13-.04-4.25-.06-6.38-.08.24.41.58.75,1.02,1.04.44.28.92.43,1.44.43.51,0,.97-.03,1.36-.11.39-.08.76-.18,1.11-.31.27.51.53,1.02.8,1.53-.45.3-.96.53-1.53.69-.57.16-1.18.23-1.82.23-.71,0-1.36-.14-1.97-.39-.61-.25-1.14-.58-1.59-1-.45-.42-.81-.92-1.07-1.49-.26-.57-.39-1.18-.39-1.83,0-.63.12-1.23.37-1.8.24-.56.58-1.06,1.02-1.48.43-.42.93-.75,1.51-1,.57-.25,1.19-.37,1.84-.36ZM43.38,27.43c-.14-.51-.39-.93-.76-1.26-.37-.33-.79-.49-1.26-.5-.48,0-.92.15-1.32.47-.4.32-.67.73-.82,1.25,1.39,0,2.77.02,4.16.04Z"/>
      <path class="cls-2" d="M54.85,24.01c.9.03,1.8.06,2.71.09-1.32,2.91-2.63,5.82-3.91,8.74-1.06-.03-2.12-.06-3.19-.09-1.12-2.99-2.25-5.97-3.4-8.95.9.02,1.79.04,2.69.06.8,2.21,1.59,4.42,2.37,6.63.9-2.16,1.81-4.32,2.73-6.48Z"/>
      <path class="cls-2" d="M63,24.08c.68.03,1.29.19,1.83.49.54.29,1,.67,1.38,1.12.38.45.66.97.84,1.55.19.58.26,1.16.23,1.76-.02.36-.09.74-.21,1.13-2.12-.11-4.24-.21-6.36-.3.22.42.55.77.98,1.07.43.3.9.46,1.42.48.51.02.97,0,1.36-.06.39-.06.77-.15,1.12-.27.25.52.5,1.04.75,1.56-.46.29-.97.5-1.55.64-.58.14-1.18.19-1.83.16-.7-.03-1.35-.18-1.95-.45-.6-.27-1.12-.62-1.55-1.06-.44-.44-.78-.94-1.02-1.53-.24-.58-.35-1.19-.32-1.84.02-.63.17-1.23.43-1.78.26-.56.62-1.04,1.07-1.44.44-.41.96-.72,1.54-.95.58-.23,1.2-.32,1.85-.3ZM64.86,28.1c-.12-.52-.36-.95-.72-1.29-.36-.34-.77-.52-1.24-.54-.48-.02-.93.12-1.33.42-.41.3-.69.71-.86,1.22,1.38.06,2.77.12,4.15.19Z"/>
      <path class="cls-2" d="M69.64,20.46c.84.05,1.68.09,2.52.14-.27,4.35-.53,8.7-.79,13.04-.82-.05-1.64-.1-2.47-.14.24-4.35.49-8.7.73-13.05Z"/>
      <path class="cls-2" d="M84.96,26.75c.59.43,1.01.98,1.27,1.66.26.68.36,1.39.3,2.12-.05.61-.22,1.16-.49,1.67-.28.51-.63.95-1.06,1.32-.43.37-.92.65-1.47.84-.55.19-1.13.26-1.73.22-.47-.04-.93-.14-1.35-.33-.42-.18-.8-.41-1.14-.7-.34-.29-.63-.62-.88-1-.25-.38-.43-.79-.54-1.23.81-.28,1.62-.56,2.42-.83.06.42.24.79.54,1.11.29.32.65.49,1.07.52.24.02.47-.01.69-.1.22-.08.42-.21.6-.37.17-.16.32-.35.42-.58.11-.23.17-.46.19-.71.05-.57-.1-1.05-.43-1.43-.33-.39-.75-.6-1.24-.63-.29-.02-.58.01-.88.1-.3.09-.59.2-.88.35-.53-.45-1.07-.9-1.61-1.35.36-1.96.72-3.93,1.08-5.89,2.12.15,4.23.31,6.35.49-.07.82-.14,1.64-.2,2.46-1.37-.11-2.74-.22-4.11-.32-.12.71-.23,1.42-.34,2.13.24-.08.47-.13.71-.16.24-.03.48-.04.72-.02.4.03.77.11,1.12.24.35.13.64.28.87.44Z"/>
    </g>
  </g>
</svg>