<?xml version="1.0" encoding="UTF-8"?>
<svg xmlns="http://www.w3.org/2000/svg" viewBox="0 0 30.51 78.95">
  <defs>
    <style>
      .cls-1 {
        fill: #fff9f3;
      }

      .cls-1, .cls-2, .cls-3, .cls-4 {
        stroke-width: 0px;
      }

      .cls-2 {
        fill: #e0d6c6;
        mix-blend-mode: multiply;
        opacity: .2;
      }

      .cls-3 {
        fill: #e2d4c5;
      }

      .cls-4 {
        fill: #fffefa;
      }

      .cls-5 {
        isolation: isolate;
      }
    </style>
  </defs>
  <g class="cls-5">
    <g id="Layer_2" data-name="Layer 2">
      <g id="Layer_1-2" data-name="Layer 1">
        <g>
          <path class="cls-4" d="M1.03,28.73l.31,37.92c.04,5.43.5,8.66,5.33,10.77s12.07,1.94,17.45.02,5.35-5.44,5.35-10.94V28.66c0-6.61-3.26-11.67-6.97-10.93-4.76.95-9.61.88-14.52-.12-3.74-.76-7.02,4.44-6.96,11.12Z"/>
          <path class="cls-2" d="M29.48,29.92c-9.56,3.91-19.05,3.98-28.45,0v-12.06h28.45v12.06Z"/>
          <path class="cls-3" d="M30.51,23.67c0,2.12-.88,3.68-2,4.19-4.52,2.04-8.99,2.04-13.43,2.04s-8.57,0-12.98-2.01c-1.18-.54-2.1-2.18-2.1-4.41v-4.94h30.51v5.13Z"/>
          <ellipse class="cls-1" cx="15.26" cy="18.58" rx="15.26" ry="5.04"/>
          <path class="cls-3" d="M10.51,17.54L13.32.54c1.73-.8,3.49-.64,5.26,0l1.93,17c-3.33,2.2-6.67,2.2-10,0Z"/>
        </g>
      </g>
    </g>
  </g>
</svg>