<?xml version="1.0" encoding="UTF-8"?>
<svg xmlns="http://www.w3.org/2000/svg" viewBox="0 0 207.78 109.81">
  <defs>
    <style>
      .cls-1 {
        fill: #ccc;
      }

      .cls-1, .cls-2, .cls-3, .cls-4, .cls-5, .cls-6, .cls-7, .cls-8, .cls-9, .cls-10, .cls-11, .cls-12, .cls-13, .cls-14, .cls-15, .cls-16, .cls-17, .cls-18, .cls-19, .cls-20, .cls-21, .cls-22, .cls-23, .cls-24, .cls-25, .cls-26, .cls-27, .cls-28, .cls-29 {
        stroke-width: 0px;
      }

      .cls-2 {
        fill: #71ccff;
      }

      .cls-3 {
        fill: #00681d;
      }

      .cls-4 {
        fill: #2ea1ff;
      }

      .cls-5 {
        fill: #78ba7b;
      }

      .cls-6, .cls-30, .cls-17, .cls-22, .cls-28 {
        mix-blend-mode: multiply;
      }

      .cls-6, .cls-20 {
        fill: #bbe4ff;
      }

      .cls-30, .cls-28 {
        opacity: .2;
      }

      .cls-7, .cls-17 {
        fill: #aef4ae;
      }

      .cls-8 {
        fill: #c4c4c4;
      }

      .cls-31 {
        isolation: isolate;
      }

      .cls-9 {
        fill: #ff4545;
      }

      .cls-10 {
        fill: #ffccea;
      }

      .cls-11 {
        fill: #ff7171;
      }

      .cls-12 {
        fill: #f4f4f4;
      }

      .cls-13, .cls-28 {
        fill: #bf3c3c;
      }

      .cls-14 {
        fill: #ffd2b3;
      }

      .cls-15 {
        fill: #115b28;
      }

      .cls-16 {
        fill: #85f9ae;
      }

      .cls-18 {
        fill: #f44242;
      }

      .cls-19 {
        fill: #d49ded;
      }

      .cls-21 {
        fill: #eec0ff;
      }

      .cls-22, .cls-24 {
        fill: #a4b8f7;
      }

      .cls-23 {
        fill: #0b874f;
      }

      .cls-25 {
        fill: #fff;
      }

      .cls-26 {
        fill: #939393;
      }

      .cls-27 {
        fill: #ff6464;
      }

      .cls-29 {
        fill: #f9b587;
      }
    </style>
  </defs>
  <g class="cls-31">
    <g id="Layer_2" data-name="Layer 2">
      <g id="Layer_1-2" data-name="Layer 1">
        <g>
          <path class="cls-13" d="M126.8,44.51l.27,18.08c.04,2.59,1.98,4.77,4.57,5.14,4.92.69,9.9.72,14.96.01,2.63-.37,4.59-2.59,4.59-5.21v-18.05c0-3.15-2.79-5.56-5.97-5.21-4.08.46-8.23.42-12.44-.06-3.21-.36-6.01,2.12-5.97,5.3Z"/>
          <path class="cls-28" d="M151.18,47.11c-8.19,1.52-16.32,1.55-24.38,0v-4.7h24.38v4.7Z"/>
          <path class="cls-15" d="M152.06,43.03c0,.99-.75,1.71-1.71,1.95-3.87.95-7.7.95-11.51.95s-7.34,0-11.12-.93c-1.01-.25-1.8-1.01-1.8-2.05v-2.3h26.14v2.39Z"/>
          <ellipse class="cls-23" cx="138.99" cy="40.74" rx="13.07" ry="2.74"/>
          <path class="cls-25" d="M147.07,62.32c-5.29.76-10.57.76-15.86,0v-14.04c5.22.7,10.51.68,15.86,0v14.04Z"/>
          <path class="cls-18" d="M144.44,55.87c.25,2.06-1.25,3.74-4.48,4.46-2.66.59-5.28-1.03-5.45-3.4-.17-2.23,1.77-4.18,4.48-4.52s5.17,1.09,5.46,3.45Z"/>
          <g class="cls-30">
            <path class="cls-27" d="M138.93,53.41c3.51-2.36,6.24,3.42,4.26,2.86-.59-.21-1.66-1.01-3.33-.74-1.64.63-2.45-.76-.92-2.12Z"/>
          </g>
          <polygon class="cls-3" points="136.95 53.97 138.31 55.93 139.08 53.28 143.39 53.2 141.08 52.63 141.68 51.03 138.81 52.2 136.47 52.07 136.64 52.75 133.67 54.66 136.95 53.97"/>
        </g>
        <g>
          <path class="cls-13" d="M155.74,44.8l.27,18.08c.04,2.59,1.98,4.77,4.57,5.14,4.92.69,9.9.72,14.96.01,2.63-.37,4.59-2.59,4.59-5.21v-18.05c0-3.15-2.79-5.56-5.97-5.21-4.08.46-8.23.42-12.44-.06-3.21-.36-6.01,2.12-5.97,5.3Z"/>
          <path class="cls-28" d="M180.12,47.39c-8.19,1.52-16.32,1.55-24.38,0v-4.7h24.38v4.7Z"/>
          <path class="cls-15" d="M181,43.32c0,.99-.75,1.71-1.71,1.95-3.87.95-7.7.95-11.51.95s-7.34,0-11.12-.93c-1.01-.25-1.8-1.01-1.8-2.05v-2.3h26.14v2.39Z"/>
          <ellipse class="cls-23" cx="167.93" cy="41.03" rx="13.07" ry="2.74"/>
          <path class="cls-25" d="M176.01,62.61c-5.29.76-10.57.76-15.86,0v-14.04c5.22.7,10.51.68,15.86,0v14.04Z"/>
          <path class="cls-18" d="M173.38,56.15c.25,2.06-1.25,3.74-4.48,4.46-2.66.59-5.28-1.03-5.45-3.4-.17-2.23,1.77-4.18,4.48-4.52s5.17,1.09,5.46,3.45Z"/>
          <g class="cls-30">
            <path class="cls-27" d="M167.87,53.7c3.51-2.36,6.24,3.42,4.26,2.86-.59-.21-1.66-1.01-3.33-.74-1.64.63-2.45-.76-.92-2.12Z"/>
          </g>
          <polygon class="cls-3" points="165.89 54.25 167.25 56.21 168.02 53.57 172.33 53.48 170.02 52.91 170.62 51.32 167.75 52.48 165.41 52.36 165.58 53.03 162.61 54.94 165.89 54.25"/>
        </g>
        <g>
          <path class="cls-11" d="M97.83,88.92l-.62,1.24.13,13.95c.02,2.27.24,3.62,2.55,4.5,2.31.88,5.77.81,8.34,0s2.56-2.27,2.56-4.57v-14.03l-1.09-1.28"/>
          <path class="cls-9" d="M109.88,88.92c0,1.04-1.85,2.1-5.47,2.1s-6.59-1.06-6.59-2.1,2.97-1.66,6.59-1.66c3.17,0,5.47.62,5.47,1.66Z"/>
          <ellipse class="cls-8" cx="103.99" cy="89.08" rx="5.36" ry="1.63"/>
          <path class="cls-12" d="M97.17,96.29l.12,6.83c1.51,1.98,5.56,3.73,13.5-4.08v-7.27s-6.29,12.69-13.63,4.52Z"/>
          <path class="cls-26" d="M103.17,88.24s.12-.08,1.7-.48,2.77-.4,2.37.4l-.36.36c-.37.37-.85.63-1.37.7-1.55.21-3.35-.47-2.34-.99Z"/>
          <path class="cls-1" d="M106.03,88.48c0,.25-.54.45-1.2.45s-1.2-.2-1.2-.45.54-.45,1.2-.45,1.2.2,1.2.45Z"/>
          <path class="cls-1" d="M105.47,87.94c.01.12.84.07.92.35.03.08-.03.15,0,.17.09.06.61-.3.55-.52-.06-.22-.67-.27-1.11-.17-.17.04-.38.11-.37.17Z"/>
        </g>
        <g>
          <path class="cls-2" d="M112.94,89l-.62,1.24.13,13.95c.02,2.27.24,3.62,2.55,4.5,2.31.88,5.77.81,8.34,0s2.56-2.27,2.56-4.57v-14.03l-1.09-1.28"/>
          <path class="cls-4" d="M125,89c0,1.04-1.85,2.1-5.47,2.1s-6.59-1.06-6.59-2.1,2.97-1.66,6.59-1.66c3.17,0,5.47.62,5.47,1.66Z"/>
          <ellipse class="cls-8" cx="119.11" cy="89.16" rx="5.36" ry="1.63"/>
          <path class="cls-12" d="M112.29,96.37l.12,6.83c1.51,1.98,5.56,3.73,13.5-4.08v-7.27s-6.29,12.69-13.63,4.52Z"/>
          <path class="cls-26" d="M118.29,88.33s.12-.08,1.7-.48,2.77-.4,2.37.4l-.36.36c-.37.37-.85.63-1.37.7-1.55.21-3.35-.47-2.34-.99Z"/>
          <path class="cls-1" d="M121.15,88.56c0,.25-.54.45-1.2.45s-1.2-.2-1.2-.45.54-.45,1.2-.45,1.2.2,1.2.45Z"/>
          <path class="cls-1" d="M120.59,88.03c.01.12.84.07.92.35.03.08-.03.15,0,.17.09.06.61-.3.55-.52-.06-.22-.67-.27-1.11-.17-.17.04-.38.11-.37.17Z"/>
        </g>
        <g>
          <path class="cls-16" d="M128.03,88.57l-.62,1.24.13,13.95c.02,2.27.24,3.62,2.55,4.5,2.31.88,5.77.81,8.34,0s2.56-2.27,2.56-4.57v-14.03l-1.09-1.28"/>
          <path class="cls-5" d="M140.08,88.57c0,1.04-1.85,2.1-5.47,2.1s-6.59-1.06-6.59-2.1,2.97-1.66,6.59-1.66c3.17,0,5.47.62,5.47,1.66Z"/>
          <ellipse class="cls-8" cx="134.2" cy="88.73" rx="5.36" ry="1.63"/>
          <path class="cls-12" d="M127.37,95.94l.12,6.83c1.51,1.98,5.56,3.73,13.5-4.08v-7.27s-6.29,12.69-13.63,4.52Z"/>
          <path class="cls-26" d="M133.37,87.89s.12-.08,1.7-.48,2.77-.4,2.37.4l-.36.36c-.37.37-.85.63-1.37.7-1.55.21-3.35-.47-2.34-.99Z"/>
          <path class="cls-1" d="M136.23,88.13c0,.25-.54.45-1.2.45s-1.2-.2-1.2-.45.54-.45,1.2-.45,1.2.2,1.2.45Z"/>
          <path class="cls-1" d="M135.68,87.59c.01.12.84.07.92.35.03.08-.03.15,0,.17.09.06.61-.3.55-.52-.06-.22-.67-.27-1.11-.17-.17.04-.38.11-.37.17Z"/>
        </g>
        <path class="cls-29" d="M167.18,19.87c0,1.41-.89,2.64-2.17,2.99-2.6.72-5.94,1.33-9.85,1.32-3.76-.01-6.99-.61-9.52-1.3-1.31-.36-2.2-1.64-2.17-3.08v-.02c.04-1.68,1.33-3.01,2.91-3.01h17.89c1.61,0,2.91,1.39,2.91,3.1h0Z"/>
        <path class="cls-14" d="M143.58,17.02c-.66-2.99,7.15-9.32,14.5-8.1,5.03.84,9.84,5.21,9.17,7.87-.83,3.28-9.82,3.33-11.72,3.34-.93,0-11.25.06-11.95-3.1Z"/>
        <path class="cls-29" d="M167.33,11.9c0,1.41-.89,2.64-2.17,2.99-2.6.72-5.94,1.33-9.85,1.32-3.76-.01-6.99-.61-9.52-1.3-1.31-.36-2.2-1.64-2.17-3.08v-.02c.04-1.68,1.33-3.01,2.91-3.01h17.89c1.61,0,2.91,1.39,2.91,3.1h0Z"/>
        <path class="cls-14" d="M143.73,8.8c-.66-2.99,7.15-9.32,14.5-8.1,5.03.84,9.84,5.21,9.17,7.87-.83,3.28-9.82,3.33-11.72,3.34-.93,0-11.25.06-11.95-3.1Z"/>
        <ellipse class="cls-25" cx="160.15" cy="2.56" rx=".27" ry=".51" transform="translate(30.86 97.1) rotate(-37.09)"/>
        <ellipse class="cls-25" cx="155" cy="4.13" rx=".27" ry=".51" transform="translate(28.87 94.32) rotate(-37.09)"/>
        <ellipse class="cls-25" cx="159.21" cy="4.19" rx=".51" ry=".27" transform="translate(34.57 103.34) rotate(-40.01)"/>
        <ellipse class="cls-25" cx="151.68" cy="4.44" rx=".54" ry=".23" transform="translate(80.54 138.48) rotate(-63.72)"/>
        <ellipse class="cls-25" cx="162.89" cy="4.78" rx=".51" ry=".27" transform="translate(35.05 105.84) rotate(-40.01)"/>
        <ellipse class="cls-25" cx="154.84" cy="1.78" rx=".28" ry=".44" transform="translate(148.77 156.51) rotate(-88.41)"/>
        <ellipse class="cls-25" cx="148.32" cy="4.36" rx=".49" ry=".25" transform="translate(31.92 96.38) rotate(-40.01)"/>
        <ellipse class="cls-25" cx="152.33" cy="2.45" rx=".26" ry=".49" transform="translate(29.34 92.36) rotate(-37.09)"/>
        <ellipse class="cls-25" cx="157.57" cy="2.57" rx=".51" ry=".27" transform="translate(35.23 101.91) rotate(-40.01)"/>
        <ellipse class="cls-25" cx="163.86" cy="3.41" rx=".49" ry=".25" transform="translate(36.16 106.15) rotate(-40.01)"/>
        <path class="cls-29" d="M115.22,19.32c0,1.41-.89,2.64-2.17,2.99-2.6.72-5.94,1.33-9.85,1.32-3.76-.01-6.99-.61-9.52-1.3-1.31-.36-2.2-1.64-2.17-3.08v-.02c.04-1.68,1.33-3.01,2.91-3.01h17.89c1.61,0,2.91,1.39,2.91,3.1h0Z"/>
        <path class="cls-14" d="M91.62,16.47c-.66-2.99,7.15-9.32,14.5-8.1,5.03.84,9.84,5.21,9.17,7.87-.83,3.28-9.82,3.33-11.72,3.34-.93,0-11.25.06-11.95-3.1Z"/>
        <path class="cls-29" d="M115.38,11.36c0,1.41-.89,2.64-2.17,2.99-2.6.72-5.94,1.33-9.85,1.32-3.76-.01-6.99-.61-9.52-1.3-1.31-.36-2.2-1.64-2.17-3.08v-.02c.04-1.68,1.33-3.01,2.91-3.01h17.89c1.61,0,2.91,1.39,2.91,3.1h0Z"/>
        <path class="cls-14" d="M91.78,8.25c-.66-2.99,7.15-9.32,14.5-8.1,5.03.84,9.84,5.21,9.17,7.87-.83,3.28-9.82,3.33-11.72,3.34-.93,0-11.25.06-11.95-3.1Z"/>
        <ellipse class="cls-25" cx="108.2" cy="2.01" rx=".27" ry=".51" transform="translate(20.68 65.66) rotate(-37.09)"/>
        <ellipse class="cls-25" cx="103.05" cy="3.59" rx=".27" ry=".51" transform="translate(18.69 62.87) rotate(-37.09)"/>
        <ellipse class="cls-25" cx="107.26" cy="3.65" rx=".51" ry=".27" transform="translate(22.76 69.81) rotate(-40.01)"/>
        <ellipse class="cls-25" cx="99.73" cy="3.9" rx=".54" ry=".23" transform="translate(52.08 91.59) rotate(-63.72)"/>
        <ellipse class="cls-25" cx="110.93" cy="4.24" rx=".51" ry=".27" transform="translate(23.24 72.31) rotate(-40.01)"/>
        <ellipse class="cls-25" cx="102.89" cy="1.23" rx=".28" ry=".44" transform="translate(98.8 104.05) rotate(-88.41)"/>
        <ellipse class="cls-25" cx="96.37" cy="3.81" rx=".49" ry=".25" transform="translate(20.11 62.85) rotate(-40.01)"/>
        <ellipse class="cls-25" cx="100.38" cy="1.91" rx=".26" ry=".49" transform="translate(19.16 60.92) rotate(-37.09)"/>
        <ellipse class="cls-25" cx="105.62" cy="2.03" rx=".51" ry=".27" transform="translate(23.42 68.38) rotate(-40.01)"/>
        <ellipse class="cls-25" cx="111.91" cy="2.86" rx=".49" ry=".25" transform="translate(24.35 72.62) rotate(-40.01)"/>
        <path class="cls-29" d="M88.51,19.32c0,1.41-.89,2.64-2.17,2.99-2.6.72-5.94,1.33-9.85,1.32-3.76-.01-6.99-.61-9.52-1.3-1.31-.36-2.2-1.64-2.17-3.08v-.02c.04-1.68,1.33-3.01,2.91-3.01h17.89c1.61,0,2.91,1.39,2.91,3.1h0Z"/>
        <path class="cls-14" d="M64.91,16.47c-.66-2.99,7.15-9.32,14.5-8.1,5.03.84,9.84,5.21,9.17,7.87-.83,3.28-9.82,3.33-11.72,3.34-.93,0-11.25.06-11.95-3.1Z"/>
        <path class="cls-29" d="M88.67,11.36c0,1.41-.89,2.64-2.17,2.99-2.6.72-5.94,1.33-9.85,1.32-3.76-.01-6.99-.61-9.52-1.3-1.31-.36-2.2-1.64-2.17-3.08v-.02c.04-1.68,1.33-3.01,2.91-3.01h17.89c1.61,0,2.91,1.39,2.91,3.1h0Z"/>
        <path class="cls-14" d="M65.07,8.25c-.66-2.99,7.15-9.32,14.5-8.1,5.03.84,9.84,5.21,9.17,7.87-.83,3.28-9.82,3.33-11.72,3.34-.93,0-11.25.06-11.95-3.1Z"/>
        <ellipse class="cls-25" cx="81.48" cy="2.01" rx=".27" ry=".51" transform="translate(15.27 49.55) rotate(-37.09)"/>
        <ellipse class="cls-25" cx="76.34" cy="3.59" rx=".27" ry=".51" transform="translate(13.28 46.76) rotate(-37.09)"/>
        <ellipse class="cls-25" cx="80.54" cy="3.65" rx=".51" ry=".27" transform="translate(16.51 52.64) rotate(-40.01)"/>
        <ellipse class="cls-25" cx="73.02" cy="3.9" rx=".54" ry=".23" transform="translate(37.19 67.64) rotate(-63.72)"/>
        <ellipse class="cls-25" cx="84.22" cy="4.24" rx=".51" ry=".27" transform="translate(16.99 55.14) rotate(-40.01)"/>
        <ellipse class="cls-25" cx="76.18" cy="1.23" rx=".28" ry=".44" transform="translate(72.83 77.35) rotate(-88.41)"/>
        <ellipse class="cls-25" cx="69.66" cy="3.81" rx=".49" ry=".25" transform="translate(13.85 45.68) rotate(-40.01)"/>
        <ellipse class="cls-25" cx="73.67" cy="1.91" rx=".26" ry=".49" transform="translate(13.76 44.81) rotate(-37.09)"/>
        <ellipse class="cls-25" cx="78.91" cy="2.03" rx=".51" ry=".27" transform="translate(17.17 51.21) rotate(-40.01)"/>
        <ellipse class="cls-25" cx="85.19" cy="2.86" rx=".49" ry=".25" transform="translate(18.1 55.44) rotate(-40.01)"/>
        <path class="cls-29" d="M140.94,19.32c0,1.41-.89,2.64-2.17,2.99-2.6.72-5.94,1.33-9.85,1.32-3.76-.01-6.99-.61-9.52-1.3-1.31-.36-2.2-1.64-2.17-3.08v-.02c.04-1.68,1.33-3.01,2.91-3.01h17.89c1.61,0,2.91,1.39,2.91,3.1h0Z"/>
        <path class="cls-14" d="M117.34,16.47c-.66-2.99,7.15-9.32,14.5-8.1,5.03.84,9.84,5.21,9.17,7.87-.83,3.28-9.82,3.33-11.72,3.34-.93,0-11.25.06-11.95-3.1Z"/>
        <path class="cls-29" d="M141.09,11.36c0,1.41-.89,2.64-2.17,2.99-2.6.72-5.94,1.33-9.85,1.32-3.76-.01-6.99-.61-9.52-1.3-1.31-.36-2.2-1.64-2.17-3.08v-.02c.04-1.68,1.33-3.01,2.91-3.01h17.89c1.61,0,2.91,1.39,2.91,3.1h0Z"/>
        <path class="cls-14" d="M117.49,8.25c-.66-2.99,7.15-9.32,14.5-8.1,5.03.84,9.84,5.21,9.17,7.87-.83,3.28-9.82,3.33-11.72,3.34-.93,0-11.25.06-11.95-3.1Z"/>
        <ellipse class="cls-25" cx="133.91" cy="2.01" rx=".27" ry=".51" transform="translate(25.88 81.17) rotate(-37.09)"/>
        <ellipse class="cls-25" cx="128.76" cy="3.59" rx=".27" ry=".51" transform="translate(23.89 78.38) rotate(-37.09)"/>
        <ellipse class="cls-25" cx="132.97" cy="3.65" rx=".51" ry=".27" transform="translate(28.78 86.34) rotate(-40.01)"/>
        <ellipse class="cls-25" cx="125.44" cy="3.9" rx=".54" ry=".23" transform="translate(66.41 114.65) rotate(-63.72)"/>
        <ellipse class="cls-25" cx="136.65" cy="4.24" rx=".51" ry=".27" transform="translate(29.26 88.85) rotate(-40.01)"/>
        <ellipse class="cls-25" cx="128.6" cy="1.23" rx=".28" ry=".44" transform="translate(123.8 129.75) rotate(-88.41)"/>
        <ellipse class="cls-25" cx="122.08" cy="3.81" rx=".49" ry=".25" transform="translate(26.13 79.38) rotate(-40.01)"/>
        <ellipse class="cls-25" cx="126.09" cy="1.91" rx=".26" ry=".49" transform="translate(24.36 76.43) rotate(-37.09)"/>
        <ellipse class="cls-25" cx="131.33" cy="2.03" rx=".51" ry=".27" transform="translate(29.44 84.91) rotate(-40.01)"/>
        <ellipse class="cls-25" cx="137.62" cy="2.86" rx=".49" ry=".25" transform="translate(30.37 89.15) rotate(-40.01)"/>
        <rect class="cls-24" y="39" width="21" height="27"/>
        <rect class="cls-7" x="27" y="43" width="43" height="23"/>
        <rect class="cls-20" y="82" width="57" height="27"/>
        <rect class="cls-10" x="61" y="89" width="32" height="20"/>
        <rect class="cls-17" x="27" y="49" width="43" height="11"/>
        <rect class="cls-22" y="47" width="21" height="13"/>
        <polygon class="cls-6" points="57 106 0 101 0 85 57 90 57 106"/>
        <rect class="cls-6" x="64" y="89" width="5" height="20"/>
        <rect class="cls-6" x="86" y="89" width="5" height="20"/>
        <g>
          <path class="cls-21" d="M162.69,89.4l-.62,1.24.13,13.95c.02,2.27.24,3.62,2.55,4.5,2.31.88,5.77.81,8.34,0s2.56-2.27,2.56-4.57v-14.03l-1.09-1.28"/>
          <path class="cls-19" d="M174.75,89.4c0,1.04-1.85,2.1-5.47,2.1s-6.59-1.06-6.59-2.1,2.97-1.66,6.59-1.66c3.17,0,5.47.62,5.47,1.66Z"/>
          <ellipse class="cls-8" cx="168.86" cy="89.56" rx="5.36" ry="1.63"/>
          <path class="cls-12" d="M162.04,96.77l.12,6.83c1.51,1.98,5.56,3.73,13.5-4.08v-7.27s-6.29,12.69-13.63,4.52Z"/>
          <path class="cls-26" d="M168.04,88.73s.12-.08,1.7-.48,2.77-.4,2.37.4l-.36.36c-.37.37-.85.63-1.37.7-1.55.21-3.35-.47-2.34-.99Z"/>
          <path class="cls-1" d="M170.9,88.96c0,.25-.54.45-1.2.45s-1.2-.2-1.2-.45.54-.45,1.2-.45,1.2.2,1.2.45Z"/>
          <path class="cls-1" d="M170.34,88.42c.01.12.84.07.92.35.03.08-.03.15,0,.17.09.06.61-.3.55-.52-.06-.22-.67-.27-1.11-.17-.17.04-.38.11-.37.17Z"/>
        </g>
        <g>
          <path class="cls-2" d="M194.81,89.48l-.62,1.24.13,13.95c.02,2.27.24,3.62,2.55,4.5,2.31.88,5.77.81,8.34,0s2.56-2.27,2.56-4.57v-14.03l-1.09-1.28"/>
          <path class="cls-4" d="M206.86,89.48c0,1.04-1.85,2.1-5.47,2.1s-6.59-1.06-6.59-2.1,2.97-1.66,6.59-1.66c3.17,0,5.47.62,5.47,1.66Z"/>
          <ellipse class="cls-8" cx="200.98" cy="89.65" rx="5.36" ry="1.63"/>
          <path class="cls-12" d="M194.16,96.85l.12,6.83c1.51,1.98,5.56,3.73,13.5-4.08v-7.27s-6.29,12.69-13.63,4.52Z"/>
          <path class="cls-26" d="M200.16,88.81s.12-.08,1.7-.48,2.77-.4,2.37.4l-.36.36c-.37.37-.85.63-1.37.7-1.55.21-3.35-.47-2.34-.99Z"/>
          <path class="cls-1" d="M203.02,89.05c0,.25-.54.45-1.2.45s-1.2-.2-1.2-.45.54-.45,1.2-.45,1.2.2,1.2.45Z"/>
          <path class="cls-1" d="M202.46,88.51c.01.12.84.07.92.35.03.08-.03.15,0,.17.09.06.61-.3.55-.52-.06-.22-.67-.27-1.11-.17-.17.04-.38.11-.37.17Z"/>
        </g>
        <g>
          <path class="cls-16" d="M178.9,89.05l-.62,1.24.13,13.95c.02,2.27.24,3.62,2.55,4.5,2.31.88,5.77.81,8.34,0s2.56-2.27,2.56-4.57v-14.03l-1.09-1.28"/>
          <path class="cls-5" d="M190.95,89.05c0,1.04-1.85,2.1-5.47,2.1s-6.59-1.06-6.59-2.1,2.97-1.66,6.59-1.66c3.17,0,5.47.62,5.47,1.66Z"/>
          <ellipse class="cls-8" cx="185.07" cy="89.21" rx="5.36" ry="1.63"/>
          <path class="cls-12" d="M178.24,96.42l.12,6.83c1.51,1.98,5.56,3.73,13.5-4.08v-7.27s-6.29,12.69-13.63,4.52Z"/>
          <path class="cls-26" d="M184.24,88.37s.12-.08,1.7-.48,2.77-.4,2.37.4l-.36.36c-.37.37-.85.63-1.37.7-1.55.21-3.35-.47-2.34-.99Z"/>
          <path class="cls-1" d="M187.1,88.61c0,.25-.54.45-1.2.45s-1.2-.2-1.2-.45.54-.45,1.2-.45,1.2.2,1.2.45Z"/>
          <path class="cls-1" d="M186.55,88.07c.01.12.84.07.92.35.03.08-.03.15,0,.17.09.06.61-.3.55-.52-.06-.22-.67-.27-1.11-.17-.17.04-.38.11-.37.17Z"/>
        </g>
      </g>
    </g>
  </g>
</svg>