<?xml version="1.0" encoding="UTF-8"?>
<svg xmlns="http://www.w3.org/2000/svg" viewBox="0 0 17.41 15.45">
  <defs>
    <style>
      .cls-1 {
        fill: #00681d;
      }

      .cls-1, .cls-2, .cls-3 {
        stroke-width: 0px;
      }

      .cls-4 {
        mix-blend-mode: multiply;
        opacity: .2;
      }

      .cls-5 {
        isolation: isolate;
      }

      .cls-2 {
        fill: #f44242;
      }

      .cls-3 {
        fill: #ff6464;
      }
    </style>
  </defs>
  <g class="cls-5">
    <g id="Layer_2" data-name="Layer 2">
      <g id="Layer_1-2" data-name="Layer 1">
        <g>
          <path class="cls-2" d="M17.27,7.19c.75,3.22-1.35,6.14-6.34,7.83-4.12,1.39-8.53-.73-9.22-4.45-.65-3.5,2.09-6.92,6.32-7.91,4.23-.99,8.37.85,9.23,4.53Z"/>
          <g class="cls-4">
            <path class="cls-3" d="M7.92,4.27c1.33-1.92,5.47-1.3,7.01.35,1.88,1.54,1.16,4.11.55,3.58-.98-.31-2.73-1.48-5.28-1.13-2.53.83-4.21-.47-2.28-2.81Z"/>
          </g>
          <polygon class="cls-1" points="5.08 5.45 7.58 8.33 8.35 4 15.15 3.13 11.4 2.63 12.08 0 7.72 2.33 4 2.53 4.39 3.58 0 7.11 5.08 5.45"/>
        </g>
      </g>
    </g>
  </g>
</svg>