<?xml version="1.0" encoding="UTF-8"?>
<svg id="Layer_2" data-name="Layer 2" xmlns="http://www.w3.org/2000/svg" viewBox="0 0 102.66 24.18">
  <defs>
    <style>
      .cls-1 {
        fill: #ffd2b3;
      }

      .cls-1, .cls-2, .cls-3 {
        stroke-width: 0px;
      }

      .cls-2 {
        fill: #fff;
      }

      .cls-3 {
        fill: #f9b587;
      }
    </style>
  </defs>
  <g id="Layer_1-2" data-name="Layer 1">
    <path class="cls-3" d="M102.37,19.87c0,1.41-.89,2.64-2.17,2.99-2.6.72-5.94,1.33-9.85,1.32-3.76-.01-6.99-.61-9.52-1.3-1.31-.36-2.2-1.64-2.17-3.08v-.02c.04-1.68,1.33-3.01,2.91-3.01h17.89c1.61,0,2.91,1.39,2.91,3.1h0Z"/>
    <path class="cls-1" d="M78.77,17.02c-.66-2.99,7.15-9.32,14.5-8.1,5.03.84,9.84,5.21,9.17,7.87-.83,3.28-9.82,3.33-11.72,3.34-.93,0-11.25.06-11.95-3.1Z"/>
    <path class="cls-3" d="M102.53,11.9c0,1.41-.89,2.64-2.17,2.99-2.6.72-5.94,1.33-9.85,1.32-3.76-.01-6.99-.61-9.52-1.3-1.31-.36-2.2-1.64-2.17-3.08v-.02c.04-1.68,1.33-3.01,2.91-3.01h17.89c1.61,0,2.91,1.39,2.91,3.1h0Z"/>
    <path class="cls-1" d="M78.93,8.8c-.66-2.99,7.15-9.32,14.5-8.1,5.03.84,9.84,5.21,9.17,7.87-.83,3.28-9.82,3.33-11.72,3.34-.93,0-11.25.06-11.95-3.1Z"/>
    <ellipse class="cls-2" cx="95.34" cy="2.56" rx=".27" ry=".51" transform="translate(17.75 58.02) rotate(-37.09)"/>
    <ellipse class="cls-2" cx="90.2" cy="4.13" rx=".27" ry=".51" transform="translate(15.76 55.23) rotate(-37.09)"/>
    <ellipse class="cls-2" cx="94.4" cy="4.19" rx=".51" ry=".27" transform="translate(19.4 61.68) rotate(-40.01)"/>
    <ellipse class="cls-2" cx="86.88" cy="4.44" rx=".54" ry=".23" transform="translate(44.43 80.37) rotate(-63.72)"/>
    <ellipse class="cls-2" cx="98.08" cy="4.78" rx=".51" ry=".27" transform="translate(19.88 64.18) rotate(-40.01)"/>
    <ellipse class="cls-2" cx="90.04" cy="1.78" rx=".28" ry=".44" transform="translate(85.76 91.73) rotate(-88.41)"/>
    <ellipse class="cls-2" cx="83.52" cy="4.36" rx=".49" ry=".25" transform="translate(16.75 54.71) rotate(-40.01)"/>
    <ellipse class="cls-2" cx="87.53" cy="2.45" rx=".26" ry=".49" transform="translate(16.23 53.28) rotate(-37.09)"/>
    <ellipse class="cls-2" cx="92.77" cy="2.57" rx=".51" ry=".27" transform="translate(20.06 60.25) rotate(-40.01)"/>
    <ellipse class="cls-2" cx="99.05" cy="3.41" rx=".49" ry=".25" transform="translate(21 64.48) rotate(-40.01)"/>
    <path class="cls-3" d="M50.42,19.32c0,1.41-.89,2.64-2.17,2.99-2.6.72-5.94,1.33-9.85,1.32-3.76-.01-6.99-.61-9.52-1.3-1.31-.36-2.2-1.64-2.17-3.08v-.02c.04-1.68,1.33-3.01,2.91-3.01h17.89c1.61,0,2.91,1.39,2.91,3.1h0Z"/>
    <path class="cls-1" d="M26.82,16.47c-.66-2.99,7.15-9.32,14.5-8.1,5.03.84,9.84,5.21,9.17,7.87-.83,3.28-9.82,3.33-11.72,3.34-.93,0-11.25.06-11.95-3.1Z"/>
    <path class="cls-3" d="M50.58,11.36c0,1.41-.89,2.64-2.17,2.99-2.6.72-5.94,1.33-9.85,1.32-3.76-.01-6.99-.61-9.52-1.3-1.31-.36-2.2-1.64-2.17-3.08v-.02c.04-1.68,1.33-3.01,2.91-3.01h17.89c1.61,0,2.91,1.39,2.91,3.1h0Z"/>
    <path class="cls-1" d="M26.98,8.25c-.66-2.99,7.15-9.32,14.5-8.1,5.03.84,9.84,5.21,9.17,7.87-.83,3.28-9.82,3.33-11.72,3.34-.93,0-11.25.06-11.95-3.1Z"/>
    <ellipse class="cls-2" cx="43.39" cy="2.01" rx=".27" ry=".51" transform="translate(7.57 26.58) rotate(-37.09)"/>
    <ellipse class="cls-2" cx="38.24" cy="3.59" rx=".27" ry=".51" transform="translate(5.57 23.79) rotate(-37.09)"/>
    <ellipse class="cls-2" cx="42.45" cy="3.65" rx=".51" ry=".27" transform="translate(7.59 28.15) rotate(-40.01)"/>
    <ellipse class="cls-2" cx="34.92" cy="3.9" rx=".54" ry=".23" transform="translate(15.97 33.49) rotate(-63.72)"/>
    <ellipse class="cls-2" cx="46.13" cy="4.24" rx=".51" ry=".27" transform="translate(8.07 30.65) rotate(-40.01)"/>
    <ellipse class="cls-2" cx="38.08" cy="1.23" rx=".28" ry=".44" transform="translate(35.79 39.27) rotate(-88.41)"/>
    <ellipse class="cls-2" cx="31.56" cy="3.81" rx=".49" ry=".25" transform="translate(4.94 21.19) rotate(-40.01)"/>
    <ellipse class="cls-2" cx="35.57" cy="1.91" rx=".26" ry=".49" transform="translate(6.05 21.84) rotate(-37.09)"/>
    <ellipse class="cls-2" cx="40.82" cy="2.03" rx=".51" ry=".27" transform="translate(8.25 26.72) rotate(-40.01)"/>
    <ellipse class="cls-2" cx="47.1" cy="2.86" rx=".49" ry=".25" transform="translate(9.18 30.95) rotate(-40.01)"/>
    <path class="cls-3" d="M23.71,19.32c0,1.41-.89,2.64-2.17,2.99-2.6.72-5.94,1.33-9.85,1.32-3.76-.01-6.99-.61-9.52-1.3C.86,21.98-.04,20.7,0,19.26v-.02c.04-1.68,1.33-3.01,2.91-3.01h17.89c1.61,0,2.91,1.39,2.91,3.1h0Z"/>
    <path class="cls-1" d="M.11,16.47c-.66-2.99,7.15-9.32,14.5-8.1,5.03.84,9.84,5.21,9.17,7.87-.83,3.28-9.82,3.33-11.72,3.34-.93,0-11.25.06-11.95-3.1Z"/>
    <path class="cls-3" d="M23.87,11.36c0,1.41-.89,2.64-2.17,2.99-2.6.72-5.94,1.33-9.85,1.32-3.76-.01-6.99-.61-9.52-1.3-1.31-.36-2.2-1.64-2.17-3.08v-.02c.04-1.68,1.33-3.01,2.91-3.01h17.89c1.61,0,2.91,1.39,2.91,3.1h0Z"/>
    <path class="cls-1" d="M.27,8.25C-.4,5.26,7.42-1.07,14.77.15c5.03.84,9.84,5.21,9.17,7.87-.83,3.28-9.82,3.33-11.72,3.34-.93,0-11.25.06-11.95-3.1Z"/>
    <ellipse class="cls-2" cx="16.68" cy="2.01" rx=".27" ry=".51" transform="translate(2.16 10.47) rotate(-37.09)"/>
    <ellipse class="cls-2" cx="11.53" cy="3.59" rx=".27" ry=".51" transform="translate(.17 7.68) rotate(-37.09)"/>
    <ellipse class="cls-2" cx="15.74" cy="3.65" rx=".51" ry=".27" transform="translate(1.34 10.97) rotate(-40.01)"/>
    <ellipse class="cls-2" cx="8.21" cy="3.9" rx=".54" ry=".23" transform="translate(1.08 9.54) rotate(-63.72)"/>
    <ellipse class="cls-2" cx="19.42" cy="4.24" rx=".51" ry=".27" transform="translate(1.82 13.48) rotate(-40.01)"/>
    <ellipse class="cls-2" cx="11.37" cy="1.23" rx=".28" ry=".44" transform="translate(9.82 12.57) rotate(-88.41)"/>
    <ellipse class="cls-2" cx="4.85" cy="3.81" rx=".49" ry=".25" transform="translate(-1.31 4.01) rotate(-40.01)"/>
    <ellipse class="cls-2" cx="8.86" cy="1.91" rx=".26" ry=".49" transform="translate(.64 5.73) rotate(-37.09)"/>
    <ellipse class="cls-2" cx="14.1" cy="2.03" rx=".51" ry=".27" transform="translate(2 9.54) rotate(-40.01)"/>
    <ellipse class="cls-2" cx="20.39" cy="2.86" rx=".49" ry=".25" transform="translate(2.93 13.78) rotate(-40.01)"/>
    <path class="cls-3" d="M76.13,19.32c0,1.41-.89,2.64-2.17,2.99-2.6.72-5.94,1.33-9.85,1.32-3.76-.01-6.99-.61-9.52-1.3-1.31-.36-2.2-1.64-2.17-3.08v-.02c.04-1.68,1.33-3.01,2.91-3.01h17.89c1.61,0,2.91,1.39,2.91,3.1h0Z"/>
    <path class="cls-1" d="M52.53,16.47c-.66-2.99,7.15-9.32,14.5-8.1,5.03.84,9.84,5.21,9.17,7.87-.83,3.28-9.82,3.33-11.72,3.34-.93,0-11.25.06-11.95-3.1Z"/>
    <path class="cls-3" d="M76.29,11.36c0,1.41-.89,2.64-2.17,2.99-2.6.72-5.94,1.33-9.85,1.32-3.76-.01-6.99-.61-9.52-1.3-1.31-.36-2.2-1.64-2.17-3.08v-.02c.04-1.68,1.33-3.01,2.91-3.01h17.89c1.61,0,2.91,1.39,2.91,3.1h0Z"/>
    <path class="cls-1" d="M52.69,8.25c-.66-2.99,7.15-9.32,14.5-8.1,5.03.84,9.84,5.21,9.17,7.87-.83,3.28-9.82,3.33-11.72,3.34-.93,0-11.25.06-11.95-3.1Z"/>
    <ellipse class="cls-2" cx="69.1" cy="2.01" rx=".27" ry=".51" transform="translate(12.77 42.08) rotate(-37.09)"/>
    <ellipse class="cls-2" cx="63.96" cy="3.59" rx=".27" ry=".51" transform="translate(10.78 39.3) rotate(-37.09)"/>
    <ellipse class="cls-2" cx="68.16" cy="3.65" rx=".51" ry=".27" transform="translate(13.61 44.68) rotate(-40.01)"/>
    <ellipse class="cls-2" cx="60.64" cy="3.9" rx=".54" ry=".23" transform="translate(30.29 56.54) rotate(-63.72)"/>
    <ellipse class="cls-2" cx="71.84" cy="4.24" rx=".51" ry=".27" transform="translate(14.09 47.18) rotate(-40.01)"/>
    <ellipse class="cls-2" cx="63.8" cy="1.23" rx=".28" ry=".44" transform="translate(60.79 64.97) rotate(-88.41)"/>
    <ellipse class="cls-2" cx="57.28" cy="3.81" rx=".49" ry=".25" transform="translate(10.96 37.72) rotate(-40.01)"/>
    <ellipse class="cls-2" cx="61.29" cy="1.91" rx=".26" ry=".49" transform="translate(11.25 37.35) rotate(-37.09)"/>
    <ellipse class="cls-2" cx="66.53" cy="2.03" rx=".51" ry=".27" transform="translate(14.27 43.25) rotate(-40.01)"/>
    <ellipse class="cls-2" cx="72.82" cy="2.86" rx=".49" ry=".25" transform="translate(15.2 47.48) rotate(-40.01)"/>
  </g>
</svg>