<?xml version="1.0" encoding="UTF-8"?>
<svg id="Layer_2" data-name="Layer 2" xmlns="http://www.w3.org/2000/svg" viewBox="0 0 80.09 52.62">
  <defs>
    <style>
      .cls-1 {
        fill: #75d175;
      }

      .cls-1, .cls-2, .cls-3, .cls-4, .cls-5, .cls-6 {
        stroke-width: 0px;
      }

      .cls-2 {
        fill: #ffdc8d;
      }

      .cls-3 {
        fill: #6b4343;
      }

      .cls-4 {
        fill: #ffb278;
      }

      .cls-5 {
        fill: #ce3e3e;
      }

      .cls-6 {
        fill: #fff;
      }
    </style>
  </defs>
  <g id="Layer_2-2" data-name="Layer 2">
    <g>
      <path class="cls-4" d="M11.32,45.49c3.41,10.87,27.84,6.27,31.68,5.54,9.83-1.85,30.1-7.89,29.56-17.45-.29-5.09-6.36-9.1-10.49-11.84-15.08-9.98-35.69-9.49-46.31,8.15-1.92,3.2-6.13,10.18-4.44,15.59Z"/>
      <path class="cls-1" d="M8.99,39.63h0c-1.05.74-.75,2.38.5,2.7l1.19.3c.61.16,1.06.67,1.13,1.3l.06.56c.1.87.92,1.48,1.78,1.32l3.74-.71c.2-.04.4-.03.6,0l3.01.65c2.28.49,4.63.61,6.95.36l3.13-.34c.13-.01.26-.05.38-.09l3.2-1.25c.34-.13.73-.14,1.07,0l3.46,1.28c.38.14.79.12,1.15-.04l5.52-2.54c.13-.06.24-.13.35-.22l2.41-2.05c.23-.2.51-.32.81-.35l5.48-.6c.05,0,.1-.01.15-.02l4.44-.95c.61-.13,1.07-.62,1.17-1.23l.17-1.03c.11-.67.65-1.18,1.33-1.26l2.46-.27s.06,0,.1,0l4.37-.19c.77-.03,1.38-.64,1.44-1.4l.23-3.18c.03-.46.27-.87.64-1.13l2.56-1.78c.7-.49.86-1.47.34-2.15l-.64-.85c-.29-.38-.73-.6-1.21-.6l-11.89.03c-.09,0-.19,0-.28.03l-39.6,7.61c-.07.01-.14.03-.2.05l-8.76,2.98c-.43.15-.77.48-.93.91l-1.28,3.47c-.11.29-.3.53-.55.71Z"/>
      <path class="cls-3" d="M11.05,35.68c-.07.52-.25,1.89.45,3.25,2.94,5.66,18.39,4.27,27.97,2.7,11.39-1.86,24.44-6.73,28.01-12.75,1.31-2.2-1.38-4.69-1.84-5.26-9.96-12.37-52.78-.61-54.59,12.06Z"/>
      <path class="cls-2" d="M0,35.55c16.09-.12,25.55,3.87,35.17,8.89,7.57-8.79,33.99-17.43,44.93-20.11,0,0-4.05-10.95-45.13-6.3C21.41,23.31,11.94,27.77,0,35.55Z"/>
      <path class="cls-5" d="M32.7,29.7c-.02.36-.05,1.32.51,2.21,2.37,3.71,12.82,1.82,19.26.17,7.66-1.97,16.26-6.12,18.32-10.48.75-1.59-1.24-3.15-1.59-3.51-7.58-7.91-36.06,2.78-36.5,11.61Z"/>
      <path class="cls-5" d="M10.21,31.12c-.05.36-.17,1.31.31,2.24,2.02,3.91,12.61,2.96,19.17,1.89,7.81-1.28,16.74-4.63,19.18-8.79.89-1.52-.95-3.24-1.27-3.64-6.84-8.56-36.17-.46-37.4,8.29Z"/>
      <path class="cls-4" d="M6.6,27.53C3.53,20.92,14.93,3.14,34.24.43c18.07-2.53,34.54,6.54,34.5,14.17-.05,12.17-41.39,21.46-58.52,15.59-1.28-.44-2.91-1.13-3.62-2.66Z"/>
      <ellipse class="cls-6" cx="47.85" cy="2.94" rx=".55" ry="1.09" transform="translate(18.74 41.03) rotate(-56.13)"/>
      <ellipse class="cls-6" cx="35.01" cy="3.29" rx=".55" ry="1.09" transform="translate(12.76 30.52) rotate(-56.13)"/>
      <ellipse class="cls-6" cx="41.67" cy="5.15" rx="1.09" ry=".55" transform="translate(4.61 24.89) rotate(-35.09)"/>
      <ellipse class="cls-6" cx="24.37" cy="10.89" rx="1.09" ry=".55" transform="translate(3.58 27.63) rotate(-62.92)"/>
      <ellipse class="cls-6" cx="54.94" cy="6.4" rx="1.09" ry=".55" transform="translate(6.3 32.75) rotate(-35.09)"/>
      <ellipse class="cls-6" cx="33.14" cy="8.35" rx="1.09" ry=".55" transform="translate(-.43 1.96) rotate(-3.37)"/>
      <ellipse class="cls-6" cx="18.92" cy="9.24" rx="1.09" ry=".55" transform="translate(-1.87 12.56) rotate(-35.09)"/>
      <ellipse class="cls-6" cx="28.21" cy="4.63" rx=".55" ry="1.09" transform="translate(8.64 25.47) rotate(-56.13)"/>
    </g>
  </g>
</svg>