<?xml version="1.0" encoding="UTF-8" standalone="no" ?>
<!DOCTYPE svg PUBLIC "-//W3C//DTD SVG 1.1//EN" "http://www.w3.org/Graphics/SVG/1.1/DTD/svg11.dtd">
<svg xmlns="http://www.w3.org/2000/svg" xmlns:xlink="http://www.w3.org/1999/xlink" version="1.1" width="500" height="500" viewBox="0 0 500 500" xml:space="preserve">
<desc>Created with Fabric.js 5.3.0</desc>
<defs>
</defs>
<g transform="matrix(3.2872793017 0 0 3.2872793017 250 250)" id="QdpovqvN0-scc_krExzUZ"  >
<path style="stroke: rgb(0,0,0); stroke-width: 3; stroke-dasharray: none; stroke-linecap: butt; stroke-dashoffset: 0; stroke-linejoin: miter; stroke-miterlimit: 4; fill: rgb(255,219,114); fill-rule: nonzero; opacity: 1;"  transform=" translate(0, 0)" d="M -61.9977 -17.22158 L 7.4290300000000045 -47.64638 L 61.997710000000005 -33.29506 L 61.997710000000005 33.86912 L -61.9977 47.646390000000004 z" stroke-linecap="round" />
</g>
<g transform="matrix(3.2872793017 0 0 3.2872793017 250.0000039823 250.000005039)" id="qbxjWhcJdYY7_gn9VGF7x"  >
<path style="stroke: rgb(0,0,0); stroke-width: 3; stroke-dasharray: none; stroke-linecap: butt; stroke-dashoffset: 0; stroke-linejoin: miter; stroke-miterlimit: 4; fill: rgb(255,219,114); fill-rule: nonzero; opacity: 1;"  transform=" translate(-0.000005, -0.000005)" d="M -61.9977 -17.22158 L 7.4290300000000045 -47.64638 L 61.997710000000005 -33.29506 L 61.997710000000005 33.86912 L -61.9977 47.646390000000004 z" stroke-linecap="round" />
</g>
<g transform="matrix(3.2489050201 0 0 3.2872793017 250 168.8559070191)" id="D84nsqnbZAzGiGyYBZwjh"  >
<path style="stroke: rgb(0,0,0); stroke-width: 3; stroke-dasharray: none; stroke-linecap: butt; stroke-dashoffset: 0; stroke-linejoin: miter; stroke-miterlimit: 4; fill: rgb(255,255,255); fill-opacity: 0; fill-rule: nonzero; opacity: 1;"  transform=" translate(0, 0)" d="M -62.7477 7.46269 L 62.747710000000005 -7.462679999999999" stroke-linecap="round" />
</g>
<g transform="matrix(1.240952978 0 0 1.240952978 161.029646638 300.454856403)" id="K6s0U2dB1F4aEwe8S5ao0"  >
<path style="stroke: rgb(0,0,0); stroke-width: 0; stroke-dasharray: none; stroke-linecap: butt; stroke-dashoffset: 0; stroke-linejoin: miter; stroke-miterlimit: 4; fill: rgb(231,170,62); fill-rule: nonzero; opacity: 1;"  transform=" translate(0, 0)" d="M 0 -28.70264 C 15.84386 -28.70264 28.70264 -15.84386 28.70264 0 C 28.70264 15.84386 15.84386 28.70264 0 28.70264 C -15.84386 28.70264 -28.70264 15.84386 -28.70264 0 C -28.70264 -15.84386 -15.84386 -28.70264 0 -28.70264 z" stroke-linecap="round" />
</g>
<g transform="matrix(1.4533048277 0 0 1.4533048277 393.5397193273 240.0324472721)" id="qUOIJDH_Gt1bGqIipRCmJ"  >
<path style="stroke: rgb(0,0,0); stroke-width: 0; stroke-dasharray: none; stroke-linecap: butt; stroke-dashoffset: 0; stroke-linejoin: miter; stroke-miterlimit: 4; fill: rgb(231,170,62); fill-rule: nonzero; opacity: 1;"  transform=" translate(0, 0)" d="M 0 -28.70264 C 15.84386 -28.70264 28.70264 -15.84386 28.70264 0 C 28.70264 15.84386 15.84386 28.70264 0 28.70264 C -15.84386 28.70264 -28.70264 15.84386 -28.70264 0 C -28.70264 -15.84386 -15.84386 -28.70264 0 -28.70264 z" stroke-linecap="round" />
</g>
<g transform="matrix(0.6836026938 0 0 0.6836026938 287.1832373762 224.5237580909)" id="1Y9sZg1Xo5yFBhWuJ9N10"  >
<path style="stroke: rgb(0,0,0); stroke-width: 0; stroke-dasharray: none; stroke-linecap: butt; stroke-dashoffset: 0; stroke-linejoin: miter; stroke-miterlimit: 4; fill: rgb(231,170,62); fill-rule: nonzero; opacity: 1;"  transform=" translate(0, 0)" d="M 0 -28.70264 C 15.84386 -28.70264 28.70264 -15.84386 28.70264 0 C 28.70264 15.84386 15.84386 28.70264 0 28.70264 C -15.84386 28.70264 -28.70264 15.84386 -28.70264 0 C -28.70264 -15.84386 -15.84386 -28.70264 0 -28.70264 z" stroke-linecap="round" />
</g>
<g transform="matrix(0.4522303524 0 0 0.4522303524 99.7391221162 231.1647552588)" id="YpFraI_3EOq7OuezjgWSM"  >
<path style="stroke: rgb(0,0,0); stroke-width: 0; stroke-dasharray: none; stroke-linecap: butt; stroke-dashoffset: 0; stroke-linejoin: miter; stroke-miterlimit: 4; fill: rgb(231,170,62); fill-rule: nonzero; opacity: 1;"  transform=" translate(0, 0)" d="M 0 -28.70264 C 15.84386 -28.70264 28.70264 -15.84386 28.70264 0 C 28.70264 15.84386 15.84386 28.70264 0 28.70264 C -15.84386 28.70264 -28.70264 15.84386 -28.70264 0 C -28.70264 -15.84386 -15.84386 -28.70264 0 -28.70264 z" stroke-linecap="round" />
</g>
<g transform="matrix(2.0220360042 -0.2125245479 0.1001080854 0.9524648095 332.0130146784 336.0734837861)" id="HVHpiIJMoa8qFB9DzZAmr"  >
<path style="stroke: rgb(0,0,0); stroke-width: 0; stroke-dasharray: none; stroke-linecap: butt; stroke-dashoffset: 0; stroke-linejoin: miter; stroke-miterlimit: 4; fill: rgb(231,170,62); fill-rule: nonzero; opacity: 1;"  transform=" translate(0, 0)" d="M -35.01722 35.01722 C -35.01722 -3.6617299999999986 -20.24745 -35.01722 -2.028020000000005 -35.01722 L 2.028029999999995 -35.01722 L 2.028029999999995 -35.01722 C 20.247459999999993 -35.01722 35.01722999999999 -3.661730000000002 35.01722999999999 35.01722 L 35.01722999999999 35.01722 z" stroke-linecap="round" />
</g>
<g transform="matrix(1.6202803976 -0.7213953112 0.3366084399 0.7560349343 231.4982630571 130.6015002499)" id="8BZeT3BBBvt_O-N4RKhPi"  >
<path style="stroke: rgb(0,0,0); stroke-width: 0; stroke-dasharray: none; stroke-linecap: butt; stroke-dashoffset: 0; stroke-linejoin: miter; stroke-miterlimit: 4; fill: rgb(231,170,62); fill-rule: nonzero; opacity: 1;"  transform=" translate(0, 0)" d="M -14.34263 -14.34263 L 14.34262 -14.34263 L 14.34262 -13.85259 L 14.34262 -13.85259 C 14.34262 1.7192000000000007 8.45243 14.34263 1.1865199999999998 14.34263 L -1.1865300000000003 14.34263 L -1.1865300000000003 14.34263 C -8.45244 14.34263 -14.34263 1.719199999999999 -14.34263 -13.85259 z" stroke-linecap="round" />
</g>
</svg>