<?xml version="1.0" encoding="UTF-8"?>
<svg id="Layer_2" data-name="Layer 2" xmlns="http://www.w3.org/2000/svg" viewBox="0 0 101 29.88">
  <defs>
    <style>
      .cls-1 {
        fill: #3d3d3d;
      }

      .cls-1, .cls-2 {
        stroke-width: 0px;
      }

      .cls-2 {
        fill: #e8abff;
      }
    </style>
  </defs>
  <g id="Layer_3" data-name="Layer 3">
    <path class="cls-2" d="M101,.95c0,13.94-1,28.94-1,28.94-19.74-2.37-74.88-2.32-99-1C1,28.88-.05,1.82,0,1.07c20-2.33,101-.12,101-.12Z"/>
    <g>
      <path class="cls-1" d="M10.03,9.57c.03.66.05,1.32.08,1.98-.28.01-.55.02-.83.03.1,2.34.2,4.69.3,7.03.27-.01.55-.02.82-.03.03.66.05,1.31.08,1.97-1.33.05-2.67.11-4,.17-.03-.66-.06-1.31-.09-1.97.27-.01.55-.03.82-.04-.1-2.34-.21-4.69-.31-7.03-.28.01-.55.03-.83.04-.03-.66-.06-1.32-.09-1.98,1.35-.06,2.7-.12,4.05-.17Z"/>
      <path class="cls-1" d="M19.1,9.24c.79-.02,1.59-.05,2.38-.07.11,3.66.21,7.32.32,10.98-.75.02-1.5.04-2.25.07-1.83-2.34-3.68-4.67-5.54-6.99.09,2.39.18,4.78.27,7.17-.79.03-1.57.06-2.36.09-.15-3.66-.29-7.32-.43-10.98.74-.03,1.48-.06,2.23-.09,1.88,2.34,3.75,4.68,5.61,7.03-.08-2.41-.15-4.81-.23-7.22Z"/>
      <path class="cls-1" d="M31.93,8.92c.86-.02,1.73-.03,2.59-.04-1.51,3.69-2.99,7.38-4.46,11.07-.86.02-1.73.04-2.59.06-1.63-3.63-3.27-7.25-4.93-10.87.86-.02,1.73-.05,2.59-.07,1.2,2.71,2.4,5.42,3.58,8.13,1.07-2.76,2.14-5.52,3.22-8.28Z"/>
      <path class="cls-1" d="M35.6,8.86c2.32-.03,4.63-.06,6.95-.07,0,.71.01,1.43.02,2.14-1.52.01-3.04.03-4.56.04,0,.66.02,1.32.02,1.98,1.33-.02,2.67-.03,4-.04,0,.71.01,1.43.02,2.14-1.33.01-2.66.02-3.99.04.01.86.02,1.73.03,2.59,1.51-.02,3.02-.03,4.52-.04,0,.71.01,1.43.02,2.14-2.29.02-4.58.04-6.87.07-.05-3.66-.11-7.33-.16-10.99Z"/>
      <path class="cls-1" d="M51.65,8.76c.79,0,1.59,0,2.38,0-.02,3.66-.04,7.33-.05,10.99-.75,0-1.5,0-2.25,0-1.75-2.4-3.52-4.79-5.3-7.17,0,2.39.02,4.78.02,7.18-.79,0-1.57,0-2.36.01-.02-3.66-.04-7.33-.06-10.99.74,0,1.49,0,2.23-.01,1.8,2.4,3.59,4.81,5.36,7.22,0-2.41.01-4.82.02-7.22Z"/>
      <path class="cls-1" d="M55.11,8.77c2.69.02,5.38.04,8.06.08-.01.71-.02,1.43-.03,2.14-.94-.01-1.89-.03-2.83-.04-.03,2.95-.07,5.9-.1,8.85-.79,0-1.57-.02-2.36-.02.03-2.95.05-5.9.08-8.85-.94,0-1.89-.02-2.83-.02,0-.71,0-1.43.01-2.14Z"/>
      <path class="cls-1" d="M69.52,8.81c.75.02,1.46.18,2.12.5.66.32,1.23.74,1.72,1.27.48.53.86,1.14,1.13,1.83.27.69.39,1.42.37,2.2-.02.76-.18,1.49-.49,2.17-.3.68-.71,1.28-1.21,1.78-.5.5-1.09.9-1.76,1.19-.67.29-1.38.43-2.12.41-.74-.02-1.44-.18-2.1-.5-.66-.32-1.22-.74-1.7-1.26-.48-.52-.85-1.14-1.13-1.83-.27-.7-.41-1.43-.39-2.19.01-.78.17-1.5.46-2.18.3-.68.7-1.27,1.2-1.78.5-.51,1.09-.91,1.76-1.19.67-.29,1.39-.42,2.14-.41ZM69.34,17.82c.42,0,.82-.07,1.2-.24.38-.17.71-.4.99-.7.29-.3.52-.65.69-1.05.17-.4.26-.83.27-1.3.01-.46-.06-.9-.21-1.32-.15-.41-.36-.77-.64-1.08-.27-.31-.6-.56-.97-.74-.37-.18-.77-.28-1.2-.29-.43,0-.83.07-1.21.24-.38.17-.71.4-1,.7-.29.3-.51.65-.68,1.06-.17.41-.26.84-.27,1.31,0,.46.07.9.22,1.31.15.41.37.76.64,1.07.27.31.6.56.96.74.37.18.76.28,1.19.29Z"/>
      <path class="cls-1" d="M84.14,12.66c-.01.35-.07.68-.18.99-.11.31-.26.6-.45.85-.19.26-.41.48-.66.67-.26.19-.53.35-.83.46,1.17,1.6,2.33,3.19,3.48,4.79-.91-.03-1.83-.07-2.74-.1-1.08-1.52-2.16-3.03-3.25-4.54-.35-.01-.71-.02-1.06-.03-.04,1.48-.09,2.95-.13,4.43-.79-.02-1.57-.05-2.36-.07.1-3.66.2-7.32.31-10.98,1.6.04,3.2.09,4.8.15.44.01.85.11,1.24.3.39.18.72.43.99.73.28.3.49.66.64,1.06.15.4.22.83.2,1.29ZM80.61,13.68c.3.01.57-.09.79-.31.23-.21.34-.48.35-.8.01-.31-.09-.58-.3-.81-.21-.23-.47-.35-.77-.36-.7-.02-1.41-.05-2.11-.07-.02.76-.05,1.52-.07,2.28.7.02,1.4.04,2.11.07Z"/>
      <path class="cls-1" d="M93.46,9.77c.96.04,1.91.09,2.87.14-1.42,1.88-2.83,3.76-4.23,5.65-.08,1.71-.15,3.43-.23,5.14-.79-.04-1.57-.07-2.36-.1.07-1.71.15-3.43.22-5.14-1.23-2-2.47-4-3.72-6,.96.04,1.91.07,2.87.11.72,1.16,1.44,2.32,2.15,3.47.81-1.09,1.62-2.18,2.43-3.27Z"/>
    </g>
  </g>
</svg>