<?xml version="1.0" encoding="UTF-8"?>
<svg id="Layer_2" data-name="Layer 2" xmlns="http://www.w3.org/2000/svg" viewBox="0 0 103.7 30.32">
  <defs>
    <style>
      .cls-1 {
        fill: #a5f2a5;
      }

      .cls-1, .cls-2, .cls-3 {
        stroke-width: 0px;
      }

      .cls-2 {
        fill: #3d3d3d;
      }

      .cls-3 {
        fill: #68c16b;
      }
    </style>
  </defs>
  <g id="Layer_2-2" data-name="Layer 2">
    <path class="cls-1" d="M103.65,3.19s-.15,21.68.05,23.76c-23.05-.06-72.18.61-101.4,3.38C2.3,30.32-.03,7.69,0,7.08c22.8-2.43,74.28-4.06,103.65-3.89Z"/>
    <path class="cls-3" d="M61.59,0c.28,3.17,2.43,6.24,2.43,6.24-4.79-.12-16.77.6-22.54,1.42,0,0-2.07-5.66-2.07-5.83,4.76-.96,22.18-1.83,22.18-1.83Z"/>
    <g>
      <path class="cls-2" d="M36.58,20.02c1.1-.05,2.2-.09,3.3-.12.02.52.03,1.04.05,1.56-1.67.05-3.34.12-5,.19-.12-2.67-.24-5.33-.36-8,.58-.03,1.17-.05,1.75-.08.09,2.15.18,4.3.26,6.44Z"/>
      <path class="cls-2" d="M43.18,15.6c.43-.01.82.07,1.17.23.36.16.66.38.92.65.26.27.46.58.6.94.14.36.22.72.22,1.1,0,.23-.02.47-.08.72-1.34.02-2.68.05-4.02.09.16.25.38.46.66.63.28.17.59.25.91.24.32,0,.61-.04.85-.1.24-.06.48-.13.69-.22.18.32.36.63.54.95-.27.2-.59.36-.95.47-.36.11-.74.17-1.14.18-.44.01-.86-.06-1.25-.2-.39-.14-.73-.34-1.02-.6-.29-.26-.53-.56-.71-.92-.18-.36-.27-.74-.29-1.14-.01-.4.05-.78.19-1.14.14-.36.34-.68.61-.96.26-.27.57-.5.93-.66.36-.17.74-.26,1.15-.27ZM44.53,18.06c-.1-.32-.27-.58-.51-.78-.24-.2-.51-.29-.81-.29-.31,0-.58.12-.82.33-.24.21-.4.48-.49.8.87-.02,1.75-.04,2.62-.06Z"/>
      <path class="cls-2" d="M51.68,15.65c.57,0,1.14,0,1.71,0-.77,1.87-1.53,3.73-2.27,5.6-.67,0-1.34,0-2.01.01-.77-1.86-1.55-3.72-2.34-5.57.57,0,1.13-.02,1.7-.02.55,1.38,1.1,2.75,1.64,4.13.52-1.38,1.05-2.77,1.58-4.15Z"/>
      <path class="cls-2" d="M56.81,15.51c.43,0,.82.09,1.17.27.35.17.65.4.9.68.25.28.44.6.57.96.13.36.19.73.19,1.1,0,.23-.04.47-.1.72-1.34-.02-2.68-.04-4.02-.05.15.26.36.47.64.65.28.18.58.27.9.27.32,0,.61-.02.86-.07.25-.05.48-.11.7-.19.17.32.34.65.51.97-.28.19-.6.34-.96.44-.36.1-.74.15-1.15.14-.44,0-.86-.09-1.24-.24-.38-.16-.72-.37-1-.63-.28-.27-.51-.58-.68-.94-.17-.36-.25-.75-.25-1.15,0-.4.08-.78.23-1.13.15-.36.37-.67.64-.93.27-.27.59-.48.95-.63.36-.16.75-.23,1.16-.23ZM58.07,18.01c-.09-.32-.25-.59-.48-.8-.23-.21-.5-.31-.8-.31-.31,0-.58.1-.83.3-.25.2-.42.46-.51.79.87,0,1.75.02,2.62.03Z"/>
      <path class="cls-2" d="M60.92,13.08c.53.01,1.06.02,1.59.04-.07,2.75-.14,5.5-.21,8.25-.52-.01-1.04-.02-1.56-.04.06-2.75.12-5.5.17-8.25Z"/>
      <path class="cls-2" d="M69.44,13.49c.36.02.7.1,1.01.25.31.15.58.34.8.58.22.24.4.51.52.82.12.31.18.63.16.97-.01.28-.09.57-.23.87-.14.3-.34.59-.61.86-.71.73-1.42,1.46-2.12,2.2.91.04,1.81.08,2.72.12-.03.52-.05,1.04-.08,1.56-1.73-.08-3.46-.16-5.19-.22.01-.37.03-.74.04-1.1.57-.63,1.1-1.2,1.58-1.71.2-.22.39-.43.59-.65.19-.21.37-.41.54-.59.16-.18.3-.33.41-.44.11-.12.18-.2.2-.23.11-.14.2-.27.27-.38.07-.12.1-.24.11-.37.01-.3-.07-.54-.24-.7-.18-.17-.4-.26-.67-.27-.13,0-.26.02-.38.06-.12.05-.23.11-.32.2-.09.09-.17.18-.22.3-.05.11-.08.23-.09.35-.5-.02-1.01-.04-1.51-.06.01-.34.09-.66.24-.96.15-.3.34-.56.59-.77.24-.22.53-.39.85-.51.32-.12.67-.18,1.03-.16Z"/>
    </g>
  </g>
</svg>