<?xml version="1.0" encoding="UTF-8"?>
<svg id="Layer_1" data-name="Layer 1" xmlns="http://www.w3.org/2000/svg" version="1.1" viewBox="0 0 432 293">
  <defs>
    <style>
      .cls-1 {
        fill: #ef6565;
      }

      .cls-1, .cls-2, .cls-3, .cls-4, .cls-5, .cls-6, .cls-7, .cls-8, .cls-9, .cls-10, .cls-11, .cls-12, .cls-13, .cls-14, .cls-15, .cls-16, .cls-17, .cls-18, .cls-19, .cls-20 {
        stroke-width: 0px;
      }

      .cls-2 {
        fill: #e0e0e0;
      }

      .cls-3 {
        fill: #75d175;
      }

      .cls-4 {
        fill: #565656;
      }

      .cls-21, .cls-22 {
        isolation: isolate;
      }

      .cls-5 {
        fill: #ffc7e8;
      }

      .cls-6, .cls-22 {
        fill: #3d3d3d;
      }

      .cls-7 {
        fill: #e5e5e5;
      }

      .cls-8 {
        fill: #68a57c;
      }

      .cls-9 {
        fill: #ffdc8d;
      }

      .cls-22 {
        font-family: Kollektif, Kollektif;
        font-size: 7px;
      }

      .cls-10 {
        fill: #6b4343;
      }

      .cls-11 {
        fill: #fffbfa;
      }

      .cls-12 {
        fill: #4b4d6b;
      }

      .cls-13 {
        fill: #ffb278;
      }

      .cls-14 {
        fill: #ff3939;
      }

      .cls-15 {
        fill: #ea4949;
      }

      .cls-16 {
        fill: #ffd9b0;
      }

      .cls-17 {
        fill: #ce3e3e;
      }

      .cls-23 {
        fill: #fec;
        stroke: #ff3717;
        stroke-miterlimit: 10;
        stroke-width: 2.5px;
      }

      .cls-18 {
        fill: #fff;
      }

      .cls-19 {
        fill: #ffa1af;
      }

      .cls-20 {
        fill: #d8d8d8;
      }
    </style>
  </defs>
  <g id="Layer_1-2" data-name="Layer 1-2">
    <rect class="cls-12" width="432" height="293"/>
    <path class="cls-1" d="M248.1,244c10.7-1.1,32.2,1,46.4,3.1l16.9,1.6c3.3.3,6.6.8,9.9,1.5,9.5,2.1,29.4,6.7,36.6,10.8h0c1,.4,2.5-140.6,12.3-194.3-35.6-2-60.9,1-86.7.5-58.6-1.1-100.5,9.4-114.2-.5-25.7-18.5-110.3,6-110.3,6,0,4,3.9,53.7,3.9,53.7,0,0,2,41.7,2,67.6s3.9,43.7,3.9,63.6c17.9-2,50.3-7.8,63.8-8.4,22.2-1,34-2.5,47.1-1.6,12.8.8,30.9,1.2,38.5,2.7,14.3-1.8,17.7-4.9,29.9-6.2h0Z"/>
    <path class="cls-20" d="M81.2,248.1s40.7-8.5,72.6-8.5,31.4,1,37.7,1.2c23.7,1,20.2,2.7,39.2-2.1,8.2-2.1,12.6-1.8,15.5-2.1,6.8-.6,13.4,0,20.6,0,14,0,39.3,1.7,40.2,2.1.4.1,28.5,3.7,41.2,9.3,0,0-2.1-19.6,1-28.9-39.8-1.5-84.2-2.5-123.9-4-29.2-1.1-58.4-2.2-87.6-2.6-7.8-.1-15.7.2-23.5.9-5.7.5-15.9.9-24.7,6.9-1.1.7-9.2,4.4-9.3,3-.2-2.3,1,24.7,1,24.7h0Z"/>
    <path class="cls-19" d="M350,35.1c.3,0,.5.4.3.6-1.4,1.8-2.6,3.8-3.7,5.8-1.2,2.3-2.2,4.6-3.3,7-2.2,5-4.4,10.1-6.6,15.1-.2.4-.4.8-.8,1.1-.5.3-1.1.2-1.7,0-10.8-2.3-21.8-3.9-32.8-4.7-1.5-2.3-2-3.3-3.5-5.6,4-10.4,7.9-20.9,14.2-30.1,1.7-2.5,10.9,17.2,11.6,17.3,1.3.3,4.7-1.5,5.9-2,2-.7,6-2.2,8-2.8,4-1,8.1-1.7,12.2-1.9h0l.2.2Z"/>
    <path class="cls-7" d="M215.3,237.7h1.7s11.9-5.9,25.7-5.9,20.6-1.1,37.6,0c31.7,2,45.5,0,71.2,11.9,2-41.6,0-83.1,2-128.6.5-11.6,2-25.7,6.8-41.3-19.1-.8-38.3-1.7-57.4-2.5-3.6-.2-34.2-1.1-68.8-1.4-63.9-.6-81-2.5-112-6.2-5.9-.7-21.2-3.4-21.8-2,0,.3-29.7,15.8-29.7,15.8,2,5.9,4.3,63.4,7.9,166.2,18.8-4.2,35-6.6,47.5-7.9,12-1.3,19.8-1.8,25.4-1.9h10.2c12.9.4,19.3.6,23.7,1.1,2.6.2,28.8,2.8,29.9,2.9h0v-.2Z"/>
    <path class="cls-11" d="M76.6,68.5c3.9-2.4,11.3-7.3,17.9-9.9,22.6-8.8,44-7.7,65.2-5.9,21.1,1.8,32.8,3.7,53.7,7.2,18.2-3.9,36.6-7.4,55.2-8.6,29.2-1.8,58.7,2.2,86.3,11.9-3.4,23.2-5.6,46.8-6.5,70.2-.2,6.1-.4,12.2-.5,18.3-.7,27.3-1.4,54.6-2,82-13.5-7.8-30.7-8.7-46.3-9.1-12.6-.3-25.2-.3-37.8-.3s-32.5.2-46.8,7.2c-25-3.6-51.4-5.4-76.6-4.3-6,.2-12,.6-18,1.4-11.9,1.5-23.6,4.4-35.2,7.2-1-10.1.2-22.3-.6-32.7-3.6-48.2-4-102.9-7.9-134.6h-.1Z"/>
    <path class="cls-2" d="M211.7,60.1c-.6,19.3-.8,39.5-.6,45,.2,6.4,0,83.1,4,126.6"/>
  </g>
  <g id="Layer_2" data-name="Layer 2">
    <g>
      <path class="cls-16" d="M290.2,166.5c-9.9-12.6-7.6-30.5,4.6-40.5,8.3-6.8,32.2-5.7,40.4,5.2,9.6,12.8,7.8,30.7-4.6,40.5-12.4,9.7-30.5,7.4-40.4-5.2h0Z"/>
      <path class="cls-15" d="M294.6,163.1c-8.2-9.4-7.6-23.6,2.7-31.5,10.2-7.9,26-6,33.9,4.2s5.2,24.1-4.7,31.3c-10,7.2-23.6,5.5-31.8-3.9h-.1Z"/>
      <circle class="cls-23" cx="312.2" cy="149.7" r="19"/>
      <circle class="cls-14" cx="324.8" cy="148.4" r="3.7"/>
      <circle class="cls-14" cx="301.4" cy="152.6" r="3.7"/>
      <circle class="cls-14" cx="310.5" cy="150.8" r="3.7"/>
      <path class="cls-8" d="M308.2,163.2v1.1c-2.1,0-4.4-1.6-5.5-4.4.3-.7.8-1.4,1.3-2,.4,3,2.3,4.9,4.3,5.3h0Z"/>
      <path class="cls-8" d="M320.1,140.5c-.1-.8,0-1.4.2-2-1.4-.6-2.6-2.1-3-4.1-.8.9-1.5,2.1-1.8,3.3,1.2,1.7,3,2.6,4.6,2.8h0Z"/>
      <path class="cls-8" d="M318.6,152.6c.7-.5,1.5-.9,2.3-1.2-.3,2.9.9,5.4,2.5,6.6-.4.6-.7,1.2-.9,1.9-2.1-1.3-3.8-3.9-3.9-7.3h0Z"/>
      <circle class="cls-14" cx="312.8" cy="137.9" r="3.7"/>
      <circle class="cls-14" cx="316.7" cy="161.1" r="3.7"/>
      <path class="cls-8" d="M306.4,145.6c-.7.3-1.4.7-1.9,1.2-1.5-1.7-4.2-2.8-7.3-2.2.1-.8.4-1.6.7-2.4,3.6-.3,6.8,1.3,8.5,3.5h0Z"/>
      <path class="cls-8" d="M312.6,149.7c-.7-1.1-1.1-2.3-1.2-3.6,1.9-1.5,4.2-1.9,6.1-1.2-.1.3-.2.6-.1.9-2,.3-3.9,1.6-4.9,3.9h.1Z"/>
      <circle class="cls-4" cx="310.8" cy="164.8" r="1.4"/>
      <circle class="cls-4" cx="304.4" cy="138.5" r="1.4"/>
      <circle class="cls-4" cx="326.8" cy="152.1" r="1.4"/>
      <circle class="cls-4" cx="296.8" cy="148.6" r="1.4"/>
      <circle class="cls-4" cx="322.8" cy="140.1" r="1.4"/>
      <circle class="cls-4" cx="315.3" cy="152.6" r="1.4"/>
    </g>
    <path class="cls-13" d="M276.1,206.6c3.4,10.9,27.8,6.3,31.7,5.5,9.8-1.9,30.1-7.9,29.6-17.4-.3-5.1-6.4-9.1-10.5-11.8-15.1-10-35.7-9.5-46.3,8.1-1.9,3.2-6.1,10.2-4.4,15.6h-.1Z"/>
    <path class="cls-3" d="M273.7,200.8h0c-1,.7-.8,2.4.5,2.7l1.2.3c.6.2,1.1.7,1.1,1.3v.6c.2.9,1,1.5,1.8,1.3l3.7-.7h.6l3,.6c2.3.5,4.6.6,7,.4l3.1-.3h.4l3.2-1.2c.3-.1.7-.1,1.1,0l3.5,1.3c.4.1.8.1,1.1,0l5.5-2.5c.1,0,.2-.1.4-.2l2.4-2.1c.2-.2.5-.3.8-.4l5.5-.6h.1l4.4-.9c.6-.1,1.1-.6,1.2-1.2l.2-1c.1-.7.6-1.2,1.3-1.3l2.5-.3h.1l4.4-.2c.8,0,1.4-.6,1.4-1.4l.2-3.2c0-.5.3-.9.6-1.1l2.6-1.8c.7-.5.9-1.5.3-2.1l-.6-.9c-.3-.4-.7-.6-1.2-.6h-12.2l-39.6,7.6h-.2l-8.8,3c-.4.1-.8.5-.9.9l-1.3,3.5c-.1.3-.3.5-.5.7h0v-.2Z"/>
    <path class="cls-10" d="M275.8,196.8c0,.5-.2,1.9.5,3.2,2.9,5.7,18.4,4.3,28,2.7,11.4-1.9,24.4-6.7,28-12.8,1.3-2.2-1.4-4.7-1.8-5.3-10-12.4-52.8-.6-54.6,12.1h-.1Z"/>
    <path class="cls-9" d="M264.7,196.7c16.1-.1,25.5,3.9,35.2,8.9,7.6-8.8,34-17.4,44.9-20.1,0,0-4-10.9-45.1-6.3-13.5,5.3-23,9.7-35,17.5h0Z"/>
    <path class="cls-17" d="M297.4,190.8c0,.4,0,1.3.5,2.2,2.4,3.7,12.8,1.8,19.3.2,7.7-2,16.3-6.1,18.3-10.5.8-1.6-1.2-3.1-1.6-3.5-7.6-7.9-36.1,2.8-36.5,11.6h0Z"/>
    <path class="cls-17" d="M275,192.2c0,.4-.2,1.3.3,2.2,2,3.9,12.6,3,19.2,1.9,7.8-1.3,16.7-4.6,19.2-8.8.9-1.5-1-3.2-1.3-3.6-6.8-8.6-36.2-.5-37.4,8.3h0Z"/>
    <path class="cls-13" d="M271.3,188.6c-3.1-6.6,8.3-24.4,27.6-27.1,18.1-2.5,34.5,6.5,34.5,14.2,0,12.2-41.4,21.5-58.5,15.6-1.3-.4-2.9-1.1-3.6-2.7h0Z"/>
    <ellipse class="cls-18" cx="312.7" cy="164.2" rx=".5" ry="1.1" transform="translate(2 332.1) rotate(-56.1)"/>
    <ellipse class="cls-18" cx="299.8" cy="164.5" rx=".5" ry="1.1" transform="translate(-4 321.6) rotate(-56.1)"/>
    <ellipse class="cls-18" cx="306.4" cy="166.3" rx="1.1" ry=".6" transform="translate(-39.9 206.4) rotate(-35.1)"/>
    <ellipse class="cls-18" cx="289.1" cy="172.1" rx="1.1" ry=".6" transform="translate(4.2 351.1) rotate(-62.9)"/>
    <ellipse class="cls-18" cx="319.7" cy="167.4" rx="1.1" ry=".6" transform="translate(-38.1 214.3) rotate(-35.1)"/>
    <ellipse class="cls-18" cx="298" cy="169.2" rx="1.1" ry=".6" transform="translate(-9.5 18) rotate(-3.4)"/>
    <ellipse class="cls-18" cx="283.7" cy="170.3" rx="1.1" ry=".6" transform="translate(-46.3 194.1) rotate(-35.1)"/>
    <ellipse class="cls-18" cx="293" cy="165.9" rx=".5" ry="1.1" transform="translate(-8.1 316.6) rotate(-56.1)"/>
    <path class="cls-5" d="M186.6,65.5c0,10.2-.7,21.1-.7,21.1-14.4-1.7-54.6-1.7-72.1-.7,0,0-.8-19.7-.7-20.3,14.6-1.7,73.6,0,73.6,0h-.1Z"/>
    <g>
      <path class="cls-6" d="M132.6,78.3c1.1,0,2.2,0,3.3,0v1.6c-1.7,0-3.3,0-5,.2-.1-2.7-.2-5.3-.4-8h1.8c0,2.2.2,4.3.3,6.4h0Z"/>
      <path class="cls-6" d="M136.3,71.7c1.7,0,3.4,0,5.1,0v1.6h-3.3v1.4h2.9v1.6h-2.9v1.9h3.3v1.6c-1.7,0-3.3,0-5,0,0-2.7-.2-5.3-.2-8h0Z"/>
      <path class="cls-6" d="M149.1,71.5h1.9c-1.2,2.7-2.3,5.3-3.4,8h-1.9c-1.1-2.7-2.3-5.3-3.5-8h1.9c.9,2,1.7,4,2.5,6,.8-2,1.6-4,2.5-6h0Z"/>
      <path class="cls-6" d="M151.8,71.5h5.1v1.6h-3.3v1.4h2.9v1.6h-2.9v1.9h3.3v1.6h-5v-8h-.1Z"/>
      <path class="cls-6" d="M159.6,78.1h3.3v1.6c-1.7,0-3.3,0-5,0,0-2.7.1-5.3.2-8h1.8c0,2.2-.1,4.3-.2,6.5h-.1Z"/>
      <path class="cls-6" d="M168.8,75.8c.3.2.5.5.7.8.1.3.2.6.2,1s-.1.7-.3,1-.4.6-.8.8c-.3.2-.6.4-1,.5s-.8.2-1.2,0c-.4,0-.8,0-1.2-.2-.4,0-.7-.3-1-.5-.4-.3-.7-.7-.8-1.2.5-.2,1.1-.4,1.6-.7v.3c0,.1.1.2.2.3.1,0,.2.2.4.3s.4,0,.7,0h.6c.2,0,.3,0,.4-.2.1,0,.2-.2.3-.3s0-.2.1-.3c0,0,0-.2-.1-.3,0,0-.2-.2-.4-.3-.3,0-.6-.2-.9-.3s-.7-.2-1-.3c-.3,0-.6-.3-.9-.5-.3-.2-.5-.4-.6-.8-.1-.3-.2-.6-.2-.9s.1-.7.3-1,.4-.6.7-.8c.3-.2.6-.4,1-.5.4,0,.7-.2,1.1,0,.4,0,.8,0,1.1.2.4,0,.7.3.9.5.3.2.5.5.6.7-.4.3-.9.6-1.4.8-.1-.2-.3-.4-.6-.6-.2,0-.5-.2-.8-.2s-.7,0-1,.2c-.2.2-.4.4-.4.7s0,.3.2.4.3.2.5.3c.2,0,.4.2.7.2s.5.2.7.2.5.2.7.2.4.2.5.2h0l.4.2Z"/>
    </g>
    <path class="cls-6" d="M230.6,129.3c0,.2,0,.4-.1.6s-.2.3-.4.5c-.3.3-.7.4-1.2.4s-.7,0-1.1-.2-.5-.4-.7-.6l.6-.3c0,.2.2.3.4.4.2,0,.4.1.7.1.7,0,1-.3,1-.8s0-.2,0-.3c0,0,0-.1-.2-.2-.2-.1-.5-.3-.9-.4-.3,0-.5-.1-.7-.2-.2,0-.3-.2-.5-.3-.3-.2-.4-.6-.4-.9s0-.4.1-.5c0-.2.2-.3.3-.4.1-.1.3-.2.5-.3.2,0,.4,0,.6,0,.3,0,.7,0,.9.2s.5.3.7.6l-.6.4c-.1-.2-.3-.3-.5-.3-.2,0-.4-.1-.6-.1s-.3,0-.4,0c-.1,0-.2.1-.3.2,0,0-.1.1-.1.2s0,.2,0,.3,0,.1,0,.2c0,0,0,.1.1.2,0,0,.2.1.3.2.1,0,.3.1.6.2.3,0,.5.1.7.2.2,0,.4.2.5.3.3.3.5.6.5,1Z"/>
    <path class="cls-6" d="M232.9,130.8c-.2,0-.5,0-.7-.1-.2,0-.4-.2-.6-.4-.2-.2-.3-.3-.4-.6,0-.2-.1-.4-.1-.7s0-.5.1-.7c0-.2.2-.4.4-.6.1-.2.3-.3.5-.4.2,0,.4-.1.6-.1s.4,0,.6.1c.2,0,.4.2.5.4.1.2.3.4.3.6,0,.3.1.6.1.9h-2.5c0,.1,0,.2.2.3,0,.1.2.2.2.3s.2.1.3.2.2,0,.4,0,.3,0,.5,0c.2,0,.3-.2.4-.3l.4.4c-.2.2-.4.3-.6.4-.2,0-.5.1-.8.1ZM232.8,127.9c-.1,0-.2,0-.3,0s-.2.1-.3.2c0,0-.2.2-.2.3,0,.1-.1.2-.1.3h1.8c0-.1,0-.2,0-.3s-.1-.2-.2-.3c0,0-.2-.1-.3-.2-.1,0-.2,0-.3,0Z"/>
    <path class="cls-6" d="M235.8,125.6v5.1h-.7v-5.1h.7Z"/>
    <path class="cls-6" d="M238.1,130.8c-.2,0-.5,0-.7-.1-.2,0-.4-.2-.6-.4s-.3-.3-.4-.6c0-.2-.1-.4-.1-.7s0-.5.1-.7c0-.2.2-.4.3-.6.1-.2.3-.3.5-.4.2,0,.4-.1.6-.1s.4,0,.6.1c.2,0,.4.2.5.4s.3.4.3.6c0,.3.1.6.1.9h-2.5c0,.1,0,.2.2.3,0,.1.2.2.2.3s.2.1.3.2c.1,0,.2,0,.4,0s.3,0,.5,0c.2,0,.3-.2.4-.3l.4.4c-.2.2-.4.3-.6.4-.2,0-.5.1-.8.1ZM238,127.9c-.1,0-.2,0-.3,0s-.2.1-.3.2c0,0-.2.2-.2.3s-.1.2-.1.3h1.8c0-.1,0-.2,0-.3s-.1-.2-.2-.3c0,0-.2-.1-.3-.2-.1,0-.2,0-.3,0Z"/>
    <path class="cls-6" d="M241.8,130.8c-.2,0-.5,0-.7-.1s-.4-.2-.5-.4c-.2-.2-.3-.3-.4-.6,0-.2-.1-.4-.1-.7s0-.5.1-.7c0-.2.2-.4.4-.6s.3-.3.5-.4c.2,0,.4-.1.7-.1s.5,0,.7.2.4.3.6.5l-.5.4c0-.1-.2-.2-.4-.3s-.3-.1-.5-.1-.3,0-.4,0-.2.1-.3.2c0,.1-.2.2-.2.4,0,.1,0,.3,0,.4s0,.3,0,.4c0,.1.1.3.2.4,0,.1.2.2.3.2.1,0,.3,0,.4,0s.3,0,.5-.1.3-.2.4-.4l.5.4c-.1.2-.3.4-.6.5-.2.1-.5.2-.8.2Z"/>
    <path class="cls-6" d="M245.1,130.8c-.2,0-.4,0-.5,0s-.3-.2-.4-.4c0-.2-.1-.4-.1-.7v-1.7h-.5v-.5h.5v-1h.7v.9h.9v.6h-.9v1.8c0,.1,0,.2,0,.3s0,.1.1.1c0,0,.1,0,.2,0s.2,0,.4,0v.5c0,0-.2.1-.4.1Z"/>
    <path class="cls-6" d="M251.2,127.3v3.4h-.6v-.4c-.2.2-.4.3-.6.3s-.4.1-.6.1-.5,0-.7-.1c-.2,0-.4-.2-.5-.4-.2-.2-.3-.3-.4-.6,0-.2-.1-.4-.1-.7s0-.5.1-.7c0-.2.2-.4.4-.6.2-.2.3-.3.5-.4.2,0,.4-.1.7-.1s.4,0,.5.1c.2,0,.3.2.5.3v-.4h.7ZM249.5,130.2c.1,0,.3,0,.4,0,.1,0,.2-.1.3-.2,0-.1.2-.2.2-.4,0-.1,0-.3,0-.4s0-.3,0-.4c0-.1-.1-.3-.2-.4,0-.1-.2-.2-.3-.2s-.2,0-.4,0-.3,0-.4,0c-.1,0-.2.1-.3.2,0,.1-.2.2-.2.4,0,.1,0,.3,0,.4s0,.3,0,.4c0,.1.1.3.2.4,0,.1.2.2.3.2.1,0,.2,0,.4,0Z"/>
    <path class="cls-6" d="M252.6,130.7h-.7v-3.4h.5v.3c.3-.1.4-.2.5-.3.2,0,.3-.1.5-.1s.3,0,.4,0c.2,0,.3.1.4.2.1.1.2.2.3.4,0,.2.1.4.1.7v2h-.6v-2c0-.1,0-.3,0-.4,0-.1-.1-.2-.2-.2,0,0-.2-.1-.2-.1s-.2,0-.3,0-.2,0-.3,0c0,0-.2,0-.3.1,0,0-.2.1-.2.2s0,.2,0,.4v2Z"/>
    <path class="cls-6" d="M256.7,130.3l-1.4-3h.8l1,2.2,1-2.2h.7l-2.2,4.7h-.7l.8-1.7Z"/>
    <path class="cls-6" d="M261.9,125.6v5.1h-.7v-5.1h.7Z"/>
    <path class="cls-6" d="M264.3,130.8c-.2,0-.5,0-.7-.1-.2,0-.4-.2-.6-.4s-.3-.3-.4-.6c0-.2-.1-.4-.1-.7s0-.5.1-.7c0-.2.2-.4.3-.6.1-.2.3-.3.5-.4.2,0,.4-.1.6-.1s.4,0,.6.1c.2,0,.4.2.5.4s.3.4.3.6c0,.3.1.6.1.9h-2.5c0,.1,0,.2.2.3,0,.1.2.2.2.3s.2.1.3.2c.1,0,.2,0,.4,0s.3,0,.5,0c.2,0,.3-.2.4-.3l.4.4c-.2.2-.4.3-.6.4-.2,0-.5.1-.8.1ZM264.2,127.9c-.1,0-.2,0-.3,0s-.2.1-.3.2c0,0-.2.2-.2.3s-.1.2-.1.3h1.8c0-.1,0-.2,0-.3s-.1-.2-.2-.3c0,0-.2-.1-.3-.2-.1,0-.2,0-.3,0Z"/>
    <path class="cls-6" d="M268.4,130.7h-.9l-1.4-3.4h.7l1.1,2.7,1.1-2.7h.7l-1.4,3.4Z"/>
    <path class="cls-6" d="M271.9,130.8c-.2,0-.5,0-.7-.1-.2,0-.4-.2-.6-.4s-.3-.3-.4-.6c0-.2-.1-.4-.1-.7s0-.5.1-.7c0-.2.2-.4.3-.6.1-.2.3-.3.5-.4.2,0,.4-.1.6-.1s.4,0,.6.1c.2,0,.4.2.5.4s.3.4.3.6c0,.3.1.6.1.9h-2.5c0,.1,0,.2.2.3,0,.1.2.2.2.3s.2.1.3.2c.1,0,.2,0,.4,0s.3,0,.5,0c.2,0,.3-.2.4-.3l.4.4c-.2.2-.4.3-.6.4-.2,0-.5.1-.8.1ZM271.7,127.9c-.1,0-.2,0-.3,0s-.2.1-.3.2c0,0-.2.2-.2.3s-.1.2-.1.3h1.8c0-.1,0-.2,0-.3s-.1-.2-.2-.3c0,0-.2-.1-.3-.2-.1,0-.2,0-.3,0Z"/>
    <path class="cls-6" d="M274.7,125.6v5.1h-.7v-5.1h.7Z"/>
    <path class="cls-6" d="M227.8,135.7v3.4h-.6v-.4c-.2.2-.4.3-.6.3-.2,0-.4.1-.6.1s-.5,0-.7-.1-.4-.2-.5-.4c-.2-.2-.3-.3-.4-.6,0-.2-.1-.4-.1-.7s0-.5.1-.7c0-.2.2-.4.4-.6s.3-.3.5-.4c.2,0,.4-.1.7-.1s.4,0,.5.1.3.2.5.3v-.4h.7ZM226.1,138.6c.1,0,.3,0,.4,0,.1,0,.2-.1.3-.2,0-.1.2-.2.2-.4,0-.1,0-.3,0-.4s0-.3,0-.4c0-.1-.1-.3-.2-.4,0-.1-.2-.2-.3-.2-.1,0-.2,0-.4,0s-.3,0-.4,0-.2.1-.3.2c0,.1-.2.2-.2.4,0,.1,0,.3,0,.4s0,.3,0,.4c0,.1.1.3.2.4,0,.1.2.2.3.2.1,0,.2,0,.4,0Z"/>
    <path class="cls-6" d="M229.1,139.1h-.7v-3.4h.5v.3c.3-.1.4-.2.5-.3.2,0,.3-.1.5-.1s.3,0,.4,0c.2,0,.3.1.4.2s.2.2.3.4c0,.2.1.4.1.7v2h-.6v-2c0-.1,0-.3,0-.4,0-.1-.1-.2-.2-.2,0,0-.2-.1-.2-.1s-.2,0-.3,0-.2,0-.3,0c0,0-.2,0-.3.1,0,0-.2.1-.2.2,0,0,0,.2,0,.4v2Z"/>
    <path class="cls-6" d="M235.4,134v5.1h-.5v-.3c-.3.1-.4.2-.6.3s-.4.1-.6.1-.4,0-.6-.1c-.2,0-.4-.2-.5-.4-.1-.2-.3-.3-.3-.6,0-.2-.1-.4-.1-.7s0-.5.1-.7c0-.2.2-.4.3-.6s.3-.3.5-.4c.2,0,.4-.1.6-.1s.4,0,.6.1c.2,0,.3.2.4.3v-2.1h.7ZM233.7,138.6c.1,0,.3,0,.4,0s.2-.1.3-.2c0,0,.2-.2.2-.4s0-.3,0-.5,0-.4,0-.5-.1-.3-.2-.4c0,0-.2-.2-.3-.2-.1,0-.2,0-.4,0s-.3,0-.4,0-.2.1-.3.2c0,.1-.2.2-.2.4,0,.1,0,.3,0,.4s0,.3,0,.4c0,.1.1.3.2.4,0,.1.2.2.3.2.1,0,.3,0,.4,0Z"/>
    <path class="cls-6" d="M239.6,138.4s0,0,.1-.1c0,0,0-.1,0-.2s0-.1,0-.2c0,0-.1,0-.2-.1s-.2,0-.2,0-.2,0-.2,0c-.2,0-.3,0-.4-.1s-.3-.1-.4-.2-.2-.2-.2-.3c0-.1,0-.2,0-.4s0-.3,0-.4c0-.1.2-.2.3-.3s.2-.2.4-.2.3,0,.5,0,.3,0,.4,0c.1,0,.2.1.4.2.1,0,.2.2.3.3s.1.2.1.3h-.6s0,0-.2-.1c0,0-.2-.1-.4-.1s-.1,0-.2,0c0,0-.1,0-.2,0,0,0,0,0-.1.1,0,0,0,.1,0,.2s0,.1,0,.2c0,0,0,0,.1.1s.1,0,.2,0c0,0,.1,0,.2,0,.2,0,.5.1.6.2.2,0,.3.1.4.2,0,0,.2.2.2.3,0,.1,0,.2,0,.3s0,.3-.1.4c0,.1-.2.2-.3.3-.1,0-.3.2-.4.2-.2,0-.3,0-.5,0-.3,0-.5,0-.8-.2-.2-.1-.4-.3-.5-.6l.6-.3c0,.2.2.3.3.3.1,0,.2,0,.4,0s.3,0,.5-.2Z"/>
    <path class="cls-6" d="M242.3,139.2c-.2,0-.4,0-.5,0s-.3-.2-.4-.4c0-.2-.1-.4-.1-.7v-1.7h-.5v-.5h.5v-1h.7v.9h.9v.6h-.9v1.8c0,.1,0,.2,0,.3s0,.1.1.1c0,0,.1,0,.2,0s.2,0,.4,0v.5c0,0-.2.1-.4.1Z"/>
    <path class="cls-6" d="M246.7,135.7v3.4h-.6v-.4c-.2.2-.4.3-.6.3-.2,0-.4.1-.6.1s-.5,0-.7-.1-.4-.2-.5-.4c-.2-.2-.3-.3-.4-.6,0-.2-.1-.4-.1-.7s0-.5.1-.7c0-.2.2-.4.4-.6s.3-.3.5-.4c.2,0,.4-.1.7-.1s.4,0,.5.1.3.2.5.3v-.4h.7ZM245,138.6c.1,0,.3,0,.4,0,.1,0,.2-.1.3-.2,0-.1.2-.2.2-.4,0-.1,0-.3,0-.4s0-.3,0-.4c0-.1-.1-.3-.2-.4,0-.1-.2-.2-.3-.2-.1,0-.2,0-.4,0s-.3,0-.4,0-.2.1-.3.2c0,.1-.2.2-.2.4,0,.1,0,.3,0,.4s0,.3,0,.4c0,.1.1.3.2.4,0,.1.2.2.3.2.1,0,.2,0,.4,0Z"/>
    <text class="cls-22" transform="translate(247 139.1)"><tspan x="0" y="0">r</tspan></text>
    <g class="cls-21">
      <path class="cls-6" d="M251.5,139.2c-.2,0-.4,0-.5,0-.1,0-.3-.2-.4-.4,0-.2-.1-.4-.1-.7v-1.7s-.5,0-.5,0v-.5s.5-.1.5-.1v-.9s.7,0,.7,0v.9s.9,0,.9,0v.6s-.9,0-.9,0v1.8c0,.1,0,.2,0,.3s0,.1.1.1.1,0,.2,0c0,0,.2,0,.4,0v.5c0,0-.2.1-.4.1Z"/>
      <path class="cls-6" d="M254.5,140.5v-4.7s.6,0,.6,0v.3c.3-.1.4-.2.6-.3.2,0,.4-.1.6-.1.2,0,.5,0,.6.1.2,0,.4.2.5.4.1.2.3.3.3.6,0,.2.1.4.1.7,0,.2,0,.5-.1.7,0,.2-.2.4-.3.6s-.3.3-.5.4c-.2,0-.4.1-.7.1-.2,0-.4,0-.6-.1-.2,0-.3-.2-.5-.3v1.8s-.7,0-.7,0ZM256.2,136.3c-.1,0-.3,0-.4,0-.1,0-.2.1-.3.2,0,0-.2.2-.2.4,0,.1,0,.3,0,.5,0,.2,0,.4,0,.5,0,.1.1.3.2.4,0,0,.2.2.3.2.1,0,.3,0,.4,0,.1,0,.3,0,.4,0,.1,0,.2-.1.3-.2,0-.1.2-.2.2-.4,0-.1,0-.3,0-.4,0-.2,0-.3,0-.4,0-.1-.1-.3-.2-.4,0-.1-.2-.2-.3-.2-.1,0-.3,0-.4,0Z"/>
      <path class="cls-6" d="M259.2,134v5.1s-.7,0-.7,0v-5.1s.7,0,.7,0Z"/>
    </g>
    <text class="cls-22" transform="translate(259.7 139.2)"><tspan x="0" y="0">a</tspan></text>
    <g class="cls-21">
      <path class="cls-6" d="M265.4,138.8l-1.4-3h.8s1,2.2,1,2.2l1-2.2h.7s-2.2,4.7-2.2,4.7h-.7s.8-1.7.8-1.7Z"/>
      <path class="cls-6" d="M268.4,135.1c-.1,0-.2,0-.3-.1,0,0-.1-.2-.1-.3s0-.2.1-.3c0,0,.2-.1.3-.1.1,0,.2,0,.3.1,0,0,.1.2.1.3,0,.1,0,.2-.1.3,0,0-.2.1-.3.1ZM268.8,139.2h-.7s0-3.4,0-3.4h.7s0,3.4,0,3.4Z"/>
      <path class="cls-6" d="M270.2,139.2h-.7s0-3.4,0-3.4h.5s.1.3.1.3c.1-.1.2-.2.4-.3.2,0,.3-.1.5-.1.1,0,.3,0,.4,0,.2,0,.3.1.4.2.1.1.2.2.3.4,0,.2.1.4.1.7v2s-.7,0-.7,0v-2c0-.1,0-.3,0-.4,0-.1-.1-.2-.2-.2s-.2-.1-.2-.1c0,0-.2,0-.3,0,0,0-.2,0-.3,0s-.2,0-.3.1-.2.1-.2.2,0,.2,0,.4v2Z"/>
      <path class="cls-6" d="M274.8,139.1c-.2,0-.4,0-.6-.1-.2,0-.4-.2-.5-.4-.1-.2-.3-.3-.3-.5,0-.2-.1-.4-.1-.6,0-.2,0-.4.1-.6,0-.2.2-.4.3-.5.1-.1.3-.3.5-.3.2,0,.4-.1.6-.1.2,0,.4,0,.6.1.2,0,.3.2.5.3v-.3c.1,0,.7,0,.7,0h0v.2c0,0,0,.1,0,.3s0,.3,0,.5c0,.2,0,.4,0,.7s0,.7,0,1.1c0,.1,0,.3,0,.4s0,.3,0,.4,0,.2-.1.4c0,.1-.1.2-.2.3-.2.2-.4.3-.6.4-.2,0-.5.1-.7,0-.2,0-.4,0-.6,0-.2,0-.4-.1-.5-.2v-.8c0,.1.2.2.4.3.2,0,.4.1.7.1.2,0,.3,0,.5,0,.1,0,.3-.1.4-.2.1,0,.2-.2.3-.4,0-.1,0-.3,0-.5h0c0,0-.1,0-.2,0,0,0-.2,0-.3.1,0,0-.2,0-.3,0s-.2,0-.3,0ZM274.8,136.4c-.1,0-.3,0-.4,0-.1,0-.2.1-.3.2,0,0-.2.2-.2.3,0,.1,0,.3,0,.4,0,.1,0,.3,0,.4,0,.1.1.2.2.3,0,0,.2.2.3.2.1,0,.2,0,.4,0,.1,0,.3,0,.4,0,.1,0,.2-.1.3-.2s.2-.2.2-.3c0-.1,0-.3,0-.4,0-.2,0-.3,0-.5,0-.1-.1-.2-.2-.3,0,0-.2-.1-.3-.2-.1,0-.3,0-.4,0Z"/>
      <path class="cls-6" d="M277.9,139.3c-.1,0-.2,0-.3-.1,0,0-.1-.2-.1-.3,0-.1,0-.2.1-.3,0,0,.2-.1.3-.1.1,0,.2,0,.3.1,0,0,.1.2.1.3,0,.1,0,.2-.1.3,0,0-.2.1-.3.1ZM277.6,138.1v-3.8c0,0,.7,0,.7,0v3.8c0,0-.7,0-.7,0Z"/>
    </g>
    <path class="cls-6" d="M229.3,143.2h-1.3v-.7h3.4v.7h-1.4v4.3h-.7v-4.3Z"/>
    <path class="cls-6" d="M232.6,147.5h-.7v-5.1h.7v2.1c.1-.1.3-.2.4-.3.1,0,.3,0,.5,0s.4,0,.6.1c.2,0,.3.2.5.4.1.2.2.3.3.6,0,.2.1.4.1.7v1.7h-.7v-1.7c0-.2,0-.3,0-.4,0-.1-.1-.3-.2-.4,0-.1-.2-.2-.3-.2-.1,0-.2,0-.3,0s-.2,0-.3,0c0,0-.2.1-.3.2,0,0-.1.2-.2.3s0,.3,0,.5v1.7Z"/>
    <path class="cls-6" d="M237.3,147.6c-.2,0-.5,0-.7-.1-.2,0-.4-.2-.6-.4-.2-.2-.3-.3-.4-.6,0-.2-.1-.4-.1-.7s0-.5.1-.7c0-.2.2-.4.4-.6.1-.2.3-.3.5-.4.2,0,.4-.1.6-.1s.4,0,.6.1c.2,0,.4.2.5.4.1.2.3.4.3.6,0,.3.1.6.1.9h-2.5c0,.1,0,.2.2.3,0,.1.2.2.2.3s.2.1.3.2.2,0,.4,0,.3,0,.5,0c.2,0,.3-.2.4-.3l.4.4c-.2.2-.4.3-.6.4-.2,0-.5.1-.8.1ZM237.2,144.7c-.1,0-.2,0-.3,0s-.2.1-.3.2c0,0-.2.2-.2.3,0,.1-.1.2-.1.3h1.8c0-.1,0-.2,0-.3s-.1-.2-.2-.3c0,0-.2-.1-.3-.2-.1,0-.2,0-.3,0Z"/>
    <path class="cls-6" d="M242.8,147.3c-.2,0-.4,0-.6-.1-.2,0-.4-.2-.5-.4-.1-.2-.3-.3-.3-.5,0-.2-.1-.4-.1-.6s0-.4.1-.6c0-.2.2-.4.3-.5.1-.1.3-.3.5-.3s.4-.1.6-.1.4,0,.6.1c.2,0,.3.2.5.3v-.3h.7v.9c0,.2,0,.4,0,.7,0,.3,0,.7,0,1.1s0,.3,0,.4c0,.1,0,.3,0,.4s0,.2-.1.4c0,.1-.1.2-.2.3-.2.2-.4.3-.6.4-.2,0-.5.1-.7.1s-.4,0-.6,0c-.2,0-.4-.1-.5-.2v-.8c0,.1.2.2.4.3.2,0,.4.1.7.1s.3,0,.5,0,.3-.1.4-.2.2-.2.3-.4c0-.1,0-.3,0-.5h0c0,0-.1,0-.2,0,0,0-.2,0-.3.1s-.2,0-.3,0c-.1,0-.2,0-.3,0ZM242.9,144.7c-.1,0-.3,0-.4,0-.1,0-.2.1-.3.2,0,0-.2.2-.2.3s0,.3,0,.4,0,.3,0,.4c0,.1.1.2.2.3,0,0,.2.2.3.2.1,0,.2,0,.4,0s.3,0,.4,0c.1,0,.2-.1.3-.2,0,0,.2-.2.2-.3,0-.1,0-.3,0-.4s0-.3,0-.5c0-.1-.1-.2-.2-.3,0,0-.2-.1-.3-.2-.1,0-.3,0-.4,0Z"/>
    <path class="cls-6" d="M248.6,144.1v3.4h-.6v-.4c-.2.2-.4.3-.6.3s-.4.1-.6.1-.5,0-.7-.1c-.2,0-.4-.2-.5-.4-.2-.2-.3-.3-.4-.6,0-.2-.1-.4-.1-.7s0-.5.1-.7c0-.2.2-.4.4-.6.2-.2.3-.3.5-.4.2,0,.4-.1.7-.1s.4,0,.5.1c.2,0,.3.2.5.3v-.4h.7ZM246.9,147c.1,0,.3,0,.4,0,.1,0,.2-.1.3-.2,0-.1.2-.2.2-.4,0-.1,0-.3,0-.4s0-.3,0-.4c0-.1-.1-.3-.2-.4,0-.1-.2-.2-.3-.2s-.2,0-.4,0-.3,0-.4,0c-.1,0-.2.1-.3.2,0,.1-.2.2-.2.4,0,.1,0,.3,0,.4s0,.3,0,.4c0,.1.1.3.2.4,0,.1.2.2.3.2.1,0,.2,0,.4,0Z"/>
    <path class="cls-6" d="M250,147.5h-.7v-3.4h.5v.3c.2,0,.3-.2.4-.3.1,0,.3-.1.4-.1s.1,0,.2,0c0,0,.2,0,.3,0,0,0,.2,0,.2.2,0,0,.1.2.2.3,0-.1.2-.3.4-.4.2-.1.3-.2.5-.2s.2,0,.4,0c.1,0,.3.1.4.2.1.1.2.2.3.4,0,.2.1.4.1.7v2h-.6v-2c0-.3,0-.5-.2-.6-.1-.1-.3-.2-.5-.2s-.3,0-.4.2-.2.3-.2.6v2h-.6v-2c0-.3,0-.5-.2-.6s-.3-.2-.5-.2-.3,0-.4.2c-.1.1-.2.3-.2.5v2.1Z"/>
    <path class="cls-6" d="M256,147.6c-.2,0-.5,0-.7-.1-.2,0-.4-.2-.6-.4-.2-.2-.3-.3-.4-.6,0-.2-.1-.4-.1-.7s0-.5.1-.7c0-.2.2-.4.4-.6.1-.2.3-.3.5-.4.2,0,.4-.1.6-.1s.4,0,.6.1c.2,0,.4.2.5.4.1.2.3.4.3.6,0,.3.1.6.1.9h-2.5c0,.1,0,.2.2.3,0,.1.2.2.2.3s.2.1.3.2.2,0,.4,0,.3,0,.5,0c.2,0,.3-.2.4-.3l.4.4c-.2.2-.4.3-.6.4-.2,0-.5.1-.8.1ZM255.9,144.7c-.1,0-.2,0-.3,0s-.2.1-.3.2c0,0-.2.2-.2.3,0,.1-.1.2-.1.3h1.8c0-.1,0-.2,0-.3s-.1-.2-.2-.3c0,0-.2-.1-.3-.2-.1,0-.2,0-.3,0Z"/>
    <path class="cls-6" d="M261.5,147.3c-.2,0-.4,0-.6-.1-.2,0-.4-.2-.5-.4s-.3-.3-.3-.5c0-.2-.1-.4-.1-.6s0-.4.1-.6c0-.2.2-.4.3-.5.1-.1.3-.3.5-.3.2,0,.4-.1.6-.1s.4,0,.6.1c.2,0,.3.2.5.3v-.3h.7v.9c0,.2,0,.4,0,.7s0,.7,0,1.1,0,.3,0,.4c0,.1,0,.3,0,.4s0,.2-.1.4c0,.1-.1.2-.2.3-.2.2-.4.3-.6.4s-.5.1-.7.1-.4,0-.6,0-.4-.1-.5-.2v-.8c0,.1.2.2.4.3.2,0,.4.1.7.1s.3,0,.5,0c.1,0,.3-.1.4-.2s.2-.2.3-.4c0-.1,0-.3,0-.5h0c0,0-.1,0-.2,0,0,0-.2,0-.3.1s-.2,0-.3,0c-.1,0-.2,0-.3,0ZM261.6,144.7c-.1,0-.3,0-.4,0-.1,0-.2.1-.3.2,0,0-.2.2-.2.3,0,.1,0,.3,0,.4s0,.3,0,.4c0,.1.1.2.2.3,0,0,.2.2.3.2.1,0,.3,0,.4,0s.3,0,.4,0c.1,0,.2-.1.3-.2s.2-.2.2-.3,0-.3,0-.4,0-.3,0-.5c0-.1-.1-.2-.2-.3s-.2-.1-.3-.2c-.1,0-.2,0-.4,0Z"/>
    <path class="cls-6" d="M265.7,147.6c-.2,0-.5,0-.7-.1-.2,0-.4-.2-.6-.4-.2-.2-.3-.3-.4-.6,0-.2-.1-.4-.1-.7s0-.5.1-.7c0-.2.2-.4.4-.6.1-.2.3-.3.5-.4.2,0,.4-.1.6-.1s.4,0,.6.1c.2,0,.4.2.5.4.1.2.3.4.3.6,0,.3.1.6.1.9h-2.5c0,.1,0,.2.2.3,0,.1.2.2.2.3s.2.1.3.2.2,0,.4,0,.3,0,.5,0c.2,0,.3-.2.4-.3l.4.4c-.2.2-.4.3-.6.4-.2,0-.5.1-.8.1ZM265.6,144.7c-.1,0-.2,0-.3,0s-.2.1-.3.2c0,0-.2.2-.2.3,0,.1-.1.2-.1.3h1.8c0-.1,0-.2,0-.3s-.1-.2-.2-.3c0,0-.2-.1-.3-.2-.1,0-.2,0-.3,0Z"/>
    <path class="cls-6" d="M269.1,147.6c-.2,0-.4,0-.5,0s-.3-.2-.4-.4c0-.2-.1-.4-.1-.7v-1.7h-.5v-.5h.5v-1h.7v.9h.9v.6h-.9v1.8c0,.1,0,.2,0,.3s0,.1.1.1c0,0,.1,0,.2,0s.2,0,.4,0v.5c0,0-.2.1-.4.1Z"/>
    <path class="cls-6" d="M271.8,146.8s0,0,.1-.1c0,0,0-.1,0-.2s0-.1,0-.2c0,0-.1,0-.2-.1,0,0-.2,0-.2,0s-.2,0-.2,0c-.2,0-.3,0-.4-.1-.1,0-.3-.1-.4-.2-.1,0-.2-.2-.2-.3,0-.1,0-.2,0-.4s0-.3,0-.4c0-.1.2-.2.3-.3s.2-.2.4-.2.3,0,.5,0,.3,0,.4,0c.1,0,.2.1.4.2.1,0,.2.2.3.3,0,.1.1.2.1.3h-.6s0,0-.2-.1c0,0-.2-.1-.4-.1s-.1,0-.2,0c0,0-.1,0-.2,0,0,0,0,0-.1.1,0,0,0,.1,0,.2s0,.1,0,.2c0,0,0,0,.1.1,0,0,.1,0,.2,0,0,0,.1,0,.2,0,.2,0,.5.1.6.2.2,0,.3.1.4.2,0,0,.2.2.2.3,0,.1,0,.2,0,.3s0,.3-.1.4c0,.1-.2.2-.3.3-.1,0-.3.2-.4.2-.2,0-.3,0-.5,0-.3,0-.5,0-.8-.2-.2-.1-.4-.3-.5-.6l.6-.3c0,.2.2.3.3.3.1,0,.2,0,.4,0s.3,0,.5-.2Z"/>
    <path class="cls-6" d="M226.2,155.9h-.7v-5.1h.7v2.1c.1-.1.3-.2.4-.3.1,0,.3,0,.5,0s.4,0,.6.1c.2,0,.3.2.5.4.1.2.2.3.3.6,0,.2.1.4.1.7v1.7h-.7v-1.7c0-.2,0-.3,0-.4,0-.1-.1-.3-.2-.4,0-.1-.2-.2-.3-.2-.1,0-.2,0-.3,0s-.2,0-.3,0c0,0-.2.1-.3.2,0,0-.1.2-.2.3s0,.3,0,.5v1.7Z"/>
    <path class="cls-6" d="M232.5,152.5v3.4h-.6v-.4c-.2.2-.4.3-.6.3s-.4.1-.6.1-.5,0-.7-.1c-.2,0-.4-.2-.5-.4-.2-.2-.3-.3-.4-.6,0-.2-.1-.4-.1-.7s0-.5.1-.7c0-.2.2-.4.4-.6.2-.2.3-.3.5-.4.2,0,.4-.1.7-.1s.4,0,.5.1c.2,0,.3.2.5.3v-.4h.7ZM230.8,155.4c.1,0,.3,0,.4,0,.1,0,.2-.1.3-.2,0-.1.2-.2.2-.4,0-.1,0-.3,0-.4s0-.3,0-.4c0-.1-.1-.3-.2-.4,0-.1-.2-.2-.3-.2s-.2,0-.4,0-.3,0-.4,0c-.1,0-.2.1-.3.2,0,.1-.2.2-.2.4,0,.1,0,.3,0,.4s0,.3,0,.4c0,.1.1.3.2.4,0,.1.2.2.3.2.1,0,.2,0,.4,0Z"/>
    <path class="cls-6" d="M235.1,153.1s0,0,0,0c0,0,0,0-.1,0-.1,0-.3,0-.4,0-.1,0-.2.1-.3.2,0,0-.2.2-.2.3s0,.2,0,.3v2h-.7v-3.4h.5v.4c.2-.1.4-.2.5-.3.2,0,.3-.1.6-.1s.3,0,.5,0l-.2.6s0,0,0,0Z"/>
    <path class="cls-6" d="M239,150.8v5.1h-.5v-.3c-.3.1-.4.2-.6.3-.2,0-.4.1-.6.1s-.4,0-.6-.1-.4-.2-.5-.4c-.1-.2-.3-.3-.3-.6,0-.2-.1-.4-.1-.7s0-.5.1-.7c0-.2.2-.4.3-.6s.3-.3.5-.4c.2,0,.4-.1.6-.1s.4,0,.6.1.3.2.4.3v-2.1h.7ZM237.3,155.4c.1,0,.3,0,.4,0,.1,0,.2-.1.3-.2,0,0,.2-.2.2-.4,0-.1,0-.3,0-.5s0-.4,0-.5c0-.1-.1-.3-.2-.4,0,0-.2-.2-.3-.2-.1,0-.2,0-.4,0s-.3,0-.4,0c-.1,0-.2.1-.3.2,0,.1-.2.2-.2.4s0,.3,0,.4,0,.3,0,.4c0,.1.1.3.2.4,0,.1.2.2.3.2.1,0,.2,0,.4,0Z"/>
    <path class="cls-6" d="M241.4,156c-.2,0-.5,0-.7-.1-.2,0-.4-.2-.6-.4s-.3-.3-.4-.6c0-.2-.1-.4-.1-.7s0-.5.1-.7c0-.2.2-.4.3-.6.1-.2.3-.3.5-.4.2,0,.4-.1.6-.1s.4,0,.6.1c.2,0,.4.2.5.4s.3.4.3.6c0,.3.1.6.1.9h-2.5c0,.1,0,.2.2.3,0,.1.2.2.2.3s.2.1.3.2c.1,0,.2,0,.4,0s.3,0,.5,0c.2,0,.3-.2.4-.3l.4.4c-.2.2-.4.3-.6.4-.2,0-.5.1-.8.1ZM241.3,153.1c-.1,0-.2,0-.3,0s-.2.1-.3.2c0,0-.2.2-.2.3s-.1.2-.1.3h1.8c0-.1,0-.2,0-.3s-.1-.2-.2-.3c0,0-.2-.1-.3-.2-.1,0-.2,0-.3,0Z"/>
    <path class="cls-6" d="M245.5,153.1s0,0,0,0c0,0,0,0-.1,0-.1,0-.3,0-.4,0-.1,0-.2.1-.3.2,0,0-.2.2-.2.3,0,.1,0,.2,0,.3v2h-.7v-3.4h.5v.4c.2-.1.4-.2.5-.3.2,0,.3-.1.6-.1s.3,0,.5,0l-.2.6s0,0,0,0Z"/>
    <path class="cls-6" d="M249.3,156c-.2,0-.4,0-.5,0s-.3-.2-.4-.4c0-.2-.1-.4-.1-.7v-1.7h-.5v-.5h.5v-1h.7v.9h.9v.6h-.9v1.8c0,.1,0,.2,0,.3s0,.1.1.1c0,0,.1,0,.2,0s.2,0,.4,0v.5c0,0-.2.1-.4.1Z"/>
    <path class="cls-6" d="M251.1,155.9h-.7v-5.1h.7v2.1c.1-.1.3-.2.4-.3.1,0,.3,0,.5,0s.4,0,.6.1c.2,0,.3.2.5.4.1.2.2.3.3.6,0,.2.1.4.1.7v1.7h-.7v-1.7c0-.2,0-.3,0-.4,0-.1-.1-.3-.2-.4,0-.1-.2-.2-.3-.2-.1,0-.2,0-.3,0s-.2,0-.3,0c0,0-.2.1-.3.2,0,0-.1.2-.2.3s0,.3,0,.5v1.7Z"/>
    <path class="cls-6" d="M255.8,156c-.2,0-.5,0-.7-.1-.2,0-.4-.2-.6-.4-.2-.2-.3-.3-.4-.6,0-.2-.1-.4-.1-.7s0-.5.1-.7c0-.2.2-.4.4-.6.1-.2.3-.3.5-.4.2,0,.4-.1.6-.1s.4,0,.6.1c.2,0,.4.2.5.4.1.2.3.4.3.6,0,.3.1.6.1.9h-2.5c0,.1,0,.2.2.3,0,.1.2.2.2.3s.2.1.3.2.2,0,.4,0,.3,0,.5,0c.2,0,.3-.2.4-.3l.4.4c-.2.2-.4.3-.6.4-.2,0-.5.1-.8.1ZM255.7,153.1c-.1,0-.2,0-.3,0s-.2.1-.3.2c0,0-.2.2-.2.3,0,.1-.1.2-.1.3h1.8c0-.1,0-.2,0-.3s-.1-.2-.2-.3c0,0-.2-.1-.3-.2-.1,0-.2,0-.3,0Z"/>
    <path class="cls-6" d="M260.4,155.9h-.7v-3.4h.5v.3c.2,0,.3-.2.4-.3.1,0,.3-.1.4-.1s.1,0,.2,0c0,0,.2,0,.3,0,0,0,.2,0,.2.2,0,0,.1.2.2.3,0-.1.2-.3.4-.4.2-.1.3-.2.5-.2s.2,0,.4,0c.1,0,.3.1.4.2.1.1.2.2.3.4,0,.2.1.4.1.7v2h-.6v-2c0-.3,0-.5-.2-.6-.1-.1-.3-.2-.5-.2s-.3,0-.4.2-.2.3-.2.6v2h-.6v-2c0-.3,0-.5-.2-.6s-.3-.2-.5-.2-.3,0-.4.2c-.1.1-.2.3-.2.5v2.1Z"/>
    <path class="cls-6" d="M266.4,156c-.2,0-.5,0-.7-.1s-.4-.2-.5-.4c-.2-.2-.3-.3-.4-.6,0-.2-.1-.4-.1-.7s0-.5.1-.7c0-.2.2-.4.4-.6s.3-.3.5-.4c.2,0,.4-.1.7-.1s.4,0,.7.1c.2,0,.4.2.5.4s.3.3.4.6c0,.2.1.4.1.7s0,.5-.1.7c0,.2-.2.4-.4.6-.2.2-.3.3-.5.4-.2,0-.4.1-.7.1ZM266.4,153.1c-.1,0-.3,0-.4,0-.1,0-.2.1-.3.2,0,.1-.2.2-.2.4s0,.3,0,.4,0,.3,0,.4c0,.1.1.3.2.4,0,.1.2.2.3.2.1,0,.2,0,.4,0s.3,0,.4,0,.2-.1.3-.2c0-.1.2-.2.2-.4,0-.1,0-.3,0-.4s0-.3,0-.4c0-.1-.1-.3-.2-.4,0-.1-.2-.2-.3-.2-.1,0-.3,0-.4,0Z"/>
    <path class="cls-6" d="M270.5,153.1s0,0,0,0c0,0,0,0-.1,0-.1,0-.3,0-.4,0-.1,0-.2.1-.3.2,0,0-.2.2-.2.3,0,.1,0,.2,0,.3v2h-.7v-3.4h.5v.4c.2-.1.4-.2.5-.3.2,0,.3-.1.6-.1s.3,0,.5,0l-.2.6s0,0,0,0Z"/>
    <path class="cls-6" d="M272.9,156c-.2,0-.5,0-.7-.1-.2,0-.4-.2-.6-.4-.2-.2-.3-.3-.4-.6,0-.2-.1-.4-.1-.7s0-.5.1-.7c0-.2.2-.4.4-.6.1-.2.3-.3.5-.4.2,0,.4-.1.6-.1s.4,0,.6.1c.2,0,.4.2.5.4.1.2.3.4.3.6,0,.3.1.6.1.9h-2.5c0,.1,0,.2.2.3,0,.1.2.2.2.3s.2.1.3.2.2,0,.4,0,.3,0,.5,0c.2,0,.3-.2.4-.3l.4.4c-.2.2-.4.3-.6.4-.2,0-.5.1-.8.1ZM272.7,153.1c-.1,0-.2,0-.3,0s-.2.1-.3.2c0,0-.2.2-.2.3,0,.1-.1.2-.1.3h1.8c0-.1,0-.2,0-.3s-.1-.2-.2-.3c0,0-.2-.1-.3-.2-.1,0-.2,0-.3,0Z"/>
    <path class="cls-6" d="M232.4,163.9l-1.4-3h.8l1,2.2,1-2.2h.7l-2.2,4.7h-.7l.8-1.7Z"/>
    <path class="cls-6" d="M236.5,164.4c-.2,0-.5,0-.7-.1s-.4-.2-.5-.4c-.2-.2-.3-.3-.4-.6,0-.2-.1-.4-.1-.7s0-.5.1-.7c0-.2.2-.4.4-.6.2-.2.3-.3.5-.4.2,0,.4-.1.7-.1s.4,0,.7.1c.2,0,.4.2.5.4.2.2.3.3.4.6,0,.2.1.4.1.7s0,.5-.1.7c0,.2-.2.4-.4.6-.2.2-.3.3-.5.4s-.4.1-.7.1ZM236.5,161.5c-.1,0-.3,0-.4,0-.1,0-.2.1-.3.2,0,.1-.2.2-.2.4,0,.1,0,.3,0,.4s0,.3,0,.4c0,.1.1.3.2.4,0,.1.2.2.3.2.1,0,.3,0,.4,0s.3,0,.4,0c.1,0,.2-.1.3-.2s.2-.2.2-.4c0-.1,0-.3,0-.4s0-.3,0-.4-.1-.3-.2-.4c0-.1-.2-.2-.3-.2-.1,0-.2,0-.4,0Z"/>
    <path class="cls-6" d="M241,164c-.1.1-.3.2-.4.3s-.3.1-.5.1-.3,0-.4,0-.3-.1-.4-.2c-.1-.1-.2-.2-.3-.4s-.1-.4-.1-.7v-2h.6v2c0,.1,0,.3,0,.4,0,.1.1.2.2.2s.2.1.2.1c0,0,.2,0,.3,0s.2,0,.3,0c0,0,.2,0,.3-.1,0,0,.2-.1.2-.2,0,0,0-.2,0-.4v-2h.7v3.4h-.5v-.3Z"/>
    <path class="cls-6" d="M244.3,165.7v-4.7h.5v.3c.3-.1.4-.2.6-.3.2,0,.4-.1.6-.1s.5,0,.6.1c.2,0,.4.2.5.4.1.2.3.3.3.6,0,.2.1.4.1.7s0,.5-.1.7c0,.2-.2.4-.3.6-.1.2-.3.3-.5.4-.2,0-.4.1-.6.1s-.4,0-.6-.1c-.2,0-.3-.2-.5-.3v1.8h-.7ZM246,161.5c-.1,0-.3,0-.4,0-.1,0-.2.1-.3.2,0,0-.2.2-.2.4,0,.1,0,.3,0,.5s0,.4,0,.5c0,.1.1.3.2.4,0,0,.2.2.3.2.1,0,.3,0,.4,0s.3,0,.4,0c.1,0,.2-.1.3-.2,0-.1.2-.2.2-.4,0-.1,0-.3,0-.4s0-.3,0-.4-.1-.3-.2-.4c0-.1-.2-.2-.3-.2-.1,0-.2,0-.4,0Z"/>
    <path class="cls-6" d="M250.2,161.5s0,0,0,0c0,0,0,0-.1,0-.1,0-.3,0-.4,0-.1,0-.2.1-.3.2,0,0-.2.2-.2.3,0,.1,0,.2,0,.3v2h-.7v-3.4h.5v.4c.2-.1.4-.2.5-.3.2,0,.3-.1.6-.1s.3,0,.5,0l-.2.6s0,0,0,0Z"/>
    <path class="cls-6" d="M252.4,164.4c-.2,0-.5,0-.7-.1s-.4-.2-.5-.4c-.2-.2-.3-.3-.4-.6,0-.2-.1-.4-.1-.7s0-.5.1-.7c0-.2.2-.4.4-.6.2-.2.3-.3.5-.4.2,0,.4-.1.7-.1s.4,0,.7.1c.2,0,.4.2.5.4.2.2.3.3.4.6,0,.2.1.4.1.7s0,.5-.1.7c0,.2-.2.4-.4.6-.2.2-.3.3-.5.4s-.4.1-.7.1ZM252.4,161.5c-.1,0-.3,0-.4,0-.1,0-.2.1-.3.2,0,.1-.2.2-.2.4,0,.1,0,.3,0,.4s0,.3,0,.4c0,.1.1.3.2.4,0,.1.2.2.3.2.1,0,.3,0,.4,0s.3,0,.4,0c.1,0,.2-.1.3-.2s.2-.2.2-.4c0-.1,0-.3,0-.4s0-.3,0-.4-.1-.3-.2-.4c0-.1-.2-.2-.3-.2-.1,0-.2,0-.4,0Z"/>
    <path class="cls-6" d="M256.1,164.1c-.2,0-.4,0-.6-.1-.2,0-.4-.2-.5-.4s-.3-.3-.3-.5c0-.2-.1-.4-.1-.6s0-.4.1-.6c0-.2.2-.4.3-.5.1-.1.3-.3.5-.3.2,0,.4-.1.6-.1s.4,0,.6.1c.2,0,.3.2.5.3v-.3h.7v.9c0,.2,0,.4,0,.7s0,.7,0,1.1,0,.3,0,.4c0,.1,0,.3,0,.4s0,.2-.1.4c0,.1-.1.2-.2.3-.2.2-.4.3-.6.4s-.5.1-.7.1-.4,0-.6,0-.4-.1-.5-.2v-.8c0,.1.2.2.4.3.2,0,.4.1.7.1s.3,0,.5,0c.1,0,.3-.1.4-.2s.2-.2.3-.4c0-.1,0-.3,0-.5h0c0,0-.1,0-.2,0,0,0-.2,0-.3.1s-.2,0-.3,0c-.1,0-.2,0-.3,0ZM256.2,161.5c-.1,0-.3,0-.4,0-.1,0-.2.1-.3.2,0,0-.2.2-.2.3,0,.1,0,.3,0,.4s0,.3,0,.4c0,.1.1.2.2.3,0,0,.2.2.3.2.1,0,.3,0,.4,0s.3,0,.4,0c.1,0,.2-.1.3-.2s.2-.2.2-.3,0-.3,0-.4,0-.3,0-.5c0-.1-.1-.2-.2-.3s-.2-.1-.3-.2c-.1,0-.2,0-.4,0Z"/>
    <path class="cls-6" d="M260.7,161.5s0,0,0,0c0,0,0,0-.1,0-.1,0-.3,0-.4,0-.1,0-.2.1-.3.2,0,0-.2.2-.2.3,0,.1,0,.2,0,.3v2h-.7v-3.4h.5v.4c.2-.1.4-.2.5-.3.2,0,.3-.1.6-.1s.3,0,.5,0l-.2.6s0,0,0,0Z"/>
    <path class="cls-6" d="M263,164.4c-.2,0-.5,0-.7-.1-.2,0-.4-.2-.6-.4-.2-.2-.3-.3-.4-.6,0-.2-.1-.4-.1-.7s0-.5.1-.7c0-.2.2-.4.4-.6.1-.2.3-.3.5-.4.2,0,.4-.1.6-.1s.4,0,.6.1c.2,0,.4.2.5.4.1.2.3.4.3.6,0,.3.1.6.1.9h-2.5c0,.1,0,.2.2.3,0,.1.2.2.2.3s.2.1.3.2.2,0,.4,0,.3,0,.5,0c.2,0,.3-.2.4-.3l.4.4c-.2.2-.4.3-.6.4-.2,0-.5.1-.8.1ZM262.8,161.5c-.1,0-.2,0-.3,0s-.2.1-.3.2c0,0-.2.2-.2.3,0,.1-.1.2-.1.3h1.8c0-.1,0-.2,0-.3s-.1-.2-.2-.3c0,0-.2-.1-.3-.2-.1,0-.2,0-.3,0Z"/>
    <path class="cls-6" d="M266.6,163.6s0,0,.1-.1c0,0,0-.1,0-.2s0-.1,0-.2c0,0-.1,0-.2-.1s-.2,0-.2,0-.2,0-.2,0c-.2,0-.3,0-.4-.1s-.3-.1-.4-.2-.2-.2-.2-.3c0-.1,0-.2,0-.4s0-.3,0-.4c0-.1.2-.2.3-.3s.2-.2.4-.2.3,0,.5,0,.3,0,.4,0c.1,0,.2.1.4.2.1,0,.2.2.3.3s.1.2.1.3h-.6s0,0-.2-.1c0,0-.2-.1-.4-.1s-.1,0-.2,0c0,0-.1,0-.2,0,0,0,0,0-.1.1,0,0,0,.1,0,.2s0,.1,0,.2c0,0,0,0,.1.1s.1,0,.2,0c0,0,.1,0,.2,0,.2,0,.5.1.6.2.2,0,.3.1.4.2,0,0,.2.2.2.3,0,.1,0,.2,0,.3s0,.3-.1.4c0,.1-.2.2-.3.3-.1,0-.3.2-.4.2-.2,0-.3,0-.5,0-.3,0-.5,0-.8-.2-.2-.1-.4-.3-.5-.6l.6-.3c0,.2.2.3.3.3.1,0,.2,0,.4,0s.3,0,.5-.2Z"/>
    <path class="cls-6" d="M269.7,163.6s0,0,.1-.1c0,0,0-.1,0-.2s0-.1,0-.2c0,0-.1,0-.2-.1,0,0-.2,0-.2,0s-.2,0-.2,0c-.2,0-.3,0-.4-.1-.1,0-.3-.1-.4-.2-.1,0-.2-.2-.2-.3,0-.1,0-.2,0-.4s0-.3,0-.4c0-.1.2-.2.3-.3s.2-.2.4-.2.3,0,.5,0,.3,0,.4,0c.1,0,.2.1.4.2.1,0,.2.2.3.3,0,.1.1.2.1.3h-.6s0,0-.2-.1c0,0-.2-.1-.4-.1s-.1,0-.2,0c0,0-.1,0-.2,0,0,0,0,0-.1.1,0,0,0,.1,0,.2s0,.1,0,.2c0,0,0,0,.1.1,0,0,.1,0,.2,0,0,0,.1,0,.2,0,.2,0,.5.1.6.2.2,0,.3.1.4.2,0,0,.2.2.2.3,0,.1,0,.2,0,.3s0,.3-.1.4c0,.1-.2.2-.3.3-.1,0-.3.2-.4.2-.2,0-.3,0-.5,0-.3,0-.5,0-.8-.2-.2-.1-.4-.3-.5-.6l.6-.3c0,.2.2.3.3.3.1,0,.2,0,.4,0s.3,0,.5-.2Z"/>
    <path class="cls-6" d="M271,163.9c0-.1,0-.2.1-.3,0,0,.2-.1.3-.1s.2,0,.3.1c0,0,.1.2.1.3s0,.2-.1.3-.2.1-.3.1-.2,0-.3-.1-.1-.2-.1-.3Z"/>
  </g>
</svg>