<?xml version="1.0" encoding="UTF-8"?>
<svg id="Layer_2" data-name="Layer 2" xmlns="http://www.w3.org/2000/svg" viewBox="0 0 108.68 27.15">
  <defs>
    <style>
      .cls-1 {
        fill: #3d3d3d;
      }

      .cls-1, .cls-2, .cls-3 {
        stroke-width: 0px;
      }

      .cls-2 {
        fill: #ffabc9;
      }

      .cls-3 {
        fill: #ea6ec4;
      }
    </style>
  </defs>
  <g id="Layer_2-2" data-name="Layer 2">
    <path class="cls-2" d="M105.96.01s-.15,21.68.05,23.76c-23.05-.06-72.17.61-101.4,3.38,0,0-2.33-22.63-2.3-23.24C25.12,1.47,76.59-.15,105.96.01Z"/>
    <path class="cls-3" d="M0,9.31c3.15-.45,6.19-2.09,6.19-2.09-.09,3.11.71,10.82,1.55,14.49,0,0-5.62,1.81-5.79,1.83-.98-3-1.96-14.22-1.96-14.22Z"/>
    <path class="cls-3" d="M108.68,19.07c-3.83.17-6.42,1.13-6.42,1.13.5-2.66-.13-11.44-.68-14.64,0,0,5.82-.09,6.02-.09.79,2.64,1.08,13.6,1.08,13.6Z"/>
    <g>
      <path class="cls-1" d="M37.76,15.09c1.1-.05,2.2-.09,3.3-.12.02.52.03,1.04.05,1.56-1.67.05-3.34.12-5,.19-.12-2.67-.24-5.33-.36-8,.58-.03,1.17-.05,1.75-.08.09,2.15.18,4.3.26,6.44Z"/>
      <path class="cls-1" d="M44.37,10.67c.43,0,.82.07,1.17.23.36.16.66.38.92.65.26.27.46.58.6.94.14.36.22.72.22,1.1,0,.23-.02.47-.08.72-1.34.02-2.68.05-4.02.09.16.25.38.46.66.63.28.17.59.25.91.24.32,0,.61-.04.85-.1.24-.06.48-.13.69-.22.18.32.36.63.54.95-.28.2-.59.36-.95.47-.36.11-.74.17-1.14.18-.44.01-.86-.06-1.25-.2-.39-.14-.73-.34-1.02-.6-.29-.26-.53-.56-.71-.92-.18-.36-.27-.74-.29-1.14-.01-.4.05-.78.19-1.14.14-.36.34-.68.61-.96.26-.27.57-.5.93-.66.36-.17.74-.26,1.15-.27ZM45.71,13.13c-.1-.32-.27-.58-.51-.78-.24-.2-.51-.29-.81-.29-.31,0-.58.12-.82.33-.24.21-.4.48-.49.8.87-.02,1.75-.04,2.62-.06Z"/>
      <path class="cls-1" d="M52.86,10.72c.57,0,1.14,0,1.71,0-.77,1.87-1.53,3.73-2.27,5.6-.67,0-1.34,0-2.01.01-.77-1.86-1.55-3.72-2.34-5.57.57,0,1.13-.02,1.7-.02.55,1.38,1.1,2.75,1.64,4.13.52-1.38,1.05-2.77,1.58-4.15Z"/>
      <path class="cls-1" d="M58,10.58c.43,0,.82.09,1.17.27.35.17.65.4.9.68.25.28.44.6.57.96.13.36.19.73.19,1.1,0,.23-.04.47-.1.72-1.34-.02-2.68-.04-4.02-.05.15.26.36.47.64.65.28.18.58.27.9.28.32,0,.61-.02.86-.07.25-.05.48-.11.7-.19.17.32.34.65.51.97-.28.19-.6.34-.96.44-.36.1-.74.15-1.15.14-.44,0-.86-.09-1.24-.24-.38-.16-.72-.37-1-.63-.28-.26-.51-.58-.68-.94-.17-.36-.25-.75-.25-1.15,0-.4.08-.78.23-1.13.15-.36.37-.67.64-.93.27-.27.59-.48.95-.63.36-.16.75-.23,1.16-.23ZM59.26,13.08c-.09-.33-.25-.59-.48-.8-.23-.21-.5-.31-.8-.31-.31,0-.58.1-.83.3-.25.2-.42.46-.51.79.87,0,1.75.02,2.62.03Z"/>
      <path class="cls-1" d="M62.11,8.15c.53.01,1.06.02,1.59.04-.07,2.75-.14,5.5-.21,8.25-.52-.01-1.04-.02-1.56-.04.06-2.75.12-5.5.17-8.25Z"/>
      <path class="cls-1" d="M71.91,11.79c.36.28.64.63.82,1.04.19.41.27.85.24,1.32-.02.38-.11.74-.27,1.07-.16.33-.38.61-.64.86-.26.24-.56.43-.9.56-.34.13-.7.19-1.09.17-.3-.01-.58-.07-.85-.18-.27-.1-.51-.24-.74-.42-.22-.17-.42-.38-.58-.61-.16-.24-.29-.49-.38-.77.51-.19,1.01-.39,1.52-.58.05.27.17.5.37.69.19.19.42.29.69.31.15,0,.3-.02.44-.08.14-.06.26-.14.37-.24.11-.1.19-.23.26-.37.06-.14.1-.29.11-.45,0-.17-.01-.32-.06-.47-.05-.15-.13-.28-.22-.39-.1-.11-.22-.2-.35-.27-.14-.07-.29-.11-.47-.12-.21,0-.4.04-.56.14-.27-.37-.54-.74-.81-1.11.47-.55.94-1.11,1.42-1.66-.69-.03-1.39-.06-2.08-.08.02-.52.04-1.04.06-1.56,1.42.05,2.84.11,4.25.18-.01.26-.02.52-.04.78-.47.61-.95,1.22-1.42,1.84.36.08.67.22.93.43Z"/>
    </g>
  </g>
</svg>