<?xml version="1.0" encoding="UTF-8"?>
<svg id="Layer_2" data-name="Layer 2" xmlns="http://www.w3.org/2000/svg" viewBox="0 0 111.47 31.72">
  <defs>
    <style>
      .cls-1 {
        fill: #ffc88d;
      }

      .cls-1, .cls-2, .cls-3 {
        stroke-width: 0px;
      }

      .cls-2 {
        fill: #fc8865;
      }

      .cls-3 {
        fill: #3d3d3d;
      }
    </style>
  </defs>
  <g id="Layer_2-2" data-name="Layer 2">
    <path class="cls-1" d="M108.82,1.95s-.15,21.68.05,23.76c-23.05-.06-72.18.61-101.4,3.38,0,0-2.33-22.63-2.3-23.24C27.98,3.41,79.45,1.78,108.82,1.95Z"/>
    <path class="cls-2" d="M19.05,0c1.66,2.71,4.95,4.51,4.95,4.51-4.34,2.03-14.75,8-19.55,11.3,0,0-4.38-4.15-4.45-4.3C3.83,8.54,19.05,0,19.05,0Z"/>
    <path class="cls-2" d="M97.15,31.72c-2.22-3.13-4.64-4.64-4.64-4.64,3.18-1.49,12.46-8.33,15.66-11.1,0,0,3.18,4.87,3.3,5.04-2.47,2.57-14.32,10.69-14.32,10.69Z"/>
    <g>
      <path class="cls-3" d="M41.07,18.99c1.09-.11,2.19-.22,3.29-.32.05.52.1,1.03.14,1.55-1.66.15-3.32.32-4.98.49-.28-2.65-.56-5.31-.85-7.96.58-.06,1.16-.12,1.74-.18.22,2.14.44,4.28.66,6.41Z"/>
      <path class="cls-3" d="M47.39,14.19c.43-.04.82.02,1.19.16.37.14.68.34.96.59.27.25.49.55.66.9.16.35.26.71.29,1.08.02.23,0,.47-.04.73-1.34.1-2.67.21-4.01.33.17.24.41.44.7.59.29.15.6.22.93.19.32-.03.61-.08.85-.15.24-.07.47-.16.68-.26.2.3.4.61.6.91-.26.22-.57.39-.92.53-.35.13-.73.22-1.13.25-.44.04-.86,0-1.26-.13-.4-.12-.75-.3-1.06-.54-.31-.24-.56-.53-.76-.87-.2-.34-.32-.72-.36-1.12-.04-.4,0-.78.12-1.15.12-.37.3-.7.55-.99.24-.29.54-.53.88-.72.34-.19.72-.3,1.13-.34ZM48.89,16.56c-.12-.32-.3-.56-.55-.75-.25-.18-.53-.26-.82-.24-.3.03-.57.15-.8.37-.23.22-.37.5-.44.83.87-.08,1.74-.15,2.61-.22Z"/>
      <path class="cls-3" d="M55.88,13.72c.57-.04,1.14-.07,1.71-.1-.65,1.91-1.29,3.82-1.92,5.73-.67.04-1.34.09-2.01.14-.88-1.81-1.78-3.62-2.69-5.42.56-.04,1.13-.08,1.69-.13.64,1.34,1.27,2.68,1.9,4.02.43-1.41.87-2.83,1.32-4.24Z"/>
      <path class="cls-3" d="M61.01,13.27c.43-.02.82.04,1.18.2.36.15.67.36.94.62.26.26.47.57.63.92.15.35.24.72.26,1.09.01.23,0,.47-.06.73-1.34.06-2.69.13-4.03.2.17.25.39.45.68.61.29.16.6.23.92.22.32-.02.61-.06.85-.12.24-.07.47-.14.69-.24.19.31.38.62.57.93-.27.21-.58.37-.94.5-.35.12-.73.19-1.14.21-.44.02-.86-.03-1.26-.17-.39-.13-.74-.32-1.04-.57-.3-.25-.55-.55-.73-.9-.19-.35-.29-.73-.32-1.13-.02-.4.03-.78.16-1.15.13-.37.32-.69.58-.97.26-.28.56-.51.91-.69.35-.18.73-.28,1.14-.3ZM62.43,15.68c-.11-.32-.28-.58-.53-.77-.25-.19-.52-.28-.81-.26-.31.02-.58.13-.81.35-.24.22-.39.49-.46.82.87-.05,1.75-.09,2.62-.13Z"/>
      <path class="cls-3" d="M64.96,10.58c.53-.02,1.06-.04,1.59-.06.11,2.75.22,5.5.32,8.25-.52.02-1.04.04-1.56.06-.12-2.75-.23-5.5-.36-8.25Z"/>
      <path class="cls-3" d="M76.4,15.75c.41,0,.82-.01,1.24-.02,0,.5.01.99.02,1.49-.41,0-.82,0-1.23.02,0,.43.01.86.02,1.29-.58,0-1.15.02-1.73.03,0-.43-.02-.87-.02-1.3-1,.02-2,.04-3.01.07-.25-.3-.5-.6-.75-.91,1.32-1.96,2.67-3.92,4.03-5.87.45,0,.9-.01,1.35-.02.03,1.74.06,3.49.09,5.23ZM74.62,13.4c-.09.16-.17.33-.25.49-.39.58-.77,1.15-1.15,1.73-.06.06-.13.12-.19.19.55-.01,1.1-.02,1.65-.03-.01-.66-.03-1.31-.04-1.97,0-.14,0-.27,0-.41Z"/>
    </g>
  </g>
</svg>