<?xml version="1.0" encoding="UTF-8"?>
<svg xmlns="http://www.w3.org/2000/svg" xmlns:xlink="http://www.w3.org/1999/xlink" viewBox="0 0 432 293">
  <defs>
    <style>
      .cls-1 {
        letter-spacing: .03em;
      }

      .cls-2 {
        fill: #e0e0e0;
      }

      .cls-2, .cls-3, .cls-4, .cls-5, .cls-6, .cls-7, .cls-8, .cls-9, .cls-10, .cls-11, .cls-12, .cls-13, .cls-14, .cls-15, .cls-16, .cls-17, .cls-18, .cls-19, .cls-20, .cls-21 {
        stroke-width: 0px;
      }

      .cls-3 {
        fill: #75d175;
      }

      .cls-4 {
        fill: #565656;
      }

      .cls-5 {
        fill: #ef6565;
        filter: url(#drop-shadow-1);
      }

      .cls-22 {
        letter-spacing: -.02em;
      }

      .cls-6 {
        fill: #ffc7e8;
      }

      .cls-7, .cls-23 {
        fill: #3d3d3d;
      }

      .cls-8 {
        fill: #fffbfa;
        filter: url(#drop-shadow-2);
      }

      .cls-9 {
        fill: #e5e5e5;
      }

      .cls-10 {
        fill: #68a57c;
      }

      .cls-11 {
        fill: #ffdc8d;
      }

      .cls-12 {
        fill: #6b4343;
      }

      .cls-13 {
        fill: #4b4d6b;
      }

      .cls-14 {
        fill: #ffb278;
      }

      .cls-15 {
        fill: #ff3939;
      }

      .cls-16 {
        fill: #ea4949;
      }

      .cls-23 {
        font-family: Kollektif-Bold, Kollektif;
        font-size: 7.01px;
        font-weight: 700;
      }

      .cls-17 {
        fill: #ffd9b0;
      }

      .cls-18 {
        fill: #ce3e3e;
      }

      .cls-24 {
        fill: #fec;
        stroke: #ff3717;
        stroke-miterlimit: 10;
        stroke-width: 2.5px;
      }

      .cls-25 {
        letter-spacing: 0em;
      }

      .cls-19 {
        fill: #fff;
      }

      .cls-20 {
        fill: #ffa1af;
      }

      .cls-21 {
        fill: #d8d8d8;
      }
    </style>
    <filter id="drop-shadow-1" filterUnits="userSpaceOnUse">
      <feOffset dx="0" dy="2"/>
      <feGaussianBlur result="blur" stdDeviation="6"/>
      <feFlood flood-color="#000" flood-opacity=".75"/>
      <feComposite in2="blur" operator="in"/>
      <feComposite in="SourceGraphic"/>
    </filter>
    <filter id="drop-shadow-2" filterUnits="userSpaceOnUse">
      <feOffset dx="0" dy="0"/>
      <feGaussianBlur result="blur-2" stdDeviation="6"/>
      <feFlood flood-color="#000" flood-opacity=".75"/>
      <feComposite in2="blur-2" operator="in"/>
      <feComposite in="SourceGraphic"/>
    </filter>
  </defs>
  <g id="Layer_1" data-name="Layer 1">
    <rect class="cls-13" width="432" height="293"/>
    <path class="cls-5" d="M248.09,244c10.67-1.11,32.2,1.03,46.37,3.09l16.9,1.61c3.32.32,6.61.83,9.86,1.54,9.47,2.07,29.38,6.72,36.64,10.76h0c.96.35,2.47-140.57,12.33-194.29-35.6-1.96-60.92,1.03-86.66.53-58.61-1.14-100.46,9.41-114.25-.53-25.71-18.53-110.3,5.96-110.3,5.96,0,3.98,3.94,53.67,3.94,53.67,0,0,1.97,41.74,1.97,67.58,0,15.9,3.94,43.73,3.94,63.61,17.87-1.98,50.33-7.79,63.83-8.38,22.18-.97,34.01-2.48,47.07-1.65,12.79.82,30.94,1.17,38.46,2.68,14.26-1.79,17.71-4.91,29.88-6.18Z"/>
    <path class="cls-21" d="M81.16,248.12s40.67-8.47,72.58-8.47c7.92,0,31.42.98,37.68,1.25,23.7,1.03,20.19,2.68,39.16-2.06,8.24-2.06,12.61-1.82,15.46-2.06,6.79-.57,13.39,0,20.61,0,13.98,0,39.28,1.74,40.19,2.06.4.14,28.47,3.7,41.22,9.27,0,0-2.06-19.58,1.03-28.85-39.77-1.49-84.18-2.52-123.95-4.01-29.19-1.09-58.39-2.19-87.6-2.65-7.83-.13-15.66.24-23.47.91-5.68.49-15.86.9-24.66,6.89-1.06.72-9.17,4.44-9.27,2.98-.17-2.32,1.03,24.73,1.03,24.73Z"/>
    <path class="cls-20" d="M350.05,35.11c.34-.02.54.36.34.63-1.37,1.85-2.61,3.79-3.69,5.82-1.22,2.27-2.25,4.63-3.28,6.99-2.19,5.04-4.39,10.07-6.58,15.11-.18.41-.38.85-.76,1.09-.49.31-1.13.2-1.69.07-10.81-2.31-21.78-3.88-32.8-4.71-1.45-2.32-2.04-3.26-3.49-5.58,3.98-10.37,7.9-20.92,14.22-30.07,1.71-2.48,10.9,17.15,11.61,17.31,1.31.28,4.66-1.52,5.94-1.98,1.98-.72,5.98-2.23,8.02-2.76,3.99-1.03,8.07-1.67,12.18-1.93Z"/>
    <path class="cls-9" d="M215.32,237.66c.48.01.95.02.95.02.31,0,.58,0,.78,0,0,0,11.87-5.94,25.72-5.94,17.03,0,20.58-1.06,37.6,0,31.66,1.98,45.51,0,71.24,11.87,1.98-41.56,0-83.11,1.98-128.62.5-11.57,1.98-25.72,6.79-41.33-19.15-.83-38.3-1.66-57.44-2.49-3.63-.16-34.16-1.11-68.84-1.43-63.9-.59-80.99-2.52-112.03-6.19-5.94-.7-21.16-3.43-21.77-1.98-.12.3-29.7,15.76-29.68,15.83,1.98,5.94,4.32,63.41,7.92,166.22,18.85-4.24,35.02-6.56,47.49-7.92,11.99-1.3,19.83-1.78,25.39-1.89,0,0,0,0,0,0,5.06,0,10.23-.09,10.23-.09,12.89.43,19.33.64,23.72,1.07,2.55.25,28.77,2.84,29.95,2.87Z"/>
    <path class="cls-8" d="M76.56,68.48c3.94-2.43,11.29-7.35,17.95-9.94,22.63-8.81,43.97-7.66,65.16-5.89,21.12,1.76,32.84,3.69,53.74,7.22,18.24-3.9,36.62-7.44,55.23-8.61,29.16-1.83,58.69,2.24,86.26,11.91-3.35,23.21-5.64,46.8-6.54,70.23-.24,6.1-.39,12.2-.54,18.3-.68,27.32-1.37,54.64-2.05,81.96-13.49-7.79-30.68-8.74-46.26-9.15-12.58-.33-25.17-.33-37.75-.32-15.94,0-32.54.17-46.82,7.25-24.97-3.65-51.4-5.37-76.62-4.32-6.02.25-12.04.64-18.01,1.38-11.9,1.48-23.58,4.36-35.23,7.23-.96-10.12.16-22.34-.61-32.69-3.57-48.15-3.96-102.9-7.92-134.56Z"/>
    <path class="cls-2" d="M211.68,60.08c-.57,19.29-.77,39.54-.57,45.01.24,6.4,0,83.11,3.96,126.64"/>
  </g>
  <g id="Layer_2" data-name="Layer 2">
    <g>
      <path class="cls-17" d="M290.21,166.53c-9.89-12.61-7.63-30.47,4.58-40.46,8.28-6.77,32.22-5.69,40.38,5.21,9.61,12.82,7.83,30.72-4.58,40.46-12.42,9.74-30.5,7.4-40.38-5.21Z"/>
      <path class="cls-16" d="M294.65,163.05c-8.19-9.45-7.59-23.62,2.69-31.54,10.24-7.93,26.02-5.97,33.88,4.18,7.9,10.16,5.18,24.07-4.74,31.29-9.95,7.22-23.61,5.52-31.83-3.94Z"/>
      <circle class="cls-24" cx="312.25" cy="149.71" r="19.03"/>
      <circle class="cls-15" cx="324.75" cy="148.44" r="3.71"/>
      <circle class="cls-15" cx="301.44" cy="152.63" r="3.71"/>
      <circle class="cls-15" cx="310.48" cy="150.75" r="3.66"/>
      <path class="cls-10" d="M308.17,163.18c-.06.33-.08.68-.03,1.05-2.07-.03-4.44-1.59-5.51-4.42.34-.72.77-1.38,1.28-1.97.36,2.97,2.31,4.92,4.26,5.33Z"/>
      <path class="cls-10" d="M320.07,140.49c-.11-.75,0-1.45.23-2.03-1.39-.62-2.62-2.06-3.04-4.06-.84.92-1.48,2.06-1.83,3.34,1.25,1.72,3.02,2.65,4.63,2.75Z"/>
      <path class="cls-10" d="M318.63,152.63c.74-.54,1.52-.95,2.31-1.25-.34,2.95.89,5.36,2.51,6.59-.39.55-.7,1.19-.91,1.91-2.08-1.31-3.78-3.93-3.91-7.26Z"/>
      <circle class="cls-15" cx="312.78" cy="137.9" r="3.71"/>
      <circle class="cls-15" cx="316.7" cy="161.1" r="3.71"/>
      <path class="cls-10" d="M306.36,145.59c-.72.32-1.36.73-1.92,1.2-1.51-1.67-4.22-2.8-7.34-2.21.14-.81.38-1.63.73-2.45,3.65-.28,6.76,1.27,8.52,3.46Z"/>
      <path class="cls-10" d="M312.57,149.69c-.68-1.09-1.07-2.33-1.16-3.59,1.91-1.5,4.24-1.89,6.13-1.24-.12.31-.16.64-.12.94-1.96.27-3.87,1.65-4.85,3.89Z"/>
      <circle class="cls-4" cx="310.79" cy="164.8" r="1.39"/>
      <circle class="cls-4" cx="304.44" cy="138.49" r="1.39"/>
      <circle class="cls-4" cx="326.83" cy="152.11" r="1.39"/>
      <circle class="cls-4" cx="296.81" cy="148.56" r="1.39"/>
      <circle class="cls-4" cx="322.79" cy="140.15" r="1.39"/>
      <circle class="cls-4" cx="315.28" cy="152.57" r="1.39"/>
    </g>
    <g>
      <path class="cls-14" d="M276.06,206.61c3.41,10.87,27.84,6.27,31.68,5.54,9.83-1.85,30.1-7.89,29.56-17.45-.29-5.09-6.36-9.1-10.49-11.84-15.08-9.98-35.69-9.49-46.31,8.15-1.92,3.2-6.13,10.18-4.44,15.59Z"/>
      <path class="cls-3" d="M273.73,200.75h0c-1.05.74-.75,2.38.5,2.7l1.19.3c.61.16,1.06.67,1.13,1.3l.06.56c.1.87.92,1.48,1.78,1.32l3.74-.71c.2-.04.4-.03.6,0l3.01.65c2.28.49,4.63.61,6.95.36l3.13-.34c.13-.01.26-.05.38-.09l3.2-1.25c.34-.13.73-.14,1.07,0l3.46,1.28c.38.14.79.12,1.15-.04l5.52-2.54c.13-.06.24-.13.35-.22l2.41-2.05c.23-.2.51-.32.81-.35l5.48-.6c.05,0,.1-.01.15-.02l4.44-.95c.61-.13,1.07-.62,1.17-1.23l.17-1.03c.11-.67.65-1.18,1.33-1.26l2.46-.27s.06,0,.1,0l4.37-.19c.77-.03,1.38-.64,1.44-1.4l.23-3.18c.03-.46.27-.87.64-1.13l2.56-1.78c.7-.49.86-1.47.34-2.15l-.64-.85c-.29-.38-.73-.6-1.21-.6l-11.89.03c-.09,0-.19,0-.28.03l-39.6,7.61c-.07.01-.14.03-.2.05l-8.76,2.98c-.43.15-.77.48-.93.91l-1.28,3.47c-.11.29-.3.53-.55.71Z"/>
      <path class="cls-12" d="M275.79,196.8c-.07.52-.25,1.89.45,3.25,2.94,5.66,18.39,4.27,27.97,2.7,11.39-1.86,24.44-6.73,28.01-12.75,1.31-2.2-1.38-4.69-1.84-5.26-9.96-12.37-52.78-.61-54.59,12.06Z"/>
      <path class="cls-11" d="M264.74,196.67c16.09-.12,25.55,3.87,35.17,8.89,7.57-8.79,33.99-17.43,44.93-20.11,0,0-4.05-10.95-45.13-6.3-13.55,5.27-23.03,9.73-34.96,17.52Z"/>
      <path class="cls-18" d="M297.44,190.82c-.02.36-.05,1.32.51,2.21,2.37,3.71,12.82,1.82,19.26.17,7.66-1.97,16.26-6.12,18.32-10.48.75-1.59-1.24-3.15-1.59-3.51-7.58-7.91-36.06,2.78-36.5,11.61Z"/>
      <path class="cls-18" d="M274.95,192.24c-.05.36-.17,1.31.31,2.24,2.02,3.91,12.61,2.96,19.17,1.89,7.81-1.28,16.74-4.63,19.18-8.79.89-1.52-.95-3.24-1.27-3.64-6.84-8.56-36.17-.46-37.4,8.29Z"/>
      <path class="cls-14" d="M271.34,188.65c-3.07-6.61,8.33-24.39,27.64-27.1,18.07-2.53,34.54,6.54,34.5,14.17-.05,12.17-41.39,21.46-58.52,15.59-1.28-.44-2.91-1.13-3.62-2.66Z"/>
      <ellipse class="cls-19" cx="312.59" cy="164.06" rx=".55" ry="1.09" transform="translate(2.15 332.15) rotate(-56.13)"/>
      <ellipse class="cls-19" cx="299.75" cy="164.41" rx=".55" ry="1.09" transform="translate(-3.83 321.64) rotate(-56.13)"/>
      <ellipse class="cls-19" cx="306.41" cy="166.26" rx="1.09" ry=".55" transform="translate(-39.89 206.37) rotate(-35.09)"/>
      <ellipse class="cls-19" cx="289.11" cy="172" rx="1.09" ry=".55" transform="translate(4.36 351.13) rotate(-62.92)"/>
      <ellipse class="cls-19" cx="319.68" cy="167.52" rx="1.09" ry=".55" transform="translate(-38.2 214.23) rotate(-35.09)"/>
      <ellipse class="cls-19" cx="297.88" cy="169.47" rx="1.09" ry=".55" transform="translate(-9.44 17.78) rotate(-3.37)"/>
      <ellipse class="cls-19" cx="283.66" cy="170.36" rx="1.09" ry=".55" transform="translate(-46.38 194.03) rotate(-35.09)"/>
      <ellipse class="cls-19" cx="292.95" cy="165.75" rx=".55" ry="1.09" transform="translate(-7.95 316.58) rotate(-56.13)"/>
    </g>
    <path class="cls-6" d="M186.65,65.47c0,10.15-.73,21.08-.73,21.08-14.39-1.73-54.55-1.69-72.13-.73,0,0-.77-19.72-.73-20.26,14.57-1.7,73.59-.09,73.59-.09Z"/>
    <g>
      <path class="cls-7" d="M132.58,78.28c1.1-.05,2.2-.09,3.3-.12.02.52.03,1.04.05,1.56-1.67.06-3.34.12-5,.2-.12-2.67-.24-5.33-.36-8,.58-.03,1.17-.05,1.75-.08.09,2.15.18,4.3.27,6.44Z"/>
      <path class="cls-7" d="M136.33,71.69c1.7-.05,3.4-.1,5.1-.13.01.52.02,1.04.03,1.56-1.11.02-2.23.05-3.34.08.01.48.03.96.04,1.44.98-.03,1.95-.05,2.93-.07.01.52.02,1.04.03,1.56-.97.02-1.94.04-2.92.07.02.63.03,1.26.05,1.89,1.1-.03,2.2-.06,3.3-.08,0,.52.02,1.04.03,1.56-1.67.03-3.34.07-5.01.13-.08-2.67-.17-5.34-.25-8Z"/>
      <path class="cls-7" d="M149.13,71.48c.63,0,1.27,0,1.9,0-1.16,2.66-2.29,5.33-3.41,8.01-.63,0-1.26,0-1.89.01-1.15-2.66-2.32-5.31-3.51-7.96.63-.01,1.27-.02,1.9-.03.86,1.98,1.71,3.97,2.54,5.96.81-2,1.63-4,2.46-6Z"/>
      <path class="cls-7" d="M151.83,71.49c1.7,0,3.4.03,5.1.06,0,.52-.02,1.04-.03,1.56-1.11-.02-2.23-.03-3.34-.05,0,.48,0,.96-.01,1.45.98,0,1.95.02,2.93.04,0,.52-.02,1.04-.03,1.56-.97-.02-1.94-.03-2.92-.04,0,.63-.01,1.26-.02,1.89,1.1.01,2.2.03,3.3.05,0,.52-.02,1.04-.03,1.56-1.67-.03-3.34-.05-5.01-.06.01-2.67.03-5.34.04-8.01Z"/>
      <path class="cls-7" d="M159.62,78.06c1.1.03,2.2.06,3.3.09-.02.52-.03,1.04-.05,1.56-1.67-.05-3.34-.1-5-.13.05-2.67.11-5.34.16-8.01.58.01,1.17.02,1.75.04-.05,2.15-.11,4.3-.16,6.45Z"/>
      <path class="cls-7" d="M168.8,75.82c.31.2.54.46.7.76.15.3.22.64.2,1.03-.02.36-.12.69-.31,1-.19.3-.45.57-.77.79-.3.2-.63.36-1,.46-.37.1-.76.15-1.17.14-.41-.02-.79-.09-1.16-.22-.37-.13-.69-.31-.96-.54-.42-.34-.7-.74-.84-1.2.54-.23,1.08-.45,1.62-.68,0,.08.02.17.07.29.05.12.13.23.24.34.11.11.25.21.43.29.18.08.4.13.66.14.21,0,.4,0,.56-.06.17-.05.3-.11.42-.18.11-.07.2-.16.26-.26.06-.1.09-.2.1-.31,0-.12-.03-.23-.1-.34-.08-.11-.19-.2-.36-.26-.3-.12-.62-.22-.95-.31-.33-.09-.66-.19-.97-.31-.32-.12-.61-.28-.87-.47-.27-.19-.48-.45-.62-.78-.13-.29-.2-.6-.19-.92.01-.36.11-.71.29-1.04.18-.33.43-.61.74-.83.29-.21.62-.36.97-.47.36-.1.73-.15,1.12-.13.39.02.76.09,1.11.22.35.13.67.31.94.54.27.22.47.46.62.74-.45.27-.9.55-1.35.82-.15-.23-.34-.41-.58-.55-.23-.14-.5-.22-.8-.23-.41-.02-.74.06-.97.23-.23.17-.35.4-.37.7,0,.14.05.26.17.37.12.11.28.21.48.3.2.09.42.17.67.25.25.07.5.15.74.22.25.07.48.15.69.23.22.08.39.16.53.25Z"/>
    </g>
    <text class="cls-23" transform="translate(226.9 130.69) rotate(.1)"><tspan x="0" y="0">Select any level</tspan><tspan x="-2.65" y="8.41">and sta</tspan><tspan class="cls-1" x="21.51" y="8.41">r</tspan><tspan x="24.61" y="8.41">t pl</tspan><tspan class="cls-22" x="34.95" y="8.41">a</tspan><tspan class="cls-25" x="39.1" y="8.41">ying!</tspan><tspan x="1" y="16.82">The game gets </tspan><tspan x="-1.74" y="25.23">harder the more </tspan><tspan x="4.08" y="33.63">you progress.</tspan></text>
  </g>
</svg>