<?xml version="1.0" encoding="UTF-8"?>
<svg xmlns="http://www.w3.org/2000/svg" xmlns:xlink="http://www.w3.org/1999/xlink" viewBox="0 0 432 293">
  <defs>
    <style>
      .cls-1 {
        fill: #565656;
      }

      .cls-1, .cls-2, .cls-3, .cls-4, .cls-5, .cls-6, .cls-7, .cls-8, .cls-9, .cls-10, .cls-11, .cls-12, .cls-13, .cls-14, .cls-15, .cls-16, .cls-17, .cls-18 {
        stroke-width: 0px;
      }

      .cls-2 {
        fill: #ef6565;
        filter: url(#drop-shadow-1);
      }

      .cls-3 {
        fill: #ff4a4a;
      }

      .cls-19 {
        fill: #e0e0e0;
        stroke: #000;
        stroke-width: 9px;
      }

      .cls-19, .cls-20 {
        stroke-miterlimit: 10;
      }

      .cls-4 {
        fill: #3d3d3d;
      }

      .cls-5 {
        fill: #fffbfa;
        filter: url(#drop-shadow-2);
      }

      .cls-6 {
        fill: #e5e5e5;
      }

      .cls-7 {
        fill: #68a57c;
      }

      .cls-8 {
        fill: #a9f490;
      }

      .cls-9 {
        fill: #ff85b7;
      }

      .cls-10 {
        fill: #4b4d6b;
      }

      .cls-11 {
        fill: #ff3939;
      }

      .cls-12 {
        fill: #11a879;
      }

      .cls-13 {
        fill: #ea4949;
      }

      .cls-14 {
        fill: #71c5ff;
      }

      .cls-15 {
        fill: #ffd9b0;
      }

      .cls-20 {
        fill: #fec;
        stroke: #ff3717;
        stroke-width: 2.5px;
      }

      .cls-16 {
        fill: #ffa1af;
      }

      .cls-17 {
        fill: #697fff;
      }

      .cls-18 {
        fill: #d8d8d8;
      }
    </style>
    <filter id="drop-shadow-1" filterUnits="userSpaceOnUse">
      <feOffset dx="0" dy="2"/>
      <feGaussianBlur result="blur" stdDeviation="6"/>
      <feFlood flood-color="#000" flood-opacity=".75"/>
      <feComposite in2="blur" operator="in"/>
      <feComposite in="SourceGraphic"/>
    </filter>
    <filter id="drop-shadow-2" filterUnits="userSpaceOnUse">
      <feOffset dx="0" dy="0"/>
      <feGaussianBlur result="blur-2" stdDeviation="6"/>
      <feFlood flood-color="#000" flood-opacity=".75"/>
      <feComposite in2="blur-2" operator="in"/>
      <feComposite in="SourceGraphic"/>
    </filter>
  </defs>
  <g id="Layer_1" data-name="Layer 1">
    <rect class="cls-10" width="432" height="293"/>
  </g>
  <g id="Layer_2" data-name="Layer 2">
    <path class="cls-2" d="M248.09,244c10.67-1.11,32.2,1.03,46.37,3.09l16.9,1.61c3.32.32,6.61.83,9.86,1.54,9.47,2.07,29.38,6.72,36.64,10.76h0c.96.35,2.47-140.57,12.33-194.29-35.6-1.96-60.92,1.03-86.66.53-58.61-1.14-100.46,9.41-114.25-.53-25.71-18.53-110.3,5.96-110.3,5.96,0,3.98,3.94,53.67,3.94,53.67,0,0,1.97,41.74,1.97,67.58,0,15.9,3.94,43.73,3.94,63.61,17.87-1.98,50.33-7.79,63.83-8.38,22.18-.97,34.01-2.48,47.07-1.65,12.79.82,30.94,1.17,38.46,2.68,14.26-1.79,17.71-4.91,29.88-6.18Z"/>
    <path class="cls-18" d="M81.16,248.12s40.67-8.47,72.58-8.47c7.92,0,31.42.98,37.68,1.25,23.7,1.03,20.19,2.68,39.16-2.06,8.24-2.06,12.61-1.82,15.46-2.06,6.79-.57,13.39,0,20.61,0,13.98,0,39.28,1.74,40.19,2.06.4.14,28.47,3.7,41.22,9.27,0,0-2.06-19.58,1.03-28.85-39.77-1.49-84.18-2.52-123.95-4.01-29.19-1.09-58.39-2.19-87.6-2.65-7.83-.13-15.66.24-23.47.91-5.68.49-15.86.9-24.66,6.89-1.06.72-9.17,4.44-9.27,2.98-.17-2.32,1.03,24.73,1.03,24.73Z"/>
    <path class="cls-16" d="M350.05,35.11c.34-.02.54.36.34.63-1.37,1.85-2.61,3.79-3.69,5.82-1.22,2.27-2.25,4.63-3.28,6.99-2.19,5.04-4.39,10.07-6.58,15.11-.18.41-.38.85-.76,1.09-.49.31-1.13.2-1.69.07-10.81-2.31-21.78-3.88-32.8-4.71-1.45-2.32-2.04-3.26-3.49-5.58,3.98-10.37,7.9-20.92,14.22-30.07,1.71-2.48,10.9,17.15,11.61,17.31,1.31.28,4.66-1.52,5.94-1.98,1.98-.72,5.98-2.23,8.02-2.76,3.99-1.03,8.07-1.67,12.18-1.93Z"/>
    <path class="cls-6" d="M215.32,237.66c.48.01.95.02.95.02.31,0,.58,0,.78,0,0,0,11.87-5.94,25.72-5.94,17.03,0,20.58-1.06,37.6,0,31.66,1.98,45.51,0,71.24,11.87,1.98-41.56,0-83.11,1.98-128.62.5-11.57,1.98-25.72,6.79-41.33-19.15-.83-38.3-1.66-57.44-2.49-3.63-.16-34.16-1.11-68.84-1.43-63.9-.59-80.99-2.52-112.03-6.19-5.94-.7-21.16-3.43-21.77-1.98-.12.3-29.7,15.76-29.68,15.83,1.98,5.94,4.32,63.41,7.92,166.22,18.85-4.24,35.02-6.56,47.49-7.92,11.99-1.3,19.83-1.78,25.39-1.89,0,0,0,0,0,0,5.06,0,10.23-.09,10.23-.09,12.89.43,19.33.64,23.72,1.07,2.55.25,28.77,2.84,29.95,2.87Z"/>
    <path class="cls-5" d="M76.56,68.48c3.94-2.43,11.29-7.35,17.95-9.94,22.63-8.81,43.97-7.66,65.16-5.89,21.12,1.76,32.84,3.69,53.74,7.22,18.24-3.9,36.62-7.44,55.23-8.61,29.16-1.83,58.69,2.24,86.26,11.91-3.35,23.21-5.64,46.8-6.54,70.23-.24,6.1-.39,12.2-.54,18.3-.68,27.32-1.37,54.64-2.05,81.96-13.49-7.79-30.68-8.74-46.26-9.15-12.58-.33-25.17-.33-37.75-.32-15.94,0-32.54.17-46.82,7.25-24.97-3.65-51.4-5.37-76.62-4.32-6.02.25-12.04.64-18.01,1.38-11.9,1.48-23.58,4.36-35.23,7.23-.96-10.12.16-22.34-.61-32.69-3.57-48.15-3.96-102.9-7.92-134.56Z"/>
    <path class="cls-19" d="M211.68,60.08c-.57,19.29-.77,39.54-.57,45.01.24,6.4,0,83.11,3.96,126.64"/>
    <g>
      <path class="cls-3" d="M112.39,78c1.41-.06,2.67.15,3.77.62,1.1.47,2.03,1.13,2.8,1.98.76.85,1.35,1.86,1.78,3.04.42,1.18.66,2.43.72,3.77s-.09,2.63-.44,3.83c-.35,1.2-.85,2.25-1.51,3.16-.66.91-1.46,1.63-2.39,2.17-.93.54-1.96.84-3.08.88l-8.72.35-.79-19.47,7.87-.32ZM113.04,93.69c.79-.03,1.45-.22,2-.56.55-.34.99-.79,1.33-1.36.34-.56.59-1.2.73-1.92.14-.72.2-1.47.17-2.26s-.15-1.54-.34-2.25-.49-1.34-.87-1.87c-.39-.53-.87-.95-1.45-1.26-.58-.3-1.27-.44-2.05-.41l-3.71.15.48,11.89,3.71-.15Z"/>
      <path class="cls-3" d="M132.55,77.68l.25,3.51-3.19.15.88,12.45,3.19-.15.24,3.48-10.52.74-.24-3.48,3.19-.15-.88-12.45-3.19.15-.25-3.51,10.52-.74Z"/>
      <path class="cls-3" d="M150.58,77.71l4.18.15-.68,19.48-3.98-.14-8.9-13.05-.44,12.72-4.18-.15.68-19.48,3.9.14,8.98,13.13.45-12.8Z"/>
      <path class="cls-3" d="M158.02,76.42l12.97-.46.13,3.79-8.52.3.12,3.52,7.5-.27.13,3.79-7.5.27.16,4.59,8.52-.3.13,3.79-12.97.46-.69-19.48Z"/>
      <path class="cls-12" d="M178.64,78.2c.18-.08,1.02-.45,2.04-.51.33-.02.6,0,.66,0,.43.03.86.11,1.29.25.64.22,1.22.53,1.73.94.51.41.93.9,1.27,1.45.34.56.53,1.16.57,1.8.04.49-.01.94-.15,1.35-.14.41-.32.8-.57,1.17-.24.36-.54.71-.88,1.04-.34.33-.7.64-1.08.94l3.16,2.89c.18-.15.35-.33.51-.54.16-.21.33-.42.5-.62l1.52-1.76,2.53,2.1c-.42.52-.86,1.04-1.32,1.55-.47.52-.94,1.01-1.41,1.48l3.75,3.48-4.42.32-1.71-1.55c-.77.65-1.6,1.22-2.47,1.72-.88.5-1.84.79-2.87.87-.66.05-1.31-.01-1.95-.18-.64-.16-1.22-.43-1.74-.8-.52-.37-.95-.84-1.29-1.41-.34-.57-.54-1.26-.59-2.05-.03-.44,0-.87.07-1.29.05-.26.18-.86.65-1.73.63-1.16,1.47-2.04,2.16-2.64-.27-.09-2.31-.85-2.93-2.87-.35-1.15-.06-2.12.03-2.41.61-1.94,2.46-2.78,2.94-3ZM180.86,93.56c.45-.03.88-.14,1.29-.33s.78-.4,1.09-.62c.36-.25.7-.53,1.01-.86-.56-.53-1.12-1.04-1.68-1.52-.56-.48-1.11-.99-1.65-1.53-.46.41-.87.84-1.24,1.31-.16.2-.34.45-.53.75-.2.3-.27.76-.23,1.38,0,.13.06.29.15.47s.22.34.38.49c.16.15.35.27.59.36.23.09.51.13.82.11ZM180.67,80.81c-.42.03-.74.14-.97.32-.23.19-.4.38-.51.57-.01.03-.03.07-.04.13-.31,1.13.46,2.27,1.64,2.49l.37.07c.38-.3.68-.56.9-.79.22-.23.38-.42.48-.58s.16-.3.19-.43c.02-.13.03-.24.03-.34-.03-.47-.27-.84-.71-1.1-.44-.26-.9-.38-1.38-.34Z"/>
      <path class="cls-17" d="M110.35,104.64c1.62-.29,3.11-.25,4.46.12,1.35.37,2.53.98,3.54,1.84,1.01.86,1.86,1.94,2.53,3.23.68,1.29,1.15,2.71,1.42,4.24s.31,3.06.1,4.49c-.21,1.44-.63,2.73-1.25,3.89-.62,1.15-1.43,2.12-2.42,2.89-.99.78-2.13,1.28-3.42,1.51l-10.02,1.79-3.99-22.38,9.04-1.61ZM113.58,122.66c.9-.16,1.64-.48,2.22-.96.58-.48,1.02-1.08,1.33-1.78.31-.7.49-1.48.54-2.34.05-.85,0-1.73-.16-2.64s-.41-1.75-.75-2.55-.77-1.47-1.31-2.03c-.53-.55-1.16-.96-1.88-1.22-.72-.26-1.53-.31-2.44-.15l-4.26.76,2.44,13.67,4.26-.76Z"/>
      <path class="cls-17" d="M134.42,105.73l7.94,20.13-4.23.06-1.72-4.31-7.76.12-1.56,4.36-4.25.06,7.32-20.36,4.25-.06ZM134.89,117.69l-2.49-6.33-2.3,6.4,4.79-.07Z"/>
      <path class="cls-17" d="M156.47,115.45c.77.57,1.34,1.26,1.71,2.08.36.82.5,1.74.42,2.77-.08.96-.37,1.85-.88,2.65-.51.8-1.2,1.49-2.07,2.07-.78.52-1.66.9-2.62,1.14-.96.24-1.97.32-3.02.26-1.05-.08-2.03-.31-2.96-.69-.93-.38-1.73-.9-2.42-1.56-1.04-.95-1.71-2.06-2.02-3.32l4.23-1.64c-.02.2.03.46.14.77s.3.62.57.93c.27.31.63.58,1.08.81.45.24,1.01.38,1.69.44.54.04,1.03.01,1.46-.1.43-.11.79-.26,1.09-.45.3-.19.53-.41.7-.67.17-.26.26-.53.28-.81.03-.32-.05-.63-.23-.93-.18-.3-.48-.54-.89-.74-.75-.34-1.55-.65-2.4-.91-.85-.26-1.67-.57-2.46-.92-.79-.36-1.52-.8-2.17-1.34-.66-.54-1.16-1.26-1.5-2.15-.31-.79-.43-1.62-.36-2.49.08-.97.37-1.88.88-2.75s1.17-1.59,1.97-2.15c.76-.53,1.6-.91,2.52-1.15s1.87-.32,2.86-.24,1.92.31,2.8.68c.88.37,1.65.88,2.32,1.52.65.6,1.16,1.28,1.51,2.03l-3.5,2.09c-.36-.62-.83-1.12-1.41-1.53-.58-.4-1.25-.63-2.01-.69-1.05-.08-1.87.09-2.49.53-.61.44-.95,1.05-1.01,1.83-.03.36.11.7.4,1,.3.31.69.59,1.19.85.49.26,1.06.5,1.68.73.63.22,1.25.44,1.86.66.62.22,1.2.45,1.75.67s.99.46,1.32.71Z"/>
      <path class="cls-17" d="M175.2,103.81l3.96.23-1.3,22.7-3.96-.23.56-9.76-8.45-.48-.56,9.76-3.96-.23,1.3-22.7,3.96.23-.49,8.51,8.45.48.49-8.51Z"/>
      <path class="cls-17" d="M186.78,123.55c1.07.23,1.89.78,2.48,1.67.58.88.76,1.85.54,2.91s-.78,1.87-1.67,2.44c-.89.57-1.87.74-2.94.51s-1.9-.78-2.5-1.67c-.6-.88-.78-1.86-.56-2.91s.79-1.87,1.7-2.43c.91-.57,1.89-.74,2.96-.51ZM184.21,120.61l3.49-19.36,7.32,1.56-4.64,19.11-6.17-1.31Z"/>
    </g>
    <path class="cls-15" d="M179.72,172.74c-.21,16.48-13.5,29.63-29.55,30.27-16.05.61-30.25-11.47-31.87-27.87-1.62-16.37,11.43-31.02,29.32-31.71,17.88-.71,32.32,12.86,32.1,29.31Z"/>
    <path class="cls-13" d="M174.55,172.84c-.17,13.42-11,24.14-24.07,24.66-13.08.5-24.64-9.34-25.97-22.7-1.32-13.34,9.31-25.27,23.88-25.83,14.57-.58,26.33,10.48,26.15,23.88Z"/>
    <path class="cls-1" d="M114.24,158.98c1.83-.08,3.15-.33,2.89-2.14-.19-1.31-.48-4.15-.61-4.22,0,0-.46-3.16-2.33-8.63,0,0,0-.01,0-.02-.31-1.29,3.06-2.25,3.68-1.15.03.05.08.1.11.15,3.45,7.06,5.24,18.69,5.5,20.48.46,3.16-3.5,5.68-4.51,6.04-5.12,1.82,10.17,32.98,8.98,39.61-.55,3.09-5.32,5.96-8.13,3.33-4.98-4.66-5.97-41.13-11.24-40.36-6.41.93-7.99-3.15-7.99-3.15,0,0-2.95-18.51-3.34-19.93-.02-.09-.23-.57.04-.9.08-.1.18-.2.29-.31.74-.7,2.67-1.16,3.31-.77.05.03.08.06.11.09.43.52.38,1.22.49,1.85.7,4.09,1.29,8.21,2.18,12.25,0,0,0,.01,0,.02.26.97,3.95.19,4.51-.95.06-.13.09-.24.08-.35-.64-4.35-1.59-8.61-2.45-12.9-.08-.4-.38-.77-.15-1.22h0c.39-.76,2.41-1.41,3.39-1.11.14.04.28.09.39.15.17.08.24.22.26.37.06.31.07.58.06.62-.09.59,1.8,10.34,3.29,12.66.24.38.67.5,1.17.47Z"/>
    <path class="cls-1" d="M190.6,174.78c-2.12,10.65-4.18,21.31-6.47,31.93-.25,1.17-1.4,2.36-2.82,3.02-1.81.85-4.39.44-6.62-.69-2.56-1.3-3.32-2.87-2.79-4.56,1.24-4,2.47-8,3.72-12,1.83-5.86,3.63-11.72,5.53-17.56.38-1.18.28-2.24-1.13-3.36-2.77-2.21-3.14-4.37-2.61-6.76.81-3.64,2.26-7.94,3.77-11.67,1.94-4.81,5.25-9.2,9.59-13.11.02-.02.04-.04.07-.06.93-.84,2.31-1.3,4.28-.61,2.13.75,2.2,1.84,1.97,2.98-2.18,10.81-4.33,21.63-6.48,32.45Z"/>
    <circle class="cls-20" cx="150" cy="173" r="20.5"/>
    <circle class="cls-11" cx="138.01" cy="167.02" r="4"/>
    <circle class="cls-11" cx="161.01" cy="178.03" r="4"/>
    <circle class="cls-11" cx="151.93" cy="173.98" r="3.94"/>
    <path class="cls-7" d="M159.97,172.54c-.68-1.02-1.14-2.17-1.35-3.37,1.85-2.11,4.43-2.9,6.53-2.39-.12.38-.15.77-.11,1.12-2.12.29-4.21,1.96-5.07,4.64Z"/>
    <path class="cls-7" d="M136.53,177.59c-1.16,2.04-1.16,4.54,0,6.59,1.85-1.06,3.71-2.12,5.56-3.17-.04-.07-.04-.16,0-.24-1.85-1.06-3.71-2.12-5.56-3.17Z"/>
    <path class="cls-7" d="M146.8,165.65c-.62.35-1.24.7-1.86,1.05-1.5-2.65-1.49-5.89.03-8.53.62.36,1.23.71,1.85,1.06-1.14,1.98-1.15,4.42-.02,6.42Z"/>
    <circle class="cls-11" cx="141.01" cy="183.03" r="4"/>
    <circle class="cls-11" cx="153.01" cy="161.02" r="4"/>
    <path class="cls-7" d="M163.68,182.82c-.06,1.07-.19,2.13-.4,3.15-3.8-1.3-7.57-.44-10.1,1.58-.66-.79-1.39-1.53-2.18-2.23,3.23-2.71,7.95-3.88,12.68-2.5Z"/>
    <path class="cls-7" d="M147.93,176.64c-.05.32-.06.67-.02,1.04-2.22,0-4.79-1.68-5.91-4.75.35-.72.78-1.39,1.29-1.99.39,3.21,2.53,5.31,4.64,5.7Z"/>
    <circle class="cls-1" cx="160.5" cy="161.5" r="1.5"/>
    <circle class="cls-1" cx="149.5" cy="188.5" r="1.5"/>
    <circle class="cls-1" cx="138.5" cy="162.5" r="1.5"/>
    <circle class="cls-1" cx="162.5" cy="184.5" r="1.5"/>
    <circle class="cls-1" cx="134.5" cy="175.5" r="1.5"/>
    <circle class="cls-1" cx="147.5" cy="175.5" r="1.5"/>
  </g>
  <g id="Layer_3" data-name="Layer 3">
    <path class="cls-8" d="M331.5,85.5s-.97,21.9-1.62,24.46c-19.41-2.56-72.18-4.14-99.99-1.33,0,0-.23-23.16-.16-23.76,21.01-4.42,71.03-4.22,101.78.63Z"/>
    <path class="cls-9" d="M331.31,119.6l-2.05,25c-21.8-3.02-77.86-3.08-99.66-1.1,0,0-.17-24.39-.1-25,34.25-2.97,72.76-2.46,101.81,1.1Z"/>
    <path class="cls-14" d="M330.5,152.56c0,13.94-1,28.94-1,28.94-19.74-2.37-74.88-2.32-99-1,0,0-1.06-27.07-1-27.81,20-2.33,101-.12,101-.12Z"/>
    <g>
      <path class="cls-4" d="M257.32,133.67c1.51-.06,3.02-.12,4.53-.17.02.73.05,1.46.07,2.19-2.29.08-4.58.17-6.87.27-.17-3.76-.34-7.51-.51-11.27.8-.04,1.6-.07,2.4-.1.12,3.03.25,6.05.37,9.08Z"/>
      <path class="cls-4" d="M262.47,124.39c2.34-.07,4.67-.13,7.01-.18.01.73.03,1.46.04,2.2-1.53.03-3.06.07-4.59.11.02.68.04,1.36.06,2.04,1.34-.04,2.68-.07,4.02-.1.01.73.03,1.46.04,2.2-1.34.03-2.67.06-4.01.1.02.89.05,1.77.07,2.66,1.51-.04,3.02-.08,4.53-.11.01.73.03,1.46.04,2.2-2.29.04-4.58.1-6.87.17-.12-3.76-.24-7.52-.35-11.28Z"/>
      <path class="cls-4" d="M280.04,124.11c.87,0,1.74,0,2.61,0-1.59,3.75-3.15,7.52-4.68,11.28-.86,0-1.73,0-2.59.02-1.58-3.75-3.18-7.49-4.82-11.22.87-.02,1.74-.03,2.61-.04,1.18,2.8,2.34,5.6,3.49,8.4,1.11-2.82,2.23-5.63,3.38-8.45Z"/>
      <path class="cls-4" d="M283.75,124.12c2.34.01,4.67.04,7.01.08-.01.73-.03,1.46-.04,2.2-1.53-.03-3.06-.05-4.59-.06,0,.68-.01,1.36-.02,2.04,1.34.01,2.68.03,4.02.05-.01.73-.02,1.46-.04,2.2-1.34-.02-2.67-.04-4.01-.05,0,.89-.02,1.77-.03,2.66,1.51.01,3.02.04,4.53.06-.01.73-.03,1.46-.04,2.2-2.29-.04-4.58-.07-6.87-.08.02-3.76.04-7.52.06-11.28Z"/>
      <path class="cls-4" d="M294.44,133.36c1.51.04,3.02.08,4.53.13-.02.73-.05,1.46-.07,2.19-2.29-.07-4.58-.14-6.87-.18.08-3.76.15-7.52.23-11.28.8.02,1.6.03,2.4.05-.07,3.03-.15,6.06-.22,9.08Z"/>
      <path class="cls-4" d="M307.04,130.2c.43.29.74.64.95,1.07.21.42.3.91.27,1.45-.03.51-.17.98-.43,1.41-.26.43-.61.8-1.06,1.12-.41.29-.87.5-1.37.65-.51.14-1.04.21-1.6.19-.56-.02-1.09-.12-1.59-.3-.5-.18-.94-.43-1.32-.77-.57-.48-.96-1.04-1.15-1.7.74-.32,1.48-.64,2.22-.96,0,.11.03.24.09.4.07.16.18.32.32.47.15.15.35.29.59.41.24.12.55.18.91.2.29.01.55-.01.77-.08.23-.07.42-.15.57-.25.15-.1.27-.23.36-.37.08-.14.13-.28.14-.43,0-.17-.04-.33-.14-.48-.1-.15-.27-.28-.49-.37-.41-.17-.85-.31-1.31-.43-.46-.12-.9-.26-1.34-.44-.43-.17-.83-.39-1.2-.66-.37-.27-.65-.63-.85-1.1-.18-.41-.27-.84-.25-1.3.02-.51.15-1,.41-1.47.25-.47.59-.86,1.01-1.17.4-.29.85-.51,1.34-.66.49-.15,1.01-.21,1.54-.19.54.02,1.05.12,1.53.3.48.18.91.43,1.29.76.37.3.65.65.85,1.04-.62.38-1.24.77-1.85,1.16-.21-.32-.47-.58-.79-.78-.32-.2-.69-.31-1.1-.33-.57-.02-1.01.09-1.33.33-.32.24-.49.57-.5.98,0,.19.07.36.24.52.17.16.39.3.66.42.27.13.58.24.92.35.34.1.68.21,1.02.31.34.1.65.21.95.32.3.11.54.23.72.35Z"/>
    </g>
    <g>
      <path class="cls-4" d="M243.08,161.47c2.69-.12,5.38-.23,8.08-.33.03.71.05,1.42.08,2.14-.95.03-1.89.07-2.84.11.11,2.95.23,5.9.34,8.84-.79.03-1.57.06-2.36.1-.12-2.95-.25-5.9-.37-8.84-.95.04-1.89.08-2.84.12-.03-.71-.06-1.42-.1-2.14Z"/>
      <path class="cls-4" d="M258.55,160.91c.8-.02,1.59-.04,2.39-.06.05,2.34.11,4.68.16,7.02.01.55-.09,1.08-.31,1.59-.22.51-.52.96-.9,1.35-.39.39-.84.71-1.35.95-.52.24-1.07.37-1.67.39-.59.02-1.15-.08-1.69-.29-.54-.21-1-.5-1.4-.87-.4-.37-.73-.8-.97-1.3-.25-.5-.38-1.02-.4-1.57-.08-2.34-.16-4.68-.24-7.02.8-.03,1.59-.05,2.39-.08.07,2.18.14,4.37.2,6.55.01.31.07.6.18.87.11.27.26.51.44.72.18.21.4.37.64.48.25.12.5.17.77.16.28,0,.53-.08.77-.21.23-.13.44-.3.61-.52.18-.22.31-.46.41-.74.1-.28.14-.57.13-.88-.06-2.18-.11-4.37-.17-6.55Z"/>
      <path class="cls-4" d="M261.93,160.83c2.69-.06,5.39-.1,8.08-.14,0,.71.02,1.43.03,2.14-.95.01-1.89.02-2.84.04.05,2.95.09,5.9.14,8.85-.79.01-1.57.02-2.36.04-.05-2.95-.11-5.9-.16-8.85-.95.02-1.89.04-2.84.06-.02-.71-.03-1.43-.05-2.14Z"/>
      <path class="cls-4" d="M276.36,160.49c.76,0,1.47.14,2.14.44.67.3,1.25.71,1.75,1.22.5.52.89,1.12,1.17,1.8.29.68.43,1.41.42,2.19,0,.76-.15,1.49-.43,2.18-.29.69-.68,1.3-1.17,1.81-.49.52-1.07.93-1.73,1.23-.66.31-1.36.46-2.11.46-.74,0-1.45-.15-2.11-.45-.66-.3-1.24-.71-1.73-1.22-.49-.51-.88-1.11-1.18-1.8-.29-.69-.44-1.42-.45-2.18,0-.78.13-1.51.41-2.19.28-.69.66-1.29,1.15-1.81.49-.52,1.06-.93,1.73-1.24.67-.3,1.38-.46,2.14-.46ZM276.4,169.5c.42,0,.82-.09,1.19-.27.37-.18.7-.42.98-.72.28-.3.5-.66.66-1.06.16-.4.24-.84.24-1.3,0-.46-.08-.9-.24-1.31-.16-.41-.38-.76-.67-1.07-.28-.3-.61-.54-.98-.72-.38-.18-.78-.26-1.21-.26-.43,0-.83.09-1.2.27-.38.18-.7.42-.98.73-.28.31-.5.66-.65,1.07-.16.41-.24.85-.23,1.31,0,.46.09.9.25,1.3.16.4.39.75.67,1.06.28.3.61.54.98.71.37.17.77.26,1.2.26Z"/>
      <path class="cls-4" d="M291.09,163.99c0,.35-.06.68-.16,1-.1.31-.25.6-.43.86-.18.26-.4.49-.65.69-.25.2-.53.36-.82.48,1.2,1.57,2.4,3.14,3.59,4.72-.91-.01-1.83-.03-2.74-.04-1.11-1.49-2.23-2.98-3.36-4.47-.35,0-.71,0-1.06,0-.01,1.48-.02,2.96-.03,4.43-.79,0-1.57-.01-2.36-.01.02-3.66.03-7.33.05-10.99,1.6,0,3.21.02,4.81.03.44,0,.86.09,1.25.27.39.17.73.41,1.01.71.28.3.51.65.67,1.05.16.4.24.83.23,1.28ZM287.59,165.1c.3,0,.56-.11.79-.33.22-.22.33-.49.34-.81,0-.31-.1-.58-.32-.8-.22-.22-.48-.34-.78-.34-.71,0-1.41-.01-2.12-.02,0,.76-.01,1.52-.02,2.28.7,0,1.41.01,2.11.02Z"/>
      <path class="cls-4" d="M297.98,160.85c-.01.66-.03,1.32-.04,1.98-.28,0-.55-.01-.83-.02-.05,2.35-.1,4.69-.15,7.04.27,0,.55.01.82.02-.02.66-.03,1.31-.05,1.97-1.33-.03-2.67-.06-4-.08.01-.66.02-1.31.04-1.97.27,0,.55,0,.82.01.04-2.35.09-4.69.13-7.04-.28,0-.55,0-.83-.01.01-.66.02-1.32.03-1.98,1.35.02,2.7.05,4.06.08Z"/>
      <path class="cls-4" d="M306.29,161.08c1.43,3.71,2.84,7.43,4.22,11.15-.85-.03-1.69-.06-2.54-.09-.3-.8-.61-1.59-.91-2.39-1.56-.05-3.12-.1-4.68-.15-.35.78-.7,1.55-1.04,2.33-.85-.02-1.71-.04-2.56-.07,1.62-3.63,3.26-7.25,4.92-10.86.86.03,1.73.05,2.59.08ZM306.25,167.58c-.44-1.17-.89-2.33-1.34-3.5-.52,1.14-1.04,2.27-1.56,3.41.97.03,1.93.06,2.9.09Z"/>
      <path class="cls-4" d="M314.03,170.23c1.51.07,3.01.13,4.52.21-.03.71-.07,1.42-.1,2.14-2.29-.11-4.58-.21-6.86-.31.15-3.66.29-7.32.44-10.98.8.03,1.59.07,2.39.1-.13,2.95-.26,5.89-.38,8.84Z"/>
    </g>
    <g>
      <path class="cls-4" d="M265.95,90c.45-.02.87.06,1.27.21.4.16.75.38,1.05.67.3.29.54.63.72,1.02.18.39.28.82.29,1.27.01.45-.06.88-.22,1.29-.16.4-.38.76-.66,1.07-.28.31-.61.55-.99.74-.38.18-.79.28-1.23.3-.81.03-1.62.06-2.43.09.06,1.48.12,2.95.18,4.43-.79.03-1.57.07-2.36.1-.17-3.66-.35-7.32-.52-10.98,1.63-.08,3.25-.14,4.88-.2ZM265.79,94.43c.3-.01.56-.13.78-.36.22-.23.32-.5.31-.82-.01-.31-.13-.57-.37-.79-.23-.21-.5-.32-.81-.31-.71.03-1.42.05-2.13.08.03.76.06,1.52.09,2.28.71-.03,1.41-.06,2.12-.08Z"/>
      <path class="cls-4" d="M272.71,98.67c1.51-.03,3.02-.05,4.54-.06,0,.71.01,1.43.02,2.14-2.29.02-4.58.05-6.87.11-.09-3.66-.18-7.32-.27-10.99.81-.02,1.61-.04,2.42-.05.06,2.95.11,5.9.17,8.85Z"/>
      <path class="cls-4" d="M285.03,89.78c1.53,3.68,3.01,7.37,4.46,11.07-.85-.02-1.7-.04-2.54-.05-.32-.79-.64-1.58-.96-2.37-1.56-.02-3.13-.04-4.69-.04-.33.78-.66,1.57-.98,2.35-.85,0-1.71,0-2.56,0,1.51-3.67,3.06-7.34,4.65-10.99.88,0,1.75.01,2.63.02ZM285.13,96.28c-.47-1.16-.95-2.32-1.43-3.47-.5,1.15-1,2.3-1.49,3.45.97,0,1.94.01,2.92.03Z"/>
      <path class="cls-4" d="M296.39,90.08c.97.04,1.94.08,2.91.13-1.43,1.88-2.85,3.77-4.24,5.67-.06,1.71-.13,3.43-.19,5.14-.79-.03-1.57-.06-2.36-.08.05-1.71.11-3.43.16-5.14-1.26-1.99-2.54-3.97-3.85-5.95.97.02,1.94.04,2.91.07.75,1.15,1.49,2.3,2.22,3.45.8-1.1,1.61-2.2,2.43-3.29Z"/>
    </g>
  </g>
</svg>