<?xml version="1.0" encoding="UTF-8"?>
<svg xmlns="http://www.w3.org/2000/svg" viewBox="0 0 407 271.33">
  <defs>
    <style>
      .cls-1 {
        fill: #000;
      }

      .cls-1, .cls-2, .cls-3, .cls-4, .cls-5, .cls-6, .cls-7, .cls-8 {
        stroke-miterlimit: 10;
      }

      .cls-1, .cls-6 {
        stroke: #000;
      }

      .cls-2 {
        fill: #9fc4ff;
      }

      .cls-2, .cls-3, .cls-4, .cls-5, .cls-7, .cls-8 {
        stroke: #281510;
        stroke-width: 3px;
      }

      .cls-3 {
        fill: #fff0e3;
      }

      .cls-4 {
        fill: #fff8e9;
      }

      .cls-5 {
        fill: none;
      }

      .cls-9 {
        fill: #ff3636;
      }

      .cls-9, .cls-10, .cls-11, .cls-12 {
        stroke-width: 0px;
      }

      .cls-13 {
        opacity: .21;
      }

      .cls-6 {
        fill: #ffe9e9;
      }

      .cls-10 {
        fill: #e1f9ff;
      }

      .cls-11 {
        fill: #fff;
      }

      .cls-7 {
        fill: #8e675b;
      }

      .cls-8 {
        fill: #ffeae6;
      }

      .cls-12 {
        fill: #281510;
      }
    </style>
  </defs>
  <g id="Layer_1" data-name="Layer 1">
    <rect class="cls-6" x="1.5" y=".5" width="405" height="267"/>
    <g class="cls-13">
      <path class="cls-9" d="M254.75,271.33h-17.34c.02-5.8.04-11.61.05-17.41l-.11.11h16.73v-16.67h-16.73l.1.11c0-5.82,0-11.64,0-17.46l-.1.11h16.56c0-5.78,0-11.22,0-16.66,5.82,0,11.65,0,17.47,0,0,5.54,0,11.08,0,16.62-5.57,0-11.14,0-16.74,0v17.27h16.73c-.03,5.56-.07,11.11-.1,16.67l.12-.13h-16.65v17.43Z"/>
      <path class="cls-9" d="M220.84,271.33h-17.34c-.02-5.82-.04-11.63-.07-17.45,5.54,0,11.08,0,16.74,0v-16.4h-16.73c0-5.83,0-11.67-.01-17.5,5.58,0,11.16,0,17.39,0,0-5.57,0-11.05,0-16.52,5.55,0,11.1,0,16.65.01-.03,5.55-.07,11.1-.1,16.65l.1-.11h-16.73v17.46h16.73l-.1-.11c0,5.56,0,11.11,0,16.67l.11-.11h-16.63v17.41Z"/>
      <path class="cls-9" d="M153,271.33h-17.34c-.02-5.82-.05-11.63-.07-17.45,5.56,0,11.12,0,16.73,0v-16.4h-16.73c0-5.84,0-11.67,0-17.51,5.55,0,11.09,0,17.38,0,0-5.63,0-11.07,0-16.51,5.56,0,11.11,0,16.67,0,0,5.55,0,11.1-.01,16.64h-16.72v17.25h16.72c-.03,5.56-.07,11.11-.1,16.67l.11-.11h-16.64v17.41Z"/>
      <path class="cls-9" d="M254,0h17.34c.02,5.82.05,11.64.07,17.46-5.56,0-11.12,0-16.75,0v16.39h16.74c0,5.84,0,11.67,0,17.51-5.56-.01-11.11-.03-16.67-.04v-17.35c-6.42,0-11.89,0-17.36,0,.03-5.56.07-11.11.1-16.67l-.1.11h16.63V0Z"/>
      <path class="cls-9" d="M0,118.33h16.84v17.39h17.12s-.1-.11-.1-.11c.04,5.83.08,11.66.12,17.5-5.56-.26-11.12-.51-17.07-.79v-16.66H0v-17.34Z"/>
      <path class="cls-9" d="M152.25,0h17.34c.02,5.82.04,11.63.06,17.45-5.55,0-11.1,0-17.41,0v16.52c-5.54,0-11.08,0-16.62,0,.03-5.56.07-11.12.1-16.67l-.1.11h16.63V0Z"/>
      <path class="cls-9" d="M220.08,0h17.34c-.02,5.8-.03,11.61-.05,17.41,0,0,.1-.11.1-.11-5.55,0-11.1,0-16.56,0,0,5.77,0,11.22,0,16.66-5.82,0-11.64,0-17.46,0,.03-5.56.07-11.11.1-16.67l-.1.11h16.63V0Z"/>
      <path class="cls-9" d="M407,153h-16.85v16.52h-17.12l.1.11c-.04-5.54-.07-11.08-.11-16.62,5.56,0,11.12,0,16.52,0v-17.4c5.82.02,11.63.04,17.45.06v17.34Z"/>
      <path class="cls-9" d="M0,51.25h16.98v-17.28h16.99l-.1-.11c0,5.82,0,11.64,0,17.46l.09-.1h-16.88v16.61H0v-16.58Z"/>
      <path class="cls-9" d="M33.97,17.41h-16.83v16.51H0v-16.58h17.34V0h16.58c.02,5.8.03,11.61.05,17.41Z"/>
      <path class="cls-9" d="M373.03,51.33h16.87v16.5h17.11v16.58c-5.8,0-11.61.02-17.41.03,0-5.44,0-10.89,0-16.53h-16.57c.04-5.56.07-11.13.11-16.69l-.11.12Z"/>
      <path class="cls-9" d="M373.08,0c-.02,5.82-.04,11.63-.06,17.45,0,0,.11-.15.11-.15-5.81,0-11.62,0-17.43.01,0,0,.07.09.07.09,0-5.8-.02-11.6-.02-17.4h17.34Z"/>
      <path class="cls-9" d="M186.92,271.33h-17.34c.02-5.8.04-11.6.05-17.41,0,0-.11.11-.11.11,5.83-.05,11.66-.1,17.49-.15-.04,5.82-.07,11.63-.11,17.45Z"/>
      <path class="cls-9" d="M305.25,0c.02,5.82.05,11.64.07,17.46-5.84,0-11.67,0-17.51,0,.03-5.82.07-11.63.1-17.45h17.34Z"/>
      <path class="cls-9" d="M407,17.34h-17.34V0h17.34v17.34Z"/>
      <path class="cls-9" d="M0,220.08h16.71v17.34H0v-17.34Z"/>
      <path class="cls-9" d="M0,254h17.34v17.34H0v-17.34Z"/>
      <path class="cls-9" d="M186.16,0c5.78,0,11.56,0,17.34,0-.02,5.8-.03,11.61-.05,17.41,0,0,.1-.11.1-.11-5.55.04-11.1.07-16.66.11-.13-1.35-.32-2.7-.37-4.05-.15-4.45-.25-8.9-.36-13.35Z"/>
      <path class="cls-9" d="M407,51.25h-16.71v-17.34h16.71v17.34Z"/>
      <path class="cls-9" d="M101.75,271.33c-.02-5.8-.04-11.61-.05-17.41h17.39v17.41h-17.34Z"/>
      <path class="cls-9" d="M407,186.92h-16.69v-17.34h16.69v17.34Z"/>
      <path class="cls-9" d="M0,84.41h16.69v17.34H0v-17.34Z"/>
      <path class="cls-9" d="M339.23,17.44h-16.65V0h16.58c.02,5.81.05,11.63.07,17.44Z"/>
      <path class="cls-9" d="M33.86,253.92h16.63v17.41h-16.58c-.02-5.8-.04-11.61-.05-17.41Z"/>
      <path class="cls-9" d="M84.44,17.4C84.68,11.6,84.93,5.8,85.17,0c5.53,0,11.05,0,16.58,0-.02,5.82-.04,11.64-.06,17.45,0,0,.12-.15.12-.15-5.81,0-11.62,0-17.43.01,0,0,.07.09.07.09Z"/>
      <path class="cls-9" d="M84.31,253.89c.04,5.82.07,11.63.11,17.45h-16.58c.02-5.82.04-11.63.06-17.45l-.12.15c5.56,0,11.12,0,16.67.01,0,0-.15-.16-.15-.16Z"/>
      <path class="cls-9" d="M355.65,253.89c.03,5.82.07,11.63.1,17.45h-16.58c.02-5.82.05-11.63.07-17.45l-.12.15c5.56,0,11.12,0,16.68.01l-.15-.16Z"/>
      <path class="cls-9" d="M67.83,0c.02,5.8.03,11.61.05,17.41-5.47,0-10.93,0-16.63,0V0h16.58Z"/>
      <path class="cls-9" d="M119.06,17.4c0-5.8.02-11.6.02-17.4h16.58c-.02,5.8-.03,11.61-.05,17.41,0,0,.1-.11.1-.11-5.55.03-11.1.07-16.66.1Z"/>
      <path class="cls-9" d="M271.33,271.33c.02-5.81.04-11.62.07-17.43,0,0-.12.13-.12.13,5.56,0,11.12,0,16.68.01l-.15-.16c.03,5.82.07,11.63.1,17.45h-16.58Z"/>
      <path class="cls-9" d="M305.25,271.33c-.02-5.8-.03-11.6-.05-17.41h16.63v17.41h-16.58Z"/>
      <path class="cls-9" d="M373.08,271.33c.02-5.81.04-11.63.07-17.44l-.12.15c5.56,0,11.12,0,16.68,0l-.15-.16c.03,5.82.07,11.63.1,17.45h-16.58Z"/>
      <path class="cls-9" d="M407,254c-5.81-.04-11.63-.07-17.44-.11,0,0,.15.16.15.16,0-5.56,0-11.12,0-16.68,0,0-.17.13-.17.13,5.82-.03,11.64-.05,17.47-.08v16.58Z"/>
      <path class="cls-9" d="M0,153h17.4c0,5.48,0,11.05,0,16.62-5.8-.01-11.6-.03-17.4-.04v-16.58Z"/>
      <path class="cls-9" d="M407,220.08c-5.82-.03-11.65-.06-17.47-.09l.17.14c0-5.56,0-11.12,0-16.68l-.17.13c5.82-.03,11.65-.05,17.47-.08v16.58Z"/>
      <path class="cls-9" d="M407,118.33c-5.82-.03-11.64-.07-17.46-.1,0,0,.16.14.16.14,0-5.56,0-11.12,0-16.68l-.17.13,17.47-.08v16.58Z"/>
      <path class="cls-9" d="M0,186.92h16.64c.26,5.61.52,11.12.78,16.64-5.81-.02-11.62-.04-17.43-.06v-16.58Z"/>
      <path class="cls-9" d="M305.2,169.53c0,5.83,0,11.66,0,17.49l.11-.13h-16.77v-17.25h16.77l-.11-.1Z"/>
      <path class="cls-9" d="M339.21,186.88h-17.35v-17.35l-.09.09c5.82-.04,11.64-.07,17.46-.11-.04,5.82-.07,11.65-.11,17.47,0,0,.1-.1.1-.1Z"/>
      <path class="cls-9" d="M305.21,220.12h16.71v17.25h-16.71l.1.11c0-5.82,0-11.64,0-17.46l-.1.1Z"/>
      <path class="cls-9" d="M339.22,237.48c0-5.83,0-11.67.01-17.5l-.12.15c5.55-.03,11.1-.07,16.65-.1-.03,5.82-.06,11.64-.1,17.46l.11-.11c-5.55,0-11.11,0-16.66,0l.11.11Z"/>
      <path class="cls-9" d="M305.3,254.04c-5.83-.05-11.66-.1-17.49-.15,0,0,.15.16.15.16-.04-5.56-.09-11.11-.13-16.67,5.83.03,11.65.06,17.48.09l-.1-.11c.03,5.56.06,11.11.1,16.67Z"/>
      <path class="cls-9" d="M305.2,203.47c0,5.55,0,11.1,0,16.64,0,0,.1-.1.1-.1h-16.78v-16.45h16.77l-.11-.09Z"/>
      <path class="cls-9" d="M305.19,187.01h16.68v16.46c-5.53,0-11.1,0-16.68,0,0,0,.11.09.11.09,0-5.56,0-11.12,0-16.68l-.11.13Z"/>
      <path class="cls-9" d="M339.24,219.98h-16.86v-16.4h16.85l-.11-.12c0,5.56,0,11.11,0,16.67l.12-.15Z"/>
      <path class="cls-9" d="M339.23,253.88h-16.73v-16.4h16.72l-.11-.11c0,5.56,0,11.11,0,16.67l.12-.15Z"/>
      <path class="cls-9" d="M339.23,203.57c0-5.56,0-11.13-.01-16.69,0,0-.1.1-.1.1h16.65c0,5.69,0,11.13,0,16.57-5.55-.03-11.1-.07-16.65-.1,0,0,.11.12.11.12Z"/>
      <path class="cls-9" d="M321.86,169.53c-5.55,0-11.11,0-16.66,0l.11.1c-.04-5.54-.07-11.08-.11-16.62,5.55,0,11.1,0,16.57,0v16.61l.09-.09Z"/>
      <path class="cls-9" d="M33.98,101.81c0-5.83,0-11.66,0-17.49l-.11.13c5.84-.04,11.68-.08,17.53-.12,0,5.83,0,11.66,0,17.49-5.84-.04-11.69-.08-17.53-.12l.11.11Z"/>
      <path class="cls-9" d="M33.97,135.72c0-5.84.01-11.68.02-17.52l-.12.16h16.73v17.25h-16.73l.1.11Z"/>
      <path class="cls-9" d="M33.98,84.32h-16.72v-16.43h16.71s-.1-.11-.1-.11c0,5.56,0,11.11,0,16.67l.11-.13Z"/>
      <path class="cls-9" d="M33.97,67.9c0-5.56,0-11.12,0-16.68,0,0-.09.1-.09.1,5.55,0,11.1,0,16.71,0v16.47h-16.71l.1.11Z"/>
      <path class="cls-9" d="M33.98,118.21h-16.7v-16.4h16.7s-.11-.11-.11-.11c0,5.56,0,11.11,0,16.67l.12-.16Z"/>
      <path class="cls-9" d="M237.36,220.12c.03-5.55.07-11.1.1-16.65l-.1.09c5.55,0,11.11,0,16.66,0l-.1-.08v16.66h-16.56Z"/>
      <path class="cls-9" d="M271.39,203.47c-5.82,0-11.65,0-17.47,0,0,0,.1.09.1.09.25-5.56.49-11.12.74-16.68,5.54.04,11.08.08,16.62.12,0,0-.11-.11-.11-.11,0,5.56,0,11.12,0,16.68,0,0,.11-.09.11-.09Z"/>
      <path class="cls-9" d="M203.43,219.98c0,5.83,0,11.67.01,17.5l.1-.11c-5.55,0-11.11,0-16.66,0,0,0,.12.11.12.11,0-5.82,0-11.64,0-17.47l-.12.12c5.56,0,11.11,0,16.67,0,0,0-.12-.14-.12-.14Z"/>
      <path class="cls-9" d="M220.82,203.46v16.52c-6.22,0-11.81,0-17.39,0,0,0,.12.14.12.14-.04-5.55-.07-11.1-.11-16.65,5.83.03,11.66.06,17.49.08l-.11-.1Z"/>
      <path class="cls-9" d="M237.47,203.47c-5.55,0-11.1,0-16.65-.01,0,0,.11.1.11.1,0-5.52,0-11.03,0-16.65h16.54c-.04,5.55-.07,11.1-.11,16.65l.1-.09Z"/>
      <path class="cls-9" d="M169.63,220.11c0-5.55,0-11.1.01-16.64l-.11.09c5.82-.03,11.64-.06,17.46-.1-.04,5.56-.07,11.11-.11,16.67,0,0,.12-.12.12-.12-5.82,0-11.65,0-17.47,0l.1.1Z"/>
      <path class="cls-9" d="M152.97,203.47v16.51c-6.28,0-11.83,0-17.38,0,0,0,.12.14.12.14-.04-5.55-.07-11.1-.11-16.66,5.82.03,11.65.06,17.47.1l-.11-.1Z"/>
      <path class="cls-9" d="M169.64,203.47c-5.56,0-11.11,0-16.67,0,0,0,.11.1.11.1v-16.65h16.56c-.04,5.55-.07,11.1-.11,16.65l.11-.09Z"/>
      <path class="cls-9" d="M101.71,220.11h16.73v17.26h-16.73s.1.1.1.1c0-5.82,0-11.64,0-17.46l-.1.1Z"/>
      <path class="cls-9" d="M118.3,203.44l-16.6.02.1.1c-.04-5.55-.07-11.1-.11-16.64,5.82,0,11.64-.01,17.46-.02-.15,1.47-.35,2.94-.43,4.41-.19,4.08-.33,8.17-.49,12.25,0,0,.06-.12.06-.12Z"/>
      <path class="cls-9" d="M101.8,254.04c-5.83-.05-11.66-.1-17.49-.15,0,0,.15.16.15.16-.04-5.56-.08-11.11-.12-16.67,5.82.03,11.64.07,17.47.1l-.1-.1c.03,5.56.07,11.11.1,16.67Z"/>
      <path class="cls-9" d="M101.7,203.46c0,5.55,0,11.1,0,16.66,0,0,.1-.1.1-.1-5.82.03-11.65.05-17.47.08,0-5.54,0-11.08,0-16.62,5.83.03,11.65.06,17.48.08,0,0-.1-.1-.1-.1Z"/>
      <path class="cls-9" d="M135.61,203.47c.04,5.55.07,11.1.11,16.66h-16.67c-.25-5.64-.5-11.16-.75-16.68,0,0-.06.12-.06.12,5.83,0,11.65,0,17.48,0l-.11-.09Z"/>
      <path class="cls-9" d="M135.72,237.37c0,5.56,0,11.11,0,16.67h-16.68v-16.67h16.69Z"/>
      <path class="cls-9" d="M51.36,237.39c-5.83.03-11.66.06-17.49.09.04-5.83.08-11.66.12-17.49,0,0-.12.14-.12.14h17.36v17.34l.14-.08Z"/>
      <path class="cls-9" d="M33.97,237.37c0,5.56,0,11.11,0,16.67-5.47,0-10.94,0-16.7,0v-16.67h16.7Z"/>
      <path class="cls-9" d="M17.3,203.45c5.56.04,11.11.08,16.67.11,0,0-.1-.11-.1-.11,0,5.56,0,11.11,0,16.67,0,0,.12-.14.12-.14-5.44,0-10.89,0-16.68,0v-16.54Z"/>
      <path class="cls-9" d="M373.03,33.86c0,5.83,0,11.65,0,17.48,0,0,.11-.12.11-.12-5.84.04-11.68.09-17.52.13.06-5.83.11-11.65.17-17.48l-.1.09c5.82,0,11.64,0,17.45,0l-.11-.11Z"/>
      <path class="cls-9" d="M373.02,17.45h16.69v16.41c-5.53,0-11.11,0-16.68,0,0,0,.11.11.11.11,0-5.56,0-11.11,0-16.67l-.11.15Z"/>
      <path class="cls-9" d="M287.93,51.31v-17.45c6.23,0,11.8,0,17.37,0-.04,5.83-.08,11.66-.11,17.49,0,0,.11-.13.11-.13-5.81,0-11.62,0-17.43.01,0,0,.07.09.07.09Z"/>
      <path class="cls-9" d="M321.85,51.31v-17.34c6.22,0,11.8,0,17.37,0,0,0-.1-.11-.1-.11.04,5.83.08,11.67.12,17.5-5.82-.04-11.64-.09-17.46-.13l.07.08Z"/>
      <path class="cls-9" d="M339.11,17.3c5.55.03,11.1.07,16.66.1,0,0-.07-.09-.07-.09,0,5.55-.01,11.1-.02,16.64,0,0,.1-.09.1-.09-5.55,0-11.11,0-16.66,0,0,0,.1.11.1.11-.03-5.56-.07-11.11-.1-16.67Z"/>
      <path class="cls-9" d="M305.19,51.35c5.55-.01,11.1-.02,16.65-.04,0,0-.07-.08-.07-.08v16.69h-16.6c.04-5.57.08-11.13.12-16.7l-.11.13Z"/>
      <path class="cls-9" d="M305.2,33.97c0-5.56,0-11.11,0-16.67,5.47,0,10.94,0,16.69,0v16.67h-16.69Z"/>
      <path class="cls-9" d="M373.03,169.52c0,5.83,0,11.66,0,17.48l.1-.13h-17.01c0-2.03.04-3.39,0-4.74-.15-4.2-.34-8.4-.52-12.6,5.85.03,11.69.06,17.54.09l-.1-.11Z"/>
      <path class="cls-9" d="M373.03,187.01h16.5c0,5.52,0,11.05,0,16.57,0,0,.17-.13.17-.13-5.56.04-11.11.08-16.67.12.03-5.56.07-11.12.1-16.69l-.1.13Z"/>
      <path class="cls-9" d="M51.27,33.98c5.54,0,11.07,0,16.61,0,0,0-.1-.11-.1-.11.04,5.83.08,11.65.11,17.48h-16.56v-17.48l-.06.12Z"/>
      <path class="cls-9" d="M33.97,33.97c-.03-5.56-.07-11.11-.1-16.67,5.47,0,10.95,0,17.41,0,0,5.58,0,11.13,0,16.68,0,0,.06-.12.06-.11-5.82,0-11.65,0-17.47,0l.1.11Z"/>
      <path class="cls-9" d="M67.78,17.3c5.55.04,11.11.07,16.66.11,0,0-.07-.09-.07-.09v16.55h-16.59s.1.11.1.11c-.03-5.56-.07-11.11-.1-16.67Z"/>
      <path class="cls-9" d="M67.9,253.89h-16.54c0-5.46,0-10.98,0-16.5,0,0-.14.08-.14.08,5.56-.03,11.11-.06,16.67-.09-.04,5.55-.07,11.1-.11,16.65l.12-.15Z"/>
      <path class="cls-9" d="M17.3,169.53c5.55.03,11.11.07,16.66.1,0,0-.1-.11-.1-.11,0,5.82,0,11.64,0,17.46l.1-.1h-16.66v-17.35Z"/>
      <path class="cls-9" d="M33.97,203.56c0-5.56,0-11.12,0-16.68,0,0-.1.1-.1.1,5.56,0,11.11,0,16.73,0v16.47h-16.73l.1.11Z"/>
      <path class="cls-9" d="M33.86,152.97h16.86v-17.25h17.16l-.1-.11c.04,5.83.08,11.66.11,17.48h-17.14v16.43h-16.89s.1.11.1.11c-.03-5.56-.07-11.11-.1-16.67Z"/>
      <path class="cls-9" d="M373.04,84.45c5.55-.03,11.1-.06,16.65-.08-.05,5.82-.1,11.64-.16,17.46,0,0,.17-.13.17-.13-5.56.04-11.12.08-16.67.12.03-5.82.07-11.65.1-17.47,0,0-.1.1-.1.1Z"/>
      <path class="cls-9" d="M389.53,219.99c0,5.83,0,11.67,0,17.5,0,0,.17-.13.17-.13-5.56,0-11.11,0-16.67,0l.1.1c-.04-5.82-.07-11.65-.11-17.47,5.56.04,11.12.09,16.67.13l-.17-.14Z"/>
      <path class="cls-9" d="M119.13,17.31c-.03,5.55-.05,11.1-.08,16.65l.11-.1c-5.82.03-11.65.06-17.47.1.04-5.55.07-11.11.11-16.66,0,0-.12.15-.12.15,5.82-.05,11.63-.09,17.45-.14Z"/>
      <path class="cls-9" d="M389.7,135.72l-16.67-.11s.1.11.1.11c-.04-5.83-.08-11.66-.12-17.49,5.56.05,11.13.1,16.69.15,0,0-.16-.14-.16-.14.05,5.83.1,11.66.16,17.48Z"/>
      <path class="cls-9" d="M373.15,253.89c-5.83,0-11.67,0-17.5,0,0,0,.15.16.15.16,0-5.56,0-11.12-.01-16.68,0,0-.11.11-.11.11,5.82,0,11.65,0,17.47,0l-.1-.1c0,5.56,0,11.11,0,16.67l.12-.15Z"/>
      <path class="cls-9" d="M271.28,33.97c0-5.56,0-11.11,0-16.67,5.56,0,11.12,0,16.68,0v16.68h-16.68Z"/>
      <path class="cls-9" d="M186.96,17.31v16.55h16.59c-.04,5.83-.08,11.67-.12,17.5l.12-.15c-5.55.04-11.1.07-16.65.11v-17.46h-17.37l.11.09c-.04-5.55-.07-11.1-.11-16.66,5.81,0,11.62,0,17.43.01Z"/>
      <path class="cls-9" d="M186.88,254.05c0-5.56,0-11.12,0-16.68,5.55,0,11.11,0,16.66,0,0,5.55,0,11.11,0,16.66-5.56,0-11.11,0-16.67.01Z"/>
      <path class="cls-9" d="M271.39,186.99c-5.54-.04-11.08-.08-16.62-.12,0,0,.08.12.08.12v-17.46h-17.48l.11.11c0-5.56,0-11.11,0-16.67l-.11.12h16.73v-17.47h-16.73l.1.1c0-5.82,0-11.64,0-17.46l-.1.11c5.81,0,11.62,0,17.44-.01l-.07-.07v17.43h16.65l-.11-.1v16.93h16.64v17c-5.56,0-11.05,0-16.54,0,0-5.56,0-11.12,0-16.69h-16.67v16.57h16.79c-.04,5.85-.08,11.7-.12,17.55Z"/>
      <path class="cls-9" d="M305.19,135.62c.04,5.82.07,11.64.11,17.47-5.48,0-10.96,0-17.36,0v-17.46l-.1.1c5.82,0,11.64,0,17.46,0l-.11-.1Z"/>
      <path class="cls-9" d="M287.95,237.47c-5.56,0-11.11,0-16.67,0,0-5.82,0-11.64,0-17.46h16.67v17.45Z"/>
      <path class="cls-9" d="M287.94,135.62c-5.56,0-11.11,0-16.67,0,0,0,.11.1.11.1,0-5.82,0-11.64,0-17.46l-.1.11c5.55-.04,11.1-.07,16.66-.11-.03,5.82-.07,11.64-.1,17.46l.1-.1Z"/>
      <path class="cls-9" d="M271.28,203.56c0-5.56,0-11.12,0-16.68,5.48,0,10.97,0,16.7,0v16.68h-16.7Z"/>
      <path class="cls-9" d="M237.37,203.56c.04-5.55.07-11.1.11-16.65l-.11.08c5.83,0,11.65,0,17.48,0,0,0-.08-.12-.08-.12-.25,5.56-.49,11.12-.74,16.68-5.55,0-11.11,0-16.66,0Z"/>
      <path class="cls-9" d="M169.53,220.01c5.82,0,11.65,0,17.47,0,0,5.82,0,11.64,0,17.47-5.83,0-11.65,0-17.48,0,0-5.82,0-11.64,0-17.46Z"/>
      <path class="cls-9" d="M186.88,220.13c.04-5.56.07-11.11.11-16.67,0,0-.1.08-.1.08,5.55,0,11.1.01,16.66.02l-.11-.09c.04,5.55.07,11.1.11,16.65-5.56,0-11.11,0-16.67,0Z"/>
      <path class="cls-9" d="M237.47,186.91h-16.54c0,5.62,0,11.13,0,16.65-5.83-.03-11.66-.06-17.49-.08,0,0,.11.09.11.09,0-5.56,0-11.12,0-16.68l-.11.11h16.75v-17.46h-16.75l.11.11c-.03-5.55-.06-11.1-.1-16.65h17.4v-17.37c5.54.04,11.08.07,16.62.11,0,0-.1-.1-.1-.1,0,5.82,0,11.64,0,17.47l.11-.12h-16.74v16.67h16.74l-.11-.11c0,5.82,0,11.64,0,17.46l.11-.08Z"/>
      <path class="cls-9" d="M169.53,203.56c.04-5.55.07-11.1.11-16.65l-.11.08h17.41v-17.46c5.54.03,11.08.07,16.62.1l-.11-.11c0,5.82,0,11.64,0,17.46l.11-.11h-16.66v16.67s.1-.08.1-.08c-5.82.03-11.64.06-17.46.1Z"/>
      <path class="cls-9" d="M169.64,186.91h-16.56v16.65c-5.82-.03-11.65-.06-17.47-.1,0,0,.11.09.11.09-.04-5.55-.07-11.1-.11-16.65,5.55,0,11.1,0,16.5,0v-17.4c5.85,0,11.69,0,17.54.01-.04,5.82-.07,11.64-.11,17.47l.11-.08Z"/>
      <path class="cls-9" d="M84.33,220.09c5.82-.03,11.65-.05,17.47-.08,0,5.82,0,11.64,0,17.46-5.82-.03-11.64-.07-17.47-.1,0,0,.11.09.11.09,0-5.81,0-11.62,0-17.43l-.11.06Z"/>
      <path class="cls-9" d="M101.8,203.56c-5.83-.03-11.65-.06-17.48-.08,0,0,.12.07.12.07,0-5.52,0-11.04,0-16.67h-16.66l.1.11c0-5.82,0-11.64,0-17.46l-.1.11c5.56,0,11.11,0,16.67,0,0,0-.13-.1-.13-.1.27,5.66.53,11.32.82,17.45h16.66l-.11-.08c.04,5.55.07,11.1.11,16.64Z"/>
      <path class="cls-9" d="M119.16,186.89c-5.82,0-11.64.01-17.46.02,0,0,.11.08.11.08,0-5.82,0-11.64,0-17.46l-.1.11c5.84-.04,11.68-.08,17.52-.13-.05,5.82-.11,11.64-.16,17.46l.09-.07Z"/>
      <path class="cls-9" d="M135.61,186.91c.04,5.55.07,11.1.11,16.65-5.83,0-11.65,0-17.48,0,.16-4.08.3-8.17.49-12.25.07-1.47.28-2.94.43-4.41,0,0-.09.07-.09.07,5.55,0,11.1.02,16.66.03l-.11-.08Z"/>
      <path class="cls-9" d="M84.32,203.47c0,5.54,0,11.08,0,16.62,0,0,.11-.06.11-.06-5.55,0-11.1-.02-16.66-.03l.1.11c0-5.56,0-11.11,0-16.67l-.1.11c5.55,0,11.11,0,16.66-.01l-.12-.07Z"/>
      <path class="cls-9" d="M271.4,67.91c-.04-5.57-.08-11.13-.11-16.7,5.55.03,11.1.07,16.65.1,0,0-.07-.09-.07-.09.02,5.55.05,11.11.07,16.66-5.55-.03-11.1-.07-16.65-.1,0,0,.11.12.11.12Z"/>
      <path class="cls-9" d="M203.43,51.36h17.38v-17.49c5.55,0,11.11,0,16.66,0-.04,5.83-.08,11.66-.12,17.5,0,0,.12-.15.12-.15h-16.7v16.68h16.7l-.11-.11c0,5.56,0,11.11,0,16.67l.11-.11h-16.71v17.46h16.71l-.11-.11c0,5.56,0,11.11,0,16.67l.1-.11h-17.12v-16.45c-5.91,0-11.4,0-16.9,0,0-5.83,0-11.66,0-17.49,5.55,0,11.11,0,16.85,0v-16.41h-16.85c.04-5.57.08-11.13.12-16.7l-.12.15Z"/>
      <path class="cls-9" d="M254.8,51.23v16.68c5.46,0,11.03,0,16.59,0,0,0-.11-.12-.11-.12.04,5.55.07,11.09.11,16.64-5.56,0-11.12,0-16.73,0v17.28h16.73c-.04,5.55-.07,11.11-.11,16.66l.1-.11c-5.55,0-11.1.02-16.65.03l.07.07c-.24-5.44-.48-10.89-.73-16.65h-16.71l.11.11c0-5.82,0-11.64,0-17.46l-.11.11c5.58,0,11.16,0,16.76,0v-16.67h-16.76s.11.11.11.11c0-5.56,0-11.12,0-16.68,0,0-.12.15-.12.15,5.82-.04,11.64-.09,17.45-.13Z"/>
      <path class="cls-9" d="M67.88,135.72c0-5.83,0-11.67.01-17.5,0,0-.11.15-.11.15,5.55-.03,11.09-.06,16.64-.09,0,5.81-.02,11.63-.03,17.44-5.54-.04-11.07-.07-16.61-.11l.1.11Z"/>
      <path class="cls-9" d="M51.21,101.7c5.56.04,11.12.08,16.67.12l-.11-.11c0,5.56,0,11.11,0,16.67,0,0,.11-.15.11-.15-5.45,0-10.9,0-16.68,0v-16.52Z"/>
      <path class="cls-9" d="M152.17,33.86c5.82.03,11.65.06,17.47.1,0,0-.11-.09-.11-.09.04,5.83.08,11.66.11,17.49-5.55,0-11.1,0-16.73,0v16.45h16.72c0,5.55,0,11.1,0,16.65h-16.72v17.25h16.72c0,5.55,0,11.11,0,16.66h-16.73v17.25c5.76,0,11.25,0,16.73,0,0,5.83.01,11.66.02,17.49-5.55-.25-11.11-.49-17.14-.76v-16.73h-16.9l.1.11c-.04-5.83-.08-11.67-.12-17.5,5.56,0,11.13,0,16.75,0v-16.4h-16.75c0-5.83,0-11.67,0-17.5,5.57,0,11.15,0,16.74,0v-16.41c-5.76,0-11.24,0-16.72,0,.04-5.56.07-11.13.11-16.69l-.11.13h16.56v-17.48Z"/>
      <path class="cls-9" d="M119.05,33.96c5.55-.03,11.11-.06,16.66-.09-.04,5.83-.08,11.65-.11,17.48,0,0,.11-.13.11-.13-5.56,0-11.12,0-16.68,0,0,0,.15.16.15.16,0-5.83-.02-11.67-.03-17.5l-.11.1Z"/>
      <path class="cls-9" d="M67.78,135.61c5.54.04,11.07.07,16.61.11l-.06-.1c.25,5.54.5,11.07.78,17.39h16.68c-.04,5.54-.07,11.08-.11,16.62l.1-.11c-5.83,0-11.65,0-17.48,0l.13.1v-16.67h-16.67s.11.13.11.13c-.04-5.83-.08-11.66-.11-17.48Z"/>
      <path class="cls-9" d="M373.03,135.61c.03,5.82.07,11.64.1,17.47h-17.36v-17.46l-.1.1c5.82,0,11.64,0,17.46,0l-.1-.11Z"/>
      <path class="cls-9" d="M355.78,135.62c-5.55,0-11.1,0-16.66,0,0,0,.1.11.1.11,0-5.82,0-11.64,0-17.46l-.1.11c5.56,0,11.11,0,16.67,0l-.15-.16c.01,5.83.02,11.67.03,17.5l.1-.1Z"/>
      <path class="cls-9" d="M339.22,153.09h-17.36v-17.47s-.1.1-.1.1c5.82,0,11.64,0,17.47,0,0,0-.1-.11-.1-.11.03,5.83.06,11.65.1,17.48Z"/>
      <path class="cls-9" d="M355.79,169.64c-5.56,0-11.11,0-16.67,0,0-5.55,0-11.11,0-16.66,5.47,0,10.95,0,16.67,0v16.67Z"/>
      <path class="cls-9" d="M67.89,84.34c-5.56.04-11.12.08-16.68.12v-16.56c5.6,0,11.14,0,16.68,0,0,0-.1-.11-.1-.11,0,5.56,0,11.11,0,16.67l.11-.12Z"/>
      <path class="cls-9" d="M67.78,51.21h16.51v16.71s.15-.14.15-.14c-5.55,0-11.11,0-16.66,0,0,0,.1.11.1.11-.04-5.56-.07-11.12-.11-16.69Z"/>
      <path class="cls-9" d="M339.23,101.82c0-5.83,0-11.66,0-17.49l-.12.13h16.66v-16.67l-.17.14c5.84-.04,11.68-.09,17.52-.13-.03,5.56-.07,11.11-.1,16.67,0,0,.1-.1.1-.1h-17.5c0,6.33,0,11.9,0,17.48,0,0,.15-.13.15-.13-5.56,0-11.11,0-16.67,0l.12.11Z"/>
      <path class="cls-9" d="M339.23,67.91c-.04-5.57-.08-11.13-.12-16.7,5.56,0,11.12,0,16.67,0-.06,5.57-.12,11.14-.18,16.71,0,0,.17-.14.17-.14-5.56,0-11.11,0-16.67,0l.12.12Z"/>
      <path class="cls-9" d="M101.8,33.86c0,5.82,0,11.64,0,17.46-5.48,0-10.96,0-16.71,0v-17.46h16.71Z"/>
      <path class="cls-9" d="M101.7,51.21c5.83.05,11.66.1,17.49.15,0,0-.15-.16-.15-.16.05,5.57.1,11.15.15,16.72-5.83-.05-11.66-.09-17.49-.14,0,0,.11.12.11.12-.04-5.57-.08-11.13-.12-16.7Z"/>
      <path class="cls-9" d="M84.29,67.92c5.84,0,11.68-.01,17.52-.02,0,0-.11-.12-.11-.12l.1,16.66c-5.55-.03-11.1-.06-16.65-.08l.08.08c-.13-1.35-.34-2.69-.39-4.05-.16-4.2-.26-8.41-.39-12.62,0,0-.15.14-.15.14Z"/>
      <path class="cls-9" d="M67.78,237.47c0-5.82,0-11.64,0-17.46,5.55,0,11.1.02,16.66.03,0,5.81,0,11.62,0,17.43-5.55,0-11.11,0-16.66,0Z"/>
      <path class="cls-9" d="M355.7,220.1c0-5.54,0-11.09,0-16.63,5.82,0,11.63,0,17.45-.01,0,5.56,0,11.11,0,16.67-5.81,0-11.63-.01-17.44-.02Z"/>
      <path class="cls-9" d="M373.14,118.37c-5.83-.05-11.67-.1-17.5-.15,0,0,.15.16.15.16,0-5.56,0-11.12,0-16.68,0,0-.15.13-.15.13,5.83-.04,11.66-.08,17.5-.13,0,5.56,0,11.11,0,16.67Z"/>
      <path class="cls-9" d="M321.85,135.62c-5.55,0-11.11,0-16.66,0,0,0,.11.1.11.1-.04-5.83-.07-11.66-.11-17.5,5.56.05,11.12.1,16.68.16l-.12-.12c0,5.82,0,11.64,0,17.46l.1-.1Z"/>
      <path class="cls-9" d="M67.89,101.82c0-5.83,0-11.65,0-17.48,0,0-.11.12-.11.12,5.81,0,11.63,0,17.44-.01,0,0-.08-.08-.08-.08,0,5.69,0,11.38,0,17.33h-17.37l.11.11Z"/>
      <path class="cls-9" d="M237.37,186.99c0-5.82,0-11.64,0-17.46h17.48v17.46c-5.83,0-11.65,0-17.48,0Z"/>
      <path class="cls-9" d="M271.5,169.44h-16.79v-16.57h16.67c0,5.57,0,11.13,0,16.69,0,0,.12-.12.12-.12Z"/>
      <path class="cls-9" d="M237.47,169.63h-16.74v-16.67h16.74c0,5.56,0,11.11,0,16.67Z"/>
      <path class="cls-9" d="M186.9,203.55v-16.67h16.66c0,5.56,0,11.12,0,16.68-5.55,0-11.1-.01-16.66-.02Z"/>
      <path class="cls-9" d="M220.85,135.61v17.37c-6.29,0-11.84,0-17.4,0,0,0,.09.1.09.1-.03-5.82-.07-11.65-.1-17.47,5.82.04,11.64.07,17.46.11l-.06-.11Z"/>
      <path class="cls-9" d="M203.45,186.99c0-5.82,0-11.64,0-17.46h16.75v17.46h-16.75Z"/>
      <path class="cls-9" d="M203.55,169.63c-5.54-.03-11.08-.07-16.62-.1,0,0,.05.09.05.09v-16.55h16.57s-.09-.1-.09-.1c.03,5.55.06,11.1.1,16.65Z"/>
      <path class="cls-9" d="M169.53,186.99c.04-5.82.07-11.64.11-17.47l-.11.11c5.82,0,11.64,0,17.45,0,0,0-.05-.09-.05-.09,0,5.57,0,11.15,0,17.46h-17.41Z"/>
      <path class="cls-9" d="M135.62,135.61h16.9v16.73c6.03.27,11.59.51,17.14.76l-.12-.14c0,5.56,0,11.11,0,16.67l.11-.11c-5.85,0-11.69,0-17.54-.01l.18.12v-16.52h-16.68c0-5.84,0-11.67.01-17.51Z"/>
      <path class="cls-9" d="M152.1,169.51v17.4c-5.39,0-10.94,0-16.5,0,0,0,.11.08.11.08-.04-5.82-.07-11.64-.11-17.46,5.56.04,11.11.07,16.67.11l-.18-.12Z"/>
      <path class="cls-9" d="M84.32,169.54c5.83,0,11.65,0,17.48,0,0,5.82,0,11.64,0,17.46-5.49,0-10.98,0-16.66,0-.29-6.13-.55-11.79-.82-17.45Z"/>
      <path class="cls-9" d="M67.88,186.99h-16.7v-17.46h16.7c0,5.82,0,11.64,0,17.46Z"/>
      <path class="cls-9" d="M67.78,203.56c0-5.56,0-11.12,0-16.68h16.66c0,5.62,0,11.15,0,16.67-5.55,0-11.11,0-16.66.01Z"/>
      <path class="cls-9" d="M67.78,152.97h16.67v16.67c-5.56,0-11.11,0-16.67,0,0-5.55,0-11.11,0-16.66Z"/>
      <path class="cls-9" d="M135.62,135.61c0,5.84,0,11.67-.01,17.51,0,0,.11-.15.11-.15h-16.67v16.67l.17-.13c-5.84.04-11.68.08-17.52.13.04-5.54.07-11.08.11-16.62,0,0-.1.07-.1.07h17.4v-17.47c5.54.04,11.08.07,16.62.11l-.1-.11Z"/>
      <path class="cls-9" d="M135.61,169.53c.04,5.82.07,11.64.11,17.46-5.55,0-11.1-.02-16.66-.03.05-5.82.1-11.64.16-17.46,0,0-.17.13-.17.13,5.56,0,11.11,0,16.67,0l-.11-.11Z"/>
      <path class="cls-9" d="M67.89,220.12h-16.72v-16.67h16.72c0,5.56,0,11.11,0,16.67Z"/>
      <path class="cls-9" d="M287.95,84.44c-.03-5.55-.07-11.09-.1-16.64,5.82,0,11.63,0,17.45-.01-.04,5.55-.07,11.09-.11,16.64,0,0,.11-.08.11-.08-5.82,0-11.65,0-17.47,0l.12.09Z"/>
      <path class="cls-9" d="M305.2,84.43h16.53v17.4l.15-.13c-5.55,0-11.11,0-16.66,0,0,0,.1.11.1.11,0-5.82,0-11.64,0-17.46l-.11.08Z"/>
      <path class="cls-9" d="M321.72,101.83c5.84,0,11.67,0,17.51-.01l-.12-.11c0,5.56,0,11.11,0,16.67l.1-.11c-5.82,0-11.64,0-17.47,0,0,0,.12.12.12.12,0-5.56,0-11.12,0-16.68l-.15.13Z"/>
      <path class="cls-9" d="M339.23,84.32h-16.69v-16.41c5.54,0,11.12,0,16.7,0,0,0-.12-.12-.12-.12,0,5.56,0,11.11,0,16.67l.12-.13Z"/>
      <path class="cls-9" d="M84.39,135.72c0-5.81.02-11.63.03-17.44,0,0-.05.07-.05.07,5.81,0,11.63.01,17.44.02,0,0-.11-.12-.11-.12,0,5.82,0,11.64,0,17.47,0,0,.1-.11.1-.11-5.82,0-11.64,0-17.46.01l.06.1Z"/>
      <path class="cls-9" d="M169.63,135.61h-16.73v-17.25h16.73l-.09-.1c0,5.82,0,11.64,0,17.46l.1-.11Z"/>
      <path class="cls-9" d="M169.65,153.1c0-5.83-.01-11.66-.02-17.49,0,0-.1.11-.1.11h16.73v17.25h-16.73l.12.14Z"/>
      <path class="cls-9" d="M169.63,84.45c0-5.55,0-11.1,0-16.65,0,0-.11.09-.11.09,5.82,0,11.65,0,17.47,0,0,0-.11-.12-.11-.12-.11,1.09-.29,2.18-.33,3.28-.17,4.46-.3,8.92-.45,13.39,0,0,.07-.08.07-.08-5.55,0-11.1-.01-16.65-.02l.1.1Z"/>
      <path class="cls-9" d="M169.63,118.36c0-5.55,0-11.11,0-16.66l-.1.1h17.43c0,5.82,0,11.18,0,16.54-5.81-.03-11.62-.05-17.43-.08l.09.1Z"/>
      <path class="cls-9" d="M169.64,67.8h-16.72v-16.45c5.62,0,11.18,0,16.73,0,0,0-.11-.14-.11-.14,0,5.56,0,11.12,0,16.68l.11-.09Z"/>
      <path class="cls-9" d="M135.61,67.91h16.72v16.41c-5.59,0-11.16,0-16.74,0,0,0,.12.14.12.14,0-5.56,0-11.11,0-16.67l-.11.12Z"/>
      <path class="cls-9" d="M119.19,67.92c-.05-5.57-.1-11.15-.15-16.72,5.56,0,11.12,0,16.68,0-.04,5.56-.07,11.13-.11,16.69,0,0,.11-.12.11-.12-5.56,0-11.12,0-16.68,0l.15.14Z"/>
      <path class="cls-9" d="M84.34,135.62c5.82,0,11.64,0,17.46-.01-.03,5.82-.07,11.65-.1,17.47,0,0,.1-.07.1-.07-5.55,0-11.1,0-16.68,0-.28-6.32-.53-11.85-.78-17.39Z"/>
      <path class="cls-9" d="M101.79,84.45l-.1-16.66c5.83.05,11.66.09,17.49.14,0,0-.15-.14-.15-.14,0,5.56,0,11.12,0,16.68l.13-.12c-5.82,0-11.65,0-17.47,0l.1.11Z"/>
      <path class="cls-9" d="M169.53,67.89c0-5.56,0-11.12,0-16.68,5.81,0,11.63.01,17.44.02.01,5.56.02,11.11.03,16.67-5.82,0-11.65,0-17.47,0Z"/>
      <path class="cls-9" d="M186.11,84.44c.14-4.46.27-8.93.45-13.39.04-1.09.22-2.18.33-3.28,5.55,0,11.11,0,16.66,0,0,5.56,0,11.11,0,16.67-5.81,0-11.63,0-17.44-.01Z"/>
      <path class="cls-9" d="M186.97,118.34v-16.54h-17.43c0-5.82,0-11.64,0-17.45,5.55,0,11.1.01,16.65.02,0,5.61,0,11.23,0,17.33h17.37c-.03,5.54-.07,11.08-.1,16.63,0,0,.11-.07.11-.07-5.55,0-11.1.02-16.66.03l.07.05Z"/>
      <path class="cls-9" d="M220.91,135.72c-5.82-.04-11.64-.07-17.46-.11,0,0,.1.11.1.11,0-5.82,0-11.64,0-17.46,0,0-.11.07-.11.07,5.45,0,10.9,0,17.46,0v17.39Z"/>
      <path class="cls-9" d="M305.21,101.7c.03,5.56.06,11.11.09,16.67-5.81,0-11.62,0-17.43-.01.02-5.55.05-11.1.07-16.64,0,0-.11.1-.11.1,5.82,0,11.65,0,17.47,0l-.1-.11Z"/>
      <path class="cls-9" d="M271.28,101.8c0-5.82,0-11.64,0-17.46,5.56.03,11.12.06,16.67.09,0,0-.12-.09-.12-.09,0,5.82,0,11.64,0,17.47,0,0,.11-.1.11-.1-5.55.03-11.11.06-16.66.09Z"/>
      <path class="cls-9" d="M169.54,118.26c5.81.03,11.62.05,17.43.08,0,0-.07-.05-.07-.05,0,5.7,0,11.41,0,17.43h16.66s-.1-.11-.1-.11c.03,5.82.07,11.65.1,17.47h-16.57v16.55c-5.82,0-11.64,0-17.45,0,0-5.56,0-11.11,0-16.67h16.73v-17.25h-16.73c0-5.82,0-11.64,0-17.46Z"/>
      <path class="cls-9" d="M152.28,169.64c-5.56-.04-11.11-.07-16.67-.11l.11.11c0-5.56,0-11.11,0-16.67,0,0-.11.15-.11.15,5.53,0,11.06,0,16.68,0v16.52Z"/>
      <path class="cls-9" d="M101.7,153.08c.03-5.82.07-11.65.1-17.47,0,0-.1.11-.1.11,5.82,0,11.64,0,17.46,0,0,0-.07-.1-.07-.1,0,5.49,0,10.98,0,17.47h-17.4Z"/>
      <path class="cls-9" d="M135.72,152.97c0,5.56,0,11.11,0,16.67-5.56,0-11.11,0-16.67,0v-16.67h16.67Z"/>
      <path class="cls-9" d="M101.7,84.35c5.82,0,11.65,0,17.47,0v17.46h-17.47c0-5.82,0-11.64,0-17.46Z"/>
      <path class="cls-9" d="M101.8,101.7c0,5.56,0,11.11,0,16.67-5.81,0-11.63-.01-17.44-.02,0-5.36,0-10.71,0-16.65h17.44Z"/>
      <path class="cls-9" d="M119.16,135.72c-5.82,0-11.64,0-17.46,0,0-5.82,0-11.64,0-17.47,5.44,0,10.89,0,16.7,0,.27,6.21.52,11.84.76,17.46Z"/>
      <path class="cls-9" d="M119.04,84.46c0-5.56,0-11.12,0-16.68,5.56,0,11.12,0,16.68,0,0,5.56,0,11.11,0,16.67-5.56,0-11.12,0-16.68,0Z"/>
      <path class="cls-9" d="M135.72,101.7c0,5.56,0,11.11,0,16.67h-16.69v-16.67h16.69Z"/>
    </g>
  </g>
  <g id="Layer_2" data-name="Layer 2">
    <path class="cls-7" d="M240.09,232c10.67-1.11,32.2,1.03,46.37,3.09l16.9,1.61c3.32.32,6.61.83,9.86,1.54,9.47,2.07,29.38,6.72,36.64,10.76h0c.96.35,2.47-140.57,12.33-194.29-35.6-1.96-60.92,1.03-86.66.53-58.61-1.14-100.46,9.41-114.25-.53-25.71-18.53-110.3,5.96-110.3,5.96,0,3.98,3.94,53.67,3.94,53.67,0,0,1.97,41.74,1.97,67.58,0,15.9,3.94,43.73,3.94,63.61,17.87-1.98,50.33-7.79,63.83-8.38,22.18-.97,34.01-2.48,47.07-1.65,12.79.82,30.94,1.17,38.46,2.68,14.26-1.79,17.71-4.91,29.88-6.18Z"/>
    <path class="cls-3" d="M73.16,236.12s40.67-8.47,72.58-8.47c7.92,0,31.42.98,37.68,1.25,23.7,1.03,20.19,2.68,39.16-2.06,8.24-2.06,12.61-1.82,15.46-2.06,6.79-.57,13.39,0,20.61,0,13.98,0,39.28,1.74,40.19,2.06.4.14,28.47,3.7,41.22,9.27,0,0-2.06-19.58,1.03-28.85-39.77-1.49-84.18-2.52-123.95-4.01-29.19-1.09-58.39-2.19-87.6-2.65-7.83-.13-15.66.24-23.47.91-5.68.49-15.86.9-24.66,6.89-1.06.72-9.17,4.44-9.27,2.98-.17-2.32,1.03,24.73,1.03,24.73Z"/>
    <path class="cls-2" d="M342.05,23.11c.34-.02.54.36.34.63-1.37,1.85-2.61,3.79-3.69,5.82-1.22,2.27-2.25,4.63-3.28,6.99-2.19,5.04-4.39,10.07-6.58,15.11-.18.41-.38.85-.76,1.09-.49.31-1.13.2-1.69.07-10.81-2.31-21.78-3.88-32.8-4.71-1.45-2.32-2.04-3.26-3.49-5.58,3.98-10.37,7.9-20.92,14.22-30.07,1.71-2.48,10.9,17.15,11.61,17.31,1.31.28,4.66-1.52,5.94-1.98,1.98-.72,5.98-2.23,8.02-2.76,3.99-1.03,8.07-1.67,12.18-1.93Z"/>
    <path class="cls-8" d="M207.32,225.66c.48.01.95.02.95.02.31,0,.58,0,.78,0,0,0,11.87-5.94,25.72-5.94,17.03,0,20.58-1.06,37.6,0,31.66,1.98,45.51,0,71.24,11.87,1.98-41.56,0-83.11,1.98-128.62.5-11.57,1.98-25.72,6.79-41.33-19.15-.83-38.3-1.66-57.44-2.49-3.63-.16-34.16-1.11-68.84-1.43-63.9-.59-80.99-2.52-112.03-6.19-5.94-.7-21.16-3.43-21.77-1.98-.12.3-29.7,15.76-29.68,15.83,1.98,5.94,4.32,63.41,7.92,166.22,18.85-4.24,35.02-6.56,47.49-7.92,11.99-1.3,19.83-1.78,25.39-1.89,0,0,0,0,0,0,5.06,0,10.23-.09,10.23-.09,12.89.43,19.33.64,23.72,1.07,2.55.25,28.77,2.84,29.95,2.87Z"/>
    <path class="cls-4" d="M68.56,56.48c3.94-2.43,11.29-7.35,17.95-9.94,22.63-8.81,43.97-7.66,65.16-5.89,21.12,1.76,32.84,3.69,53.74,7.22,18.24-3.9,36.62-7.44,55.23-8.61,29.16-1.83,58.69,2.24,86.26,11.91-3.35,23.21-5.64,46.8-6.54,70.23-.24,6.1-.39,12.2-.54,18.3-.68,27.32-1.37,54.64-2.05,81.96-13.49-7.79-30.68-8.74-46.26-9.15-12.58-.33-25.17-.33-37.75-.32-15.94,0-32.54.17-46.82,7.25-24.97-3.65-51.4-5.37-76.62-4.32-6.02.25-12.04.64-18.01,1.38-11.9,1.48-23.58,4.36-35.23,7.23-.96-10.12.16-22.34-.61-32.69-3.57-48.15-3.96-102.9-7.92-134.56Z"/>
    <path class="cls-5" d="M203.68,48.08c-.57,19.29-.77,39.54-.57,45.01.24,6.4,0,83.11,3.96,126.64"/>
    <g>
      <path class="cls-1" d="M104.39,66c1.41-.06,2.67.15,3.77.62,1.1.47,2.03,1.13,2.8,1.98.76.85,1.35,1.86,1.78,3.04.42,1.18.66,2.43.72,3.77s-.09,2.63-.44,3.83c-.35,1.2-.85,2.25-1.51,3.16-.66.91-1.46,1.63-2.39,2.17-.93.54-1.96.84-3.08.88l-8.72.35-.79-19.47,7.87-.32ZM105.04,81.69c.79-.03,1.45-.22,2-.56.55-.34.99-.79,1.33-1.36.34-.56.59-1.2.73-1.92.14-.72.2-1.47.17-2.26s-.15-1.54-.34-2.25-.49-1.34-.87-1.87c-.39-.53-.87-.95-1.45-1.26-.58-.3-1.27-.44-2.05-.41l-3.71.15.48,11.89,3.71-.15Z"/>
      <path class="cls-1" d="M124.55,65.68l.25,3.51-3.19.15.88,12.45,3.19-.15.24,3.48-10.52.74-.24-3.48,3.19-.15-.88-12.45-3.19.15-.25-3.51,10.52-.74Z"/>
      <path class="cls-1" d="M142.58,65.71l4.18.15-.68,19.48-3.98-.14-8.9-13.05-.44,12.72-4.18-.15.68-19.48,3.9.14,8.98,13.13.45-12.8Z"/>
      <path class="cls-1" d="M150.02,64.42l12.97-.46.13,3.79-8.52.3.12,3.52,7.5-.27.13,3.79-7.5.27.16,4.59,8.52-.3.13,3.79-12.97.46-.69-19.48Z"/>
      <path class="cls-1" d="M170.64,66.2c.18-.08,1.02-.45,2.04-.51.33-.02.6,0,.66,0,.43.03.86.11,1.29.25.64.22,1.22.53,1.73.94.51.41.93.9,1.27,1.45.34.56.53,1.16.57,1.8.04.49-.01.94-.15,1.35-.14.41-.32.8-.57,1.17-.24.36-.54.71-.88,1.04-.34.33-.7.64-1.08.94l3.16,2.89c.18-.15.35-.33.51-.54.16-.21.33-.42.5-.62l1.52-1.76,2.53,2.1c-.42.52-.86,1.04-1.32,1.55-.47.52-.94,1.01-1.41,1.48l3.75,3.48-4.42.32-1.71-1.55c-.77.65-1.6,1.22-2.47,1.72-.88.5-1.84.79-2.87.87-.66.05-1.31-.01-1.95-.18-.64-.16-1.22-.43-1.74-.8-.52-.37-.95-.84-1.29-1.41-.34-.57-.54-1.26-.59-2.05-.03-.44,0-.87.07-1.29.05-.26.18-.86.65-1.73.63-1.16,1.47-2.04,2.16-2.64-.27-.09-2.31-.85-2.93-2.87-.35-1.15-.06-2.12.03-2.41.61-1.94,2.46-2.78,2.94-3ZM172.86,81.56c.45-.03.88-.14,1.29-.33s.78-.4,1.09-.62c.36-.25.7-.53,1.01-.86-.56-.53-1.12-1.04-1.68-1.52-.56-.48-1.11-.99-1.65-1.53-.46.41-.87.84-1.24,1.31-.16.2-.34.45-.53.75-.2.3-.27.76-.23,1.38,0,.13.06.29.15.47s.22.34.38.49c.16.15.35.27.59.36.23.09.51.13.82.11ZM172.67,68.81c-.42.03-.74.14-.97.32-.23.19-.4.38-.51.57-.01.03-.03.07-.04.13-.31,1.13.46,2.27,1.64,2.49l.37.07c.38-.3.68-.56.9-.79.22-.23.38-.42.48-.58s.16-.3.19-.43c.02-.13.03-.24.03-.34-.03-.47-.27-.84-.71-1.1-.44-.26-.9-.38-1.38-.34Z"/>
      <path class="cls-1" d="M102.33,92.67c1.62-.29,3.11-.26,4.46.11,1.35.37,2.53.98,3.55,1.84,1.01.86,1.86,1.93,2.54,3.22.68,1.29,1.16,2.7,1.43,4.24s.32,3.06.11,4.49c-.21,1.44-.62,2.74-1.24,3.89-.62,1.15-1.42,2.12-2.42,2.89-.99.78-2.13,1.28-3.41,1.51l-10.02,1.81-4.03-22.37,9.04-1.63ZM105.59,110.69c.9-.16,1.64-.49,2.22-.97.58-.48,1.02-1.08,1.32-1.78.31-.7.49-1.48.54-2.34.05-.85,0-1.73-.17-2.64s-.41-1.75-.75-2.55-.78-1.47-1.31-2.02c-.53-.55-1.16-.96-1.88-1.22-.72-.26-1.53-.31-2.44-.15l-4.26.77,2.46,13.66,4.26-.77Z"/>
      <path class="cls-1" d="M126.41,93.72l7.97,20.11-4.23.07-1.72-4.31-7.76.13-1.55,4.37-4.25.07,7.28-20.37,4.25-.07ZM126.89,105.68l-2.5-6.33-2.29,6.41,4.79-.08Z"/>
      <path class="cls-1" d="M148.46,103.4c.78.57,1.34,1.26,1.71,2.08.36.82.51,1.74.43,2.77-.08.96-.37,1.85-.88,2.65-.51.8-1.2,1.49-2.06,2.07-.78.53-1.65.91-2.62,1.15-.96.24-1.97.33-3.02.27-1.05-.08-2.03-.31-2.96-.69-.93-.38-1.74-.89-2.42-1.56-1.04-.95-1.71-2.06-2.02-3.32l4.22-1.64c-.02.2.03.46.14.77s.3.62.57.92c.27.31.63.58,1.08.81.45.24,1.01.38,1.69.44.54.04,1.03,0,1.46-.1.43-.11.79-.26,1.09-.45.3-.19.53-.41.7-.67.17-.26.26-.53.28-.81.03-.32-.05-.63-.23-.93-.18-.3-.48-.54-.89-.74-.75-.34-1.55-.64-2.4-.9-.85-.26-1.67-.56-2.46-.92-.79-.36-1.52-.8-2.18-1.34-.66-.54-1.16-1.25-1.5-2.15-.31-.79-.43-1.62-.36-2.49.08-.97.37-1.88.87-2.76s1.16-1.59,1.97-2.15c.76-.53,1.6-.91,2.52-1.15s1.87-.33,2.86-.25,1.92.3,2.8.67c.88.37,1.65.88,2.32,1.52.66.6,1.16,1.27,1.51,2.03l-3.5,2.1c-.36-.61-.83-1.12-1.42-1.52-.58-.4-1.25-.63-2.01-.69-1.05-.08-1.87.1-2.48.54-.61.44-.95,1.05-1.01,1.83-.03.36.11.7.4,1,.3.31.7.59,1.19.85.5.26,1.06.5,1.68.72.63.22,1.25.44,1.87.66.62.22,1.2.44,1.75.67s.99.46,1.32.71Z"/>
      <path class="cls-1" d="M167.2,91.81l3.96.23-1.3,22.7-3.96-.23.56-9.76-8.45-.48-.56,9.76-3.96-.23,1.3-22.7,3.96.23-.49,8.51,8.45.48.49-8.51Z"/>
      <path class="cls-1" d="M178.78,111.55c1.07.23,1.89.78,2.48,1.67.58.88.76,1.85.54,2.91s-.78,1.87-1.67,2.44c-.89.57-1.87.74-2.94.51s-1.9-.78-2.5-1.67c-.6-.88-.78-1.86-.56-2.91s.79-1.87,1.7-2.43c.91-.57,1.89-.74,2.96-.51ZM176.21,108.61l3.49-19.36,7.32,1.56-4.64,19.11-6.17-1.31Z"/>
    </g>
    <g>
      <path class="cls-11" d="M171.72,160.74c-.21,16.48-13.5,29.63-29.55,30.27-16.05.61-30.25-11.47-31.87-27.87-1.62-16.37,11.43-31.02,29.32-31.71,17.88-.71,32.32,12.86,32.1,29.31Z"/>
      <path class="cls-5" d="M171.72,160.74c-.21,16.48-13.5,29.63-29.55,30.27-16.05.61-30.25-11.47-31.87-27.87-1.62-16.37,11.43-31.02,29.32-31.71,17.88-.71,32.32,12.86,32.1,29.31Z"/>
    </g>
    <g>
      <path class="cls-10" d="M159.75,161.29c-.13,10.12-8.29,18.2-18.15,18.59-9.86.37-18.58-7.04-19.58-17.12-1-10.06,7.02-19.05,18.01-19.48,10.98-.44,19.85,7.9,19.72,18Z"/>
      <path class="cls-5" d="M159.75,161.29c-.13,10.12-8.29,18.2-18.15,18.59-9.86.37-18.58-7.04-19.58-17.12-1-10.06,7.02-19.05,18.01-19.48,10.98-.44,19.85,7.9,19.72,18Z"/>
    </g>
    <g>
      <path class="cls-12" d="M98.82,175.52c-.47-5.82-.98-11.63-1.38-17.45-.09-1.31-.57-2.03-1.75-2.4-.54-.17-1.05-.45-1.56-.7-1.34-.67-1.97-1.79-2.09-3.27-.47-6.08-.97-12.16-1.46-18.24-.02-.26-.1-.56-.01-.78.03-.07.06-.14.1-.21.26-.46.96-.48,1.21-.01.02.03.03.07.04.1.17.54.17,1.14.23,1.71.37,3.72.71,7.43,1.14,11.14,0,0,0,.01,0,.02.12.9,1.45.95,1.63.07.02-.1.03-.2.02-.29-.35-3.93-.81-7.85-1.24-11.77-.04-.37-.16-.75-.09-1.09,0,0,0,0,0-.01.12-.57.86-.74,1.23-.28.05.07.11.14.15.21.15.25.1.61.15.93.5,3.7,1,7.4,1.5,11.11.05.36,0,.79.18,1.08.05.08.1.16.16.24.45.58,1.41.34,1.46-.39,0-.04,0-.07,0-.11-.23-2.25-.59-4.49-.9-6.73-.28-1.98-.6-3.96-.81-5.94,0,0,0,0,0-.01-.15-1.19,1.08-1.36,1.34-.27.01.05.03.1.04.15.72,3.93,1.36,7.88,2.01,11.83.06.36.03.79.21,1.07.03.05.06.09.1.14.44.54,1.34.35,1.5-.32,0,0,0,0,0-.01.09-.38-.08-.83-.15-1.24-.66-3.89-1.36-7.78-1.98-11.68,0-.04,0-.08,0-.12-.15-1.46,1.14-1.3,1.35-.13,0,0,0,.01,0,.02,1.25,6.09,2.42,12.19,3.6,18.29.33,1.69-.16,3.09-1.59,3.92-1.96,1.15-2.14,2.63-1.71,4.83,2.16,10.84,4.07,21.72,5.99,32.59.6,3.41-.52,5.54-3.01,5.83-2.44.29-4-1.46-4.28-4.84-.46-5.66-.92-11.32-1.38-16.98,0,0,0,0,.01,0Z"/>
      <path class="cls-12" d="M185.96,164.03c-.99,9.99-1.93,19.98-2.97,29.97-.12,1.1-.73,2.33-1.5,3.12-.99,1.01-2.43.97-3.69.24-1.45-.85-1.92-2.18-1.67-3.8.58-3.81,1.16-7.63,1.75-11.44.87-5.59,1.73-11.17,2.67-16.75.19-1.12.1-2.08-.74-2.92-1.65-1.65-1.93-3.57-1.69-5.83.36-3.42,1.07-7.55,1.85-11.15.99-4.64,2.81-9.08,5.28-13.2.01-.02.02-.04.04-.06.53-.88,1.34-1.49,2.52-1.1,1.28.42,1.34,1.4,1.23,2.48-1.05,10.14-2.07,20.29-3.07,30.44Z"/>
    </g>
  </g>
</svg>