<?xml version="1.0" encoding="UTF-8"?>
<svg xmlns="http://www.w3.org/2000/svg" viewBox="0 0 407 271.33">
  <defs>
    <style>
      .cls-1 {
        fill: #af6262;
      }

      .cls-1, .cls-2, .cls-3, .cls-4, .cls-5, .cls-6, .cls-7, .cls-8, .cls-9, .cls-10, .cls-11, .cls-12, .cls-13 {
        stroke-miterlimit: 10;
      }

      .cls-1, .cls-2, .cls-5, .cls-6, .cls-8, .cls-11 {
        stroke: #281510;
      }

      .cls-1, .cls-2, .cls-5, .cls-6, .cls-8, .cls-11, .cls-13 {
        stroke-width: 3px;
      }

      .cls-2 {
        fill: #ffa1a1;
      }

      .cls-3 {
        fill: #afafaf;
      }

      .cls-3, .cls-4 {
        stroke-width: 2.5px;
      }

      .cls-3, .cls-4, .cls-7, .cls-9, .cls-10, .cls-12, .cls-13 {
        stroke: #000;
      }

      .cls-4 {
        fill: #c1c1c1;
      }

      .cls-5 {
        fill: #e5e5e5;
      }

      .cls-6 {
        fill: #d8d8d8;
      }

      .cls-7 {
        fill: #697fff;
      }

      .cls-7, .cls-10, .cls-12 {
        stroke-width: 1.6px;
      }

      .cls-8, .cls-13 {
        fill: none;
      }

      .cls-9 {
        fill: #dcf8ff;
      }

      .cls-10 {
        fill: #38e074;
      }

      .cls-11 {
        fill: #fffbfa;
      }

      .cls-14 {
        fill: #bfedef;
      }

      .cls-14, .cls-15 {
        stroke-width: 0px;
      }

      .cls-12 {
        fill: #ff4a4a;
      }

      .cls-15 {
        fill: #fff;
      }
    </style>
  </defs>
  <g id="Layer_1" data-name="Layer 1">
    <rect class="cls-9" x="2.5" y=".5" width="400" height="267"/>
  </g>
  <g id="Layer_2" data-name="Layer 2">
    <path class="cls-1" d="M240.09,232c10.67-1.11,32.2,1.03,46.37,3.09l16.9,1.61c3.32.32,6.61.83,9.86,1.54,9.47,2.07,29.38,6.72,36.64,10.76h0c.96.35,2.47-140.57,12.33-194.29-35.6-1.96-60.92,1.03-86.66.53-58.61-1.14-100.46,9.41-114.25-.53-25.71-18.53-110.3,5.96-110.3,5.96,0,3.98,3.94,53.67,3.94,53.67,0,0,1.97,41.74,1.97,67.58,0,15.9,3.94,43.73,3.94,63.61,17.87-1.98,50.33-7.79,63.83-8.38,22.18-.97,34.01-2.48,47.07-1.65,12.79.82,30.94,1.17,38.46,2.68,14.26-1.79,17.71-4.91,29.88-6.18Z"/>
    <path class="cls-6" d="M73.16,236.12s40.67-8.47,72.58-8.47c7.92,0,31.42.98,37.68,1.25,23.7,1.03,20.19,2.68,39.16-2.06,8.24-2.06,12.61-1.82,15.46-2.06,6.79-.57,13.39,0,20.61,0,13.98,0,39.28,1.74,40.19,2.06.4.14,28.47,3.7,41.22,9.27,0,0-2.06-19.58,1.03-28.85-39.77-1.49-84.18-2.52-123.95-4.01-29.19-1.09-58.39-2.19-87.6-2.65-7.83-.13-15.66.24-23.47.91-5.68.49-15.86.9-24.66,6.89-1.06.72-9.17,4.44-9.27,2.98-.17-2.32,1.03,24.73,1.03,24.73Z"/>
    <path class="cls-2" d="M342.05,23.11c.34-.02.54.36.34.63-1.37,1.85-2.61,3.79-3.69,5.82-1.22,2.27-2.25,4.63-3.28,6.99-2.19,5.04-4.39,10.07-6.58,15.11-.18.41-.38.85-.76,1.09-.49.31-1.13.2-1.69.07-10.81-2.31-21.78-3.88-32.8-4.71-1.45-2.32-2.04-3.26-3.49-5.58,3.98-10.37,7.9-20.92,14.22-30.07,1.71-2.48,10.9,17.15,11.61,17.31,1.31.28,4.66-1.52,5.94-1.98,1.98-.72,5.98-2.23,8.02-2.76,3.99-1.03,8.07-1.67,12.18-1.93Z"/>
    <path class="cls-5" d="M207.32,225.66c.48.01.95.02.95.02.31,0,.58,0,.78,0,0,0,11.87-5.94,25.72-5.94,17.03,0,20.58-1.06,37.6,0,31.66,1.98,45.51,0,71.24,11.87,1.98-41.56,0-83.11,1.98-128.62.5-11.57,1.98-25.72,6.79-41.33-19.15-.83-38.3-1.66-57.44-2.49-3.63-.16-34.16-1.11-68.84-1.43-63.9-.59-80.99-2.52-112.03-6.19-5.94-.7-21.16-3.43-21.77-1.98-.12.3-29.7,15.76-29.68,15.83,1.98,5.94,4.32,63.41,7.92,166.22,18.85-4.24,35.02-6.56,47.49-7.92,11.99-1.3,19.83-1.78,25.39-1.89,0,0,0,0,0,0,5.06,0,10.23-.09,10.23-.09,12.89.43,19.33.64,23.72,1.07,2.55.25,28.77,2.84,29.95,2.87Z"/>
    <path class="cls-11" d="M68.56,55.48c3.94-2.43,11.29-7.35,17.95-9.94,22.63-8.81,43.97-7.66,65.16-5.89,21.12,1.76,32.84,3.69,53.74,7.22,18.24-3.9,36.62-7.44,55.23-8.61,29.16-1.83,58.69,2.24,86.26,11.91-3.35,23.21-5.64,46.8-6.54,70.23-.24,6.1-.39,12.2-.54,18.3-.68,27.32-1.37,54.64-2.05,81.96-13.49-7.79-30.68-8.74-46.26-9.15-12.58-.33-25.17-.33-37.75-.32-15.94,0-32.54.17-46.82,7.25-24.97-3.65-51.4-5.37-76.62-4.32-6.02.25-12.04.64-18.01,1.38-11.9,1.48-23.58,4.36-35.23,7.23-.96-10.12.16-22.34-.61-32.69-3.57-48.15-3.96-102.9-7.92-134.56Z"/>
    <path class="cls-8" d="M203.68,48.08c-.57,19.29-.77,39.54-.57,45.01.24,6.4,0,83.11,3.96,126.64"/>
    <g>
      <path class="cls-12" d="M104.39,66c1.41-.06,2.67.15,3.77.62,1.1.47,2.03,1.13,2.8,1.98.76.85,1.35,1.86,1.78,3.04.42,1.18.66,2.43.72,3.77s-.09,2.63-.44,3.83c-.35,1.2-.85,2.25-1.51,3.16-.66.91-1.46,1.63-2.39,2.17-.93.54-1.96.84-3.08.88l-8.72.35-.79-19.47,7.87-.32ZM105.04,81.69c.79-.03,1.45-.22,2-.56.55-.34.99-.79,1.33-1.36.34-.56.59-1.2.73-1.92.14-.72.2-1.47.17-2.26s-.15-1.54-.34-2.25-.49-1.34-.87-1.87c-.39-.53-.87-.95-1.45-1.26-.58-.3-1.27-.44-2.05-.41l-3.71.15.48,11.89,3.71-.15Z"/>
      <path class="cls-12" d="M124.55,65.68l.25,3.51-3.19.15.88,12.45,3.19-.15.24,3.48-10.52.74-.24-3.48,3.19-.15-.88-12.45-3.19.15-.25-3.51,10.52-.74Z"/>
      <path class="cls-12" d="M142.58,65.71l4.18.15-.68,19.48-3.98-.14-8.9-13.05-.44,12.72-4.18-.15.68-19.48,3.9.14,8.98,13.13.45-12.8Z"/>
      <path class="cls-12" d="M150.02,64.42l12.97-.46.13,3.79-8.52.3.12,3.52,7.5-.27.13,3.79-7.5.27.16,4.59,8.52-.3.13,3.79-12.97.46-.69-19.48Z"/>
      <path class="cls-10" d="M170.64,66.2c.18-.08,1.02-.45,2.04-.51.33-.02.6,0,.66,0,.43.03.86.11,1.29.25.64.22,1.22.53,1.73.94.51.41.93.9,1.27,1.45.34.56.53,1.16.57,1.8.04.49-.01.94-.15,1.35-.14.41-.32.8-.57,1.17-.24.36-.54.71-.88,1.04-.34.33-.7.64-1.08.94l3.16,2.89c.18-.15.35-.33.51-.54.16-.21.33-.42.5-.62l1.52-1.76,2.53,2.1c-.42.52-.86,1.04-1.32,1.55-.47.52-.94,1.01-1.41,1.48l3.75,3.48-4.42.32-1.71-1.55c-.77.65-1.6,1.22-2.47,1.72-.88.5-1.84.79-2.87.87-.66.05-1.31-.01-1.95-.18-.64-.16-1.22-.43-1.74-.8-.52-.37-.95-.84-1.29-1.41-.34-.57-.54-1.26-.59-2.05-.03-.44,0-.87.07-1.29.05-.26.18-.86.65-1.73.63-1.16,1.47-2.04,2.16-2.64-.27-.09-2.31-.85-2.93-2.87-.35-1.15-.06-2.12.03-2.41.61-1.94,2.46-2.78,2.94-3ZM172.86,81.56c.45-.03.88-.14,1.29-.33s.78-.4,1.09-.62c.36-.25.7-.53,1.01-.86-.56-.53-1.12-1.04-1.68-1.52-.56-.48-1.11-.99-1.65-1.53-.46.41-.87.84-1.24,1.31-.16.2-.34.45-.53.75-.2.3-.27.76-.23,1.38,0,.13.06.29.15.47s.22.34.38.49c.16.15.35.27.59.36.23.09.51.13.82.11ZM172.67,68.81c-.42.03-.74.14-.97.32-.23.19-.4.38-.51.57-.01.03-.03.07-.04.13-.31,1.13.46,2.27,1.64,2.49l.37.07c.38-.3.68-.56.9-.79.22-.23.38-.42.48-.58s.16-.3.19-.43c.02-.13.03-.24.03-.34-.03-.47-.27-.84-.71-1.1-.44-.26-.9-.38-1.38-.34Z"/>
      <path class="cls-7" d="M102.35,92.64c1.62-.29,3.11-.25,4.46.12,1.35.37,2.53.98,3.54,1.84,1.01.86,1.86,1.94,2.53,3.23.68,1.29,1.15,2.71,1.42,4.24s.31,3.06.1,4.49c-.21,1.44-.63,2.73-1.25,3.89-.62,1.15-1.43,2.12-2.42,2.89-.99.78-2.13,1.28-3.42,1.51l-10.02,1.79-3.99-22.38,9.04-1.61ZM105.58,110.66c.9-.16,1.64-.48,2.22-.96.58-.48,1.02-1.08,1.33-1.78.31-.7.49-1.48.54-2.34.05-.85,0-1.73-.16-2.64s-.41-1.75-.75-2.55-.77-1.47-1.31-2.03c-.53-.55-1.16-.96-1.88-1.22-.72-.26-1.53-.31-2.44-.15l-4.26.76,2.44,13.67,4.26-.76Z"/>
      <path class="cls-7" d="M126.42,93.73l7.94,20.13-4.23.06-1.72-4.31-7.76.12-1.56,4.36-4.25.06,7.32-20.36,4.25-.06ZM126.89,105.69l-2.49-6.33-2.3,6.4,4.79-.07Z"/>
      <path class="cls-7" d="M148.47,103.45c.77.57,1.34,1.26,1.71,2.08.36.82.5,1.74.42,2.77-.08.96-.37,1.85-.88,2.65-.51.8-1.2,1.49-2.07,2.07-.78.52-1.66.9-2.62,1.14-.96.24-1.97.32-3.02.26-1.05-.08-2.03-.31-2.96-.69-.93-.38-1.73-.9-2.42-1.56-1.04-.95-1.71-2.06-2.02-3.32l4.23-1.64c-.02.2.03.46.14.77s.3.62.57.93c.27.31.63.58,1.08.81.45.24,1.01.38,1.69.44.54.04,1.03.01,1.46-.1.43-.11.79-.26,1.09-.45.3-.19.53-.41.7-.67.17-.26.26-.53.28-.81.03-.32-.05-.63-.23-.93-.18-.3-.48-.54-.89-.74-.75-.34-1.55-.65-2.4-.91-.85-.26-1.67-.57-2.46-.92-.79-.36-1.52-.8-2.17-1.34-.66-.54-1.16-1.26-1.5-2.15-.31-.79-.43-1.62-.36-2.49.08-.97.37-1.88.88-2.75s1.17-1.59,1.97-2.15c.76-.53,1.6-.91,2.52-1.15s1.87-.32,2.86-.24,1.92.31,2.8.68c.88.37,1.65.88,2.32,1.52.65.6,1.16,1.28,1.51,2.03l-3.5,2.09c-.36-.62-.83-1.12-1.41-1.53-.58-.4-1.25-.63-2.01-.69-1.05-.08-1.87.09-2.49.53-.61.44-.95,1.05-1.01,1.83-.03.36.11.7.4,1,.3.31.69.59,1.19.85.49.26,1.06.5,1.68.73.63.22,1.25.44,1.86.66.62.22,1.2.45,1.75.67s.99.46,1.32.71Z"/>
      <path class="cls-7" d="M167.2,91.81l3.96.23-1.3,22.7-3.96-.23.56-9.76-8.45-.48-.56,9.76-3.96-.23,1.3-22.7,3.96.23-.49,8.51,8.45.48.49-8.51Z"/>
      <path class="cls-7" d="M178.78,111.55c1.07.23,1.89.78,2.48,1.67.58.88.76,1.85.54,2.91s-.78,1.87-1.67,2.44c-.89.57-1.87.74-2.94.51s-1.9-.78-2.5-1.67c-.6-.88-.78-1.86-.56-2.91s.79-1.87,1.7-2.43c.91-.57,1.89-.74,2.96-.51ZM176.21,108.61l3.49-19.36,7.32,1.56-4.64,19.11-6.17-1.31Z"/>
    </g>
    <g>
      <path class="cls-15" d="M171.72,160.74c-.21,16.48-13.5,29.63-29.55,30.27-16.05.61-30.25-11.47-31.87-27.87-1.62-16.37,11.43-31.02,29.32-31.71,17.88-.71,32.32,12.86,32.1,29.31Z"/>
      <path class="cls-13" d="M171.72,160.74c-.21,16.48-13.5,29.63-29.55,30.27-16.05.61-30.25-11.47-31.87-27.87-1.62-16.37,11.43-31.02,29.32-31.71,17.88-.71,32.32,12.86,32.1,29.31Z"/>
    </g>
    <g>
      <path class="cls-14" d="M159.75,161.29c-.13,10.12-8.29,18.2-18.15,18.59-9.86.37-18.58-7.04-19.58-17.12-1-10.06,7.02-19.05,18.01-19.48,10.98-.44,19.85,7.9,19.72,18Z"/>
      <path class="cls-13" d="M159.75,161.29c-.13,10.12-8.29,18.2-18.15,18.59-9.86.37-18.58-7.04-19.58-17.12-1-10.06,7.02-19.05,18.01-19.48,10.98-.44,19.85,7.9,19.72,18Z"/>
    </g>
    <g>
      <path class="cls-3" d="M106.4,146.96c1.83-.07,3.16-.3,2.91-2.12-.18-1.31-.45-4.15-.58-4.22,0,0-.43-3.17-2.26-8.65,0,0,0-.01,0-.02-.3-1.29,3.08-2.23,3.69-1.12.03.05.08.1.11.15,3.39,7.09,5.09,18.73,5.33,20.53.43,3.17-3.55,5.65-4.56,6-5.13,1.78,9.9,33.06,8.65,39.69-.58,3.08-5.37,5.91-8.16,3.27-4.94-4.7-5.63-41.18-10.91-40.45-6.42.88-7.97-3.21-7.97-3.21,0,0-2.8-18.53-3.18-19.96-.02-.09-.23-.58.05-.9.09-.1.19-.2.3-.3.75-.69,2.67-1.14,3.32-.74.05.03.08.06.11.09.42.53.37,1.22.47,1.85.67,4.1,1.23,8.22,2.08,12.27,0,0,0,.01,0,.02.25.97,3.95.22,4.52-.91.06-.13.09-.24.08-.35-.6-4.35-1.52-8.62-2.34-12.92-.08-.4-.37-.78-.14-1.22h0c.4-.75,2.42-1.39,3.4-1.08.14.05.28.1.39.16.17.09.23.22.26.37.06.32.07.58.06.62-.09.59,1.72,10.36,3.18,12.68.24.38.67.5,1.17.48Z"/>
      <path class="cls-4" d="M180.64,165.23c-1.33,10.78-2.6,21.56-4.1,32.32-.16,1.18-1.22,2.45-2.59,3.22-1.75.98-4.35.76-6.65-.2-2.64-1.1-3.52-2.61-3.12-4.34.94-4.08,1.87-8.16,2.82-12.24,1.39-5.98,2.75-11.96,4.23-17.92.3-1.2.12-2.25-1.38-3.27-2.93-2-3.46-4.12-3.1-6.55.54-3.68,1.67-8.09,2.9-11.92,1.58-4.94,4.56-9.56,8.6-13.78.02-.02.04-.04.06-.06.86-.9,2.21-1.47,4.22-.93,2.18.59,2.33,1.67,2.18,2.83-1.37,10.94-2.72,21.89-4.08,32.84Z"/>
    </g>
  </g>
</svg>