<?xml version="1.0" encoding="UTF-8"?>
<svg xmlns="http://www.w3.org/2000/svg" xmlns:xlink="http://www.w3.org/1999/xlink" viewBox="0 0 432 293">
  <defs>
    <style>
      .cls-1 {
        fill: #e0e0e0;
      }

      .cls-1, .cls-2, .cls-3, .cls-4, .cls-5, .cls-6, .cls-7, .cls-8, .cls-9, .cls-10, .cls-11, .cls-12, .cls-13, .cls-14, .cls-15, .cls-16, .cls-17, .cls-18, .cls-19, .cls-20, .cls-21, .cls-22, .cls-23, .cls-24, .cls-25 {
        stroke-width: 0px;
      }

      .cls-2 {
        fill: #75d175;
      }

      .cls-3 {
        fill: #565656;
      }

      .cls-4 {
        fill: #ef6565;
        filter: url(#drop-shadow-1);
      }

      .cls-5 {
        fill: #ffc7e8;
      }

      .cls-6 {
        fill: #3d3d3d;
      }

      .cls-7 {
        fill: #fffbfa;
        filter: url(#drop-shadow-2);
      }

      .cls-8 {
        fill: #e5e5e5;
      }

      .cls-9 {
        fill: #ffebf1;
      }

      .cls-10 {
        fill: #68a57c;
      }

      .cls-11 {
        fill: #a9f490;
      }

      .cls-12 {
        fill: #ffdc8d;
      }

      .cls-13 {
        fill: #6b4343;
      }

      .cls-14 {
        fill: #4b4d6b;
      }

      .cls-15 {
        fill: #ffb278;
      }

      .cls-16 {
        fill: #ff3939;
      }

      .cls-17 {
        fill: #ffdf85;
      }

      .cls-18 {
        fill: #ea4949;
      }

      .cls-19 {
        fill: #71c5ff;
      }

      .cls-20 {
        fill: #ffd9b0;
      }

      .cls-21 {
        fill: #ce3e3e;
      }

      .cls-22 {
        fill: #e2c7ff;
      }

      .cls-26 {
        fill: #fec;
        stroke: #ff3717;
        stroke-miterlimit: 10;
        stroke-width: 2.5px;
      }

      .cls-23 {
        fill: #fff;
      }

      .cls-24 {
        fill: #ffa1af;
      }

      .cls-25 {
        fill: #d8d8d8;
      }
    </style>
    <filter id="drop-shadow-1" filterUnits="userSpaceOnUse">
      <feOffset dx="0" dy="2"/>
      <feGaussianBlur result="blur" stdDeviation="6"/>
      <feFlood flood-color="#000" flood-opacity=".75"/>
      <feComposite in2="blur" operator="in"/>
      <feComposite in="SourceGraphic"/>
    </filter>
    <filter id="drop-shadow-2" filterUnits="userSpaceOnUse">
      <feOffset dx="0" dy="0"/>
      <feGaussianBlur result="blur-2" stdDeviation="6"/>
      <feFlood flood-color="#000" flood-opacity=".75"/>
      <feComposite in2="blur-2" operator="in"/>
      <feComposite in="SourceGraphic"/>
    </filter>
  </defs>
  <g id="Layer_1" data-name="Layer 1">
    <rect class="cls-14" width="432" height="293"/>
    <path class="cls-4" d="M248.09,244c10.67-1.11,32.2,1.03,46.37,3.09l16.9,1.61c3.32.32,6.61.83,9.86,1.54,9.47,2.07,29.38,6.72,36.64,10.76h0c.96.35,2.47-140.57,12.33-194.29-35.6-1.96-60.92,1.03-86.66.53-58.61-1.14-100.46,9.41-114.25-.53-25.71-18.53-110.3,5.96-110.3,5.96,0,3.98,3.94,53.67,3.94,53.67,0,0,1.97,41.74,1.97,67.58,0,15.9,3.94,43.73,3.94,63.61,17.87-1.98,50.33-7.79,63.83-8.38,22.18-.97,34.01-2.48,47.07-1.65,12.79.82,30.94,1.17,38.46,2.68,14.26-1.79,17.71-4.91,29.88-6.18Z"/>
    <path class="cls-25" d="M81.16,248.12s40.67-8.47,72.58-8.47c7.92,0,31.42.98,37.68,1.25,23.7,1.03,20.19,2.68,39.16-2.06,8.24-2.06,12.61-1.82,15.46-2.06,6.79-.57,13.39,0,20.61,0,13.98,0,39.28,1.74,40.19,2.06.4.14,28.47,3.7,41.22,9.27,0,0-2.06-19.58,1.03-28.85-39.77-1.49-84.18-2.52-123.95-4.01-29.19-1.09-58.39-2.19-87.6-2.65-7.83-.13-15.66.24-23.47.91-5.68.49-15.86.9-24.66,6.89-1.06.72-9.17,4.44-9.27,2.98-.17-2.32,1.03,24.73,1.03,24.73Z"/>
    <path class="cls-24" d="M350.05,35.11c.34-.02.54.36.34.63-1.37,1.85-2.61,3.79-3.69,5.82-1.22,2.27-2.25,4.63-3.28,6.99-2.19,5.04-4.39,10.07-6.58,15.11-.18.41-.38.85-.76,1.09-.49.31-1.13.2-1.69.07-10.81-2.31-21.78-3.88-32.8-4.71-1.45-2.32-2.04-3.26-3.49-5.58,3.98-10.37,7.9-20.92,14.22-30.07,1.71-2.48,10.9,17.15,11.61,17.31,1.31.28,4.66-1.52,5.94-1.98,1.98-.72,5.98-2.23,8.02-2.76,3.99-1.03,8.07-1.67,12.18-1.93Z"/>
    <path class="cls-8" d="M215.32,237.66c.48.01.95.02.95.02.31,0,.58,0,.78,0,0,0,11.87-5.94,25.72-5.94,17.03,0,20.58-1.06,37.6,0,31.66,1.98,45.51,0,71.24,11.87,1.98-41.56,0-83.11,1.98-128.62.5-11.57,1.98-25.72,6.79-41.33-19.15-.83-38.3-1.66-57.44-2.49-3.63-.16-34.16-1.11-68.84-1.43-63.9-.59-80.99-2.52-112.03-6.19-5.94-.7-21.16-3.43-21.77-1.98-.12.3-29.7,15.76-29.68,15.83,1.98,5.94,4.32,63.41,7.92,166.22,18.85-4.24,35.02-6.56,47.49-7.92,11.99-1.3,19.83-1.78,25.39-1.89,0,0,0,0,0,0,5.06,0,10.23-.09,10.23-.09,12.89.43,19.33.64,23.72,1.07,2.55.25,28.77,2.84,29.95,2.87Z"/>
    <path class="cls-7" d="M76.56,68.48c3.94-2.43,11.29-7.35,17.95-9.94,22.63-8.81,43.97-7.66,65.16-5.89,21.12,1.76,32.84,3.69,53.74,7.22,18.24-3.9,36.62-7.44,55.23-8.61,29.16-1.83,58.69,2.24,86.26,11.91-3.35,23.21-5.64,46.8-6.54,70.23-.24,6.1-.39,12.2-.54,18.3-.68,27.32-1.37,54.64-2.05,81.96-13.49-7.79-30.68-8.74-46.26-9.15-12.58-.33-25.17-.33-37.75-.32-15.94,0-32.54.17-46.82,7.25-24.97-3.65-51.4-5.37-76.62-4.32-6.02.25-12.04.64-18.01,1.38-11.9,1.48-23.58,4.36-35.23,7.23-.96-10.12.16-22.34-.61-32.69-3.57-48.15-3.96-102.9-7.92-134.56Z"/>
    <path class="cls-1" d="M211.68,60.08c-.57,19.29-.77,39.54-.57,45.01.24,6.4,0,83.11,3.96,126.64"/>
  </g>
  <g id="Layer_2" data-name="Layer 2">
    <path class="cls-19" d="M335.11,183.54c-.38,15.24-.38,22.24-.38,22.24-26-1-83.42-1.03-110,0,0,0-.95-21.75-.89-22.37,22.03-1.86,111.28.13,111.28.13Z"/>
    <g>
      <path class="cls-6" d="M236.79,194.47c.39.24.7.57.95.97.24.4.37.84.39,1.34.01.39-.05.77-.19,1.12-.14.35-.33.66-.59.92-.25.27-.54.48-.88.64-.34.16-.71.25-1.1.27-1.44.06-2.89.12-4.33.19-.14-3.17-.29-6.35-.43-9.52,1.41-.06,2.82-.12,4.23-.18.36-.02.7.04,1.03.17.32.13.61.3.86.52.25.22.45.49.59.8.15.31.23.64.24,1,.01.38-.05.73-.18,1.02-.14.3-.33.55-.59.76ZM235.29,197.87c.27-.01.49-.13.67-.37.18-.23.26-.5.25-.81-.01-.31-.12-.57-.31-.78-.2-.21-.43-.3-.7-.29-.77.03-1.53.06-2.3.1.03.75.06,1.5.1,2.24.76-.03,1.53-.07,2.29-.1ZM232.82,193.87c.72-.03,1.44-.06,2.16-.09.24-.01.45-.1.61-.28.16-.18.24-.39.23-.63-.01-.24-.1-.44-.28-.59-.18-.15-.39-.23-.63-.22-.72.03-1.44.06-2.17.09.02.57.05,1.15.07,1.72Z"/>
      <path class="cls-6" d="M244.91,189.84c1.44,3.13,2.87,6.27,4.28,9.41-.74.02-1.47.04-2.21.06-.31-.67-.62-1.34-.92-2.02-1.35.04-2.7.09-4.06.13-.26.69-.52,1.38-.78,2.07-.74.03-1.48.05-2.22.08,1.21-3.23,2.43-6.45,3.66-9.67.75-.03,1.49-.05,2.24-.07ZM245.24,195.46c-.45-.99-.9-1.97-1.35-2.96-.39,1.01-.77,2.03-1.16,3.04.84-.03,1.67-.06,2.51-.08Z"/>
      <path class="cls-6" d="M253.9,197.27c.43,0,.85-.12,1.26-.32.41-.21.82-.55,1.23-1.02.45.41.9.81,1.35,1.22-.52.69-1.11,1.22-1.78,1.58-.67.36-1.36.55-2.08.57-.65.02-1.25-.1-1.83-.35-.57-.25-1.07-.59-1.5-1.03-.43-.44-.77-.95-1.03-1.54-.26-.59-.39-1.22-.41-1.89-.02-.67.09-1.31.32-1.91.23-.6.55-1.13.97-1.59.41-.46.91-.83,1.48-1.1.57-.28,1.18-.42,1.84-.44.61-.01,1.19.09,1.74.3.55.21,1.1.57,1.63,1.08-.39.49-.78.98-1.16,1.46-.39-.34-.75-.57-1.09-.68-.34-.11-.7-.17-1.07-.16-.37,0-.72.09-1.04.25-.33.16-.61.37-.85.64-.24.27-.42.58-.55.94-.13.36-.19.74-.18,1.14.01.4.09.78.24,1.12.15.35.35.65.6.91.25.26.54.46.87.6.33.14.68.21,1.05.2Z"/>
      <path class="cls-6" d="M262.88,193.78c1.57,1.7,3.13,3.41,4.68,5.12-.84,0-1.68.02-2.52.03-1.14-1.28-2.29-2.56-3.44-3.84-.27.28-.54.56-.81.85.02,1.02.03,2.03.05,3.05-.68.01-1.36.02-2.04.04-.06-3.18-.12-6.36-.18-9.53.69-.01,1.38-.02,2.06-.04.02,1.29.04,2.57.06,3.86,1.26-1.31,2.53-2.61,3.81-3.92.88-.01,1.76-.02,2.63-.03-1.44,1.47-2.88,2.94-4.31,4.41Z"/>
      <path class="cls-6" d="M271.02,189.33c2.33-.02,4.65-.02,6.98-.02,0,.62,0,1.24,0,1.86-.82,0-1.64,0-2.45,0,0,2.56.01,5.12.02,7.68-.68,0-1.36,0-2.05,0-.01-2.56-.02-5.12-.03-7.68-.82,0-1.64,0-2.45.01,0-.62,0-1.24-.01-1.86Z"/>
      <path class="cls-6" d="M283.48,189.19c.65,0,1.27.14,1.84.4.58.26,1.08.62,1.5,1.07.43.45.76.97,1,1.57.24.59.36,1.23.35,1.9,0,.66-.14,1.29-.39,1.89-.25.6-.59,1.12-1.03,1.56-.43.44-.93.8-1.51,1.06-.58.26-1.19.39-1.83.39-.65,0-1.25-.14-1.83-.4-.57-.27-1.07-.62-1.49-1.07-.42-.45-.76-.97-1-1.57-.25-.6-.37-1.23-.37-1.9,0-.67.12-1.3.37-1.89.25-.59.59-1.11,1.01-1.56.43-.45.93-.8,1.51-1.06.58-.26,1.2-.39,1.85-.38ZM283.45,197c.37,0,.71-.07,1.04-.22.32-.15.61-.36.85-.62.24-.26.44-.57.58-.92.14-.35.21-.72.22-1.13,0-.4-.06-.78-.2-1.14-.14-.36-.33-.66-.57-.93-.24-.27-.52-.48-.85-.63-.32-.15-.67-.23-1.04-.23-.37,0-.72.07-1.04.22-.33.15-.61.36-.85.62-.24.26-.44.57-.58.93-.14.35-.21.73-.21,1.14,0,.4.07.78.21,1.13.14.35.33.66.57.92.24.27.52.48.84.63.32.15.67.23,1.03.23Z"/>
      <path class="cls-6" d="M301.5,189.57c.65.01,1.3.03,1.94.04-.08,3.18-.15,6.35-.23,9.53-.68-.02-1.36-.03-2.04-.05.05-2.1.09-4.19.14-6.29-.79,1.05-1.57,2.09-2.35,3.14-.54-.01-1.09-.02-1.63-.03-.75-1.04-1.5-2.09-2.26-3.13-.03,2.07-.07,4.13-.1,6.2-.68-.01-1.36-.02-2.04-.03.05-3.18.09-6.36.14-9.53.65,0,1.31.02,1.96.03,1.06,1.48,2.12,2.97,3.18,4.45,1.1-1.44,2.2-2.89,3.31-4.33Z"/>
      <path class="cls-6" d="M304.71,189.65c2,.05,4.01.11,6.01.17-.02.62-.04,1.24-.06,1.85-1.31-.04-2.63-.08-3.94-.11-.02.57-.03,1.15-.05,1.72,1.15.03,2.31.07,3.46.1-.02.62-.04,1.24-.06,1.85-1.15-.04-2.3-.07-3.46-.1-.02.75-.04,1.5-.06,2.25,1.31.04,2.61.07,3.92.11-.02.62-.04,1.24-.06,1.85-1.99-.06-3.97-.12-5.96-.17.08-3.18.16-6.35.24-9.53Z"/>
      <path class="cls-6" d="M318.6,190.09c.69.03,1.37.05,2.06.08-.13,3.18-.26,6.35-.39,9.53-.65-.03-1.3-.05-1.95-.08-1.44-2.13-2.9-4.26-4.36-6.39-.07,2.07-.14,4.15-.21,6.22-.68-.02-1.36-.05-2.04-.07.1-3.18.2-6.35.31-9.53.64.02,1.29.04,1.93.06,1.48,2.14,2.95,4.28,4.41,6.43.08-2.09.16-4.17.24-6.26Z"/>
      <path class="cls-6" d="M327.36,190.46c.69.03,1.37.07,2.06.1-.1,2.03-.2,4.06-.3,6.08-.02.47-.14.93-.36,1.35-.22.43-.51.8-.86,1.12-.36.31-.77.56-1.23.73-.46.18-.95.25-1.47.23-.51-.02-.99-.14-1.44-.36-.45-.22-.84-.5-1.16-.84-.32-.35-.57-.74-.75-1.19-.18-.45-.26-.91-.24-1.38.08-2.03.17-4.06.25-6.09.69.03,1.37.06,2.06.09-.08,1.89-.17,3.79-.25,5.68-.01.27.02.52.1.77.08.24.19.46.33.65.14.19.32.34.52.46.2.12.42.18.66.19.24.01.47-.03.68-.13.21-.1.4-.23.56-.41.17-.18.3-.38.4-.61.1-.23.16-.48.17-.75.09-1.89.18-3.79.27-5.68Z"/>
    </g>
    <path class="cls-11" d="M335.73,156.78s-.3,19.63-1,22c-22-1-80-2-110.48-.22,0,0-.35-21.48-.28-22.04,22.76-2.74,77.76-2.74,111.76.26Z"/>
    <g>
      <path class="cls-6" d="M246.29,162.46c.74-.03,1.47-.06,2.21-.08.12,3.39.25,6.79.37,10.18-.69.03-1.39.05-2.08.08-1.71-2.15-3.44-4.3-5.18-6.44.1,2.22.2,4.43.3,6.65-.73.03-1.46.07-2.18.1-.16-3.39-.32-6.79-.48-10.18.69-.03,1.38-.06,2.06-.09,1.76,2.16,3.51,4.32,5.25,6.48-.09-2.23-.17-4.46-.26-6.69Z"/>
      <path class="cls-6" d="M249.87,162.33c2.15-.07,4.29-.14,6.44-.2.02.66.04,1.32.05,1.98-1.41.04-2.82.08-4.22.13.02.61.04,1.23.06,1.84,1.24-.04,2.47-.08,3.71-.11.02.66.04,1.32.06,1.98-1.23.03-2.47.07-3.7.11.03.8.05,1.6.08,2.4,1.4-.05,2.79-.09,4.19-.13.02.66.04,1.32.05,1.98-2.12.06-4.24.12-6.37.2-.12-3.4-.24-6.79-.36-10.19Z"/>
      <path class="cls-6" d="M263.99,166.65c1.26,1.81,2.52,3.62,3.77,5.43-.87.01-1.74.03-2.62.04-.81-1.16-1.63-2.32-2.44-3.48-.77,1.19-1.53,2.38-2.29,3.57-.88.02-1.75.04-2.63.06,1.18-1.86,2.37-3.72,3.56-5.58-1.09-1.54-2.19-3.08-3.29-4.62.88-.02,1.76-.04,2.65-.06.64.9,1.28,1.8,1.92,2.7.6-.93,1.2-1.85,1.81-2.78.89-.02,1.78-.03,2.66-.04-1.04,1.58-2.07,3.17-3.1,4.75Z"/>
      <path class="cls-6" d="M268.17,161.88c2.49-.03,4.99-.06,7.48-.07,0,.66,0,1.32.01,1.98-.88,0-1.75.01-2.63.02.02,2.74.04,5.47.07,8.21-.73,0-1.46.01-2.19.02-.03-2.74-.06-5.47-.09-8.21-.88,0-1.75.02-2.63.03,0-.66-.02-1.32-.03-1.98Z"/>
      <path class="cls-6" d="M282.12,170.01c1.4,0,2.8,0,4.19.02,0,.66,0,1.32-.01,1.98-2.12-.02-4.25-.02-6.37-.02,0-3.4,0-6.79,0-10.19.74,0,1.47,0,2.21,0,0,2.74-.01,5.47-.02,8.21Z"/>
      <path class="cls-6" d="M287.22,161.83c2.15.02,4.3.04,6.44.08-.01.66-.02,1.32-.03,1.98-1.41-.02-2.82-.04-4.22-.06,0,.61-.01,1.23-.02,1.84,1.24.01,2.47.03,3.71.05,0,.66-.02,1.32-.03,1.98-1.23-.02-2.47-.03-3.7-.05,0,.8-.02,1.6-.03,2.4,1.4.01,2.8.03,4.19.06-.01.66-.02,1.32-.03,1.98-2.12-.03-4.25-.06-6.37-.08.03-3.4.06-6.79.08-10.19Z"/>
      <path class="cls-6" d="M303.38,162.11c.8.02,1.6.04,2.4.07-1.55,3.35-3.08,6.71-4.6,10.07-.8-.02-1.6-.04-2.4-.06-1.35-3.43-2.73-6.85-4.11-10.27.8.01,1.6.03,2.4.04,1,2.56,2,5.12,2.98,7.68,1.1-2.51,2.21-5.03,3.33-7.54Z"/>
      <path class="cls-6" d="M306.78,162.21c2.15.07,4.29.14,6.44.22-.03.66-.05,1.32-.08,1.98-1.41-.05-2.81-.1-4.22-.15-.02.61-.04,1.23-.06,1.84,1.24.04,2.47.08,3.71.13-.02.66-.05,1.32-.07,1.98-1.23-.05-2.47-.09-3.7-.13-.03.8-.05,1.6-.08,2.4,1.4.05,2.79.1,4.19.15-.03.66-.05,1.32-.08,1.98-2.12-.08-4.24-.15-6.37-.22.1-3.4.21-6.79.31-10.19Z"/>
      <path class="cls-6" d="M316.47,170.77c1.4.06,2.79.12,4.19.19-.03.66-.06,1.32-.09,1.98-2.12-.1-4.24-.19-6.37-.28.13-3.39.27-6.79.4-10.18.74.03,1.47.06,2.21.09-.12,2.73-.23,5.47-.35,8.2Z"/>
    </g>
    <g>
      <path class="cls-20" d="M147.41,140.27c-12.86-13.38-12.34-34.22.58-47.16,8.75-8.77,36.47-10.3,47.14,1.3,12.56,13.66,12.6,34.49-.58,47.16-13.18,12.66-34.28,12.08-47.14-1.3Z"/>
      <path class="cls-18" d="M152.23,135.64c-10.47-9.99-11.53-26.37-.77-36.63,10.72-10.26,29.16-9.79,39.57,1.04,10.45,10.83,8.99,27.18-1.67,36.6-10.7,9.43-26.62,8.98-37.13-1.01Z"/>
      <circle class="cls-26" cx="170.84" cy="118.32" r="22.04"/>
      <circle class="cls-16" cx="185.1" cy="115.41" r="4.3"/>
      <circle class="cls-16" cx="158.73" cy="122.94" r="4.3"/>
      <circle class="cls-16" cx="168.93" cy="119.73" r="4.23"/>
      <path class="cls-10" d="M167.71,134.27c-.06.38-.05.79.04,1.22-2.35.23-5.14-1.19-6.72-4.11.35-1.01.85-1.95,1.49-2.79.63,3.24,2.92,5.31,5.19,5.68Z"/>
      <path class="cls-10" d="M178.72,106.71c-.2-.86-.11-1.67.15-2.35-1.63-.66-3.09-2.18-3.75-4.32-1.01,1.25-1.68,2.79-1.91,4.46,1.65,1.59,3.7,2.32,5.52,2.2Z"/>
      <path class="cls-10" d="M178.63,120.99c.83-.82,1.75-1.48,2.7-1.98-.21,3.46,1.37,6.18,3.33,7.47-.41.67-.71,1.45-.88,2.32-2.46-1.24-4.66-4.03-5.15-7.81Z"/>
      <circle class="cls-16" cx="170.08" cy="104.65" r="4.3"/>
      <circle class="cls-16" cx="177.3" cy="130.93" r="4.3"/>
      <path class="cls-10" d="M163.61,114.38c-.76.45-1.45.98-2.05,1.57-1.89-1.83-5.03-2.9-8.48-2.05.02-.9.13-1.82.34-2.74,4.13-.67,7.88.79,10.19,3.22Z"/>
      <path class="cls-10" d="M170.86,118.29c-.66-.98-1.14-2.07-1.4-3.22,1.86-2.49,4.66-3.5,6.94-3-.11.38-.14.76-.11,1.11-2.28.27-4.58,2.12-5.43,5.12Z"/>
      <circle class="cls-3" cx="170.92" cy="135.88" r="1.61"/>
      <circle class="cls-3" cx="160.54" cy="106.3" r="1.61"/>
      <circle class="cls-3" cx="187.92" cy="119.4" r="1.61"/>
      <circle class="cls-3" cx="152.92" cy="118.79" r="1.61"/>
      <circle class="cls-3" cx="181.88" cy="106.08" r="1.61"/>
      <circle class="cls-3" cx="174.67" cy="121.27" r="1.61"/>
    </g>
    <g>
      <path class="cls-15" d="M100.14,188.82c4.24,12.03,31.4,5.92,35.66,4.96,10.92-2.46,33.37-10.01,32.39-20.68-.52-5.68-7.47-9.94-12.2-12.83-17.26-10.58-40.3-9.22-51.49,10.94-2.03,3.65-6.46,11.64-4.35,17.62Z"/>
      <path class="cls-2" d="M97.3,182.36h0c-1.15.87-.75,2.69.66,3l1.34.29c.69.15,1.21.71,1.31,1.41l.09.62c.14.97,1.08,1.62,2.04,1.41l4.16-.94c.22-.05.45-.05.67-.01l3.4.61c2.57.46,5.2.51,7.78.13l3.49-.51c.15-.02.29-.06.43-.12l3.53-1.52c.38-.16.81-.18,1.2-.05l3.92,1.3c.43.14.89.11,1.29-.09l6.08-3.06c.14-.07.27-.16.38-.26l2.61-2.39c.25-.23.56-.38.9-.43l6.11-.89c.06,0,.11-.02.17-.03l4.93-1.24c.67-.17,1.18-.73,1.26-1.42l.15-1.16c.1-.75.68-1.35,1.43-1.46l2.75-.4s.07,0,.11-.01l4.88-.39c.85-.07,1.52-.77,1.55-1.62l.13-3.57c.02-.51.27-.98.68-1.29l2.8-2.09c.77-.57.91-1.67.3-2.42l-.75-.93c-.34-.41-.85-.64-1.38-.62l-13.3.5c-.11,0-.21.02-.31.04l-44.01,10.07c-.08.02-.15.04-.22.07l-9.68,3.68c-.48.18-.85.57-1,1.05l-1.3,3.93c-.11.32-.31.61-.58.82Z"/>
      <path class="cls-13" d="M99.45,177.86c-.06.59-.21,2.12.64,3.61,3.52,6.21,20.75,4.05,31.4,1.93,12.68-2.53,27.08-8.49,30.84-15.37,1.38-2.51-1.73-5.19-2.27-5.81-11.63-13.45-59.07,1.39-60.61,15.64Z"/>
      <path class="cls-12" d="M87.08,178.15c17.99-.76,28.73,3.33,39.7,8.57,8.13-10.13,37.35-20.83,49.47-24.27,0,0-4.96-12.09-50.74-5.28-14.95,6.43-25.38,11.79-38.43,20.97Z"/>
      <path class="cls-21" d="M123.43,170.32c0,.41,0,1.47.66,2.45,2.79,4.06,14.42,1.53,21.55-.57,8.49-2.51,17.95-7.48,20.08-12.44.78-1.81-1.51-3.47-1.91-3.86-8.79-8.55-40.24,4.53-40.38,14.42Z"/>
      <path class="cls-21" d="M98.33,172.79c-.04.41-.14,1.47.44,2.5,2.42,4.3,14.22,2.82,21.52,1.37,8.68-1.73,18.55-5.84,21.12-10.59.94-1.74-1.19-3.59-1.56-4.02-7.98-9.31-40.48.9-41.52,10.74Z"/>
      <path class="cls-15" d="M94.15,168.91c-3.69-7.28,8.36-27.62,29.86-31.4,20.12-3.54,38.9,5.96,39.16,14.5.42,13.62-45.46,25.64-64.86,19.74-1.45-.44-3.31-1.15-4.16-2.83Z"/>
      <ellipse class="cls-23" cx="139.34" cy="139.78" rx=".61" ry="1.22" transform="translate(-52.94 184.33) rotate(-58.13)"/>
      <ellipse class="cls-23" cx="124.98" cy="140.68" rx=".61" ry="1.22" transform="translate(-60.47 172.55) rotate(-58.13)"/>
      <ellipse class="cls-23" cx="132.51" cy="142.49" rx="1.22" ry=".61" transform="translate(-59.13 108.77) rotate(-37.1)"/>
      <ellipse class="cls-23" cx="113.38" cy="149.6" rx="1.22" ry=".61" transform="translate(-70.17 188.91) rotate(-64.93)"/>
      <ellipse class="cls-23" cx="147.41" cy="143.38" rx="1.22" ry=".61" transform="translate(-56.65 117.94) rotate(-37.1)"/>
      <ellipse class="cls-23" cx="123.09" cy="146.42" rx="1.22" ry=".61" transform="translate(-13.17 12.17) rotate(-5.38)"/>
      <ellipse class="cls-23" cx="107.22" cy="147.97" rx="1.22" ry=".61" transform="translate(-67.55 94.63) rotate(-37.1)"/>
      <ellipse class="cls-23" cx="117.43" cy="142.44" rx=".61" ry="1.22" transform="translate(-65.54 166.97) rotate(-58.13)"/>
    </g>
    <path class="cls-17" d="M147.94,86.74l1.71,16.83c-12.25.15-42.87,5.65-54.55,9.12,0,0-2.85-16.21-2.88-16.62,18.37-5.36,39.46-8.83,55.73-9.33Z"/>
    <g>
      <path class="cls-6" d="M105.37,96.46c.36-.07.71-.06,1.06.03.34.08.66.23.94.43.28.2.52.46.72.76.2.31.33.65.4,1.03.07.38.06.75-.01,1.1-.08.36-.21.68-.4.97-.19.29-.43.54-.71.73-.29.2-.61.33-.96.4-.66.12-1.31.24-1.96.37.24,1.23.47,2.45.7,3.68-.64.12-1.27.24-1.91.36-.59-3.04-1.19-6.08-1.8-9.12,1.31-.25,2.62-.5,3.94-.74ZM105.81,100.18c.25-.05.44-.18.59-.39.15-.22.2-.46.15-.73-.05-.26-.18-.46-.4-.61-.22-.15-.45-.2-.7-.16-.57.11-1.15.21-1.72.32.12.63.24,1.26.37,1.89.57-.11,1.14-.21,1.71-.32Z"/>
      <path class="cls-6" d="M112.07,95.29c.1.55.19,1.1.29,1.65-.23.04-.45.08-.68.11.34,1.95.68,3.91,1.01,5.86.22-.04.45-.08.67-.11.09.55.18,1.09.28,1.64-1.09.18-2.17.37-3.26.56-.1-.55-.19-1.09-.29-1.64.22-.04.45-.08.67-.12-.34-1.95-.69-3.91-1.04-5.86-.23.04-.45.08-.68.12-.1-.55-.2-1.1-.3-1.65,1.11-.19,2.22-.38,3.33-.57Z"/>
      <path class="cls-6" d="M117.13,102.06c1.42-.22,2.85-.44,4.27-.65.09.6.18,1.19.27,1.79-2.31.34-4.62.69-6.93,1.07-.07-.44-.14-.87-.22-1.31,1.06-2.25,2.15-4.5,3.25-6.75-1.27.19-2.55.39-3.82.6-.1-.59-.2-1.19-.3-1.78,2.11-.34,4.23-.67,6.35-.98.09.55.17,1.1.25,1.65-1.06,2.12-2.1,4.24-3.13,6.36Z"/>
      <path class="cls-6" d="M125.2,100.88c1.43-.19,2.86-.38,4.3-.56.08.6.15,1.2.23,1.79-2.33.29-4.65.6-6.97.93-.06-.44-.13-.87-.19-1.31,1.11-2.23,2.24-4.46,3.39-6.68-1.28.17-2.56.34-3.84.53-.09-.6-.18-1.19-.27-1.79,2.13-.3,4.25-.59,6.39-.85.07.55.15,1.1.22,1.65-1.1,2.09-2.19,4.19-3.26,6.3Z"/>
      <path class="cls-6" d="M135.42,92.09c1.66,2.94,3.28,5.88,4.87,8.84-.7.07-1.41.14-2.11.21-.35-.63-.69-1.26-1.04-1.89-1.3.14-2.59.28-3.88.43-.19.69-.38,1.38-.57,2.07-.7.08-1.41.17-2.11.25.88-3.23,1.77-6.45,2.68-9.68.72-.08,1.44-.16,2.16-.24ZM136.2,97.53c-.51-.93-1.03-1.85-1.55-2.77-.29,1.01-.58,2.03-.86,3.04.8-.09,1.61-.18,2.41-.27Z"/>
    </g>
    <path class="cls-22" d="M207.73,189.44l-2.69,16.71c-14.51-3.18-52.23-6.16-67-5.98,0,0,1.17-16.42,1.25-16.83,23.21-.2,49.09,2.17,68.45,6.09Z"/>
    <g>
      <path class="cls-6" d="M151.18,191.59c.35.27.62.61.82,1.02.2.41.28.85.26,1.33-.02.38-.11.74-.27,1.07-.16.33-.37.61-.64.85-.26.24-.56.42-.9.55-.34.13-.69.19-1.07.17-1.38-.06-2.76-.12-4.14-.17.12-3.09.24-6.19.37-9.28,1.36.05,2.72.11,4.07.17.35.02.67.1.97.25.3.15.56.34.77.58.22.24.39.51.5.82.11.31.16.64.15.99-.02.37-.11.7-.27.98-.16.28-.36.51-.62.69ZM149.47,194.77c.26.01.48-.09.67-.3.19-.21.29-.47.31-.76.01-.3-.06-.56-.24-.78-.17-.22-.39-.33-.64-.34-.73-.03-1.47-.06-2.2-.09-.03.73-.06,1.46-.09,2.19.73.03,1.46.06,2.19.09ZM147.45,190.68c.69.03,1.38.06,2.08.09.23.01.44-.06.61-.22.17-.16.26-.36.28-.59.01-.23-.06-.44-.22-.6-.16-.16-.35-.25-.59-.26-.69-.03-1.39-.06-2.08-.09-.02.56-.05,1.12-.07,1.68Z"/>
      <path class="cls-6" d="M158.9,187.76c.66.04,1.32.08,1.98.12-.13,1.97-.26,3.95-.39,5.92-.03.46-.15.9-.37,1.32-.22.42-.5.78-.84,1.08-.35.3-.74.54-1.18.7-.44.17-.91.24-1.41.21-.49-.03-.95-.15-1.37-.36-.43-.22-.79-.49-1.1-.83-.3-.34-.54-.73-.71-1.16-.17-.44-.24-.89-.21-1.35.1-1.98.21-3.95.32-5.93.66.03,1.32.07,1.98.1-.11,1.84-.21,3.69-.31,5.53-.01.26.01.51.09.75.07.24.18.45.31.63.14.19.3.34.49.45.19.12.4.18.63.19.23.01.45-.03.65-.12.2-.09.38-.23.54-.4.16-.17.29-.37.39-.59.1-.23.16-.47.17-.73.11-1.84.23-3.69.34-5.53Z"/>
      <path class="cls-6" d="M168.42,191.17c-.02.3-.09.57-.19.83-.1.26-.24.5-.4.71-.16.21-.35.39-.57.55-.22.15-.45.28-.7.36.91,1.38,1.82,2.77,2.71,4.16-.75-.06-1.51-.12-2.26-.17-.84-1.31-1.69-2.63-2.54-3.94-.29-.02-.58-.04-.88-.06-.09,1.25-.17,2.49-.26,3.74-.65-.04-1.3-.09-1.95-.13.2-3.09.41-6.18.62-9.27,1.33.09,2.65.18,3.98.27.36.03.7.12,1.02.29.31.17.58.38.8.65.22.27.38.57.5.92.11.35.15.71.12,1.09ZM165.47,191.93c.25.02.47-.06.67-.24.19-.17.3-.4.32-.67.02-.26-.05-.49-.22-.69-.17-.2-.38-.31-.63-.33-.58-.04-1.17-.08-1.75-.12-.05.64-.09,1.28-.14,1.92.58.04,1.16.08,1.74.12Z"/>
      <path class="cls-6" d="M175.13,192.99c1.15.1,2.3.2,3.45.31-.11,1.13-.21,2.26-.32,3.39-.57.61-1.19,1.06-1.84,1.35-.65.28-1.32.4-2,.34-.61-.05-1.18-.23-1.7-.53-.52-.3-.97-.69-1.33-1.15-.36-.47-.64-1-.83-1.6-.19-.6-.26-1.22-.21-1.88.05-.65.22-1.26.51-1.81.28-.56.65-1.04,1.09-1.44.44-.4.95-.71,1.53-.91.58-.21,1.17-.28,1.8-.23.59.05,1.13.21,1.63.47.5.26.98.67,1.42,1.22-.42.43-.85.86-1.27,1.29-.33-.37-.65-.63-.96-.78-.31-.15-.64-.23-.99-.26-.36-.03-.71.01-1.03.14-.33.12-.62.3-.87.53-.25.23-.46.52-.63.85-.16.33-.26.7-.29,1.09-.03.39,0,.76.11,1.11.1.35.26.66.47.94.21.28.46.5.76.68.3.17.63.28.99.31.31.03.63,0,.96-.09.32-.09.65-.26.99-.5.03-.34.06-.67.09-1.01-.56-.05-1.11-.1-1.67-.15.05-.56.1-1.11.15-1.67Z"/>
      <path class="cls-6" d="M180.02,189.38c1.91.18,3.82.37,5.73.57-.06.6-.13,1.2-.19,1.8-1.25-.13-2.5-.26-3.75-.38-.06.56-.11,1.11-.17,1.67,1.1.11,2.19.22,3.29.33-.06.6-.13,1.2-.19,1.8-1.09-.11-2.19-.22-3.28-.33-.07.73-.14,1.45-.22,2.18,1.24.12,2.48.25,3.72.37-.06.6-.13,1.2-.19,1.8-1.88-.2-3.76-.38-5.64-.56.29-3.08.59-6.17.89-9.25Z"/>
      <path class="cls-6" d="M193.23,193.56c-.04.29-.11.57-.22.83-.11.26-.25.48-.43.69-.17.2-.37.38-.59.52-.22.15-.46.26-.71.33.85,1.42,1.69,2.84,2.53,4.27-.75-.09-1.5-.18-2.25-.26-.78-1.35-1.57-2.69-2.37-4.04-.29-.03-.58-.06-.87-.1-.14,1.24-.27,2.48-.41,3.73-.64-.07-1.29-.14-1.93-.21.33-3.08.66-6.16.99-9.24,1.32.14,2.63.28,3.95.43.36.04.69.15,1,.33.3.18.56.41.77.68.21.27.36.59.46.94.1.35.12.72.08,1.1ZM190.26,194.19c.25.03.47-.04.67-.21.2-.17.32-.38.35-.65.03-.26-.03-.49-.19-.7-.16-.21-.36-.32-.61-.35-.58-.06-1.16-.13-1.74-.19-.07.64-.14,1.28-.21,1.91.58.06,1.15.13,1.73.19Z"/>
      <path class="cls-6" d="M201.05,196.28c.33.26.56.58.71.94.14.36.18.76.12,1.21-.06.42-.21.79-.45,1.12-.24.33-.56.62-.95.85-.35.21-.74.35-1.17.44-.43.08-.87.1-1.33.05-.46-.06-.88-.18-1.28-.36-.4-.18-.74-.42-1.03-.72-.44-.43-.71-.92-.83-1.47.63-.21,1.26-.42,1.89-.63-.01.09,0,.2.05.34.04.14.12.27.23.41.11.14.26.26.46.37.19.11.44.19.73.22.24.03.45.03.64-.01.19-.04.35-.09.49-.17.13-.08.24-.17.32-.28.08-.11.13-.22.14-.34.02-.14,0-.27-.08-.41-.07-.13-.2-.25-.38-.34-.32-.17-.67-.31-1.04-.44-.37-.13-.72-.28-1.06-.45-.34-.17-.65-.38-.93-.62-.28-.25-.49-.57-.62-.96-.12-.35-.16-.71-.11-1.08.05-.42.2-.81.44-1.17.24-.37.55-.66.91-.89.35-.21.73-.36,1.14-.45.41-.09.84-.1,1.27-.05.44.06.85.17,1.23.36.38.18.71.42,1,.71.28.27.48.58.62.91-.53.27-1.06.55-1.59.82-.15-.27-.35-.51-.59-.69-.25-.19-.54-.3-.88-.34-.46-.06-.83,0-1.11.18-.28.18-.44.43-.48.77-.02.16.03.3.16.44.13.14.3.27.51.39.21.12.46.24.73.35.27.11.54.22.81.33.27.11.52.22.76.33.24.11.43.22.57.34Z"/>
    </g>
    <path class="cls-5" d="M316.65,66.47c0,10.15-.73,21.08-.73,21.08-14.39-1.73-54.55-1.69-72.13-.73,0,0-.77-19.72-.73-20.26,14.57-1.7,73.59-.09,73.59-.09Z"/>
    <g>
      <path class="cls-6" d="M265.22,75.07c0,.26-.02.5-.08.73-.07.23-.16.45-.28.64-.12.2-.27.37-.45.52-.18.15-.37.28-.58.38.93,1.1,1.86,2.2,2.78,3.31-.67.02-1.33.04-2,.06-.86-1.05-1.73-2.09-2.6-3.14-.26.01-.52.02-.77.03.04,1.08.09,2.15.13,3.23-.57.02-1.14.05-1.72.07-.12-2.67-.24-5.33-.36-8,1.17-.05,2.35-.1,3.52-.15.32-.01.63.04.92.15.29.11.55.27.76.48.22.21.39.45.52.74.13.29.2.59.21.93ZM262.7,75.99c.22,0,.41-.1.56-.26.15-.17.23-.37.22-.6,0-.23-.1-.42-.26-.57-.17-.16-.36-.23-.58-.22-.52.02-1.03.04-1.55.06.02.55.05,1.11.07,1.66.51-.02,1.03-.04,1.54-.06Z"/>
      <path class="cls-6" d="M272.19,72.51c1.18,2.65,2.34,5.31,3.48,7.96-.62,0-1.24.01-1.85.02-.25-.57-.5-1.14-.75-1.71-1.14.02-2.28.04-3.41.06-.23.58-.45,1.15-.67,1.73-.62.01-1.24.03-1.86.05,1.04-2.7,2.1-5.39,3.18-8.09.63-.01,1.27-.02,1.9-.04ZM272.4,77.24c-.37-.83-.74-1.67-1.11-2.5-.34.85-.68,1.69-1.01,2.54.71-.01,1.41-.03,2.12-.04Z"/>
      <path class="cls-6" d="M274.97,72.48c1.97-.02,3.94-.03,5.92-.02,0,.52,0,1.04,0,1.56-.69,0-1.38,0-2.08,0,0,2.15,0,4.3,0,6.45-.57,0-1.15,0-1.72,0-.01-2.15-.02-4.3-.03-6.45-.69,0-1.38,0-2.08.02,0-.52-.01-1.04-.02-1.56Z"/>
      <path class="cls-6" d="M284.65,72.48c0,.48-.01.96-.02,1.45-.2,0-.41,0-.61,0-.02,1.71-.04,3.42-.05,5.13.2,0,.4,0,.6,0,0,.48-.01.96-.02,1.43-.97-.01-1.94-.02-2.91-.02,0-.48,0-.96,0-1.43.2,0,.4,0,.6,0,.01-1.71.02-3.42.03-5.13-.2,0-.4,0-.61,0,0-.48,0-.96,0-1.45.99,0,1.98.01,2.97.02Z"/>
      <path class="cls-6" d="M291.3,72.61c.58.02,1.17.03,1.75.05-.08,2.67-.16,5.34-.24,8-.55-.02-1.09-.03-1.64-.05-1.23-1.78-2.48-3.55-3.75-5.31-.03,1.74-.06,3.49-.09,5.23-.57-.01-1.14-.02-1.72-.03.04-2.67.07-5.34.11-8.01.54,0,1.09.02,1.63.03,1.28,1.78,2.55,3.56,3.81,5.35.05-1.75.09-3.51.14-5.26Z"/>
      <path class="cls-6" d="M298,76.32c1.02.04,2.04.09,3.06.14-.05.98-.1,1.96-.14,2.93-.48.55-1,.96-1.57,1.23-.56.27-1.15.39-1.75.36-.54-.02-1.05-.15-1.52-.39-.47-.24-.88-.55-1.22-.94-.34-.39-.61-.84-.8-1.34-.19-.51-.28-1.04-.26-1.61.02-.56.14-1.09.37-1.58.23-.49.53-.92.9-1.28.37-.36.81-.65,1.31-.84.5-.2,1.02-.29,1.58-.27.52.02,1.01.14,1.46.35.46.21.89.54,1.31,1-.36.39-.71.77-1.06,1.16-.31-.31-.6-.52-.88-.63-.28-.11-.57-.18-.89-.19-.32-.01-.62.04-.91.15-.28.12-.53.28-.75.49-.21.21-.39.46-.51.75-.13.29-.2.61-.21.95-.01.34.04.66.14.95.11.3.26.56.45.79.2.23.43.41.7.55.27.14.57.22.88.23.28.01.56-.03.84-.12.28-.09.56-.24.86-.46.01-.29.03-.58.04-.87-.49-.02-.99-.04-1.48-.06.02-.48.04-.96.06-1.44Z"/>
    </g>
    <g>
      <path class="cls-6" d="M118.06,67.58c.54-.1,1.09-.2,1.63-.29.43,2.41.85,4.82,1.27,7.23-.55.1-1.1.19-1.65.3-.3-1.59-.6-3.17-.9-4.76-.48.92-.95,1.84-1.4,2.77-.44.09-.89.18-1.33.27-.79-.64-1.59-1.28-2.4-1.91.35,1.55.71,3.1,1.06,4.65-.54.12-1.09.25-1.63.38-.57-2.38-1.14-4.76-1.72-7.13.54-.13,1.09-.25,1.63-.38,1.16.89,2.3,1.8,3.42,2.73.65-1.28,1.32-2.57,2.01-3.84Z"/>
      <path class="cls-6" d="M120.77,67.11c1.69-.28,3.38-.53,5.08-.75.06.47.13.94.19,1.42-1.1.14-2.21.3-3.31.47.07.44.14.87.2,1.31.96-.15,1.92-.29,2.88-.41.06.47.13.94.19,1.41-.95.13-1.9.26-2.85.41.09.57.18,1.14.27,1.71,1.07-.16,2.13-.32,3.2-.46.06.47.12.94.19,1.42-1.61.21-3.22.45-4.82.72-.4-2.41-.81-4.82-1.22-7.24Z"/>
      <path class="cls-6" d="M132.54,65.64c.59-.05,1.17-.09,1.76-.14.18,2.44.36,4.88.53,7.32-.53.04-1.06.08-1.59.12-1.38-1.49-2.79-2.96-4.26-4.4.18,1.59.35,3.17.53,4.76-.55.06-1.11.13-1.66.19-.3-2.43-.6-4.85-.9-7.28.54-.07,1.09-.13,1.64-.19,1.5,1.45,2.96,2.92,4.37,4.42-.14-1.6-.27-3.2-.41-4.8Z"/>
      <path class="cls-6" d="M140.01,65.2c.59-.02,1.17-.03,1.76-.05.03,1.56.06,3.12.1,4.69,0,.37-.07.72-.22,1.06-.16.34-.37.64-.64.91-.27.26-.59.48-.96.64-.37.16-.76.25-1.19.27-.42.02-.82-.04-1.2-.17-.38-.13-.72-.32-1.01-.56-.29-.24-.53-.52-.71-.85-.18-.33-.29-.67-.31-1.04-.1-1.56-.2-3.12-.31-4.68.59-.04,1.17-.07,1.76-.1.08,1.46.16,2.91.23,4.37.01.21.06.4.14.58.08.18.19.34.33.47.13.14.29.24.47.31.18.07.36.11.55.1.2,0,.38-.06.55-.15.17-.09.31-.21.44-.35.12-.15.22-.31.29-.5.07-.18.1-.38.09-.59-.05-1.46-.1-2.92-.14-4.37Z"/>
      <path class="cls-6" d="M148.97,65.19c-.01.44-.03.88-.04,1.32-.2,0-.41-.01-.61-.02-.04,1.57-.08,3.13-.12,4.7.2,0,.39.01.59.02-.01.44-.03.88-.04,1.31-.95-.03-1.89-.05-2.84-.05,0-.44,0-.88.01-1.31.2,0,.39,0,.59,0,.02-1.57.04-3.13.06-4.7-.2,0-.41,0-.61,0,0-.44,0-.88.01-1.33,1,0,1.99.03,2.99.06Z"/>
      <path class="cls-6" d="M149.77,65.22c1.99.07,3.97.18,5.95.33-.04.47-.07.95-.11,1.42-.69-.05-1.38-.1-2.07-.14-.12,1.97-.24,3.93-.36,5.9-.56-.03-1.11-.06-1.67-.09.1-1.97.19-3.93.29-5.9-.69-.03-1.38-.06-2.08-.09.02-.48.03-.95.05-1.43Z"/>
      <path class="cls-6" d="M156.53,65.61c1.71.14,3.41.31,5.11.51-.06.47-.11.95-.17,1.42-1.11-.13-2.21-.25-3.32-.35-.04.44-.08.88-.12,1.32.97.09,1.93.19,2.9.3-.05.47-.11.95-.16,1.42-.95-.11-1.91-.21-2.87-.3-.05.57-.11,1.15-.16,1.72,1.07.1,2.15.21,3.22.34-.06.47-.11.95-.17,1.42-1.61-.19-3.23-.35-4.85-.48.2-2.44.4-4.88.6-7.31Z"/>
      <path class="cls-6" d="M169.87,67.31c.55.1,1.09.19,1.63.3-.46,2.4-.91,4.81-1.36,7.21-.55-.1-1.1-.2-1.65-.3.28-1.59.56-3.18.84-4.77-.77.69-1.54,1.4-2.29,2.1-.45-.07-.89-.14-1.34-.21-.51-.88-1.04-1.76-1.57-2.63-.22,1.58-.44,3.15-.65,4.73-.55-.08-1.11-.15-1.66-.22.3-2.43.61-4.85.92-7.28.55.07,1.11.14,1.66.22.77,1.24,1.51,2.49,2.23,3.74,1.06-.98,2.14-1.94,3.24-2.89Z"/>
      <path class="cls-6" d="M176.86,72.36c.27.24.45.51.55.81.1.3.1.62.02.96-.08.32-.23.6-.47.84-.23.24-.52.43-.88.58-.32.13-.66.21-1.03.24-.37.03-.75,0-1.14-.08-.39-.08-.75-.21-1.08-.39-.33-.17-.61-.39-.85-.65-.35-.37-.57-.78-.64-1.22.55-.12,1.11-.24,1.67-.35-.01.07,0,.16.02.27.03.11.09.23.18.34.09.12.21.23.37.33.16.1.37.18.62.24.2.04.39.06.55.05.17-.01.31-.04.43-.09.12-.05.22-.11.29-.19.08-.08.12-.17.15-.26.02-.11,0-.22-.05-.33-.06-.11-.16-.21-.31-.3-.27-.16-.56-.3-.87-.44-.31-.13-.61-.28-.9-.44-.29-.16-.55-.35-.78-.57-.23-.22-.4-.48-.5-.81-.09-.28-.11-.57-.05-.86.06-.32.21-.62.44-.89.23-.27.51-.48.85-.63.32-.14.67-.23,1.04-.26.37-.03.75,0,1.13.08.39.08.74.22,1.07.4.33.18.61.4.84.66.23.24.39.51.49.78-.49.16-.98.32-1.46.49-.11-.23-.27-.43-.48-.6-.21-.17-.46-.29-.75-.35-.4-.09-.74-.07-.99.04-.26.12-.41.31-.47.57-.03.12.01.24.12.36.1.12.24.24.42.35.18.12.39.23.62.34.23.11.46.22.69.33.23.11.44.22.64.33.2.11.36.22.47.32Z"/>
    </g>
    <path class="cls-9" d="M331.78,95.78s-1.11,52-.99,57c-23.03-2.37-72.13-5.52-101.45-1.72,0,0-1.33-54.52-1.28-55.98,22.89-3.63,74.39-2.54,103.72.7Z"/>
    <path class="cls-5" d="M237.34,90.33c2.22,2.27,5.83,3.3,5.83,3.3-3.79,2.94-12.61,11.07-16.56,15.35,0,0-5.19-3.08-5.3-3.21,3.08-3.75,16.03-15.44,16.03-15.44Z"/>
    <path class="cls-5" d="M320.62,155.25c-1.58-3.49-3.66-5.44-3.66-5.44,3.4-.85,13.82-5.79,17.5-7.89,0,0,2.19,5.39,2.27,5.58-2.91,2.05-16.1,7.75-16.1,7.75Z"/>
  </g>
</svg>