<?xml version="1.0" encoding="UTF-8"?>
<svg xmlns="http://www.w3.org/2000/svg" viewBox="0 0 89 103">
  <defs>
    <style>
      .cls-1 {
        fill: #00681d;
      }

      .cls-1, .cls-2, .cls-3, .cls-4, .cls-5, .cls-6, .cls-7, .cls-8 {
        stroke-width: 0px;
      }

      .cls-9, .cls-8 {
        mix-blend-mode: multiply;
        opacity: .2;
      }

      .cls-10 {
        isolation: isolate;
      }

      .cls-2, .cls-8 {
        fill: #bf3c3c;
      }

      .cls-3 {
        fill: #115b28;
      }

      .cls-4 {
        fill: #f44242;
      }

      .cls-5 {
        fill: #0b874f;
      }

      .cls-6 {
        fill: #fff;
      }

      .cls-7 {
        fill: #ff6464;
      }
    </style>
  </defs>
  <g class="cls-10">
    <g id="Layer_2" data-name="Layer 2">
      <g id="Layer_1-2" data-name="Layer 1">
        <g>
          <path class="cls-2" d="M3,22.17l.9,61.55c.13,8.81,6.73,16.24,15.56,17.48,16.75,2.36,33.72,2.43,50.91.04,8.96-1.25,15.62-8.82,15.62-17.75V22.04c0-10.74-9.51-18.94-20.32-17.74-13.89,1.55-28.02,1.43-42.37-.19C12.4,2.89,2.84,11.32,3,22.17Z"/>
          <path class="cls-8" d="M86,31c-27.88,5.19-55.55,5.27-83,0V15h83v16Z"/>
          <path class="cls-3" d="M89,17.14c0,3.36-2.56,5.84-5.83,6.64-13.17,3.23-26.23,3.23-39.17,3.23s-25,0-37.87-3.18c-3.43-.85-6.13-3.45-6.13-6.99v-7.83h89v8.14Z"/>
          <ellipse class="cls-5" cx="44.5" cy="9.34" rx="44.5" ry="9.34"/>
          <path class="cls-6" d="M72,82.8c-18,2.59-36,2.59-54,0v-47.8c17.78,2.37,35.78,2.32,54,0v47.8Z"/>
          <path class="cls-4" d="M63.05,60.84c.87,7-4.26,12.74-15.26,15.2-9.07,2.02-17.96-3.49-18.57-11.57-.57-7.59,6.02-14.24,15.24-15.38,9.23-1.14,17.6,3.71,18.59,11.74Z"/>
          <g class="cls-9">
            <path class="cls-7" d="M44.3,52.47c3.73-3.81,12-1.17,14.62,2.54,3.33,3.65,1.01,8.36-.13,7.2-2-.73-5.64-3.42-11.34-2.53-5.57,2.15-8.35-2.57-3.14-7.21Z"/>
          </g>
          <polygon class="cls-1" points="37.56 54.36 42.21 61.04 44.82 52.02 59.48 51.73 51.62 49.8 53.68 44.37 43.88 48.34 35.92 47.91 36.5 50.21 26.38 56.72 37.56 54.36"/>
        </g>
      </g>
    </g>
  </g>
</svg>