<?xml version="1.0" encoding="UTF-8"?>
<svg id="Layer_2" data-name="Layer 2" xmlns="http://www.w3.org/2000/svg" viewBox="0 0 104 33.06">
  <defs>
    <style>
      .cls-1 {
        fill: #71c5ff;
        stroke: #281510;
        stroke-miterlimit: 10;
        stroke-width: 3px;
      }

      .cls-2 {
        fill: #111;
        stroke-width: 0px;
      }
    </style>
  </defs>
  <g id="Layer_3" data-name="Layer 3">
    <path class="cls-1" d="M102.5,2.45c0,13.94-1,28.94-1,28.94-19.74-2.37-74.88-2.32-99-1,0,0-1.06-27.07-1-27.81,20-2.33,101-.12,101-.12Z"/>
    <g>
      <path class="cls-2" d="M15.09,11.35c2.69-.12,5.38-.23,8.08-.33.03.71.05,1.42.08,2.14-.95.03-1.89.07-2.84.11.11,2.95.23,5.9.34,8.84-.79.03-1.57.06-2.36.1-.12-2.95-.25-5.9-.37-8.84-.95.04-1.89.08-2.84.12-.03-.71-.06-1.42-.1-2.14Z"/>
      <path class="cls-2" d="M30.55,10.8c.8-.02,1.59-.04,2.39-.06.05,2.34.11,4.68.16,7.02.01.55-.09,1.08-.31,1.59-.22.51-.52.96-.9,1.35-.39.39-.84.71-1.35.95-.52.24-1.07.37-1.67.39-.59.02-1.15-.08-1.69-.29-.54-.21-1-.5-1.4-.87-.4-.37-.73-.8-.97-1.3-.25-.5-.38-1.02-.4-1.57-.08-2.34-.16-4.68-.24-7.02.8-.03,1.59-.05,2.39-.08.07,2.18.14,4.37.2,6.55.01.31.07.6.18.87.11.27.26.51.44.72.18.21.4.37.64.48.25.12.5.17.77.16.28,0,.53-.08.77-.21.23-.13.44-.3.61-.52.18-.22.31-.46.41-.74.1-.28.14-.57.13-.88-.06-2.18-.11-4.37-.17-6.55Z"/>
      <path class="cls-2" d="M33.93,10.71c2.69-.06,5.39-.1,8.08-.14,0,.71.02,1.43.03,2.14-.95.01-1.89.02-2.84.04.05,2.95.09,5.9.14,8.85-.79.01-1.57.02-2.36.04-.05-2.95-.11-5.9-.16-8.85-.95.02-1.89.04-2.84.06-.02-.71-.03-1.43-.05-2.14Z"/>
      <path class="cls-2" d="M48.36,10.37c.76,0,1.47.14,2.14.44.67.3,1.25.71,1.75,1.22.5.52.89,1.12,1.17,1.8.29.68.43,1.41.42,2.19,0,.76-.15,1.49-.43,2.18-.29.69-.68,1.3-1.17,1.81-.49.52-1.07.93-1.73,1.23-.66.31-1.36.46-2.11.46-.74,0-1.45-.15-2.11-.45-.66-.3-1.24-.71-1.73-1.22-.49-.51-.88-1.11-1.18-1.8-.29-.69-.44-1.42-.45-2.18,0-.78.13-1.51.41-2.19.28-.69.66-1.29,1.15-1.81.49-.52,1.06-.93,1.73-1.24.67-.3,1.38-.46,2.14-.46ZM48.41,19.38c.42,0,.82-.09,1.19-.27.37-.18.7-.42.98-.72.28-.3.5-.66.66-1.06.16-.4.24-.84.24-1.3,0-.46-.08-.9-.24-1.31-.16-.41-.38-.76-.67-1.07-.28-.3-.61-.54-.98-.72-.38-.18-.78-.26-1.21-.26-.43,0-.83.09-1.2.27-.38.18-.7.42-.98.73-.28.31-.5.66-.65,1.07-.16.41-.24.85-.23,1.31,0,.46.09.9.25,1.3.16.4.39.75.67,1.06.28.3.61.54.98.71.37.17.77.26,1.2.26Z"/>
      <path class="cls-2" d="M63.1,13.87c0,.35-.06.68-.16,1-.1.31-.25.6-.43.86-.18.26-.4.49-.65.69-.25.2-.53.36-.82.48,1.2,1.57,2.4,3.14,3.59,4.72-.91-.01-1.83-.03-2.74-.04-1.11-1.49-2.23-2.98-3.36-4.47-.35,0-.71,0-1.06,0-.01,1.48-.02,2.96-.03,4.43-.79,0-1.57-.01-2.36-.01.02-3.66.03-7.33.05-10.99,1.6,0,3.21.02,4.81.03.44,0,.86.09,1.25.27.39.17.73.41,1.01.71.28.3.51.65.67,1.05.16.4.24.83.23,1.28ZM59.59,14.98c.3,0,.56-.11.79-.33.22-.22.33-.49.34-.81,0-.31-.1-.58-.32-.8-.22-.22-.48-.34-.78-.34-.71,0-1.41-.01-2.12-.02,0,.76-.01,1.52-.02,2.28.7,0,1.41.01,2.11.02Z"/>
      <path class="cls-2" d="M69.98,10.73c-.01.66-.03,1.32-.04,1.98-.28,0-.55-.01-.83-.02-.05,2.35-.1,4.69-.15,7.04.27,0,.55.01.82.02-.02.66-.03,1.31-.05,1.97-1.33-.03-2.67-.06-4-.08.01-.66.02-1.31.04-1.97.27,0,.55,0,.82.01.04-2.35.09-4.69.13-7.04-.28,0-.55,0-.83-.01.01-.66.02-1.32.03-1.98,1.35.02,2.7.05,4.06.08Z"/>
      <path class="cls-2" d="M78.29,10.96c1.43,3.71,2.84,7.43,4.22,11.15-.85-.03-1.69-.06-2.54-.09-.3-.8-.61-1.59-.91-2.39-1.56-.05-3.12-.1-4.68-.15-.35.78-.7,1.55-1.04,2.33-.85-.02-1.71-.04-2.56-.07,1.62-3.63,3.26-7.25,4.92-10.86.86.03,1.73.05,2.59.08ZM78.25,17.46c-.44-1.17-.89-2.33-1.34-3.5-.52,1.14-1.04,2.27-1.56,3.41.97.03,1.93.06,2.9.09Z"/>
      <path class="cls-2" d="M86.04,20.12c1.51.07,3.01.13,4.52.21-.03.71-.07,1.42-.1,2.14-2.29-.11-4.58-.21-6.86-.31.15-3.66.29-7.32.44-10.98.8.03,1.59.07,2.39.1-.13,2.95-.26,5.89-.38,8.84Z"/>
    </g>
  </g>
</svg>